<?xml version="1.0" encoding="utf-8"?>
<!-- Generator: Adobe Illustrator 23.0.1, SVG Export Plug-In . SVG Version: 6.00 Build 0)  -->
<svg version="1.1" id="Слой_1" xmlns="http://www.w3.org/2000/svg" xmlns:xlink="http://www.w3.org/1999/xlink" x="0px" y="0px"
	 viewBox="0 0 657 423" style="enable-background:new 0 0 657 423;" xml:space="preserve">
<style type="text/css">
	.st0{fill:#925F35;}
	.st1{display:none;}
	.st2{display:inline;fill:url(#SVGID_1_);}
	.st3{fill:#F4AB7A;}
	.st4{display:inline;}
	.st5{display:inline;fill:#FFEC00;}
	.st6{fill:none;}
	.st7{display:inline;fill:none;}
	.st8{fill:#C45626;}
	.st9{display:inline;fill:none;stroke:#C45626;stroke-width:3;stroke-miterlimit:10;}
	.st10{fill:#441B00;}
	.st11{display:inline;fill:#441B00;}
	.st12{display:inline;stroke:#5E2615;stroke-miterlimit:10;}
	.st13{fill:#FFFFFF;}
	.st14{display:none;fill:none;stroke:#441B00;stroke-miterlimit:10;}
	.st15{fill:#301002;}
	.st16{fill:#C64747;}
</style>
<path class="st0" d="M652.4,310.9V33.2c0-17-13.8-30.7-30.7-30.7H34C17,2.5,3.3,16.3,3.3,33.2v354.4c0,17,13.8,30.7,30.7,30.7h510.9
	L652.4,310.9z"/>
<g class="st1">
	<linearGradient id="SVGID_1_" gradientUnits="userSpaceOnUse" x1="293.4558" y1="458.7309" x2="291.0316" y2="124.183">
		<stop  offset="0" style="stop-color:#A915FF"/>
		<stop  offset="3.897548e-03" style="stop-color:#A915FE"/>
		<stop  offset="0.3748" style="stop-color:#CE20A0"/>
		<stop  offset="0.6752" style="stop-color:#E8285A"/>
		<stop  offset="0.8905" style="stop-color:#F92D2F"/>
		<stop  offset="1" style="stop-color:#FF2F1F"/>
	</linearGradient>
	<path class="st2" d="M341.4,178H206.1c-8.3,0-15,5.2-15,11.6v220.9c0,6.4,6.7,11.6,15,11.6h172.7c8.3,0,15-5.2,15-11.6v-192
		L341.4,178z"/>
</g>
<path class="st3" d="M415.9,282.5V74.9c0-12.7-7.9-23-17.7-23h-339c-9.8,0-17.7,10.3-17.7,23v265c0,12.7,7.9,23,17.7,23h294.7
	L415.9,282.5z"/>
<g class="st1">
	<path class="st4" d="M335.2,197l44.6,34.4V397c0,5-5.4,9-11.9,9H218.6c-6.6,0-11.9-4-11.9-9V206c0-5,5.4-9,11.9-9H335.2 M335.5,196
		h-117c-7.2,0-12.9,4.5-12.9,10v191c0,5.5,5.8,10,12.9,10h149.3c7.2,0,12.9-4.5,12.9-10V231L335.5,196L335.5,196z"/>
</g>
<g class="st1">
	<path class="st5" d="M341.2,377.5h-96c-6.6,0-12-5.4-12-12v-128c0-6.6,5.4-12,12-12h96c6.6,0,12,5.4,12,12v128
		C353.2,372.1,347.8,377.5,341.2,377.5z"/>
</g>
<g class="st1">
	<g class="st4">
		<g>
			<g>
				<path class="st6" d="M206.3,176.7c0,33.9,0,67.7,0,101.6c0,0,0.1,15.3,15.4,15.3c7.9,0,15.8,0,23.8,0l10.5-0.2v-22.2v153.2"/>
			</g>
		</g>
		<g>
			<path class="st6" d="M256,277.9c0-33.6,0-67.3,0-100.9c0,25.8,0,51.7,0,77.5"/>
		</g>
	</g>
	<polyline class="st7" points="285.6,175.5 304.5,265.5 330.8,176.7 258,423.5 	"/>
	<polyline class="st7" points="346.3,179.3 346.3,422.5 346.5,290.5 396.5,404.5 346.5,292.5 394.5,211.5 	"/>
</g>
<g class="st1">
	<g class="st4">
		<g>
			<g>
				<g>
					<path class="st8" d="M204.8,176.7c0,19.9,0,39.8,0,59.8c0,9.3,0,18.6,0,27.9c0,5.3-0.6,10.8,0.2,16.1
						c1.1,7.6,6.3,13.5,14.1,14.5c8.6,1.1,17.9,0.2,26.5,0.2c3.5,0,6.9-0.1,10.4-0.2c0.8,0,1.5-0.7,1.5-1.5c0-7.4,0-14.8,0-22.2
						c0-1.9-3-1.9-3,0c0,44.6,0,89.3,0,133.9c0,6.4,0,12.8,0,19.3c0,1.9,3,1.9,3,0c0-44.6,0-89.3,0-133.9c0-6.4,0-12.8,0-19.3
						c0-1.9-3-1.9-3,0c0,7.4,0,14.8,0,22.2c0.5-0.5,1-1,1.5-1.5c-10.8,0.2-21.5,0.2-32.3,0.2c-8.9-0.1-15.3-4.4-15.9-13.7
						c-0.9-15.9,0-32.1,0-48c0-17.9,0-35.9,0-53.8C207.8,174.8,204.8,174.8,204.8,176.7L204.8,176.7z"/>
				</g>
			</g>
		</g>
		<g>
			<g>
				<path class="st8" d="M257.5,277.9c0-33.6,0-67.3,0-100.9c-1,0-2,0-3,0c0,25.8,0,51.7,0,77.5c0,1.9,3,1.9,3,0
					c0-25.8,0-51.7,0-77.5c0-1.9-3-1.9-3,0c0,33.6,0,67.3,0,100.9C254.5,279.8,257.5,279.8,257.5,277.9L257.5,277.9z"/>
			</g>
		</g>
	</g>
	<polyline class="st9" points="285.6,175.5 304.5,265.5 330.8,176.7 258,423.5 	"/>
	<polyline class="st9" points="346.3,179.3 346.3,422.5 346.5,290.5 396.5,404.5 346.5,292.5 394.5,211.5 	"/>
</g>
<g class="st1">
	<g class="st4">
		<path class="st10" d="M254.6,217.7c0,15.3,0,30.6,0,45.9c0,1.9,3,1.9,3,0c0-15.3,0-30.6,0-45.9
			C257.6,215.7,254.6,215.7,254.6,217.7L254.6,217.7z"/>
	</g>
</g>
<g class="st1">
	<path class="st11" d="M247.6,238.5c0,38.3,0,76.6,0,115c0,10.7,15,10.7,15,0c0-38.3,0-76.6,0-115
		C262.6,227.8,247.6,227.8,247.6,238.5L247.6,238.5z"/>
	<path class="st11" d="M246,277.7c-6.3,0.5-12.7,0.5-19-0.2c-2.6-0.3-12.9-0.7-12.8-4.8c0.2-10.7-14.8-10.7-15,0
		c-0.5,24,32.3,22.8,46.8,21.6C255.6,293.5,255.6,277,246,277.7L246,277.7z"/>
	<path class="st11" d="M213.5,270.9c0-10.8,0-21.6,0-32.4c0-10.7-15-10.7-15,0c0,10.8,0,21.6,0,32.4
		C198.5,281.6,213.5,281.6,213.5,270.9L213.5,270.9z"/>
	<path class="st11" d="M297.2,245.6c5.7,0,11.4,0,17.1,0c9.7,0,9.7-16.6,0-16.6c-5.7,0-11.4,0-17.1,0
		C287.5,229,287.5,245.6,297.2,245.6L297.2,245.6z"/>
	<path class="st11" d="M296.3,246.4c3.6,7.7-0.7,16.8-3.6,23.9c-3.4,8.5-5.8,16.7-7,26c-1.2,9.1-2.2,18.1-4.6,26.9
		c-2.5,9.2-5.9,18-9.2,26.8c-1.6,4.2,1.7,9.1,5.2,10.2c4.3,1.4,7.7-1.7,9.2-5.8c3.6-9.4,7.2-18.9,9.7-28.8c2.6-10.2,3.2-20.6,5-30.9
		c3.3-19.4,17.5-36.5,8.2-56.7C304.8,228.5,291.9,236.9,296.3,246.4L296.3,246.4z"/>
	<path class="st11" d="M343.6,247.5c5.2-0.2,10.5-0.5,15.6,0.5c5.2,1.1,9.9,4,15.3,3.5c9.5-1,9.6-17.6,0-16.6
		c-4.8,0.5-10.2-2.8-15-3.5c-5.3-0.8-10.6-0.7-15.9-0.5C334,231.2,333.9,247.8,343.6,247.5L343.6,247.5z"/>
	<path class="st11" d="M361.9,243.9c-1,3.5-2.9,10-6.2,11.7c1.9-0.3,3.9-0.6,5.8-0.8c-1.1-0.2-3.9-8.4-4.3-9.6c-2-6-8.1-8-12.5-3.7
		c-5.1,4.9-6.1,14.9-7.6,21.8c-1.4,6.9-3.5,16.9,1.6,22.7c5.7,6.4,13.2,0.7,17-5c2-2.9,3.4-6.1,4.6-9.6c0.7-2.2,1.4-4.4,2-6.6
		c0.3-0.9,0.6-1.9,0.9-2.8c1.1-2.2,0.8-2.3-0.9-0.1c-1.9,0.3-3.9,0.6-5.8,0.8c-2.8-6-4.1-6.9-3.8-2.9c0,0.7,0,1.4-0.1,2.1
		c-0.1,2-0.2,4-0.4,6c-0.5,3.5-1.4,7.1-3.4,10c-1.7,2.4-4.4,3.5-6.1,6c-2.2,3.2-2.7,7.6-3.6,11.3c-2.4,10.3,12,14.7,14.5,4.4
		c0.3-1.4,0.7-2.8,1-4.3c0.9-2.5,0.7-2.8-0.4-0.8c1.2-1.2,2.7-2.1,3.9-3.3c2.6-2.7,4.6-6.2,6.1-9.8c3-7.4,4.7-17.7,3.4-25.8
		c-1.4-9-11.3-12.5-16.2-4.5c-2.1,3.5-3.1,8.2-4.3,12.1c-0.7,2.2-2.1,8.6-4.4,9.3c1.9,0.3,3.9,0.6,5.8,0.8c1.8,3.1,2.5,3.3,2.1,0.5
		c0.1-1.1,0.3-2.2,0.5-3.4c0.3-1.9,0.8-3.8,1.2-5.8c0.6-2.9,1.1-9.8,3.1-11.6c-4.2-1.2-8.4-2.4-12.5-3.7c2.8,8.2,7.8,22.8,17.8,21.4
		c8.5-1.3,13.7-14.7,15.8-22.6C379.1,238.1,364.6,233.7,361.9,243.9L361.9,243.9z"/>
	<path class="st11" d="M341,307.4c1.4,1.6,2.8,3.1,4.3,4.7c1.4,1.5,3.4,2.4,5.3,2.4c1.8,0,4-0.9,5.3-2.4c1.3-1.6,2.3-3.7,2.2-5.9
		c-0.1-2.2-0.8-4.3-2.2-5.9c-1.4-1.6-2.8-3.1-4.3-4.7c-1.4-1.5-3.4-2.4-5.3-2.4c-1.8,0-4,0.9-5.3,2.4c-1.3,1.6-2.3,3.7-2.2,5.9
		C338.9,303.8,339.5,305.8,341,307.4L341,307.4z"/>
	<path class="st11" d="M339.4,303.2c1,7.9-1.6,16-1.7,23.9c-0.1,8.3,2.1,16.4,4.4,24.3c2.9,10.1,17.4,5.8,14.5-4.4
		c-2.3-7.9-4.3-15.4-3.6-23.8c0.7-8.4,2.1-16,1-24.4c-0.6-4.4-5.7-6.9-9.2-5.8C340.3,294.3,338.8,298.7,339.4,303.2L339.4,303.2z"/>
	<path class="st11" d="M348.2,309.5c2.2,2.4,2.2,6.6,2.9,9.7c1,4.6,2.8,8.5,5.1,12.4c0.9,1.6,2.2,3.3,2.6,5.1
		c0.5,2.1,0.1,4.4,0.5,6.5c0.9,5.5,3.8,9,8.5,10.9c9.1,3.7,13-12.3,4-16c1.9,2.9,2.7,2.9,2.2,0.2c0-1.4-0.1-2.7-0.3-4.1
		c-0.4-2.2-1-4.3-1.9-6.4c-1.5-3.3-3.8-6.1-5.1-9.4c-2.9-7.3-2.3-14.7-7.8-20.8C352,290.2,341.4,301.9,348.2,309.5L348.2,309.5z"/>
</g>
<g class="st1">
	<g>
		<path class="st12" d="M304.6,261.3l-7-33.5c-0.1,0-0.2,0.1-0.3,0.1l-2.6,0.7l8.1,38.9L286,325.4l2.8,1.1L318,226.3l-2.7-1.3
			L304.6,261.3z"/>
		<path class="st12" d="M380.5,238c-0.1-0.1-0.3-0.1-0.4-0.2l-2.1-1.5l-30.3,51.1v-59.5h-3v103.9h3.2l0.1-32.3l15.6,35l3.1-1.6
			l-18-41.1L380.5,238z"/>
		<path class="st12" d="M257.5,293.4c0-1,0-1.9,0-2.9c0-4.1,0-8.2,0-12.4c0-0.1,0-0.2,0-0.3c0-7.8,0-15.6,0-23.4c0-3.2,0-6.3,0-9.5
			h-3c0,3.2,0,6.3,0,9.5c0,5.5,0,11,0,16.5c0,0.1,0,0.2,0,0.3c0,6.9,0,13.8,0,20.7c-10.3,0.2-20.5,0.2-30.8,0.2
			c-8.9-0.1-15.3-4.4-15.9-13.7c-0.7-11.1-0.4-22.3-0.2-33.5h-2.8c0,6.4,0,12.9,0,19.3c0,5.3-0.6,10.9,0.2,16.1
			c1.1,7.6,6.3,13.5,14.1,14.5c8.6,1.1,17.9,0.2,26.5,0.2c3,0,5.9-0.1,8.9-0.1c0,10.4,0,20.9,0,31.3h3
			C257.5,315.3,257.5,304.4,257.5,293.4z"/>
	</g>
	<path class="st13" d="M266.5,245c1.4,0,2.5-1.1,2.5-2.5v-69c0-1.4-1.1-2.5-2.5-2.5h-23c-1.4,0-2.5,1.1-2.5,2.5v69
		c0,1.4,1.1,2.5,2.5,2.5h11h3H266.5z"/>
	<path class="st13" d="M299.2,228.2c1.2-0.4,1.9-1.7,1.6-2.9l-11.4-49.8c-0.3-1.3-1.7-2.2-3-1.9l-7.6,1.7c-1.3,0.3-2.2,1.7-1.9,3
		l11.4,49.8c0.3,1.3,1.7,2.2,3,1.9l4.7-1.1l3-0.7C299,228.3,299.1,228.3,299.2,228.2z"/>
	<path class="st13" d="M351.8,227.9c1.4,0,2.5-1.1,2.5-2.5v-51.1c0-1.4-1.1-2.5-2.5-2.5H344c-1.2,0-2.3,0.9-2.5,2.1l-3.6-1.5
		c-1.3-0.5-2.7,0.1-3.3,1.4L315.2,221c-0.5,1.3,0.1,2.7,1.4,3.3l2.7,1.1l3.1,1.3l1.4,0.6c1.3,0.5,2.7-0.1,3.3-1.4l14.4-34.9v34.4
		c0,1.4,1.1,2.5,2.5,2.5h0.8h3H351.8z"/>
	<path class="st13" d="M342,331.9c-1.4,0-2.5,1.1-2.5,2.5v89.1c0,1.4,1.1,2.5,2.5,2.5h7.8c1.4,0,2.5-1.1,2.5-2.5v-89.1
		c0-1.4-1.1-2.5-2.5-2.5h-1.9h-3.2H342z"/>
	<path class="st13" d="M360.9,335.9c-1.2,0.6-1.7,2.1-1.1,3.4l40.8,79.3c0.6,1.2,2.1,1.7,3.4,1.1l6.9-3.6c1.2-0.6,1.7-2.1,1.1-3.4
		l-40.8-79.3c-0.6-1.2-2.1-1.7-3.4-1.1l-1.1,0.6l-3.1,1.6L360.9,335.9z"/>
	<path class="st13" d="M380.5,238c1.1,0.5,2.4,0.2,3.1-0.8l30.1-43.1c0.8-1.1,0.5-2.7-0.6-3.5l-6.4-4.5c-1.1-0.8-2.7-0.5-3.5,0.6
		l-30.1,43.1c-0.8,1.1-0.5,2.7,0.6,3.5l4.3,3l2.1,1.5C380.3,237.9,380.4,237.9,380.5,238z"/>
	<path class="st13" d="M282.7,324.2c-1.3-0.5-2.7,0.2-3.2,1.5l-17.1,47.6v-44.5c0-1.4-1.1-2.5-2.5-2.5h-2.4h-3h-2.4
		c-1.4,0-2.5,1.1-2.5,2.5v80.1l-5.2,14.4c-0.5,1.3,0.2,2.7,1.5,3.2l3.7,1.3v4.7c0,1.4,1.1,2.5,2.5,2.5h7.8c1.4,0,2.5-1.1,2.5-2.5
		v-21.4l29.2-81.2c0.5-1.3-0.2-2.7-1.5-3.2l-0.9-0.3l-3.1-1.1L282.7,324.2z"/>
	<path class="st13" d="M217.5,245c1.4,0,2.5-1.1,2.5-2.5v-69c0-1.4-1.1-2.5-2.5-2.5h-23c-1.4,0-2.5,1.1-2.5,2.5v69
		c0,1.4,1.1,2.5,2.5,2.5h10.3h2.8H217.5z"/>
</g>
<path class="st14" d="M221.5,293.5"/>
<g>
	<path class="st15" d="M120.4,145.7h-3.9l-29.5-37.2v29.1c0,1.9,0.6,3.2,1.7,3.9c1.1,0.7,3.5,1.1,7.3,1.1h5.6v3.1H65.9v-3.1h6.1
		c3.3,0,5.5-0.4,6.6-1.1c1.1-0.7,1.6-2.1,1.6-3.9v-23.1c0-1.7-0.5-2.9-1.5-3.6c-1-0.7-3.2-1.1-6.8-1.1h-6.1v-3.1h34.7l22.5,28.1
		l23.8-28.1h35.8v3.1h-8.5c-4.9,0-7.3,1.2-7.3,3.5v26.5c0,1.9,2.1,2.8,6.3,2.8h9.2v3.1h-46v-3.1h8.5c4.9,0,7.4-1.2,7.4-3.5v-30.3
		L120.4,145.7z"/>
	<path class="st15" d="M277.9,141.5l3.1,2.3c-4.2,2.1-8.9,3.1-14,3.1c-3.9,0-7.2-0.5-9.9-1.5c-2.7-1-5-2.8-7-5.4
		c-5.5,2.8-10.3,4.6-14.4,5.6c-4.1,0.9-9.1,1.4-14.9,1.4c-8.3,0-14.6-0.9-18.9-2.6c-4.3-1.7-6.5-3.9-6.5-6.6
		c0-4.1,4.9-7.4,14.8-10.1s23-4.5,39.3-5.3v-5.9c0-2.1-1.7-3.9-5.3-5.4c-3.5-1.5-8-2.3-13.4-2.3c-5,0-9.3,0.5-12.9,1.5
		c-2.6,0.8-3.9,1.5-3.9,2.2c0,0.4,0.7,1.1,2.1,2c1.7,1.1,2.5,2.1,2.5,3c0,1.2-0.8,2.3-2.5,3.1c-1.7,0.8-3.8,1.2-6.6,1.2
		c-2.9,0-5.3-0.5-7.2-1.4c-1.9-0.9-2.9-2.2-2.9-3.6c0-2.7,3.2-5.3,9.6-7.5c6.4-2.3,14.8-3.4,25.2-3.4c9.6,0,16.9,1,22,3
		c5.1,2,7.6,4.5,7.6,7.4v21.3c0,1.9,0.6,3.3,1.9,4.2c1.3,0.9,2.9,1.4,4.9,1.4C273.1,142.8,275.4,142.3,277.9,141.5z M249.6,125
		c-14.6,1-24.9,2.6-31,4.7c-4.5,1.7-6.8,4-6.8,7.1c0,2.1,1.2,3.8,3.5,5c2.4,1.2,5.4,1.8,9.2,1.8c6.8,0,12.7-1.2,17.6-3.7
		c5-2.5,7.5-5.6,7.5-9.3L249.6,125L249.6,125z"/>
	<path class="st15" d="M293.5,120.6H287l2-13.9h77.9l2,13.9h-6.5c-1.8-4.7-4.3-7.7-7.3-8.9c-3.1-1.2-6.8-1.9-11.3-1.9h-9v30
		c0,1.9,2.1,2.8,6.3,2.8h9.1v3.1h-45.9v-3.1h8.5c4.9,0,7.4-1.2,7.4-3.5v-29.3h-8.1c-5.1,0-9.1,0.7-11.9,2.2
		C297.3,113.5,295.1,116.4,293.5,120.6z"/>
	<path class="st15" d="M65.9,204.9v-3.1h8.6c4.9,0,7.4-1.2,7.4-3.6v-26.5c0-1.8-2.1-2.7-6.2-2.7h-9.2v-3.1h45.4
		c8.3,0,14.6,0.3,18.7,0.8c4.1,0.5,7.6,1.6,10.4,3.1c2.8,1.6,4.3,3.5,4.3,5.7c0,2.8-2.3,5-6.9,6.6s-9.8,2.5-15.6,2.6
		c17.2,1.2,25.9,4.5,25.9,10.1c0,6.7-11.2,10-33.7,10H65.9z M96.4,183.4h11.9c14,0,21.1-2.3,21.1-7c0-4.9-6.4-7.3-19.1-7.3h-5.1
		c-5.8,0-8.8,1.2-8.8,3.5L96.4,183.4L96.4,183.4z M96.4,186.5v11.7c0,1.3,0.5,2.2,1.6,2.7c1.1,0.6,3,0.8,5.7,0.8h7
		c9,0,14.8-0.7,17.4-2c2.6-1.3,3.9-3.1,3.9-5.2c0-5.4-7-8.1-20.9-8.1L96.4,186.5L96.4,186.5z"/>
	<path class="st15" d="M231.8,172.5v-1.6c-0.5-1.3-2.5-1.9-6.2-1.9h-9.2v-3.1h45.4v3.1h-8.2c-4.9,0-7.3,1.2-7.3,3.5V199
		c0,1.9,2.1,2.8,6.3,2.8h9.2v3.1h-45.9v-3.1h8.5c4.9,0,7.3-1.2,7.3-3.5v-21.4l-40.6,20.6v1.5c0,1.9,2.1,2.8,6.2,2.8h9.4v3.1h-46
		v-3.1h8.5c4.9,0,7.3-1.2,7.3-3.5v-26.5c0-1.9-2.1-2.8-6.2-2.8h-9.2v-3.1h45.5v3.1h-8.3c-4.9,0-7.3,1.2-7.3,3.5v20.7L231.8,172.5z"
		/>
	<path class="st15" d="M363.1,169h8.2v-3.1h-45.4v3.1h9.2c3.7,0,5.7,0.6,6.2,1.9v1.6l-40.6,20.7v-20.7c0-2.4,2.4-3.5,7.3-3.5h8.3
		v-3.1h-45.5v3.1h9.2c4.1,0,6.2,0.9,6.2,2.8v26.5c0,2.3-2.4,3.5-7.3,3.5h-8.5v3.1h46v-3.1h-9.4c-4.1,0-6.2-0.9-6.2-2.8v-1.5
		l40.6-20.6v21.4c0,2.3-2.4,3.5-7.3,3.5h-8.5v3.1h45.9v-3.1h-9.2c-4.2,0-6.3-0.9-6.3-2.8v-26.4C355.8,170.1,358.2,169,363.1,169z"/>
	<g>
		<path class="st16" d="M72.5,228.9v-5.2h42.8v5.2h-7.1c-4.9,0-7.3,1.9-7.3,5.8v11c0,4.1,1.4,7.2,4.1,9.3c2.7,2.2,6.4,3.3,10.9,3.3
			c3.7,0,7.6-0.8,12-2.5c4.3-1.7,7.9-3.7,10.7-6.3v-16c0-3.1-2.1-4.7-6.3-4.7h-7v-5.2h43.4v5.2h-8.2c-4.9,0-7.4,1.9-7.4,5.8v44.6
			c0,3.1,2.1,4.7,6.3,4.7h9.3v5.2h-46v-5.2h8.5c4.9,0,7.3-2,7.3-5.9V255c-8.6,6.8-17.7,10.2-27.4,10.2c-6.1,0-11.8-1.4-17-4.3
			c-5.2-2.8-7.8-8.4-7.8-16.8v-10.6c0-3.1-2.1-4.7-6.3-4.7L72.5,228.9L72.5,228.9z"/>
		<path class="st16" d="M176.9,223.6h38.7v4.8H212c-3.4,0-5.7,0.4-6.9,1.1c-1.2,0.7-1.8,1.8-1.8,3.1c0,0.6,0.2,1.2,0.5,1.8
			l22.5,39.4l16.7-32.7c1.2-2.3,1.8-4.6,1.8-6.9c0-1.7-0.8-3.1-2.5-4c-1.7-1-5-1.6-10-1.8v-4.8h33.6v4.8c-6.5,0.5-10.9,2.9-13.1,7.1
			l-29.9,56.4c-5.1,9.6-10.2,16.2-15.3,19.8c-5.2,3.6-10.7,5.5-16.6,5.5c-4.3,0-7.8-1-10.4-2.9c-2.6-1.9-3.9-4.3-3.9-7.1
			c0-2.1,0.8-3.8,2.4-5.2c1.6-1.4,3.6-2,6-2c2.2,0,4,0.6,5.5,1.7c1.5,1.2,2.2,2.6,2.2,4.2c0,0.5-0.1,1.2-0.3,2.1
			c-0.2,0.7-0.3,1.2-0.3,1.5c0,1.1,0.9,1.7,2.7,1.7c1.9,0,4-0.6,6.4-1.7c2.4-1.1,4.6-2.9,6.7-5.4c2.1-2.5,5.7-7.9,10.9-16.4
			l-30.7-53.3c-1.1-1.9-2.5-3.3-4.1-4.2c-1.6-0.9-4-1.5-7.2-1.8L176.9,223.6L176.9,223.6z"/>
		<path class="st16" d="M317.7,283.9v5.2h-45.9v-5.2h9.1c4.6,0,6.9-1.6,6.9-4.8v-45.6c0-3.1-2.1-4.7-6.3-4.7h-9.2v-5.2h45.3v5.2
			h-8.1c-4.9,0-7.4,1.9-7.4,5.8v19h9.8c5.9,0,10.2-1,12.9-2.9c2.7-1.9,4.7-5.7,6.1-11.4c1.1-4.7,2.2-7.9,3.2-9.8
			c1-1.8,2.8-3.5,5.4-4.9c2.6-1.4,5.7-2.2,9.2-2.2c4.8,0,8.4,1.3,10.9,3.9c2.5,2.6,3.7,5.3,3.7,8.1c0,2.2-0.8,4.1-2.4,5.6
			c-1.6,1.5-3.9,2.3-6.9,2.3c-2.8,0-4.9-0.7-6.3-2c-1.4-1.3-2.1-2.9-2.1-4.7c0-1.5,0.5-3,1.4-4.3c0.9-1.2,1.3-2,1.3-2.2
			c0-0.7-0.6-1-1.8-1c-2.1,0-3.8,0.7-5.3,2.1c-1.5,1.4-2.7,4.2-3.7,8.4c-1.5,6.4-3.2,10.5-5,12.4c-1.9,1.9-4.5,3.7-8,5.3
			c10.7,1.2,17.4,5,20.1,11.5l3.8,9.2c1.7,4,3.5,6,5.6,6c2.7,0,4.5-3.1,5.5-9.3h6.1c-1.1,7.1-3.1,11.6-6.1,13.6s-6.7,2.9-11,2.9
			c-7,0-11.6-3.3-13.9-9.8l-3.8-10.8c-2.5-7.4-8.2-11.1-17-11.1h-11.4v19.4c0,2.3,0.5,3.9,1.4,4.8c0.9,0.9,2.6,1.4,4.9,1.4
			L317.7,283.9L317.7,283.9z"/>
	</g>
	<g>
		<path class="st15" d="M308.3,159.5c7.4,0,14.8,0,22.1,0"/>
		<g>
			<path class="st15" d="M308.3,161.4c7.4,0,14.8,0,22.1,0c2.4,0,2.4-3.8,0-3.8c-7.4,0-14.8,0-22.1,0
				C305.9,157.6,305.9,161.4,308.3,161.4L308.3,161.4z"/>
		</g>
	</g>
</g>
</svg>
