<?xml version="1.0" encoding="utf-8"?>
<!-- Generator: Adobe Illustrator 24.2.3, SVG Export Plug-In . SVG Version: 6.00 Build 0)  -->
<svg version="1.1" id="Слой_1" xmlns="http://www.w3.org/2000/svg" xmlns:xlink="http://www.w3.org/1999/xlink" x="0px" y="0px"
	 viewBox="0 0 5418 1337.3" style="enable-background:new 0 0 5418 1337.3;" xml:space="preserve">
<style type="text/css">
	.st0{fill:#FFFFFF;stroke:#000000;stroke-miterlimit:10;}
	.st1{fill:#FFE79B;}
	.st2{fill:#F7D773;}
	.st3{fill:#FFEFB8;}
	.st4{fill:#727272;}
</style>
<g id="Слой_13">
	<rect x="-1.7" y="12.5" class="st0" width="5437.1" height="1282.5"/>
</g>
<g id="Слой_2_1_">
	<g>
		<path class="st1" d="M121,425.8v150v43.6c0,5.4-1.5,14.5,0.8,19.9c2.3,4.6,8.4,8.4,12.2,11.5l23.7,18.4c5.4,3.8,10,8.4,16.1,10
			c0-20.7-2.3-42.9,0-63.5c0.8-5.4,3.8-10,4.6-15.3c1.5-26,0-52.8-0.8-78.1c-0.8-10.7,0-21.4,0-31.4c0-4.6,0.8-10.7-0.8-15.3
			c-3.1-12.2-21.4-14.5-25.3-26C140.9,441.1,131.7,432.7,121,425.8z"/>
		<path class="st2" d="M121.8,425.8c10.7,13,26.8,23,39.8,32.9c4.6,3.8,12.2,8.4,15.3,13.8c2.3,4.6,1.5,10.7,1.5,15.3v30.6
			c0,26.8,1.5,54.4,0,80.4c0,5.4-3.8,9.2-4.6,13.8c-1.5,8.4,0,17.6,0,26H258c6.9,0,13.8,0,21.4,0c3.1,0,6.1,0,8.4-2.3
			c3.1-3.1,1.5-8.4,1.5-12.2v-30.6c0-6.9,2.3-18.4-1.5-24.5c-3.1-6.1-10-9.2-12.2-15.3c-2.3-5.4,0-13-0.8-18.4
			c-0.8-8.4-4.6-16.1-6.1-24.5c-0.8-4.6-0.8-8.4-1.5-13c-2.3-12.2-10-21.4-10-33.7c-0.8,1.5-0.8,2.3-0.8,3.8
			c-1.5-4.6-1.5-10-2.3-15.3c-1.5,0.8-0.8,0.8-2.3,2.3c-1.5-6.1-4.6-12.2-6.1-18.4c-0.8-3.1-0.8-6.9-3.8-9.2
			c-2.3-1.5-6.9-1.5-10-1.5h-22.2C209.8,425.8,121.8,425.8,121.8,425.8z"/>
		<path class="st1" d="M242.7,425.8c3.1,10,5.4,19.9,9.2,29.1c1.5-0.8,0.8-0.8,2.3-2.3l1.5,15.3c0.8-1.5,0.8-1.5,1.5-3.8
			c0.8,3.8,0.8,6.9,1.5,10.7c2.3,7.7,6.1,14.5,8.4,22.2c1.5,4.6,0.8,9.2,1.5,13.8c1.5,7.7,4.6,14.5,5.4,22.2
			c3.1-6.9,1.5-17.6,1.5-26v-55.1c0-6.1,2.3-20.7-1.5-25.3c-2.3-2.3-6.1-1.5-8.4-1.5C257.3,425.8,249.6,425.8,242.7,425.8z"/>
		<path class="st3" d="M125.6,435.8v199c2.3-4.6,1.5-10,1.5-15.3v-29.1V486.3v-33.7C126.3,447.2,127.1,441.1,125.6,435.8
			 M150.1,450.3c6.9,9.2,19.1,13,24.5,22.2c3.1,4.6,2.3,12.2,2.3,17.6v37.5c3.1-6.9,1.5-16.1,1.5-23.7c0-9.2,2.3-23-0.8-31.4
			c-1.5-3.8-5.4-6.9-8.4-9.2C163.1,458.7,157,452.6,150.1,450.3 M275.6,555.2c0,0,0,1.5,0.8,0.8C276.4,556,276.4,554.4,275.6,555.2
			 M170.7,678.4c-0.8,0.8,0.8,0.8,0.8,0.8C172.3,678.4,170.7,678.4,170.7,678.4z"/>
	</g>
</g>
<g id="Слой_2__x28_копия_x29_">
	<g>
		<path class="st1" d="M121,1038.2v150v43.6c0,5.4-1.5,14.5,0.8,19.9c2.3,4.6,8.4,8.4,12.2,11.5l23.7,18.4c5.4,3.8,10,8.4,16.1,10
			c0-20.7-2.3-42.9,0-63.5c0.8-5.4,3.8-10,4.6-15.3c1.5-26,0-52.8-0.8-78.1c-0.8-10.7,0-21.4,0-31.4c0-4.6,0.8-10.7-0.8-15.3
			c-3.1-12.2-21.4-14.5-25.3-26C140.9,1053.6,131.7,1045.1,121,1038.2z"/>
		<path class="st2" d="M121.8,1038.2c10.7,13,26.8,23,39.8,32.9c4.6,3.8,12.2,8.4,15.3,13.8c2.3,4.6,1.5,10.7,1.5,15.3v30.6
			c0,26.8,1.5,54.4,0,80.4c0,5.4-3.8,9.2-4.6,13.8c-1.5,8.4,0,17.6,0,26H258c6.9,0,13.8,0,21.4,0c3.1,0,6.1,0,8.4-2.3
			c3.1-3.1,1.5-8.4,1.5-12.2v-30.6c0-6.9,2.3-18.4-1.5-24.5c-3.1-6.1-10-9.2-12.2-15.3c-2.3-5.4,0-13-0.8-18.4
			c-0.8-8.4-4.6-16.1-6.1-24.5c-0.8-4.6-0.8-8.4-1.5-13c-2.3-12.2-10-21.4-10-33.7c-0.8,1.5-0.8,1.5-1.5,3.8
			c-1.5-4.6-1.5-10-2.3-15.3c-1.5,0.8-0.8,0.8-2.3,2.3c-1.5-6.1-4.6-12.2-6.1-18.4c-0.8-3.1-0.8-6.9-3.8-9.2
			c-2.3-1.5-6.9-1.5-10-1.5H209L121.8,1038.2L121.8,1038.2z"/>
		<path class="st1" d="M242.7,1038.2c3.1,10,5.4,19.9,9.2,29.1c1.5-0.8,0.8-0.8,2.3-2.3l1.5,15.3c0.8-1.5,0.8-1.5,1.5-3.8
			c0.8,3.8,0.8,6.9,1.5,10.7c2.3,7.7,6.1,14.5,8.4,22.2c1.5,4.6,0.8,9.2,1.5,13.8c1.5,7.7,4.6,14.5,5.4,22.2
			c3.1-6.9,1.5-17.6,1.5-26v-55.1c0-6.1,2.3-20.7-1.5-25.3c-2.3-2.3-6.1-1.5-8.4-1.5C257.3,1038.2,249.6,1038.2,242.7,1038.2z"/>
		<path class="st3" d="M125.6,1048.2v199c2.3-4.6,1.5-10,1.5-15.3v-29.1v-104.1V1065C126.3,1059.7,127.1,1053.6,125.6,1048.2
			 M150.1,1062.7c6.9,9.2,19.1,13,24.5,22.2c3.1,4.6,2.3,12.2,2.3,17.6v37.5c3.1-6.9,1.5-16.1,1.5-23.7c0-9.2,2.3-23-0.8-31.4
			c-1.5-3.8-5.4-6.9-8.4-9.2C163.1,1071.2,157,1065,150.1,1062.7 M275.6,1167.6c0,0,0,1.5,0.8,0.8
			C276.4,1168.4,276.4,1166.9,275.6,1167.6 M170.7,1290.9c-0.8,0.8,0.8,0.8,0.8,0.8C172.3,1290.9,170.7,1290.9,170.7,1290.9z"/>
	</g>
</g>
<g id="Слой_2__x28_копия2_x29_">
	<g>
		<path class="st1" d="M121,732v150v43.6c0,5.4-1.5,14.5,0.8,19.9c2.3,4.6,8.4,8.4,12.2,11.5l23.7,18.4c5.4,3.8,10,8.4,16.1,10
			c0-20.7-2.3-42.9,0-63.5c0.8-5.4,3.8-10,4.6-15.3c1.5-26,0-52.8-0.8-78.1c-0.8-10.7,0-21.4,0-31.4c0-4.6,0.8-10.7-0.8-15.3
			c-3.1-12.2-21.4-14.5-25.3-26C140.9,747.3,131.7,738.9,121,732z"/>
		<path class="st2" d="M121.8,732c10.7,13,26.8,23,39.8,32.9c4.6,3.8,12.2,8.4,15.3,13.8c2.3,4.6,1.5,10.7,1.5,15.3v30.6
			c0,26.8,1.5,54.4,0,80.4c0,5.4-3.8,9.2-4.6,13.8c-1.5,8.4,0,17.6,0,26H258c6.9,0,13.8,0,21.4,0c3.1,0,6.1,0,8.4-2.3
			c3.1-3.1,1.5-8.4,1.5-12.2v-30.6c0-6.9,2.3-18.4-1.5-24.5c-3.1-6.1-10-9.2-12.2-15.3c-2.3-5.4,0-13-0.8-18.4
			c-0.8-8.4-4.6-16.1-6.1-24.5c-0.8-4.6-0.8-8.4-1.5-13c-2.3-12.2-10-21.4-10-33.7c-0.8,1.5-0.8,2.3-0.8,3.8
			c-1.5-4.6-1.5-10-2.3-15.3c-1.5,0.8-0.8,0.8-2.3,2.3c-1.5-6.1-4.6-12.2-6.1-18.4c-0.8-3.1-0.8-6.9-3.8-9.2
			c-2.3-1.5-6.9-1.5-10-1.5h-22.2C209.8,732,121.8,732,121.8,732z"/>
		<path class="st1" d="M242.7,732c3.1,10,5.4,19.9,9.2,29.1c1.5-0.8,0.8-0.8,2.3-2.3l1.5,15.3c0.8-1.5,0.8-1.5,1.5-3.8
			c0.8,3.8,0.8,6.9,1.5,10.7c2.3,7.7,6.1,14.5,8.4,22.2c1.5,4.6,0.8,9.2,1.5,13.8c1.5,7.7,4.6,14.5,5.4,22.2
			c3.1-6.9,1.5-17.6,1.5-26v-55.1c0-6.1,2.3-20.7-1.5-25.3c-2.3-2.3-6.1-1.5-8.4-1.5C257.3,732,249.6,732,242.7,732z"/>
		<path class="st3" d="M125.6,742v199c2.3-4.6,1.5-10,1.5-15.3v-29.1V792.5v-33.7C126.3,753.5,127.1,747.3,125.6,742 M150.1,756.5
			c6.9,9.2,19.1,13,24.5,22.2c3.1,4.6,2.3,12.2,2.3,17.6v37.5c3.1-6.9,1.5-16.1,1.5-23.7c0-9.2,2.3-23-0.8-31.4
			c-1.5-3.8-5.4-6.9-8.4-9.2C163.1,764.9,157,758.8,150.1,756.5 M275.6,861.4c0,0,0,1.5,0.8,0.8
			C276.4,862.2,276.4,860.6,275.6,861.4 M170.7,984.7c-0.8,0.8,0.8,0.8,0.8,0.8C172.3,984.7,170.7,984.7,170.7,984.7z"/>
	</g>
</g>
<g id="Слой_2__x28_копия3_x29_">
	<g>
		<path class="st1" d="M121,119.6v150v43.6c0,5.4-1.5,14.5,0.8,19.9c2.3,4.6,8.4,8.4,12.2,11.5l23.7,18.4c5.4,3.8,10,8.4,16.1,10
			c0-20.7-2.3-42.9,0-63.5c0.8-5.4,3.8-10,4.6-15.3c1.5-26,0-52.8-0.8-78.1c-0.8-10.7,0-21.4,0-31.4c0-4.6,0.8-10.7-0.8-15.3
			c-3.1-12.2-21.4-14.5-25.3-26C140.9,134.9,131.7,126.5,121,119.6z"/>
		<path class="st2" d="M121.8,119.6c10.7,13,26.8,23,39.8,32.9c4.6,3.8,12.2,8.4,15.3,13.8c2.3,4.6,1.5,10.7,1.5,15.3v30.6
			c0,26.8,1.5,54.4,0,80.4c0,5.4-3.8,9.2-4.6,13.8c-1.5,8.4,0,17.6,0,26H258c6.9,0,13.8,0,21.4,0c3.1,0,6.1,0,8.4-2.3
			c3.1-3.1,1.5-8.4,1.5-12.2v-30.6c0-6.9,2.3-18.4-1.5-24.5c-3.1-6.1-10-9.2-12.2-15.3c-2.3-5.4,0-13-0.8-18.4
			c-0.8-8.4-4.6-16.1-6.1-24.5c-0.8-4.6-0.8-8.4-1.5-13c-2.3-12.2-10-21.4-10-33.7c-0.8,1.5-0.8,2.3-0.8,3.8
			c-1.5-4.6-1.5-10-2.3-15.3c-1.5,0.8-0.8,0.8-2.3,2.3c-1.5-6.1-4.6-12.2-6.1-18.4c-0.8-3.1-0.8-6.9-3.8-9.2
			c-2.3-1.5-6.9-1.5-10-1.5h-22.2C209.8,119.6,121.8,119.6,121.8,119.6z"/>
		<path class="st1" d="M242.7,119.6c3.1,10,5.4,19.9,9.2,29.1c1.5-0.8,0.8-0.8,2.3-2.3l1.5,15.3c0.8-1.5,0.8-1.5,1.5-3.8
			c0.8,3.8,0.8,6.9,1.5,10.7c2.3,7.7,6.1,14.5,8.4,22.2c1.5,4.6,0.8,9.2,1.5,13.8c1.5,7.7,4.6,14.5,5.4,22.2
			c3.1-6.9,1.5-17.6,1.5-26v-54.4c0-6.1,2.3-20.7-1.5-25.3c-2.3-2.3-6.1-1.5-8.4-1.5C257.3,119.6,249.6,119.6,242.7,119.6z"/>
		<path class="st3" d="M125.6,129.5v199c2.3-4.6,1.5-10,1.5-15.3v-29.1V180.1v-33.7C126.3,141,127.1,134.9,125.6,129.5 M150.1,144.1
			c6.9,9.2,19.1,13,24.5,22.2c3.1,4.6,2.3,12.2,2.3,17.6v37.5c3.1-6.9,1.5-16.1,1.5-23.7c0-9.2,2.3-23-0.8-31.4
			c-1.5-3.8-5.4-6.9-8.4-9.2C163.1,152.5,157,146.4,150.1,144.1 M275.6,249c0,0,0,1.5,0.8,0.8C276.4,249.7,276.4,248.2,275.6,249
			 M170.7,372.2c-0.8,0.8,0.8,0.8,0.8,0.8C172.3,372.2,170.7,372.2,170.7,372.2z"/>
	</g>
</g>
<g id="Слой_6">
	<g>
		<path d="M405.8,290.3V158.6H431v69.7l29.9-33.7h31.4l-32.9,34.4l35.2,60.5H467l-23.7-42.9l-11.5,12.2v30.6h-26V290.3z"/>
		<path d="M503,241.3c0-8.4,2.3-16.8,6.1-24.5s10-13.8,17.6-17.6c7.7-3.8,16.1-6.1,25.3-6.1c14.5,0,26,4.6,35.2,13.8
			c9.2,9.2,13.8,21.4,13.8,35.2c0,14.5-4.6,26-13.8,36c-9.2,10-20.7,14.5-35.2,14.5c-8.4,0-16.8-2.3-25.3-6.1
			c-8.4-3.8-13.8-10-18.4-17.6S503,252,503,241.3z M529,242.8c0,9.2,2.3,16.8,6.9,21.4c4.6,4.6,10,7.7,16.8,7.7
			c6.9,0,12.2-2.3,16.8-7.7c4.6-5.4,6.9-12.2,6.9-22.2c0-9.2-2.3-16.8-6.9-21.4c-4.6-4.6-10-7.7-16.8-7.7c-6.9,0-12.2,2.3-16.8,7.7
			S529,232.9,529,242.8z"/>
		<path d="M664.5,195.4v19.9h-17.6v38.3c0,7.7,0,12.2,0.8,13.8c0.8,1.5,0.8,2.3,2.3,3.1c1.5,0.8,2.3,1.5,4.6,1.5s5.4-0.8,10-2.3
			l2.3,19.9c-6.1,2.3-12.2,3.8-19.9,3.8c-4.6,0-8.4-0.8-12.2-2.3c-3.8-1.5-6.1-3.8-7.7-6.1c-1.5-2.3-3.1-5.4-3.8-10
			c-0.8-3.1-0.8-9.2-0.8-17.6v-41.3h-11.5v-19.9h11.5V177l25.3-14.5v33.7h16.8V195.4z"/>
		<path d="M737.2,259.7l25.3,4.6c-3.1,9.2-8.4,16.1-15.3,20.7s-15.3,6.9-26,6.9c-16.8,0-29.1-5.4-36.7-16.1
			c-6.1-8.4-9.2-19.9-9.2-32.9c0-16.1,3.8-28.3,12.2-36.7c8.4-8.4,18.4-13.8,31.4-13.8c14.5,0,25.3,4.6,33.7,13.8
			c8.4,9.2,12.2,23.7,11.5,42.9h-63.5c0,7.7,2.3,13,6.1,17.6c3.8,4.6,8.4,6.1,14.5,6.1c3.8,0,6.9-0.8,10-3.1
			C734.2,267.3,735.7,265,737.2,259.7z M738.8,234.4c0-7.7-2.3-13-5.4-16.8s-7.7-5.4-13-5.4s-10,2.3-13.8,6.1
			c-3.8,3.8-5.4,9.2-5.4,16.1C701.3,234.4,738.8,234.4,738.8,234.4z"/>
		<path d="M808.4,290.3h-25.3v-94.9h23.7v13.8c3.8-6.1,7.7-10.7,10.7-13s6.9-3.1,10.7-3.1c6.1,0,11.5,1.5,16.8,4.6l-7.7,22.2
			c-4.6-3.1-8.4-3.8-11.5-3.8c-3.8,0-6.9,0.8-9.2,3.1c-2.3,2.3-4.6,5.4-6.1,10.7c-1.5,5.4-2.3,16.1-2.3,32.2
			C808.4,262,808.4,290.3,808.4,290.3z"/>
		<path d="M840.6,326.3v-16.1h104.9v16.1H840.6z"/>
		<path d="M983.8,290.3l-38.3-94.9h26.8l17.6,49l5.4,16.1c1.5-3.8,2.3-6.9,2.3-8.4c0.8-3.1,1.5-5.4,3.1-8.4l18.4-49h26l-38.3,95.7
			H983.8z"/>
		<path d="M1097.1,158.6c13,0,23,4.6,29.9,13.8c8.4,10.7,13,28.3,13,53.6s-4.6,42.9-13,53.6c-6.9,9.2-16.8,13.8-29.9,13.8
			c-13,0-23-4.6-30.6-14.5s-11.5-27.6-11.5-52.8c0-24.5,4.6-42.9,13-53.6C1074.9,162.5,1084.8,158.6,1097.1,158.6z M1097.1,179.3
			c-3.1,0-6.1,0.8-8.4,3.1c-2.3,2.3-4.6,5.4-5.4,10.7c-1.5,6.9-2.3,17.6-2.3,32.9s0.8,26,2.3,32.2c1.5,6.1,3.8,10,6.1,11.5
			c2.3,1.5,5.4,3.1,8.4,3.1s6.1-0.8,8.4-3.1c2.3-2.3,4.6-5.4,5.4-10.7c1.5-6.1,2.3-17.6,2.3-32.9s-0.8-26-2.3-32.2
			c-1.5-6.1-3.8-10-6.1-11.5C1103.2,180.8,1100.1,179.3,1097.1,179.3z"/>
	</g>
</g>
<g id="Слой_6__x28_копия_x29_">
	<g>
		<path d="M405.8,596.5V464.9H431v69.7l29.9-33.7h31.4l-32.9,34.4l35.2,60.5H467l-23.7-42.9l-11.5,12.2v30.6h-26V596.5z"/>
		<path d="M503,547.5c0-8.4,2.3-16.8,6.1-24.5s10-13.8,17.6-17.6c7.7-3.8,16.1-6.1,25.3-6.1c14.5,0,26,4.6,35.2,13.8
			c9.2,9.2,13.8,21.4,13.8,35.2c0,14.5-4.6,26-13.8,36c-9.2,10-20.7,14.5-35.2,14.5c-8.4,0-16.8-2.3-25.3-6.1s-13.8-10-18.4-17.6
			C503.8,567.4,503,558.3,503,547.5z M529,549.1c0,9.2,2.3,16.8,6.9,21.4c4.6,4.6,10,7.7,16.8,7.7c6.9,0,12.2-2.3,16.8-7.7
			c4.6-5.4,6.9-12.2,6.9-22.2c0-9.2-2.3-16.8-6.9-21.4c-4.6-4.6-10-7.7-16.8-7.7c-6.9,0-12.2,2.3-16.8,7.7
			C531.3,532.2,529,539.1,529,549.1z"/>
		<path d="M664.5,501.6v19.9h-17.6v38.3c0,7.7,0,12.2,0.8,13.8c0.8,1.5,0.8,2.3,2.3,3.1c1.5,0.8,2.3,1.5,4.6,1.5s5.4-0.8,10-2.3
			l2.3,19.9c-6.1,2.3-12.2,3.8-19.9,3.8c-4.6,0-8.4-0.8-12.2-2.3c-3.8-1.5-6.1-3.8-7.7-6.1s-3.1-5.4-3.8-10
			c-0.8-3.1-0.8-9.2-0.8-17.6v-41.3h-11.5v-19.9h11.5v-19.1l25.3-14.5v33.7h16.8V501.6z"/>
		<path d="M737.2,565.9l25.3,4.6c-3.1,9.2-8.4,16.1-15.3,20.7s-15.3,6.9-26,6.9c-16.8,0-29.1-5.4-36.7-16.1
			c-6.1-8.4-9.2-19.9-9.2-32.9c0-16.1,3.8-28.3,12.2-36.7c8.4-8.4,18.4-13.8,31.4-13.8c14.5,0,25.3,4.6,33.7,13.8
			c8.4,9.2,12.2,23.7,11.5,42.9h-63.5c0,7.7,2.3,13,6.1,17.6s8.4,6.1,14.5,6.1c3.8,0,6.9-0.8,10-3.1
			C734.2,573.6,735.7,571.3,737.2,565.9z M738.8,540.6c0-7.7-2.3-13-5.4-16.8s-7.7-5.4-13-5.4s-10,2.3-13.8,6.1
			c-3.8,3.8-5.4,9.2-5.4,16.1C701.3,540.6,738.8,540.6,738.8,540.6z"/>
		<path d="M808.4,596.5h-25.3v-94.9h23.7v13.8c3.8-6.1,7.7-10.7,10.7-13s6.9-3.1,10.7-3.1c6.1,0,11.5,1.5,16.8,4.6l-7.7,22.2
			c-4.6-3.1-8.4-3.8-11.5-3.8c-3.8,0-6.9,0.8-9.2,3.1c-2.3,2.3-4.6,5.4-6.1,10.7c-1.5,5.4-2.3,16.1-2.3,32.2
			C808.4,568.2,808.4,596.5,808.4,596.5z"/>
		<path d="M840.6,632.5v-16.1h104.9v16.1H840.6z"/>
		<path d="M983.8,596.5l-38.3-94.9h26.8l17.6,49l5.4,16.1c1.5-3.8,2.3-6.9,2.3-8.4c0.8-3.1,1.5-5.4,3.1-8.4l18.4-49h26l-38.3,95.7
			H983.8z"/>
		<path d="M1119.3,596.5H1094v-94.9c-9.2,8.4-19.9,15.3-32.9,19.1v-23c6.9-2.3,13.8-6.1,21.4-12.2c7.7-6.1,13-13,16.1-20.7h20.7
			V596.5z"/>
	</g>
</g>
<g id="Слой_6__x28_копия2_x29_">
	<g>
		<path d="M405.8,902.7V771.1H431v69.7l29.9-33.7h31.4l-32.9,34.4l35.2,60.5H467l-23.7-42.9l-11.5,12.2V902h-26V902.7z"/>
		<path d="M503,853.8c0-8.4,2.3-16.8,6.1-24.5s10-13.8,17.6-17.6c7.7-3.8,16.1-6.1,25.3-6.1c14.5,0,26,4.6,35.2,13.8
			c9.2,9.2,13.8,21.4,13.8,35.2c0,14.5-4.6,26-13.8,36c-9.2,10-20.7,14.5-35.2,14.5c-8.4,0-16.8-2.3-25.3-6.1s-13.8-10-18.4-17.6
			C503.8,873.7,503,864.5,503,853.8z M529,855.3c0,9.2,2.3,16.8,6.9,21.4c4.6,4.6,10,7.7,16.8,7.7c6.9,0,12.2-2.3,16.8-7.7
			c4.6-5.4,6.9-12.2,6.9-22.2c0-9.2-2.3-16.8-6.9-21.4c-4.6-4.6-10-7.7-16.8-7.7c-6.9,0-12.2,2.3-16.8,7.7
			C531.3,838.4,529,845.3,529,855.3z"/>
		<path d="M664.5,807.8v19.9h-17.6V866c0,7.7,0,12.2,0.8,13.8c0.8,1.5,0.8,2.3,2.3,3.1c1.5,0.8,2.3,1.5,4.6,1.5s5.4-0.8,10-2.3
			l2.3,19.9c-6.1,2.3-12.2,3.8-19.9,3.8c-4.6,0-8.4-0.8-12.2-2.3c-3.8-1.5-6.1-3.8-7.7-6.1s-3.1-5.4-3.8-10
			c-0.8-3.1-0.8-9.2-0.8-17.6v-41.3h-11.5v-19.9h11.5v-19.1l25.3-14.5v33.7h16.8V807.8z"/>
		<path d="M737.2,872.1l25.3,4.6c-3.1,9.2-8.4,16.1-15.3,20.7s-15.3,6.9-26,6.9c-16.8,0-29.1-5.4-36.7-16.1
			c-6.1-8.4-9.2-19.9-9.2-32.9c0-16.1,3.8-28.3,12.2-36.7c8.4-8.4,18.4-13.8,31.4-13.8c14.5,0,25.3,4.6,33.7,13.8
			c8.4,9.2,12.2,23.7,11.5,42.9h-63.5c0,7.7,2.3,13,6.1,17.6s8.4,6.1,14.5,6.1c3.8,0,6.9-0.8,10-3.1
			C734.2,879.8,735.7,877.5,737.2,872.1z M738.8,846.9c0-7.7-2.3-13-5.4-16.8c-3.1-3.8-7.7-5.4-13-5.4s-10,2.3-13.8,6.1
			s-5.4,9.2-5.4,16.1C701.3,846.9,738.8,846.9,738.8,846.9z"/>
		<path d="M808.4,902.7h-25.3v-94.9h23.7v13.8c3.8-6.1,7.7-10.7,10.7-13c3.1-2.3,6.9-3.1,10.7-3.1c6.1,0,11.5,1.5,16.8,4.6
			l-7.7,22.2c-4.6-3.1-8.4-3.8-11.5-3.8c-3.8,0-6.9,0.8-9.2,3.1c-2.3,2.3-4.6,5.4-6.1,10.7c-1.5,5.4-2.3,16.1-2.3,32.2
			C808.4,874.4,808.4,902.7,808.4,902.7z"/>
		<path d="M840.6,938.7v-16.1h104.9v16.1H840.6z"/>
		<path d="M983.8,902.7l-38.3-94.9h26.8l17.6,49l5.4,16.1c1.5-3.8,2.3-6.9,2.3-8.4c0.8-3.1,1.5-5.4,3.1-8.4l18.4-49h26l-37.5,94.9
			h-23.7V902.7z"/>
		<path d="M1119.3,902.7H1094v-94.9c-9.2,8.4-19.9,15.3-32.9,19.1v-23c6.9-2.3,13.8-6.1,21.4-12.2c7.7-6.1,13-13,16.1-20.7h20.7
			V902.7z"/>
		<path d="M1162.1,902.7v-25.3h25.3v25.3H1162.1z"/>
		<path d="M1208.1,869.1l25.3-2.3c0.8,5.4,3.1,10,6.1,13.8c3.1,3.8,7.7,5.4,12.2,5.4c5.4,0,10-2.3,13-6.1c3.1-3.8,5.4-10.7,5.4-19.1
			s-1.5-13.8-5.4-18.4s-8.4-6.1-13.8-6.1c-6.9,0-13.8,3.1-19.1,10l-20.7-3.1l13-68.1h66.6v23.7h-47.5l-3.8,22.2
			c5.4-3.1,11.5-4.6,17.6-4.6c11.5,0,20.7,3.8,28.3,12.2c7.7,8.4,11.5,18.4,11.5,31.4c0,10.7-3.1,20.7-9.2,29.1
			c-8.4,11.5-20.7,17.6-36,17.6c-12.2,0-22.2-3.1-29.9-10C1214.2,889.7,1209.6,879.8,1208.1,869.1z"/>
	</g>
</g>
<g id="Слой_6__x28_копия3_x29_">
	<g>
		<path d="M405.8,1209v-131.7H431v69.7l29.9-33.7h31.4l-32.9,34.4l35.2,60.5H467l-23.7-42.9l-11.5,12.2v30.6h-26V1209z"/>
		<path d="M503,1160c0-8.4,2.3-16.8,6.1-24.5s10-13.8,17.6-17.6c7.7-3.8,16.1-6.1,25.3-6.1c14.5,0,26,4.6,35.2,13.8
			c9.2,9.2,13.8,21.4,13.8,35.2c0,14.5-4.6,26-13.8,36c-9.2,10-20.7,14.5-35.2,14.5c-8.4,0-16.8-2.3-25.3-6.1
			c-8.4-3.8-13.8-10-18.4-17.6C503.8,1179.9,503,1170.7,503,1160z M529,1161.5c0,9.2,2.3,16.8,6.9,21.4c4.6,4.6,10,7.7,16.8,7.7
			c6.9,0,12.2-2.3,16.8-7.7c4.6-5.4,6.9-12.2,6.9-22.2c0-9.2-2.3-16.8-6.9-21.4c-4.6-4.6-10-7.7-16.8-7.7c-6.9,0-12.2,2.3-16.8,7.7
			C531.3,1144.7,529,1151.5,529,1161.5z"/>
		<path d="M664.5,1114v19.9h-17.6v38.3c0,7.7,0,12.2,0.8,13.8c0.8,1.5,0.8,2.3,2.3,3.1s2.3,1.5,4.6,1.5s5.4-0.8,10-2.3l2.3,19.9
			c-6.1,2.3-12.2,3.8-19.9,3.8c-4.6,0-8.4-0.8-12.2-2.3c-3.8-1.5-6.1-3.8-7.7-6.1s-3.1-5.4-3.8-10c-0.8-3.1-0.8-9.2-0.8-17.6v-41.3
			h-11.5v-19.9h11.5v-19.1l25.3-14.5v33.7h16.8V1114z"/>
		<path d="M737.2,1178.3l25.3,4.6c-3.1,9.2-8.4,16.1-15.3,20.7s-15.3,6.9-26,6.9c-16.8,0-29.1-5.4-36.7-16.1
			c-6.1-8.4-9.2-19.9-9.2-32.9c0-16.1,3.8-28.3,12.2-36.7c8.4-8.4,18.4-13.8,31.4-13.8c14.5,0,25.3,4.6,33.7,13.8
			c8.4,9.2,12.2,23.7,11.5,42.9h-63.5c0,7.7,2.3,13,6.1,17.6c3.8,4.6,8.4,6.1,14.5,6.1c3.8,0,6.9-0.8,10-3.1
			C734.2,1186,735.7,1183.7,737.2,1178.3z M738.8,1153.1c0-7.7-2.3-13-5.4-16.8c-3.1-3.8-7.7-5.4-13-5.4s-10,2.3-13.8,6.1
			c-3.8,3.8-5.4,9.2-5.4,16.1L738.8,1153.1L738.8,1153.1z"/>
		<path d="M808.4,1209h-25.3V1114h23.7v13.8c3.8-6.1,7.7-10.7,10.7-13s6.9-3.1,10.7-3.1c6.1,0,11.5,1.5,16.8,4.6l-7.7,22.2
			c-4.6-3.1-8.4-3.8-11.5-3.8c-3.8,0-6.9,0.8-9.2,3.1c-2.3,2.3-4.6,5.4-6.1,10.7c-1.5,5.4-2.3,16.1-2.3,32.2
			C808.4,1180.6,808.4,1209,808.4,1209z"/>
		<path d="M840.6,1244.9v-16.1h104.9v16.1H840.6z"/>
		<path d="M983.8,1209l-38.3-94.9h26.8l17.6,49l5.4,16.1c1.5-3.8,2.3-6.9,2.3-8.4c0.8-3.1,1.5-5.4,3.1-8.4l18.4-49h26l-37.5,94.9
			h-23.7V1209z"/>
		<path d="M1139.9,1185.2v23.7h-88c0.8-9.2,3.8-17.6,8.4-25.3c4.6-7.7,14.5-18.4,28.3-31.4c11.5-10.7,18.4-17.6,20.7-21.4
			c3.8-5.4,5.4-10.7,5.4-15.3c0-5.4-1.5-10-4.6-13s-6.9-4.6-12.2-4.6c-5.4,0-9.2,1.5-12.2,4.6c-3.1,3.1-4.6,8.4-5.4,16.1l-25.3-2.3
			c1.5-13.8,6.1-23.7,13.8-29.9c7.7-6.1,17.6-9.2,29.9-9.2c13,0,23,3.8,30.6,10.7c7.7,6.9,11.5,16.1,11.5,26
			c0,6.1-0.8,11.5-3.1,16.8c-2.3,5.4-5.4,10.7-10,16.8c-3.1,3.8-8.4,9.2-16.8,16.8c-8.4,7.7-13,12.2-15.3,14.5
			c-2.3,2.3-3.8,4.6-5.4,6.9h49.8V1185.2z"/>
	</g>
</g>
<g id="Слой_10">
	<g>
		<path class="st4" d="M3898.9,230.6c0-15.3,1.5-28.3,4.6-37.5c3.1-9.2,7.7-16.8,14.5-22.2c6.9-5.4,14.5-7.7,23.7-7.7
			c6.9,0,13,1.5,18.4,4.6s10,6.9,13,12.2c3.1,5.4,6.1,12.2,8.4,19.9c2.3,7.7,3.1,18.4,3.1,31.4c0,15.3-1.5,27.6-4.6,37.5
			c-3.1,10-7.7,16.8-14.5,22.2s-14.5,7.7-23.7,7.7c-13,0-23-4.6-29.9-13.8C3903.5,272.7,3898.9,255.1,3898.9,230.6z M3915.8,230.6
			c0,21.4,2.3,36,7.7,42.9s11.5,10.7,18.4,10.7s13.8-3.8,18.4-10.7s7.7-21.4,7.7-42.9s-2.3-36-7.7-42.9S3948.7,177,3941,177
			s-13,3.1-17.6,9.2C3918.1,193.9,3915.8,209.2,3915.8,230.6z"/>
		<path class="st4" d="M4052.8,294.9v-31.4h-57.4V249l59.7-85h13v85h17.6v14.5h-16.8v31.4H4052.8z M4052.8,249V190l-41.3,58.9
			H4052.8z"/>
		<path class="st4" d="M4112.5,294.9v-18.4h18.4v18.4H4112.5z"/>
		<path class="st4" d="M4154.6,230.6c0-15.3,1.5-28.3,4.6-37.5s7.7-16.8,14.5-22.2c6.9-5.4,14.5-7.7,23.7-7.7c6.9,0,13,1.5,18.4,4.6
			s10,6.9,13,12.2c3.1,5.4,6.1,12.2,8.4,19.9c2.3,7.7,3.1,18.4,3.1,31.4c0,15.3-1.5,27.6-4.6,37.5c-3.1,10-7.7,16.8-14.5,22.2
			s-14.5,7.7-23.7,7.7c-13,0-23-4.6-29.9-13.8C4158.5,272.7,4154.6,255.1,4154.6,230.6z M4170.7,230.6c0,21.4,2.3,36,7.7,42.9
			s11.5,10.7,18.4,10.7s13.8-3.8,18.4-10.7c4.6-6.9,7.7-21.4,7.7-42.9s-2.3-36-7.7-42.9S4203.6,177,4196,177c-7.7,0-13,3.1-17.6,9.2
			C4173.8,193.9,4170.7,209.2,4170.7,230.6z"/>
		<path class="st4" d="M4317.7,294.9h-16.1V192.3c-3.8,3.8-9.2,7.7-15.3,11.5c-6.1,3.8-12.2,6.1-16.8,8.4v-15.3
			c9.2-4.6,16.8-9.2,23.7-15.3c6.9-6.1,11.5-12.2,14.5-17.6h10.7v130.9H4317.7z"/>
		<path class="st4" d="M4367.5,294.9v-18.4h18.4v18.4H4367.5z"/>
		<path class="st4" d="M4494.5,279.6v15.3h-87.3c0-3.8,0.8-7.7,1.5-11.5c2.3-6.1,6.1-11.5,10.7-17.6c4.6-6.1,12.2-12.2,21.4-19.9
			c14.5-11.5,23.7-20.7,29.1-27.6c5.4-6.9,7.7-13,7.7-19.1c0-6.1-2.3-11.5-6.9-16.1c-4.6-4.6-10.7-6.9-17.6-6.9
			c-7.7,0-13.8,2.3-18.4,6.9c-4.6,4.6-6.9,11.5-6.9,19.1l-16.8-1.5c0.8-12.2,5.4-21.4,13-28.3c7.7-6.9,17.6-10,29.9-10
			c12.2,0,23,3.8,29.9,10.7s10.7,15.3,10.7,26c0,5.4-0.8,10.7-3.1,15.3c-2.3,4.6-5.4,10.7-10.7,16.1c-5.4,5.4-13,13-25.3,23
			c-10,8.4-16.1,13.8-18.4,16.8c-2.3,3.1-5.4,6.1-6.9,8.4h64.3V279.6z"/>
		<path class="st4" d="M4512.1,230.6c0-15.3,1.5-28.3,4.6-37.5s7.7-16.8,14.5-22.2c6.9-5.4,14.5-7.7,23.7-7.7c6.9,0,13,1.5,18.4,4.6
			s10,6.9,13,12.2c3.1,5.4,6.1,12.2,8.4,19.9c2.3,7.7,3.1,18.4,3.1,31.4c0,15.3-1.5,27.6-4.6,37.5c-3.1,10-7.7,16.8-14.5,22.2
			s-14.5,7.7-23.7,7.7c-13,0-23-4.6-29.9-13.8C4516,272.7,4512.1,255.1,4512.1,230.6z M4528.2,230.6c0,21.4,2.3,36,7.7,42.9
			s11.5,10.7,18.4,10.7s13.8-3.8,18.4-10.7c4.6-6.9,7.7-21.4,7.7-42.9s-2.3-36-7.7-42.9s-11.5-10.7-19.1-10.7
			c-7.7,0-13,3.1-17.6,9.2C4531.3,193.9,4528.2,209.2,4528.2,230.6z"/>
		<path class="st4" d="M4675.2,294.9h-16.1V192.3c-3.8,3.8-9.2,7.7-15.3,11.5c-6.1,3.8-12.2,6.1-16.8,8.4v-15.3
			c9.2-4.6,16.8-9.2,23.7-15.3c6.9-6.1,11.5-12.2,14.5-17.6h10.7v130.9H4675.2z"/>
		<path class="st4" d="M4718.8,265l15.3-1.5c1.5,7.7,3.8,12.2,7.7,16.1c3.8,3.8,8.4,4.6,14.5,4.6c4.6,0,9.2-0.8,13-3.1
			c3.8-2.3,6.9-5.4,9.2-9.2c2.3-3.8,4.6-9.2,6.1-15.3c1.5-6.1,2.3-13,2.3-19.9c0-0.8,0-1.5,0-3.1c-3.1,5.4-7.7,9.2-13,12.2
			c-5.4,3.1-11.5,4.6-18.4,4.6c-10.7,0-19.9-3.8-27.6-11.5c-7.7-7.7-11.5-18.4-11.5-31.4s3.8-23.7,11.5-32.2s17.6-12.2,29.9-12.2
			c8.4,0,16.1,2.3,23.7,6.9c7.7,4.6,12.2,11.5,16.1,19.9c3.8,8.4,5.4,20.7,5.4,36.7c0,16.8-1.5,29.9-5.4,39.8
			c-3.8,10-9.2,17.6-16.1,23c-6.9,5.4-15.3,7.7-25.3,7.7s-18.4-3.1-25.3-8.4S4720.4,275,4718.8,265z M4784.7,206.9
			c0-9.2-2.3-16.8-7.7-22.2c-5.4-5.4-10.7-8.4-17.6-8.4c-6.9,0-13.8,3.1-18.4,8.4c-4.6,5.4-7.7,13.8-7.7,23c0,8.4,2.3,15.3,7.7,20.7
			c5.4,5.4,11.5,7.7,18.4,7.7c7.7,0,13.8-2.3,18.4-7.7C4782.4,222.9,4784.7,216.1,4784.7,206.9z"/>
		<path class="st4" d="M4954.6,279.6v15.3h-87.3c0-3.8,0.8-7.7,1.5-11.5c2.3-6.1,6.1-11.5,10.7-17.6c4.6-6.1,12.2-12.2,21.4-19.9
			c14.5-11.5,23.7-20.7,29.1-27.6c5.4-6.9,7.7-13,7.7-19.1c0-6.1-2.3-11.5-6.9-16.1c-4.6-4.6-10.7-6.9-17.6-6.9
			c-7.7,0-13.8,2.3-18.4,6.9c-4.6,4.6-6.9,11.5-6.9,19.1l-16.8-1.5c0.8-12.2,5.4-21.4,13-28.3c7.7-6.9,17.6-10,29.9-10
			c12.2,0,23,3.8,29.9,10.7s10.7,15.3,10.7,26c0,5.4-0.8,10.7-3.1,15.3c-2.3,4.6-5.4,10.7-10.7,16.1s-13,13-25.3,23
			c-10,8.4-16.1,13.8-18.4,16.8c-2.3,3.1-5.4,6.1-6.9,8.4h64.3V279.6z"/>
		<path class="st4" d="M4971.5,230.6c0-15.3,1.5-28.3,4.6-37.5c3.1-9.2,7.7-16.8,14.5-22.2c6.9-5.4,14.5-7.7,23.7-7.7
			c6.9,0,13,1.5,18.4,4.6s10,6.9,13,12.2c3.1,5.4,6.1,12.2,8.4,19.9c2.3,7.7,3.1,18.4,3.1,31.4c0,15.3-1.5,27.6-4.6,37.5
			c-3.1,10-7.7,16.8-14.5,22.2s-14.5,7.7-23.7,7.7c-13,0-23-4.6-29.9-13.8C4976.1,272.7,4971.5,255.1,4971.5,230.6z M4988.3,230.6
			c0,21.4,2.3,36,7.7,42.9s11.5,10.7,18.4,10.7s13.8-3.8,18.4-10.7c4.6-6.9,7.7-21.4,7.7-42.9s-2.3-36-7.7-42.9
			s-11.5-10.7-19.1-10.7c-7.7,0-13,3.1-17.6,9.2C4991.4,193.9,4988.3,209.2,4988.3,230.6z"/>
		<path class="st4" d="M5082.5,218.4V200h18.4v18.4H5082.5z M5082.5,294.9v-18.4h18.4v18.4H5082.5z"/>
		<path class="st4" d="M5185.8,294.9h-16.1V192.3c-3.8,3.8-9.2,7.7-15.3,11.5c-6.1,3.8-12.2,6.1-16.8,8.4v-15.3
			c9.2-4.6,16.8-9.2,23.7-15.3s11.5-12.2,14.5-17.6h10.7v130.9H5185.8z"/>
		<path class="st4" d="M5227.2,230.6c0-15.3,1.5-28.3,4.6-37.5s7.7-16.8,14.5-22.2c6.9-5.4,14.5-7.7,23.7-7.7c6.9,0,13,1.5,18.4,4.6
			s10,6.9,13,12.2c3.1,5.4,6.1,12.2,8.4,19.9c2.3,7.7,3.1,18.4,3.1,31.4c0,15.3-1.5,27.6-4.6,37.5c-3.1,10-7.7,16.8-14.5,22.2
			s-14.5,7.7-23.7,7.7c-13,0-23-4.6-29.9-13.8C5231.8,272.7,5227.2,255.1,5227.2,230.6z M5244,230.6c0,21.4,2.3,36,7.7,42.9
			s11.5,10.7,18.4,10.7s13.8-3.8,18.4-10.7c4.6-6.9,7.7-21.4,7.7-42.9s-2.3-36-7.7-42.9s-11.5-10.7-19.1-10.7s-13,3.1-17.6,9.2
			C5246.3,193.9,5244,209.2,5244,230.6z"/>
	</g>
</g>
<g id="Слой_10__x28_копия_x29_">
	<g>
		<path class="st4" d="M3959.4,601.1h-16.1V498.5c-3.8,3.8-9.2,7.7-15.3,11.5s-12.2,6.1-16.8,8.4v-15.3c9.2-4.6,16.8-9.2,23.7-15.3
			c6.9-6.1,11.5-12.2,14.5-17.6h10.7v130.9H3959.4z"/>
		<path class="st4" d="M4001.5,566.7l16.1-2.3c1.5,9.2,5.4,16.1,9.2,19.9c3.8,3.8,10,6.1,16.1,6.1c7.7,0,13.8-2.3,19.1-7.7
			s7.7-11.5,7.7-19.9c0-7.7-2.3-13.8-6.9-18.4s-10.7-6.9-18.4-6.9c-3.1,0-6.9,0.8-11.5,1.5l1.5-14.5c0.8,0,2.3,0,2.3,0
			c6.9,0,13-1.5,18.4-5.4c5.4-3.8,8.4-9.2,8.4-16.8c0-6.1-2.3-10.7-6.1-14.5c-3.8-3.8-9.2-6.1-15.3-6.1s-11.5,2.3-16.1,6.1
			c-4.6,3.8-6.9,10-8.4,17.6l-16.1-3.1c2.3-10.7,6.1-19.1,13.8-25.3c7.7-6.1,16.1-9.2,26-9.2c6.9,0,13.8,1.5,19.9,4.6
			c6.1,3.1,10.7,7.7,13.8,12.2c3.1,4.6,4.6,10.7,4.6,16.8c0,5.4-1.5,10.7-4.6,15.3c-3.1,4.6-7.7,8.4-13.8,11.5
			c7.7,1.5,13.8,5.4,18.4,11.5c4.6,6.1,6.1,13,6.1,21.4c0,11.5-3.8,21.4-12.2,29.1c-8.4,7.7-19.1,12.2-31.4,12.2
			c-11.5,0-21.4-3.1-29.1-10C4005.4,585.8,4002.3,577.4,4001.5,566.7z"/>
		<path class="st4" d="M4112.5,601.1v-18.4h18.4v18.4H4112.5z"/>
		<path class="st4" d="M4154.6,536.8c0-15.3,1.5-28.3,4.6-37.5s7.7-16.8,14.5-22.2c6.9-5.4,14.5-7.7,23.7-7.7c6.9,0,13,1.5,18.4,4.6
			s10,6.9,13,12.2c3.1,5.4,6.1,12.2,8.4,19.9c2.3,7.7,3.1,18.4,3.1,31.4c0,15.3-1.5,27.6-4.6,37.5s-7.7,16.8-14.5,22.2
			c-6.9,5.4-14.5,7.7-23.7,7.7c-13,0-23-4.6-29.9-13.8C4158.5,578.9,4154.6,561.3,4154.6,536.8z M4170.7,536.8
			c0,21.4,2.3,36,7.7,42.9s11.5,10.7,18.4,10.7s13.8-3.8,18.4-10.7c4.6-6.9,7.7-21.4,7.7-42.9c0-21.4-2.3-36-7.7-42.9
			s-11.5-10.7-19.1-10.7c-7.7,0-13,3.1-17.6,9.2C4173.8,500.1,4170.7,515.4,4170.7,536.8z"/>
		<path class="st4" d="M4281.7,529.9c-6.9-2.3-11.5-6.1-14.5-10.7c-3.1-4.6-4.6-10-4.6-16.1c0-10,3.1-17.6,10-24.5
			c6.9-6.9,16.1-10,27.6-10c11.5,0,20.7,3.1,27.6,10c6.9,6.9,10.7,14.5,10.7,24.5c0,6.1-1.5,11.5-4.6,16.1
			c-3.1,4.6-8.4,7.7-14.5,10.7c8.4,2.3,14.5,6.9,18.4,13c3.8,6.1,6.1,13,6.1,20.7c0,11.5-3.8,20.7-12.2,28.3
			c-8.4,7.7-18.4,11.5-31.4,11.5c-13,0-23.7-3.8-31.4-11.5c-7.7-7.7-12.2-17.6-12.2-29.1c0-8.4,2.3-16.1,6.1-21.4
			S4273.3,532.2,4281.7,529.9z M4273.3,563.6c0,4.6,0.8,9.2,3.1,13s5.4,7.7,10,10c4.6,2.3,9.2,3.8,13.8,3.8c7.7,0,13.8-2.3,19.1-7.7
			s7.7-11.5,7.7-19.1c0-7.7-2.3-14.5-7.7-19.1s-11.5-7.7-19.1-7.7c-7.7,0-13.8,2.3-19.1,7.7S4273.3,556,4273.3,563.6z M4277.9,503.1
			c0,6.1,2.3,11.5,6.1,15.3c3.8,3.8,9.2,6.1,15.3,6.1s11.5-2.3,15.3-6.1c3.8-3.8,6.1-8.4,6.1-14.5c0-6.1-2.3-10.7-6.1-15.3
			c-3.8-4.6-9.2-6.1-15.3-6.1s-11.5,2.3-15.3,6.1C4280.2,492.4,4277.9,497,4277.9,503.1z"/>
		<path class="st4" d="M4367.5,601.1v-18.4h18.4v18.4H4367.5z"/>
		<path class="st4" d="M4494.5,585.8v15.3h-87.3c0-3.8,0.8-7.7,1.5-11.5c2.3-6.1,6.1-11.5,10.7-17.6c4.6-6.1,12.2-12.2,21.4-19.9
			c14.5-11.5,23.7-20.7,29.1-27.6s7.7-13,7.7-19.1c0-6.1-2.3-11.5-6.9-16.1c-4.6-4.6-10.7-6.9-17.6-6.9c-7.7,0-13.8,2.3-18.4,6.9
			c-4.6,4.6-6.9,11.5-6.9,19.1l-16.8-1.5c0.8-12.2,5.4-21.4,13-28.3c7.7-6.9,17.6-10,29.9-10c12.2,0,23,3.8,29.9,10.7
			c6.9,6.9,10.7,15.3,10.7,26c0,5.4-0.8,10.7-3.1,15.3c-2.3,4.6-5.4,10.7-10.7,16.1c-5.4,5.4-13,13-25.3,23
			c-10,8.4-16.1,13.8-18.4,16.8s-5.4,6.1-6.9,8.4h64.3V585.8z"/>
		<path class="st4" d="M4512.1,536.8c0-15.3,1.5-28.3,4.6-37.5s7.7-16.8,14.5-22.2c6.9-5.4,14.5-7.7,23.7-7.7c6.9,0,13,1.5,18.4,4.6
			s10,6.9,13,12.2c3.1,5.4,6.1,12.2,8.4,19.9c2.3,7.7,3.1,18.4,3.1,31.4c0,15.3-1.5,27.6-4.6,37.5s-7.7,16.8-14.5,22.2
			c-6.9,5.4-14.5,7.7-23.7,7.7c-13,0-23-4.6-29.9-13.8C4516,578.9,4512.1,561.3,4512.1,536.8z M4528.2,536.8c0,21.4,2.3,36,7.7,42.9
			s11.5,10.7,18.4,10.7s13.8-3.8,18.4-10.7c4.6-6.9,7.7-21.4,7.7-42.9c0-21.4-2.3-36-7.7-42.9s-11.5-10.7-19.1-10.7
			c-7.7,0-13,3.1-17.6,9.2C4531.3,500.1,4528.2,515.4,4528.2,536.8z"/>
		<path class="st4" d="M4675.2,601.1h-16.1V498.5c-3.8,3.8-9.2,7.7-15.3,11.5c-6.1,3.8-12.2,6.1-16.8,8.4v-15.3
			c9.2-4.6,16.8-9.2,23.7-15.3c6.9-6.1,11.5-12.2,14.5-17.6h10.7v130.9H4675.2z"/>
		<path class="st4" d="M4718.8,571.3l15.3-1.5c1.5,7.7,3.8,12.2,7.7,16.1c3.8,3.8,8.4,4.6,14.5,4.6c4.6,0,9.2-0.8,13-3.1
			c3.8-2.3,6.9-5.4,9.2-9.2c2.3-3.8,4.6-9.2,6.1-15.3s2.3-13,2.3-19.9c0-0.8,0-1.5,0-3.1c-3.1,5.4-7.7,9.2-13,12.2
			c-5.4,3.1-11.5,4.6-18.4,4.6c-10.7,0-19.9-3.8-27.6-11.5c-7.7-7.7-11.5-18.4-11.5-31.4s3.8-23.7,11.5-32.2s17.6-12.2,29.9-12.2
			c8.4,0,16.1,2.3,23.7,6.9c7.7,4.6,12.2,11.5,16.1,19.9c3.8,8.4,5.4,20.7,5.4,36.7c0,16.8-1.5,29.9-5.4,39.8
			c-3.8,10-9.2,17.6-16.1,23c-6.9,5.4-15.3,7.7-25.3,7.7s-18.4-3.1-25.3-8.4S4720.4,581.2,4718.8,571.3z M4784.7,513.1
			c0-9.2-2.3-16.8-7.7-22.2c-5.4-5.4-10.7-8.4-17.6-8.4c-6.9,0-13.8,3.1-18.4,8.4c-4.6,5.4-7.7,13.8-7.7,23c0,8.4,2.3,15.3,7.7,20.7
			s11.5,7.7,18.4,7.7c7.7,0,13.8-2.3,18.4-7.7C4782.4,529.2,4784.7,522.3,4784.7,513.1z"/>
		<path class="st4" d="M4930.1,601.1h-16.1V498.5c-3.8,3.8-9.2,7.7-15.3,11.5c-6.1,3.8-12.2,6.1-16.8,8.4v-15.3
			c9.2-4.6,16.8-9.2,23.7-15.3c6.9-6.1,11.5-12.2,14.5-17.6h10.7v130.9H4930.1z"/>
		<path class="st4" d="M4980.7,524.6v-18.4h18.4v18.4H4980.7z M4980.7,601.1v-18.4h18.4v18.4H4980.7z"/>
		<path class="st4" d="M5022.8,536.8c0-15.3,1.5-28.3,4.6-37.5c3.1-9.2,7.7-16.8,14.5-22.2c6.9-5.4,14.5-7.7,23.7-7.7
			c6.9,0,13,1.5,18.4,4.6s10,6.9,13,12.2c3.1,5.4,6.1,12.2,8.4,19.9c2.3,7.7,3.1,18.4,3.1,31.4c0,15.3-1.5,27.6-4.6,37.5
			c-3.1,10-7.7,16.8-14.5,22.2c-6.9,5.4-14.5,7.7-23.7,7.7c-13,0-23-4.6-29.9-13.8C5027.4,578.9,5022.8,561.3,5022.8,536.8z
			 M5039.6,536.8c0,21.4,2.3,36,7.7,42.9s11.5,10.7,18.4,10.7s13.8-3.8,18.4-10.7c4.6-6.9,7.7-21.4,7.7-42.9c0-21.4-2.3-36-7.7-42.9
			s-11.5-10.7-19.1-10.7c-7.7,0-13,3.1-17.6,9.2C5041.9,500.1,5039.6,515.4,5039.6,536.8z"/>
		<path class="st4" d="M5125.3,566.7l16.1-2.3c1.5,9.2,5.4,16.1,9.2,19.9c3.8,3.8,10,6.1,16.1,6.1c7.7,0,13.8-2.3,19.1-7.7
			s7.7-11.5,7.7-19.9c0-7.7-2.3-13.8-6.9-18.4c-4.6-4.6-10.7-6.9-18.4-6.9c-3.1,0-6.9,0.8-11.5,1.5l1.5-14.5c0.8,0,2.3,0,2.3,0
			c6.9,0,13-1.5,18.4-5.4c5.4-3.8,8.4-9.2,8.4-16.8c0-6.1-2.3-10.7-6.1-14.5c-3.8-3.8-9.2-6.1-15.3-6.1c-6.1,0-11.5,2.3-16.1,6.1
			c-4.6,3.8-6.9,10-8.4,17.6l-16.1-3.1c2.3-10.7,6.1-19.1,13.8-25.3c7.7-6.1,16.1-9.2,26-9.2c6.9,0,13.8,1.5,19.9,4.6
			c6.1,3.1,10.7,7.7,13.8,12.2s4.6,10.7,4.6,16.8c0,5.4-1.5,10.7-4.6,15.3s-7.7,8.4-13.8,11.5c7.7,1.5,13.8,5.4,18.4,11.5
			c4.6,6.1,6.1,13,6.1,21.4c0,11.5-3.8,21.4-12.2,29.1c-8.4,7.7-19.1,12.2-31.4,12.2c-11.5,0-21.4-3.1-29.1-10
			S5126.1,577.4,5125.3,566.7z"/>
	</g>
</g>
<g id="Слой_10__x28_копия2_x29_">
	<g>
		<path class="st4" d="M3959.4,907.3h-16.1V804.8c-3.8,3.8-9.2,7.7-15.3,11.5s-12.2,6.1-16.8,8.4v-15.3c9.2-4.6,16.8-9.2,23.7-15.3
			c6.9-6.1,11.5-12.2,14.5-17.6h10.7v130.9H3959.4z"/>
		<path class="st4" d="M4003.8,877.5l15.3-1.5c1.5,7.7,3.8,12.2,7.7,16.1c3.8,3.8,8.4,4.6,14.5,4.6c4.6,0,9.2-0.8,13-3.1
			c3.8-2.3,6.9-5.4,9.2-9.2c2.3-3.8,4.6-9.2,6.1-15.3c1.5-6.1,2.3-13,2.3-19.9c0-0.8,0-1.5,0-3.1c-3.1,5.4-7.7,9.2-13,12.2
			c-5.4,3.1-11.5,4.6-18.4,4.6c-10.7,0-19.9-3.8-27.6-11.5c-7.7-7.7-11.5-18.4-11.5-31.4c0-13,3.8-23.7,11.5-32.2
			c7.7-8.4,17.6-12.2,29.9-12.2c8.4,0,16.1,2.3,23.7,6.9s12.2,11.5,16.1,19.9s5.4,20.7,5.4,36.7c0,16.8-1.5,29.9-5.4,39.8
			s-9.2,17.6-16.1,23c-6.9,5.4-15.3,7.7-25.3,7.7c-10,0-18.4-3.1-25.3-8.4S4004.6,887.4,4003.8,877.5z M4069.7,819.3
			c0-9.2-2.3-16.8-7.7-22.2c-5.4-5.4-10.7-8.4-17.6-8.4c-6.9,0-13.8,3.1-18.4,8.4c-4.6,5.4-7.7,13.8-7.7,23c0,8.4,2.3,15.3,7.7,20.7
			s11.5,7.7,18.4,7.7c7.7,0,13.8-2.3,18.4-7.7C4067.4,835.4,4069.7,828.5,4069.7,819.3z"/>
		<path class="st4" d="M4112.5,907.3V889h18.4v18.4H4112.5z"/>
		<path class="st4" d="M4154.6,843c0-15.3,1.5-28.3,4.6-37.5c3.1-9.2,7.7-16.8,14.5-22.2c6.9-5.4,14.5-7.7,23.7-7.7
			c6.9,0,13,1.5,18.4,4.6c5.4,3.1,10,6.9,13,12.2s6.1,12.2,8.4,19.9c2.3,7.7,3.1,18.4,3.1,31.4c0,15.3-1.5,27.6-4.6,37.5
			s-7.7,16.8-14.5,22.2c-6.9,5.4-14.5,7.7-23.7,7.7c-13,0-23-4.6-29.9-13.8C4158.5,885.1,4154.6,867.5,4154.6,843z M4170.7,843
			c0,21.4,2.3,36,7.7,42.9s11.5,10.7,18.4,10.7s13.8-3.8,18.4-10.7c4.6-6.9,7.7-21.4,7.7-42.9c0-21.4-2.3-36-7.7-42.9
			c-5.4-6.9-11.5-10.7-19.1-10.7c-7.7,0-13,3.1-17.6,9.2C4173.8,806.3,4170.7,821.6,4170.7,843z"/>
		<path class="st4" d="M4258.7,877.5l15.3-1.5c1.5,7.7,3.8,12.2,7.7,16.1c3.8,3.8,8.4,4.6,14.5,4.6c4.6,0,9.2-0.8,13-3.1
			c3.8-2.3,6.9-5.4,9.2-9.2c2.3-3.8,4.6-9.2,6.1-15.3s2.3-13,2.3-19.9c0-0.8,0-1.5,0-3.1c-3.1,5.4-7.7,9.2-13,12.2
			c-5.4,3.1-11.5,4.6-18.4,4.6c-10.7,0-19.9-3.8-27.6-11.5c-7.7-7.7-11.5-18.4-11.5-31.4c0-13,3.8-23.7,11.5-32.2
			c7.7-8.4,17.6-12.2,29.9-12.2c8.4,0,16.1,2.3,23.7,6.9c7.7,4.6,12.2,11.5,16.1,19.9c3.8,8.4,5.4,20.7,5.4,36.7
			c0,16.8-1.5,29.9-5.4,39.8c-3.8,10-9.2,17.6-16.1,23c-6.9,5.4-15.3,7.7-25.3,7.7c-10,0-18.4-3.1-25.3-8.4
			S4260.3,887.4,4258.7,877.5z M4325.3,819.3c0-9.2-2.3-16.8-7.7-22.2c-5.4-5.4-10.7-8.4-17.6-8.4s-13.8,3.1-18.4,8.4
			c-4.6,5.4-7.7,13.8-7.7,23c0,8.4,2.3,15.3,7.7,20.7s11.5,7.7,18.4,7.7c7.7,0,13.8-2.3,18.4-7.7
			C4323.1,835.4,4325.3,828.5,4325.3,819.3z"/>
		<path class="st4" d="M4367.5,907.3V889h18.4v18.4H4367.5z"/>
		<path class="st4" d="M4494.5,892v15.3h-87.3c0-3.8,0.8-7.7,1.5-11.5c2.3-6.1,6.1-11.5,10.7-17.6c4.6-6.1,12.2-12.2,21.4-19.9
			c14.5-11.5,23.7-20.7,29.1-27.6s7.7-13,7.7-19.1c0-6.1-2.3-11.5-6.9-16.1c-4.6-4.6-10.7-6.9-17.6-6.9c-7.7,0-13.8,2.3-18.4,6.9
			c-4.6,4.6-6.9,11.5-6.9,19.1l-16.8-1.5c0.8-12.2,5.4-21.4,13-28.3c7.7-6.9,17.6-10,29.9-10c12.2,0,23,3.8,29.9,10.7
			s10.7,15.3,10.7,26c0,5.4-0.8,10.7-3.1,15.3c-2.3,4.6-5.4,10.7-10.7,16.1c-5.4,5.4-13,13-25.3,23c-10,8.4-16.1,13.8-18.4,16.8
			s-5.4,6.1-6.9,8.4h64.3V892z"/>
		<path class="st4" d="M4512.1,843c0-15.3,1.5-28.3,4.6-37.5c3.1-9.2,7.7-16.8,14.5-22.2c6.9-5.4,14.5-7.7,23.7-7.7
			c6.9,0,13,1.5,18.4,4.6c5.4,3.1,10,6.9,13,12.2s6.1,12.2,8.4,19.9c2.3,7.7,3.1,18.4,3.1,31.4c0,15.3-1.5,27.6-4.6,37.5
			s-7.7,16.8-14.5,22.2c-6.9,5.4-14.5,7.7-23.7,7.7c-13,0-23-4.6-29.9-13.8C4516,885.1,4512.1,867.5,4512.1,843z M4528.2,843
			c0,21.4,2.3,36,7.7,42.9s11.5,10.7,18.4,10.7s13.8-3.8,18.4-10.7c4.6-6.9,7.7-21.4,7.7-42.9c0-21.4-2.3-36-7.7-42.9
			c-5.4-6.9-11.5-10.7-19.1-10.7c-7.7,0-13,3.1-17.6,9.2C4531.3,806.3,4528.2,821.6,4528.2,843z"/>
		<path class="st4" d="M4675.2,907.3h-16.1V804.8c-3.8,3.8-9.2,7.7-15.3,11.5c-6.1,3.8-12.2,6.1-16.8,8.4v-15.3
			c9.2-4.6,16.8-9.2,23.7-15.3c6.9-6.1,11.5-12.2,14.5-17.6h10.7v130.9H4675.2z"/>
		<path class="st4" d="M4718.8,877.5l15.3-1.5c1.5,7.7,3.8,12.2,7.7,16.1c3.8,3.8,8.4,4.6,14.5,4.6c4.6,0,9.2-0.8,13-3.1
			c3.8-2.3,6.9-5.4,9.2-9.2c2.3-3.8,4.6-9.2,6.1-15.3s2.3-13,2.3-19.9c0-0.8,0-1.5,0-3.1c-3.1,5.4-7.7,9.2-13,12.2
			c-5.4,3.1-11.5,4.6-18.4,4.6c-10.7,0-19.9-3.8-27.6-11.5c-7.7-7.7-11.5-18.4-11.5-31.4c0-13,3.8-23.7,11.5-32.2
			s17.6-12.2,29.9-12.2c8.4,0,16.1,2.3,23.7,6.9c7.7,4.6,12.2,11.5,16.1,19.9c3.8,8.4,5.4,20.7,5.4,36.7c0,16.8-1.5,29.9-5.4,39.8
			c-3.8,10-9.2,17.6-16.1,23c-6.9,5.4-15.3,7.7-25.3,7.7s-18.4-3.1-25.3-8.4S4720.4,887.4,4718.8,877.5z M4784.7,819.3
			c0-9.2-2.3-16.8-7.7-22.2c-5.4-5.4-10.7-8.4-17.6-8.4c-6.9,0-13.8,3.1-18.4,8.4c-4.6,5.4-7.7,13.8-7.7,23c0,8.4,2.3,15.3,7.7,20.7
			s11.5,7.7,18.4,7.7c7.7,0,13.8-2.3,18.4-7.7C4782.4,835.4,4784.7,828.5,4784.7,819.3z"/>
		<path class="st4" d="M4954.6,892v15.3h-87.3c0-3.8,0.8-7.7,1.5-11.5c2.3-6.1,6.1-11.5,10.7-17.6c4.6-6.1,12.2-12.2,21.4-19.9
			c14.5-11.5,23.7-20.7,29.1-27.6s7.7-13,7.7-19.1c0-6.1-2.3-11.5-6.9-16.1c-4.6-4.6-10.7-6.9-17.6-6.9c-7.7,0-13.8,2.3-18.4,6.9
			c-4.6,4.6-6.9,11.5-6.9,19.1l-16.8-1.5c0.8-12.2,5.4-21.4,13-28.3c7.7-6.9,17.6-10,29.9-10c12.2,0,23,3.8,29.9,10.7
			s10.7,15.3,10.7,26c0,5.4-0.8,10.7-3.1,15.3c-2.3,4.6-5.4,10.7-10.7,16.1s-13,13-25.3,23c-10,8.4-16.1,13.8-18.4,16.8
			s-5.4,6.1-6.9,8.4h64.3V892z"/>
		<path class="st4" d="M4971.5,843c0-15.3,1.5-28.3,4.6-37.5c3.1-9.2,7.7-16.8,14.5-22.2c6.9-5.4,14.5-7.7,23.7-7.7
			c6.9,0,13,1.5,18.4,4.6c5.4,3.1,10,6.9,13,12.2c3.1,5.4,6.1,12.2,8.4,19.9c2.3,7.7,3.1,18.4,3.1,31.4c0,15.3-1.5,27.6-4.6,37.5
			c-3.1,10-7.7,16.8-14.5,22.2c-6.9,5.4-14.5,7.7-23.7,7.7c-13,0-23-4.6-29.9-13.8C4976.1,885.1,4971.5,867.5,4971.5,843z
			 M4988.3,843c0,21.4,2.3,36,7.7,42.9s11.5,10.7,18.4,10.7s13.8-3.8,18.4-10.7c4.6-6.9,7.7-21.4,7.7-42.9c0-21.4-2.3-36-7.7-42.9
			c-5.4-6.9-11.5-10.7-19.1-10.7c-7.7,0-13,3.1-17.6,9.2C4991.4,806.3,4988.3,821.6,4988.3,843z"/>
		<path class="st4" d="M5082.5,830.8v-18.4h18.4v18.4H5082.5z M5082.5,907.3V889h18.4v18.4H5082.5z"/>
		<path class="st4" d="M5209.6,892v15.3h-87.3c0-3.8,0.8-7.7,1.5-11.5c2.3-6.1,6.1-11.5,10.7-17.6c4.6-6.1,12.2-12.2,21.4-19.9
			c14.5-11.5,23.7-20.7,29.1-27.6s7.7-13,7.7-19.1c0-6.1-2.3-11.5-6.9-16.1c-4.6-4.6-10.7-6.9-17.6-6.9c-7.7,0-13.8,2.3-18.4,6.9
			c-4.6,4.6-6.9,11.5-6.9,19.1l-16.8-1.5c0.8-12.2,5.4-21.4,13-28.3c7.7-6.9,17.6-10,29.9-10c12.2,0,23,3.8,29.9,10.7
			s10.7,15.3,10.7,26c0,5.4-0.8,10.7-3.1,15.3c-2.3,4.6-5.4,10.7-10.7,16.1s-13,13-25.3,23c-10,8.4-16.1,13.8-18.4,16.8
			s-5.4,6.1-6.9,8.4h64.3V892z"/>
		<path class="st4" d="M5310.6,808.6l-16.1,1.5c-1.5-6.1-3.8-10.7-6.1-13.8c-4.6-4.6-10-6.9-16.1-6.9c-5.4,0-10,1.5-13.8,4.6
			c-5.4,3.8-9.2,9.2-12.2,16.1c-3.1,6.9-4.6,17.6-4.6,30.6c3.8-6.1,8.4-10,14.5-13c6.1-3.1,11.5-4.6,17.6-4.6
			c10.7,0,19.9,3.8,27.6,12.2s11.5,18.4,11.5,30.6c0,8.4-1.5,16.1-5.4,23c-3.8,6.9-8.4,12.2-14.5,16.1c-6.1,3.8-13,5.4-21.4,5.4
			c-13.8,0-24.5-4.6-32.9-14.5c-8.4-10-13-26-13-49c0-25.3,4.6-43.6,13.8-55.1c8.4-10,19.1-15.3,32.9-15.3c10.7,0,19.1,3.1,25.3,8.4
			C5303.7,790.2,5309.8,797.9,5310.6,808.6z M5244.8,865.2c0,5.4,1.5,10.7,3.8,16.1c2.3,5.4,5.4,9.2,10,11.5s8.4,3.8,13,3.8
			c6.9,0,13-3.1,17.6-8.4c4.6-5.4,7.7-13,7.7-22.2c0-9.2-2.3-16.1-6.9-21.4c-4.6-5.4-10.7-7.7-18.4-7.7c-7.7,0-13.8,2.3-18.4,7.7
			C5248.6,849.9,5244.8,856.8,5244.8,865.2z"/>
	</g>
</g>
<g id="Слой_10__x28_копия3_x29_">
	<g>
		<path class="st4" d="M3983.9,1198.2v15.3h-87.3c0-3.8,0.8-7.7,1.5-11.5c2.3-6.1,6.1-11.5,10.7-17.6s12.2-12.2,21.4-19.9
			c14.5-11.5,23.7-20.7,29.1-27.6c5.4-6.9,7.7-13,7.7-19.1s-2.3-11.5-6.9-16.1s-10.7-6.9-17.6-6.9c-7.7,0-13.8,2.3-18.4,6.9
			s-6.9,11.5-6.9,19.1l-16.8-1.5c0.8-12.2,5.4-21.4,13-28.3c7.7-6.9,17.6-10,29.9-10c12.2,0,23,3.8,29.9,10.7
			c6.9,6.9,10.7,15.3,10.7,26c0,5.4-0.8,10.7-3.1,15.3c-2.3,4.6-5.4,10.7-10.7,16.1s-13,13-25.3,23c-10,8.4-16.1,13.8-18.4,16.8
			c-2.3,3.1-5.4,6.1-6.9,8.4h64.3V1198.2z"/>
		<path class="st4" d="M4052.8,1213.6v-31.4h-57.4v-14.5l59.7-85h13v85h17.6v14.5h-16.8v31.4H4052.8z M4052.8,1167.6v-58.9
			l-41.3,58.9H4052.8z"/>
		<path class="st4" d="M4112.5,1213.6v-18.4h18.4v18.4H4112.5z"/>
		<path class="st4" d="M4154.6,1149.3c0-15.3,1.5-28.3,4.6-37.5c3.1-9.2,7.7-16.8,14.5-22.2s14.5-7.7,23.7-7.7
			c6.9,0,13,1.5,18.4,4.6s10,6.9,13,12.2s6.1,12.2,8.4,19.9s3.1,18.4,3.1,31.4c0,15.3-1.5,27.6-4.6,37.5c-3.1,10-7.7,16.8-14.5,22.2
			s-14.5,7.7-23.7,7.7c-13,0-23-4.6-29.9-13.8C4158.5,1191.4,4154.6,1173.7,4154.6,1149.3z M4170.7,1149.3c0,21.4,2.3,36,7.7,42.9
			s11.5,10.7,18.4,10.7s13.8-3.8,18.4-10.7c4.6-6.9,7.7-21.4,7.7-42.9c0-21.4-2.3-36-7.7-42.9c-5.4-6.9-11.5-10.7-19.1-10.7
			c-7.7,0-13,3.1-17.6,9.2C4173.8,1112.5,4170.7,1127.8,4170.7,1149.3z"/>
		<path class="st4" d="M4317.7,1213.6h-16.1V1111c-3.8,3.8-9.2,7.7-15.3,11.5c-6.1,3.8-12.2,6.1-16.8,8.4v-15.3
			c9.2-4.6,16.8-9.2,23.7-15.3c6.9-6.1,11.5-12.2,14.5-17.6h10.7v130.9H4317.7z"/>
		<path class="st4" d="M4367.5,1213.6v-18.4h18.4v18.4H4367.5z"/>
		<path class="st4" d="M4494.5,1198.2v15.3h-87.3c0-3.8,0.8-7.7,1.5-11.5c2.3-6.1,6.1-11.5,10.7-17.6c4.6-6.1,12.2-12.2,21.4-19.9
			c14.5-11.5,23.7-20.7,29.1-27.6c5.4-6.9,7.7-13,7.7-19.1s-2.3-11.5-6.9-16.1c-4.6-4.6-10.7-6.9-17.6-6.9c-7.7,0-13.8,2.3-18.4,6.9
			c-4.6,4.6-6.9,11.5-6.9,19.1l-16.8-1.5c0.8-12.2,5.4-21.4,13-28.3c7.7-6.9,17.6-10,29.9-10c12.2,0,23,3.8,29.9,10.7
			c6.9,6.9,10.7,15.3,10.7,26c0,5.4-0.8,10.7-3.1,15.3c-2.3,4.6-5.4,10.7-10.7,16.1c-5.4,5.4-13,13-25.3,23
			c-10,8.4-16.1,13.8-18.4,16.8s-5.4,6.1-6.9,8.4h64.3V1198.2z"/>
		<path class="st4" d="M4512.1,1149.3c0-15.3,1.5-28.3,4.6-37.5c3.1-9.2,7.7-16.8,14.5-22.2s14.5-7.7,23.7-7.7
			c6.9,0,13,1.5,18.4,4.6s10,6.9,13,12.2s6.1,12.2,8.4,19.9s3.1,18.4,3.1,31.4c0,15.3-1.5,27.6-4.6,37.5c-3.1,10-7.7,16.8-14.5,22.2
			s-14.5,7.7-23.7,7.7c-13,0-23-4.6-29.9-13.8C4516,1191.4,4512.1,1173.7,4512.1,1149.3z M4528.2,1149.3c0,21.4,2.3,36,7.7,42.9
			s11.5,10.7,18.4,10.7s13.8-3.8,18.4-10.7c4.6-6.9,7.7-21.4,7.7-42.9c0-21.4-2.3-36-7.7-42.9c-5.4-6.9-11.5-10.7-19.1-10.7
			c-7.7,0-13,3.1-17.6,9.2C4531.3,1112.5,4528.2,1127.8,4528.2,1149.3z"/>
		<path class="st4" d="M4698.9,1198.2v15.3h-87.3c0-3.8,0.8-7.7,1.5-11.5c2.3-6.1,6.1-11.5,10.7-17.6c4.6-6.1,12.2-12.2,21.4-19.9
			c14.5-11.5,23.7-20.7,29.1-27.6c5.4-6.9,7.7-13,7.7-19.1s-2.3-11.5-6.9-16.1c-4.6-4.6-10.7-6.9-17.6-6.9c-7.7,0-13.8,2.3-18.4,6.9
			s-6.9,11.5-6.9,19.1l-16.8-1.5c0.8-12.2,5.4-21.4,13-28.3c7.7-6.9,17.6-10,29.9-10c12.2,0,23,3.8,29.9,10.7
			c6.9,6.9,10.7,15.3,10.7,26c0,5.4-0.8,10.7-3.1,15.3s-5.4,10.7-10.7,16.1s-13,13-25.3,23c-10,8.4-16.1,13.8-18.4,16.8
			c-2.3,3.1-5.4,6.1-6.9,8.4h64.3V1198.2z"/>
		<path class="st4" d="M4716.5,1149.3c0-15.3,1.5-28.3,4.6-37.5c3.1-9.2,7.7-16.8,14.5-22.2c6.9-5.4,14.5-7.7,23.7-7.7
			c6.9,0,13,1.5,18.4,4.6s10,6.9,13,12.2c3.1,5.4,6.1,12.2,8.4,19.9c2.3,7.7,3.1,18.4,3.1,31.4c0,15.3-1.5,27.6-4.6,37.5
			c-3.1,10-7.7,16.8-14.5,22.2s-14.5,7.7-23.7,7.7c-13,0-23-4.6-29.9-13.8C4720.4,1191.4,4716.5,1173.7,4716.5,1149.3z
			 M4732.6,1149.3c0,21.4,2.3,36,7.7,42.9s11.5,10.7,18.4,10.7c6.9,0,13.8-3.8,18.4-10.7c4.6-6.9,7.7-21.4,7.7-42.9
			c0-21.4-2.3-36-7.7-42.9c-5.4-6.9-11.5-10.7-19.1-10.7s-13,3.1-17.6,9.2C4735.7,1112.5,4732.6,1127.8,4732.6,1149.3z"/>
		<path class="st4" d="M4930.1,1213.6h-16.1V1111c-3.8,3.8-9.2,7.7-15.3,11.5c-6.1,3.8-12.2,6.1-16.8,8.4v-15.3
			c9.2-4.6,16.8-9.2,23.7-15.3c6.9-6.1,11.5-12.2,14.5-17.6h10.7v130.9H4930.1z"/>
		<path class="st4" d="M4973,1099.5v-15.3h85v12.2c-8.4,9.2-16.8,20.7-25.3,35.2c-8.4,14.5-14.5,29.9-19.1,45.9
			c-3.1,10.7-5.4,23-6.1,36h-16.8c0-10.7,2.3-23,6.1-37.5s9.2-29.1,16.8-42.1c7.7-13,15.3-25.3,23-34.4L4973,1099.5L4973,1099.5z"/>
		<path class="st4" d="M5082.5,1137v-18.4h18.4v18.4H5082.5z M5082.5,1213.6v-18.4h18.4v18.4H5082.5z"/>
		<path class="st4" d="M5176.6,1213.6v-31.4h-57.4v-14.5l59.7-85h13v85h17.6v14.5h-17.6v31.4H5176.6z M5176.6,1167.6v-58.9
			l-41.3,58.9H5176.6z"/>
		<path class="st4" d="M5227.2,1179.1l16.8-1.5c1.5,8.4,3.8,14.5,8.4,18.4c4.6,3.8,10,6.1,16.8,6.1c7.7,0,14.5-3.1,19.9-8.4
			c5.4-5.4,8.4-13.8,8.4-23c0-9.2-2.3-16.8-7.7-21.4s-12.2-7.7-20.7-7.7c-5.4,0-10,1.5-13.8,3.8c-3.8,2.3-7.7,5.4-10,9.2l-15.3-2.3
			l13-67.4h65.1v15.3h-52.8l-6.9,35.2c7.7-5.4,16.1-8.4,24.5-8.4c11.5,0,21.4,3.8,29.1,12.2c7.7,8.4,11.5,18.4,11.5,30.6
			s-3.8,22.2-10.7,30.6c-8.4,10.7-19.9,16.1-34.4,16.1c-12.2,0-21.4-3.1-29.1-10C5231.8,1199.8,5227.9,1190.6,5227.2,1179.1z"/>
	</g>
</g>
</svg>
