<?xml version="1.0" encoding="utf-8"?>
<!-- Generator: Adobe Illustrator 22.0.1, SVG Export Plug-In . SVG Version: 6.00 Build 0)  -->
<svg version="1.1" id="Слой_1" xmlns="http://www.w3.org/2000/svg" xmlns:xlink="http://www.w3.org/1999/xlink" x="0px" y="0px"
	 viewBox="0 0 974.5 229" style="enable-background:new 0 0 974.5 229;" xml:space="preserve">
<style type="text/css">
	.st0{fill:#925F35;}
	.st1{fill:#5B1026;}
	.st2{fill:#FFD6B0;}
	.st3{fill:#FFD0BB;}
	.st4{fill:#5E3110;}
	.st5{fill:#CE875F;}
</style>
<rect x="0.3" y="-0.5" class="st0" width="974" height="230"/>
<g>
	<g>
		<path class="st1" d="M516,121.3c74.6,0,149.2,0,223.8,0c1.9,0,1.9-3,0-3c-74.6,0-149.2,0-223.8,0
			C514.1,118.3,514.1,121.3,516,121.3L516,121.3z"/>
	</g>
</g>
<g>
	<path class="st2" d="M61.7,54.9h5l-7.2,13.5h-5.1L61.7,54.9z M76.4,68.3h-4.5v-26h-5.6c-1.5,0-2.7,0.2-3.6,0.7
		c-0.9,0.4-1.6,1.1-2,1.9c-0.4,0.8-0.6,1.8-0.6,2.9c0,1.1,0.2,2.1,0.6,2.9c0.4,0.8,1.1,1.4,2,1.8c0.9,0.4,2.1,0.6,3.6,0.6h7.6V57
		h-8.1c-2.3,0-4.2-0.4-5.8-1.2c-1.5-0.8-2.7-1.8-3.4-3.2c-0.8-1.4-1.1-3-1.1-4.8c0-1.8,0.4-3.5,1.1-4.9c0.8-1.4,1.9-2.5,3.4-3.3
		c1.5-0.8,3.4-1.2,5.8-1.2h10.6V68.3z"/>
	<path class="st2" d="M97.8,62.2l9.9-16.3h4.7v22.4H108V52.1l-9.8,16.3h-4.7V46h4.3V62.2z"/>
	<path class="st2" d="M127.6,68.8c-2.2,0-4-0.5-5.6-1.5c-1.6-1-2.8-2.3-3.6-4.1s-1.3-3.7-1.3-6c0-2.3,0.4-4.3,1.3-6s2.1-3.1,3.6-4.1
		c1.6-1,3.4-1.5,5.5-1.5c1.7,0,3.2,0.3,4.5,0.9c1.3,0.6,2.4,1.5,3.2,2.6c0.8,1.1,1.3,2.4,1.5,3.9h-4.2c-0.2-1-0.8-2-1.6-2.7
		c-0.8-0.8-1.9-1.1-3.3-1.1c-1.2,0-2.3,0.3-3.2,1s-1.6,1.5-2.1,2.7c-0.5,1.2-0.8,2.6-0.8,4.1c0,1.6,0.2,3,0.7,4.2s1.2,2.1,2.1,2.8
		c0.9,0.7,2,1,3.2,1c0.8,0,1.6-0.2,2.2-0.5s1.2-0.7,1.7-1.3s0.8-1.3,1-2.1h4.2c-0.2,1.4-0.6,2.7-1.4,3.9s-1.8,2-3.2,2.7
		C130.9,68.5,129.4,68.8,127.6,68.8z"/>
	<path class="st2" d="M141.4,68.3V46h18.2v22.4h-4.3V49.7h-9.7v18.6H141.4z"/>
	<path class="st2" d="M174.9,68.8c-2.1,0-3.9-0.5-5.5-1.4c-1.6-1-2.8-2.3-3.6-4c-0.9-1.7-1.3-3.7-1.3-6.1c0-2.3,0.4-4.3,1.3-6.1
		c0.9-1.7,2.1-3.1,3.6-4c1.6-1,3.4-1.4,5.5-1.4s3.9,0.5,5.5,1.4s2.8,2.3,3.6,4c0.9,1.7,1.3,3.8,1.3,6.1c0,2.3-0.4,4.3-1.3,6.1
		c-0.9,1.7-2.1,3.1-3.6,4S177,68.8,174.9,68.8z M175,65.1c1.4,0,2.5-0.4,3.4-1.1c0.9-0.7,1.6-1.7,2-2.9c0.4-1.2,0.6-2.5,0.6-3.9
		c0-1.4-0.2-2.7-0.6-3.9c-0.4-1.2-1.1-2.2-2-2.9s-2-1.1-3.4-1.1c-1.4,0-2.5,0.4-3.4,1.1s-1.6,1.7-2,2.9c-0.4,1.2-0.6,2.5-0.6,3.9
		c0,1.4,0.2,2.8,0.6,3.9c0.4,1.2,1.1,2.2,2,2.9C172.5,64.8,173.6,65.1,175,65.1z"/>
	<path class="st2" d="M188.5,68.3l0-3.8h0.8c0.6,0,1.1-0.1,1.6-0.4c0.4-0.3,0.8-0.7,1-1.4c0.3-0.6,0.5-1.5,0.6-2.7
		c0.1-1.1,0.3-2.6,0.3-4.3l0.4-9.9h15.6v22.4h-4.3V49.7h-7.3l-0.3,7.6c-0.1,1.8-0.3,3.5-0.6,4.8c-0.3,1.4-0.7,2.5-1.2,3.4
		c-0.5,0.9-1.2,1.6-2.1,2.1c-0.9,0.5-1.9,0.7-3.1,0.7H188.5z"/>
	<path class="st2" d="M217.9,53.7h6.5c2.7,0,4.8,0.7,6.3,2c1.5,1.4,2.2,3.1,2.2,5.3c0,1.4-0.3,2.7-1,3.8s-1.6,2-2.9,2.6
		s-2.8,1-4.6,1h-9.8V46h4.3v18.6h5.5c1.3,0,2.3-0.3,3.1-1s1.2-1.5,1.2-2.5c0-1.1-0.4-2-1.2-2.6c-0.8-0.7-1.8-1-3.1-1h-6.5V53.7z"/>
	<path class="st2" d="M236.4,62.4h4.5c0.1,0.9,0.5,1.6,1.2,2.1c0.8,0.5,1.8,0.7,3,0.7c1.3,0,2.3-0.3,3.2-0.8
		c0.9-0.5,1.3-1.4,1.3-2.5c0-0.7-0.2-1.3-0.5-1.8s-0.8-0.9-1.4-1.2c-0.6-0.3-1.3-0.4-2.1-0.4H242v-3.4h3.6c1.2,0,2.2-0.3,2.8-0.8
		c0.6-0.6,0.9-1.3,0.9-2.1c0-0.9-0.3-1.6-1-2.2c-0.7-0.6-1.6-0.8-2.7-0.8c-1.2,0-2.2,0.3-3,0.8c-0.8,0.5-1.2,1.2-1.2,2H237
		c0-1.3,0.4-2.4,1.1-3.3c0.7-0.9,1.7-1.7,3-2.2c1.2-0.5,2.7-0.8,4.3-0.8c1.7,0,3.1,0.3,4.3,0.8c1.2,0.5,2.2,1.3,2.8,2.2
		c0.7,0.9,1,2,1,3.2c0,1.2-0.4,2.2-1.1,3s-1.7,1.3-2.9,1.7v0.2c0.9,0.1,1.6,0.3,2.3,0.8c0.7,0.5,1.2,1.1,1.6,1.8
		c0.4,0.8,0.6,1.6,0.6,2.6c0,1.4-0.4,2.6-1.1,3.6c-0.8,1-1.8,1.8-3.1,2.3c-1.3,0.5-2.8,0.8-4.5,0.8c-1.7,0-3.1-0.3-4.4-0.8
		c-1.3-0.5-2.3-1.3-3.1-2.2C236.9,64.8,236.5,63.7,236.4,62.4z"/>
	<path class="st2" d="M261.2,76.7c-0.7,0-1.2-0.1-1.8-0.2s-0.9-0.2-1.2-0.3l1-3.6c1.2,0.3,2.2,0.4,3,0.1c0.8-0.3,1.5-1.1,2-2.6
		l0.5-1.5L256.7,46h4.7l5.7,17.4h0.2l5.7-17.4l4.7,0l-9.2,25.3c-0.4,1.2-1,2.1-1.6,2.9s-1.4,1.4-2.4,1.8S262.4,76.7,261.2,76.7z"/>
	<path class="st2" d="M284.6,46v22.4h-4.4V46H284.6z M293,55.4v3.8h-11.9v-3.8H293z M299.8,68.8c-2.1,0-3.9-0.5-5.4-1.5
		s-2.8-2.3-3.6-4.1c-0.9-1.7-1.3-3.7-1.3-6c0-2.3,0.4-4.3,1.3-6.1c0.9-1.7,2.1-3.1,3.6-4s3.4-1.4,5.4-1.4c2.1,0,3.9,0.5,5.5,1.4
		c1.5,1,2.8,2.3,3.6,4c0.9,1.7,1.3,3.8,1.3,6.1c0,2.3-0.4,4.3-1.3,6c-0.9,1.7-2.1,3.1-3.6,4.1C303.7,68.3,301.9,68.8,299.8,68.8z
		 M299.8,65.1c1.4,0,2.6-0.4,3.5-1.1s1.6-1.7,2-2.8c0.4-1.2,0.6-2.5,0.6-3.9c0-1.4-0.2-2.7-0.6-3.9c-0.4-1.2-1.1-2.1-2-2.9
		c-0.9-0.7-2.1-1.1-3.5-1.1c-1.4,0-2.5,0.4-3.5,1.1c-0.9,0.7-1.6,1.7-2,2.9c-0.4,1.2-0.6,2.5-0.6,3.9c0,1.4,0.2,2.7,0.6,3.9
		c0.4,1.2,1.1,2.1,2,2.8C297.2,64.7,298.4,65.1,299.8,65.1z"/>
	<path class="st2" d="M326.1,68.3V46h4.4v9.4h2.1L340,46h5.4l-8.7,10.9l8.8,11.5h-5.4l-6.7-8.9h-2.8v8.9H326.1z"/>
	<path class="st2" d="M351.7,76.7c-0.7,0-1.2-0.1-1.8-0.2c-0.5-0.1-0.9-0.2-1.2-0.3l1-3.6c1.2,0.3,2.2,0.4,3,0.1
		c0.8-0.3,1.5-1.1,2-2.6l0.5-1.5L347.2,46h4.7l5.7,17.4h0.2l5.7-17.4l4.7,0l-9.2,25.3c-0.4,1.2-1,2.1-1.6,2.9s-1.4,1.4-2.4,1.8
		C354,76.5,352.9,76.7,351.7,76.7z"/>
	<path class="st2" d="M372.2,68.3V46h4.4v9.4h2.1L386,46h5.4l-8.7,10.9l8.8,11.5h-5.4l-6.7-8.9h-2.8v8.9H372.2z"/>
	<path class="st2" d="M399.1,62.2L409,46h4.7v22.4h-4.3V52.1l-9.8,16.3h-4.7V46h4.3V62.2z"/>
	<path class="st2" d="M428.2,74.8V64.6h1.8c0.5-0.4,0.9-0.9,1.2-1.5c0.3-0.6,0.6-1.3,0.8-2.1c0.2-0.8,0.4-1.8,0.6-2.9
		c0.2-1.1,0.3-2.3,0.4-3.7l0.7-8.3h15.2v18.6h3.4v10.2h-4.3v-6.4h-15.6v6.4H428.2z M434.7,64.6h10V49.7h-7l-0.5,4.6
		c-0.2,2.3-0.5,4.4-0.8,6.1S435.4,63.5,434.7,64.6z"/>
	<path class="st2" d="M454.9,68.3l0-3.8h0.8c0.6,0,1.1-0.1,1.6-0.4c0.4-0.3,0.8-0.7,1-1.4c0.3-0.6,0.5-1.5,0.6-2.7
		c0.1-1.1,0.3-2.6,0.3-4.3l0.4-9.9h15.6v22.4h-4.3V49.7h-7.3l-0.3,7.6c-0.1,1.8-0.3,3.5-0.6,4.8c-0.3,1.4-0.7,2.5-1.2,3.4
		c-0.5,0.9-1.2,1.6-2.1,2.1c-0.9,0.5-1.9,0.7-3.1,0.7H454.9z"/>
	<path class="st2" d="M479.6,68.3L486,57h4.5l-6.3,11.3H479.6z M494.3,68.3V49.7H489c-1.3,0-2.3,0.3-3,0.9c-0.7,0.6-1.1,1.4-1.1,2.3
		c0,1,0.3,1.7,1,2.3c0.7,0.6,1.6,0.9,2.8,0.9h6.9v3.5h-6.9c-1.7,0-3.1-0.3-4.3-0.8c-1.2-0.5-2.1-1.3-2.8-2.3c-0.6-1-1-2.2-1-3.6
		c0-1.4,0.3-2.6,1-3.6c0.7-1,1.6-1.8,2.9-2.4s2.7-0.8,4.4-0.8h9.4v22.4H494.3z"/>
	<path class="st2" d="M524.5,68.8c-2.2,0-4-0.5-5.6-1.5c-1.6-1-2.8-2.3-3.6-4.1s-1.3-3.7-1.3-6c0-2.3,0.4-4.3,1.3-6s2.1-3.1,3.6-4.1
		c1.6-1,3.4-1.5,5.5-1.5c1.7,0,3.2,0.3,4.5,0.9c1.3,0.6,2.4,1.5,3.2,2.6c0.8,1.1,1.3,2.4,1.5,3.9h-4.2c-0.2-1-0.8-2-1.6-2.7
		c-0.8-0.8-1.9-1.1-3.3-1.1c-1.2,0-2.3,0.3-3.2,1s-1.6,1.5-2.1,2.7c-0.5,1.2-0.8,2.6-0.8,4.1c0,1.6,0.2,3,0.7,4.2s1.2,2.1,2.1,2.8
		c0.9,0.7,2,1,3.2,1c0.8,0,1.6-0.2,2.2-0.5s1.2-0.7,1.7-1.3c0.5-0.6,0.8-1.3,1-2.1h4.2c-0.2,1.4-0.6,2.7-1.4,3.9s-1.8,2-3.2,2.7
		C527.8,68.5,526.3,68.8,524.5,68.8z"/>
	<path class="st2" d="M547.8,68.8c-2.1,0-3.9-0.5-5.5-1.4s-2.8-2.3-3.6-4c-0.9-1.7-1.3-3.7-1.3-6.1c0-2.3,0.4-4.3,1.3-6.1
		c0.9-1.7,2.1-3.1,3.6-4s3.4-1.4,5.5-1.4s3.9,0.5,5.5,1.4c1.6,1,2.8,2.3,3.6,4c0.9,1.7,1.3,3.8,1.3,6.1c0,2.3-0.4,4.3-1.3,6.1
		c-0.9,1.7-2.1,3.1-3.6,4C551.7,68.3,549.9,68.8,547.8,68.8z M547.8,65.1c1.4,0,2.5-0.4,3.4-1.1c0.9-0.7,1.6-1.7,2-2.9
		c0.4-1.2,0.6-2.5,0.6-3.9c0-1.4-0.2-2.7-0.6-3.9c-0.4-1.2-1.1-2.2-2-2.9c-0.9-0.7-2-1.1-3.4-1.1c-1.4,0-2.5,0.4-3.4,1.1
		c-0.9,0.7-1.6,1.7-2,2.9s-0.6,2.5-0.6,3.9c0,1.4,0.2,2.8,0.6,3.9s1.1,2.2,2,2.9C545.3,64.8,546.4,65.1,547.8,65.1z"/>
	<path class="st2" d="M561.7,62.4h4.5c0.1,0.9,0.5,1.6,1.2,2.1c0.8,0.5,1.8,0.7,3,0.7c1.3,0,2.3-0.3,3.2-0.8
		c0.9-0.5,1.3-1.4,1.3-2.5c0-0.7-0.2-1.3-0.5-1.8s-0.8-0.9-1.4-1.2s-1.3-0.4-2.1-0.4h-3.6v-3.4h3.6c1.2,0,2.2-0.3,2.8-0.8
		c0.6-0.6,0.9-1.3,0.9-2.1c0-0.9-0.3-1.6-1-2.2c-0.7-0.6-1.6-0.8-2.7-0.8c-1.2,0-2.2,0.3-3,0.8c-0.8,0.5-1.2,1.2-1.2,2h-4.4
		c0-1.3,0.4-2.4,1.1-3.3c0.7-0.9,1.7-1.7,3-2.2c1.2-0.5,2.7-0.8,4.3-0.8c1.7,0,3.1,0.3,4.3,0.8c1.2,0.5,2.2,1.3,2.8,2.2
		c0.7,0.9,1,2,1,3.2c0,1.2-0.4,2.2-1.1,3c-0.7,0.8-1.7,1.3-2.9,1.7v0.2c0.9,0.1,1.6,0.3,2.3,0.8s1.2,1.1,1.6,1.8
		c0.4,0.8,0.6,1.6,0.6,2.6c0,1.4-0.4,2.6-1.1,3.6c-0.8,1-1.8,1.8-3.1,2.3c-1.3,0.5-2.8,0.8-4.5,0.8c-1.6,0-3.1-0.3-4.4-0.8
		c-1.3-0.5-2.3-1.3-3.1-2.2S561.8,63.7,561.7,62.4z"/>
	<path class="st2" d="M581.6,74.8V64.6h1.8c0.5-0.4,0.9-0.9,1.2-1.5c0.3-0.6,0.6-1.3,0.8-2.1c0.2-0.8,0.4-1.8,0.6-2.9
		c0.2-1.1,0.3-2.3,0.4-3.7l0.7-8.3h15.2v18.6h3.4v10.2h-4.3v-6.4h-15.6v6.4H581.6z M588.1,64.6h10V49.7h-7l-0.5,4.6
		c-0.2,2.3-0.5,4.4-0.8,6.1S588.8,63.5,588.1,64.6z"/>
	<path class="st2" d="M616.5,68.8c-1.4,0-2.7-0.3-3.8-0.8c-1.1-0.5-2.1-1.3-2.7-2.3c-0.7-1-1-2.2-1-3.7c0-1.3,0.2-2.3,0.7-3.1
		s1.1-1.5,2-1.9c0.8-0.5,1.7-0.8,2.8-1.1c1-0.2,2.1-0.4,3.1-0.6c1.3-0.2,2.4-0.3,3.3-0.4s1.4-0.3,1.8-0.5c0.4-0.2,0.6-0.6,0.6-1.1
		v-0.1c0-1.3-0.4-2.3-1.1-3c-0.7-0.7-1.8-1-3.2-1c-1.5,0-2.6,0.3-3.5,1s-1.4,1.4-1.7,2.1l-4.1-0.9c0.5-1.4,1.2-2.5,2.1-3.3
		s2-1.5,3.2-1.8c1.2-0.4,2.5-0.6,3.9-0.6c0.9,0,1.8,0.1,2.8,0.3c1,0.2,1.9,0.6,2.8,1.1c0.9,0.6,1.6,1.3,2.2,2.4c0.6,1,0.8,2.4,0.8,4
		v14.9h-4.3v-3.1h-0.2c-0.3,0.6-0.7,1.1-1.3,1.7c-0.6,0.5-1.3,1-2.2,1.4C618.8,68.6,617.7,68.8,616.5,68.8z M617.4,65.3
		c1.2,0,2.2-0.2,3.1-0.7c0.9-0.5,1.5-1.1,2-1.9c0.5-0.8,0.7-1.6,0.7-2.5v-2.9c-0.2,0.2-0.5,0.3-0.9,0.4c-0.4,0.1-0.9,0.2-1.5,0.3
		c-0.6,0.1-1.1,0.2-1.6,0.2c-0.5,0.1-1,0.1-1.3,0.2c-0.8,0.1-1.6,0.3-2.3,0.5c-0.7,0.3-1.2,0.6-1.7,1.1c-0.4,0.5-0.6,1.1-0.6,1.9
		c0,1.1,0.4,1.9,1.2,2.4S616.2,65.3,617.4,65.3z"/>
	<path class="st2" d="M637.6,46v22.4h-4.3V46H637.6z M648.5,55.3V59h-12.1v-3.8H648.5z M651.5,46v22.4h-4.3V46H651.5z"/>
	<path class="st2" d="M661.6,62.2l9.9-16.3h4.7v22.4h-4.3V52.1L662,68.3h-4.7V46h4.3V62.2z"/>
	<path class="st2" d="M680.6,68.3l6.3-11.3h4.5l-6.3,11.3H680.6z M695.3,68.3V49.7H690c-1.3,0-2.3,0.3-3,0.9
		c-0.7,0.6-1.1,1.4-1.1,2.3c0,1,0.3,1.7,1,2.3c0.7,0.6,1.6,0.9,2.8,0.9h6.9v3.5h-6.9c-1.7,0-3.1-0.3-4.3-0.8
		c-1.2-0.5-2.1-1.3-2.8-2.3c-0.6-1-1-2.2-1-3.6c0-1.4,0.3-2.6,1-3.6c0.7-1,1.6-1.8,2.9-2.4s2.7-0.8,4.4-0.8h9.4v22.4H695.3z"/>
	<path class="st2" d="M719.5,46l4.9,8.7l5-8.7h4.8l-7,11.2l7,11.2h-4.8l-5-8.4l-5,8.4h-4.8l7-11.2L714.7,46H719.5z"/>
	<path class="st2" d="M747.2,68.8c-2.1,0-3.9-0.5-5.5-1.4s-2.8-2.3-3.6-4c-0.9-1.7-1.3-3.7-1.3-6.1c0-2.3,0.4-4.3,1.3-6.1
		c0.9-1.7,2.1-3.1,3.6-4s3.4-1.4,5.5-1.4s3.9,0.5,5.5,1.4c1.6,1,2.8,2.3,3.6,4c0.9,1.7,1.3,3.8,1.3,6.1c0,2.3-0.4,4.3-1.3,6.1
		c-0.9,1.7-2.1,3.1-3.6,4C751.1,68.3,749.3,68.8,747.2,68.8z M747.2,65.1c1.4,0,2.5-0.4,3.4-1.1c0.9-0.7,1.6-1.7,2-2.9
		c0.4-1.2,0.6-2.5,0.6-3.9c0-1.4-0.2-2.7-0.6-3.9c-0.4-1.2-1.1-2.2-2-2.9c-0.9-0.7-2-1.1-3.4-1.1c-1.4,0-2.5,0.4-3.4,1.1
		c-0.9,0.7-1.6,1.7-2,2.9s-0.6,2.5-0.6,3.9c0,1.4,0.2,2.8,0.6,3.9s1.1,2.2,2,2.9C744.7,64.8,745.8,65.1,747.2,65.1z"/>
	<path class="st2" d="M762.5,76.7V46h4.3v3.6h0.4c0.3-0.5,0.6-1,1.1-1.6c0.5-0.6,1.1-1.1,2-1.6c0.8-0.5,2-0.7,3.3-0.7
		c1.8,0,3.4,0.5,4.8,1.4c1.4,0.9,2.5,2.2,3.3,3.9c0.8,1.7,1.2,3.8,1.2,6.2s-0.4,4.5-1.2,6.2c-0.8,1.7-1.9,3-3.3,4
		c-1.4,0.9-3,1.4-4.8,1.4c-1.4,0-2.5-0.2-3.3-0.7c-0.9-0.5-1.5-1-2-1.6s-0.9-1.2-1.1-1.6h-0.3v11.9H762.5z M766.7,57.1
		c0,1.6,0.2,3,0.7,4.1c0.5,1.2,1.1,2.1,2,2.8c0.9,0.7,1.9,1,3.2,1c1.3,0,2.4-0.3,3.3-1c0.9-0.7,1.5-1.6,2-2.8c0.5-1.2,0.7-2.5,0.7-4
		c0-1.5-0.2-2.8-0.7-4c-0.4-1.2-1.1-2.1-2-2.8c-0.9-0.7-2-1-3.3-1c-1.3,0-2.3,0.3-3.2,1s-1.5,1.6-2,2.7
		C767,54.2,766.7,55.6,766.7,57.1z"/>
	<path class="st2" d="M797.2,68.8c-2.1,0-3.9-0.5-5.5-1.4s-2.8-2.3-3.6-4c-0.9-1.7-1.3-3.7-1.3-6.1c0-2.3,0.4-4.3,1.3-6.1
		c0.9-1.7,2.1-3.1,3.6-4s3.4-1.4,5.5-1.4s3.9,0.5,5.5,1.4c1.6,1,2.8,2.3,3.6,4c0.9,1.7,1.3,3.8,1.3,6.1c0,2.3-0.4,4.3-1.3,6.1
		c-0.9,1.7-2.1,3.1-3.6,4C801.1,68.3,799.3,68.8,797.2,68.8z M797.2,65.1c1.4,0,2.5-0.4,3.4-1.1c0.9-0.7,1.6-1.7,2-2.9
		c0.4-1.2,0.6-2.5,0.6-3.9c0-1.4-0.2-2.7-0.6-3.9c-0.4-1.2-1.1-2.2-2-2.9c-0.9-0.7-2-1.1-3.4-1.1c-1.4,0-2.5,0.4-3.4,1.1
		c-0.9,0.7-1.6,1.7-2,2.9s-0.6,2.5-0.6,3.9c0,1.4,0.2,2.8,0.6,3.9s1.1,2.2,2,2.9C794.7,64.8,795.8,65.1,797.2,65.1z"/>
	<path class="st2" d="M812.5,46h4.3v18.6h7.7V46h4.3v18.6h7.7V46h4.3v22.4h-28.3V46z"/>
	<path class="st2" d="M856.2,68.8c-2.2,0-4.1-0.5-5.7-1.4c-1.6-0.9-2.8-2.3-3.7-4c-0.9-1.7-1.3-3.7-1.3-6.1c0-2.3,0.4-4.3,1.3-6.1
		c0.9-1.7,2.1-3.1,3.6-4.1c1.5-1,3.4-1.5,5.4-1.5c1.3,0,2.5,0.2,3.7,0.6c1.2,0.4,2.2,1.1,3.2,2c0.9,0.9,1.7,2.1,2.2,3.5
		c0.5,1.4,0.8,3.1,0.8,5.2v1.5H848v-3.3h13.5c0-1.1-0.2-2.2-0.7-3.1s-1.1-1.6-2-2.1c-0.8-0.5-1.8-0.8-2.9-0.8
		c-1.2,0-2.3,0.3-3.2,0.9c-0.9,0.6-1.6,1.4-2.1,2.3s-0.7,2-0.7,3.1v2.5c0,1.5,0.3,2.8,0.8,3.8c0.5,1,1.3,1.8,2.2,2.4
		s2.1,0.8,3.3,0.8c0.8,0,1.6-0.1,2.3-0.4s1.3-0.6,1.8-1.1s0.9-1.1,1.1-1.8l4.1,0.7c-0.3,1.2-0.9,2.3-1.8,3.2
		c-0.8,0.9-1.9,1.6-3.2,2.1C859.2,68.5,857.8,68.8,856.2,68.8z"/>
	<path class="st2" d="M884.9,46v3.8h-10v18.6h-4.3V46H884.9z"/>
	<path class="st2" d="M897.9,68.8c-2.1,0-3.9-0.5-5.5-1.4s-2.8-2.3-3.6-4c-0.9-1.7-1.3-3.7-1.3-6.1c0-2.3,0.4-4.3,1.3-6.1
		c0.9-1.7,2.1-3.1,3.6-4s3.4-1.4,5.5-1.4s3.9,0.5,5.5,1.4c1.6,1,2.8,2.3,3.6,4c0.9,1.7,1.3,3.8,1.3,6.1c0,2.3-0.4,4.3-1.3,6.1
		c-0.9,1.7-2.1,3.1-3.6,4C901.8,68.3,900,68.8,897.9,68.8z M897.9,65.1c1.4,0,2.5-0.4,3.4-1.1c0.9-0.7,1.6-1.7,2-2.9
		c0.4-1.2,0.6-2.5,0.6-3.9c0-1.4-0.2-2.7-0.6-3.9c-0.4-1.2-1.1-2.2-2-2.9c-0.9-0.7-2-1.1-3.4-1.1c-1.4,0-2.5,0.4-3.4,1.1
		c-0.9,0.7-1.6,1.7-2,2.9s-0.6,2.5-0.6,3.9c0,1.4,0.2,2.8,0.6,3.9s1.1,2.2,2,2.9C895.4,64.8,896.5,65.1,897.9,65.1z"/>
	<path class="st2" d="M56.2,117.5V95.2h9.3c2.5,0,4.5,0.5,6,1.6c1.5,1.1,2.2,2.5,2.2,4.4c0,1.3-0.4,2.3-1.3,3.1
		c-0.8,0.8-1.9,1.3-3.3,1.5c1,0.1,1.9,0.4,2.8,0.9c0.8,0.5,1.5,1.1,2,1.9c0.5,0.8,0.8,1.8,0.8,2.9c0,1.2-0.3,2.2-0.9,3.1
		c-0.6,0.9-1.5,1.6-2.7,2.1c-1.2,0.5-2.6,0.8-4.2,0.8H56.2z M60.3,104.5h5.2c0.8,0,1.5-0.1,2.1-0.3c0.6-0.2,1-0.6,1.4-1
		c0.3-0.4,0.5-0.9,0.5-1.5c0-0.9-0.4-1.5-1.1-2s-1.7-0.7-2.9-0.7h-5.2V104.5z M60.3,113.9h6.6c1.1,0,1.9-0.3,2.5-0.8
		c0.6-0.5,0.9-1.2,0.9-2.1c0-1-0.3-1.9-0.9-2.5c-0.6-0.6-1.5-0.9-2.5-0.9h-6.6V113.9z"/>
	<path class="st2" d="M79.4,117.5V95.2h18.2v22.4h-4.3V98.9h-9.7v18.6H79.4z"/>
	<path class="st2" d="M113.1,118c-2.2,0-4.1-0.5-5.7-1.4s-2.8-2.3-3.7-4c-0.9-1.7-1.3-3.7-1.3-6.1c0-2.3,0.4-4.3,1.3-6.1
		c0.9-1.7,2.1-3.1,3.6-4.1c1.5-1,3.4-1.5,5.4-1.5c1.3,0,2.5,0.2,3.7,0.6c1.2,0.4,2.2,1.1,3.2,2s1.7,2.1,2.2,3.5
		c0.5,1.4,0.8,3.1,0.8,5.2v1.5h-17.8v-3.3h13.5c0-1.1-0.2-2.2-0.7-3.1s-1.1-1.6-2-2.1c-0.8-0.5-1.8-0.8-2.9-0.8
		c-1.2,0-2.3,0.3-3.2,0.9c-0.9,0.6-1.6,1.4-2.1,2.3c-0.5,1-0.7,2-0.7,3.1v2.5c0,1.5,0.3,2.8,0.8,3.8c0.5,1,1.3,1.8,2.2,2.4
		s2.1,0.8,3.3,0.8c0.8,0,1.6-0.1,2.3-0.4c0.7-0.2,1.3-0.6,1.8-1.1c0.5-0.5,0.9-1.1,1.1-1.8l4.1,0.7c-0.3,1.2-0.9,2.3-1.8,3.2
		c-0.8,0.9-1.9,1.6-3.2,2.1C116.2,117.7,114.8,118,113.1,118z"/>
	<path class="st2" d="M143.7,105.5v3.8c-0.7,0.3-1.4,0.5-2.1,0.7c-0.7,0.2-1.5,0.4-2.4,0.5c-0.8,0.1-1.7,0.2-2.6,0.2
		c-2.8,0-5-0.7-6.6-2s-2.4-3.4-2.4-6.2v-7.3h4.2v7.3c0,1.1,0.2,1.9,0.6,2.6c0.4,0.7,0.9,1.1,1.7,1.5c0.7,0.3,1.6,0.5,2.6,0.5
		c1.3,0,2.5-0.1,3.6-0.4S142.5,106,143.7,105.5z M145.5,95.2v22.4h-4.3V95.2H145.5z"/>
	<path class="st2" d="M157.8,118c-1.4,0-2.7-0.3-3.8-0.8c-1.1-0.5-2.1-1.3-2.7-2.3c-0.7-1-1-2.2-1-3.7c0-1.3,0.2-2.3,0.7-3.1
		s1.1-1.5,2-1.9c0.8-0.5,1.7-0.8,2.8-1.1c1-0.2,2.1-0.4,3.1-0.6c1.3-0.2,2.4-0.3,3.3-0.4c0.8-0.1,1.4-0.3,1.8-0.5
		c0.4-0.2,0.6-0.6,0.6-1.1v-0.1c0-1.3-0.4-2.3-1.1-3s-1.8-1-3.2-1c-1.5,0-2.6,0.3-3.5,1s-1.4,1.4-1.7,2.1l-4.1-0.9
		c0.5-1.4,1.2-2.5,2.1-3.3c0.9-0.8,2-1.5,3.2-1.8s2.5-0.6,3.9-0.6c0.9,0,1.8,0.1,2.8,0.3c1,0.2,1.9,0.6,2.8,1.1s1.6,1.3,2.2,2.4
		c0.6,1,0.8,2.4,0.8,4v14.9h-4.3v-3.1h-0.2c-0.3,0.6-0.7,1.1-1.3,1.7c-0.6,0.5-1.3,1-2.2,1.4C160.1,117.8,159.1,118,157.8,118z
		 M158.8,114.5c1.2,0,2.2-0.2,3.1-0.7c0.9-0.5,1.5-1.1,2-1.9c0.5-0.8,0.7-1.6,0.7-2.5v-2.9c-0.2,0.2-0.5,0.3-0.9,0.4
		c-0.4,0.1-0.9,0.2-1.5,0.3c-0.6,0.1-1.1,0.2-1.6,0.2s-1,0.1-1.3,0.2c-0.8,0.1-1.6,0.3-2.3,0.5c-0.7,0.3-1.2,0.6-1.7,1.1
		c-0.4,0.5-0.6,1.1-0.6,1.9c0,1.1,0.4,1.9,1.2,2.4S157.6,114.5,158.8,114.5z"/>
	<path class="st2" d="M171.9,98.9v-3.8h18.9v3.8h-7.3v18.6h-4.3V98.9H171.9z"/>
	<path class="st2" d="M191.8,117.5l0-3.8h0.8c0.6,0,1.1-0.1,1.6-0.4c0.4-0.3,0.8-0.7,1-1.4c0.3-0.6,0.5-1.5,0.6-2.7
		c0.1-1.1,0.3-2.6,0.3-4.3l0.4-9.9h15.6v22.4h-4.3V98.9h-7.3l-0.3,7.6c-0.1,1.8-0.3,3.5-0.6,4.8c-0.3,1.4-0.7,2.5-1.2,3.4
		c-0.5,0.9-1.2,1.6-2.1,2.1c-0.9,0.5-1.9,0.7-3.1,0.7H191.8z"/>
	<path class="st2" d="M227.6,118c-2.2,0-4.1-0.5-5.7-1.4s-2.8-2.3-3.7-4c-0.9-1.7-1.3-3.7-1.3-6.1c0-2.3,0.4-4.3,1.3-6.1
		c0.9-1.7,2.1-3.1,3.6-4.1c1.5-1,3.4-1.5,5.4-1.5c1.3,0,2.5,0.2,3.7,0.6c1.2,0.4,2.2,1.1,3.2,2s1.7,2.1,2.2,3.5
		c0.5,1.4,0.8,3.1,0.8,5.2v1.5h-17.8v-3.3h13.5c0-1.1-0.2-2.2-0.7-3.1s-1.1-1.6-2-2.1c-0.8-0.5-1.8-0.8-2.9-0.8
		c-1.2,0-2.3,0.3-3.2,0.9c-0.9,0.6-1.6,1.4-2.1,2.3c-0.5,1-0.7,2-0.7,3.1v2.5c0,1.5,0.3,2.8,0.8,3.8c0.5,1,1.3,1.8,2.2,2.4
		s2.1,0.8,3.3,0.8c0.8,0,1.6-0.1,2.3-0.4c0.7-0.2,1.3-0.6,1.8-1.1c0.5-0.5,0.9-1.1,1.1-1.8l4.1,0.7c-0.3,1.2-0.9,2.3-1.8,3.2
		c-0.8,0.9-1.9,1.6-3.2,2.1C230.6,117.7,229.2,118,227.6,118z"/>
	<path class="st2" d="M246.3,95.2v22.4H242V95.2H246.3z M257.2,104.5v3.8H245v-3.8H257.2z M260.2,95.2v22.4h-4.3V95.2H260.2z"/>
	<path class="st2" d="M270.3,111.4l9.9-16.3h4.7v22.4h-4.3v-16.3l-9.8,16.3H266V95.2h4.3V111.4z"/>
	<path class="st2" d="M289.3,117.5l6.3-11.3h4.5l-6.3,11.3H289.3z M304,117.5V98.9h-5.4c-1.3,0-2.3,0.3-3,0.9
		c-0.7,0.6-1.1,1.4-1.1,2.3c0,1,0.3,1.7,1,2.3c0.7,0.6,1.6,0.9,2.8,0.9h6.9v3.5h-6.9c-1.6,0-3.1-0.3-4.3-0.8
		c-1.2-0.5-2.1-1.3-2.8-2.3c-0.6-1-1-2.2-1-3.6c0-1.4,0.3-2.6,1-3.6c0.7-1,1.6-1.8,2.9-2.4s2.7-0.8,4.4-0.8h9.4v22.4H304z"/>
	<path class="st2" d="M334.2,118c-2.1,0-3.9-0.5-5.5-1.4s-2.8-2.3-3.6-4c-0.9-1.7-1.3-3.7-1.3-6.1c0-2.3,0.4-4.3,1.3-6.1
		c0.9-1.7,2.1-3.1,3.6-4s3.4-1.4,5.5-1.4c2.1,0,3.9,0.5,5.5,1.4s2.8,2.3,3.6,4c0.9,1.7,1.3,3.8,1.3,6.1c0,2.3-0.4,4.3-1.3,6.1
		c-0.9,1.7-2.1,3.1-3.6,4S336.3,118,334.2,118z M334.2,114.3c1.4,0,2.5-0.4,3.4-1.1c0.9-0.7,1.6-1.7,2-2.9s0.6-2.5,0.6-3.9
		c0-1.4-0.2-2.7-0.6-3.9s-1.1-2.2-2-2.9c-0.9-0.7-2-1.1-3.4-1.1c-1.4,0-2.5,0.4-3.4,1.1c-0.9,0.7-1.6,1.7-2,2.9s-0.6,2.5-0.6,3.9
		c0,1.4,0.2,2.8,0.6,3.9s1.1,2.2,2,2.9C331.7,114,332.8,114.3,334.2,114.3z"/>
	<path class="st2" d="M346.8,98.9v-3.8h18.9v3.8h-7.3v18.6h-4.3V98.9H346.8z"/>
	<path class="st2" d="M390.5,118c-2.2,0-4-0.5-5.6-1.5c-1.6-1-2.8-2.3-3.6-4.1s-1.3-3.7-1.3-6c0-2.3,0.4-4.3,1.3-6s2.1-3.1,3.6-4.1
		c1.6-1,3.4-1.5,5.5-1.5c1.7,0,3.2,0.3,4.5,0.9c1.3,0.6,2.4,1.5,3.2,2.6c0.8,1.1,1.3,2.4,1.5,3.9h-4.2c-0.2-1-0.8-2-1.6-2.7
		c-0.8-0.8-1.9-1.1-3.3-1.1c-1.2,0-2.3,0.3-3.2,1s-1.6,1.5-2.1,2.7c-0.5,1.2-0.8,2.6-0.8,4.1c0,1.6,0.2,3,0.7,4.2s1.2,2.1,2.1,2.8
		c0.9,0.7,2,1,3.2,1c0.8,0,1.6-0.2,2.2-0.5s1.2-0.7,1.7-1.3c0.5-0.6,0.8-1.3,1-2.1h4.2c-0.2,1.4-0.6,2.7-1.4,3.9s-1.8,2-3.2,2.7
		C393.8,117.7,392.3,118,390.5,118z"/>
	<path class="st2" d="M410.9,118c-1.4,0-2.7-0.3-3.8-0.8c-1.1-0.5-2.1-1.3-2.7-2.3c-0.7-1-1-2.2-1-3.7c0-1.3,0.2-2.3,0.7-3.1
		s1.1-1.5,2-1.9c0.8-0.5,1.7-0.8,2.8-1.1c1-0.2,2.1-0.4,3.1-0.6c1.3-0.2,2.4-0.3,3.3-0.4s1.4-0.3,1.8-0.5c0.4-0.2,0.6-0.6,0.6-1.1
		v-0.1c0-1.3-0.4-2.3-1.1-3c-0.7-0.7-1.8-1-3.2-1c-1.5,0-2.6,0.3-3.5,1s-1.4,1.4-1.7,2.1l-4.1-0.9c0.5-1.4,1.2-2.5,2.1-3.3
		s2-1.5,3.2-1.8c1.2-0.4,2.5-0.6,3.9-0.6c0.9,0,1.8,0.1,2.8,0.3c1,0.2,1.9,0.6,2.8,1.1c0.9,0.6,1.6,1.3,2.2,2.4c0.6,1,0.8,2.4,0.8,4
		v14.9h-4.3v-3.1h-0.2c-0.3,0.6-0.7,1.1-1.3,1.7c-0.6,0.5-1.3,1-2.2,1.4C413.2,117.8,412.1,118,410.9,118z M411.8,114.5
		c1.2,0,2.2-0.2,3.1-0.7c0.9-0.5,1.5-1.1,2-1.9c0.5-0.8,0.7-1.6,0.7-2.5v-2.9c-0.2,0.2-0.5,0.3-0.9,0.4c-0.4,0.1-0.9,0.2-1.5,0.3
		c-0.6,0.1-1.1,0.2-1.6,0.2c-0.5,0.1-1,0.1-1.3,0.2c-0.8,0.1-1.6,0.3-2.3,0.5c-0.7,0.3-1.2,0.6-1.7,1.1c-0.4,0.5-0.6,1.1-0.6,1.9
		c0,1.1,0.4,1.9,1.2,2.4S410.6,114.5,411.8,114.5z"/>
	<path class="st2" d="M432,111.4l9.9-16.3h4.7v22.4h-4.3v-16.3l-9.8,16.3h-4.7V95.2h4.3V111.4z M440,87.6h3.6c0,1.6-0.6,3-1.7,4
		s-2.7,1.5-4.7,1.5c-2,0-3.5-0.5-4.7-1.5s-1.7-2.4-1.7-4h3.6c0,0.7,0.2,1.4,0.6,1.9c0.4,0.6,1.2,0.8,2.2,0.8c1,0,1.7-0.3,2.2-0.8
		C439.8,89,440,88.3,440,87.6z"/>
	<path class="st2" d="M449.6,98.9v-3.8h18.9v3.8h-7.3v18.6H457V98.9H449.6z"/>
	<path class="st2" d="M478.6,118c-1.4,0-2.7-0.3-3.8-0.8c-1.1-0.5-2.1-1.3-2.7-2.3c-0.7-1-1-2.2-1-3.7c0-1.3,0.2-2.3,0.7-3.1
		s1.1-1.5,2-1.9c0.8-0.5,1.7-0.8,2.8-1.1c1-0.2,2.1-0.4,3.1-0.6c1.3-0.2,2.4-0.3,3.3-0.4s1.4-0.3,1.8-0.5c0.4-0.2,0.6-0.6,0.6-1.1
		v-0.1c0-1.3-0.4-2.3-1.1-3c-0.7-0.7-1.8-1-3.2-1c-1.5,0-2.6,0.3-3.5,1s-1.4,1.4-1.7,2.1l-4.1-0.9c0.5-1.4,1.2-2.5,2.1-3.3
		s2-1.5,3.2-1.8c1.2-0.4,2.5-0.6,3.9-0.6c0.9,0,1.8,0.1,2.8,0.3c1,0.2,1.9,0.6,2.8,1.1c0.9,0.6,1.6,1.3,2.2,2.4c0.6,1,0.8,2.4,0.8,4
		v14.9h-4.3v-3.1h-0.2c-0.3,0.6-0.7,1.1-1.3,1.7c-0.6,0.5-1.3,1-2.2,1.4C480.8,117.8,479.8,118,478.6,118z M479.5,114.5
		c1.2,0,2.2-0.2,3.1-0.7c0.9-0.5,1.5-1.1,2-1.9c0.5-0.8,0.7-1.6,0.7-2.5v-2.9c-0.2,0.2-0.5,0.3-0.9,0.4c-0.4,0.1-0.9,0.2-1.5,0.3
		c-0.6,0.1-1.1,0.2-1.6,0.2c-0.5,0.1-1,0.1-1.3,0.2c-0.8,0.1-1.6,0.3-2.3,0.5c-0.7,0.3-1.2,0.6-1.7,1.1c-0.4,0.5-0.6,1.1-0.6,1.9
		c0,1.1,0.4,1.9,1.2,2.4S478.3,114.5,479.5,114.5z"/>
	<path class="st2" d="M498.3,117.8c-0.8,0-1.5-0.3-2.1-0.9c-0.6-0.6-0.9-1.3-0.9-2.1c0-0.8,0.3-1.5,0.9-2c0.6-0.6,1.3-0.9,2.1-0.9
		s1.5,0.3,2.1,0.9c0.6,0.6,0.9,1.3,0.9,2c0,0.5-0.1,1-0.4,1.5c-0.3,0.4-0.6,0.8-1.1,1.1C499.3,117.7,498.8,117.8,498.3,117.8z"/>
	<path class="st3" d="M541,87.7v29.8h-4.5v-26h-14v26H518V87.7H541z"/>
	<path class="st3" d="M557,118c-2.1,0-3.9-0.5-5.5-1.4s-2.8-2.3-3.6-4c-0.9-1.7-1.3-3.7-1.3-6.1c0-2.3,0.4-4.3,1.3-6.1
		c0.9-1.7,2.1-3.1,3.6-4s3.4-1.4,5.5-1.4s3.9,0.5,5.5,1.4c1.6,1,2.8,2.3,3.6,4c0.9,1.7,1.3,3.8,1.3,6.1c0,2.3-0.4,4.3-1.3,6.1
		c-0.9,1.7-2.1,3.1-3.6,4C560.9,117.5,559.1,118,557,118z M557,114.3c1.4,0,2.5-0.4,3.4-1.1c0.9-0.7,1.6-1.7,2-2.9
		c0.4-1.2,0.6-2.5,0.6-3.9c0-1.4-0.2-2.7-0.6-3.9c-0.4-1.2-1.1-2.2-2-2.9c-0.9-0.7-2-1.1-3.4-1.1c-1.4,0-2.5,0.4-3.4,1.1
		c-0.9,0.7-1.6,1.7-2,2.9s-0.6,2.5-0.6,3.9c0,1.4,0.2,2.8,0.6,3.9s1.1,2.2,2,2.9C554.5,114,555.6,114.3,557,114.3z"/>
	<path class="st3" d="M570.1,124v-10.2h1.8c0.5-0.4,0.9-0.9,1.2-1.5c0.3-0.6,0.6-1.3,0.8-2.1c0.2-0.8,0.4-1.8,0.6-2.9
		c0.2-1.1,0.3-2.3,0.4-3.7l0.7-8.3h15.2v18.6h3.4V124H590v-6.4h-15.6v6.4H570.1z M576.6,113.8h10V98.9h-7l-0.5,4.6
		c-0.2,2.3-0.5,4.4-0.8,6.1S577.3,112.7,576.6,113.8z"/>
	<path class="st3" d="M598.5,125.9V95.2h4.3v3.6h0.4c0.3-0.5,0.6-1,1.1-1.6c0.5-0.6,1.1-1.1,2-1.6c0.8-0.5,2-0.7,3.3-0.7
		c1.8,0,3.4,0.5,4.8,1.4c1.4,0.9,2.5,2.2,3.3,3.9c0.8,1.7,1.2,3.8,1.2,6.2s-0.4,4.5-1.2,6.2c-0.8,1.7-1.9,3-3.3,4
		c-1.4,0.9-3,1.4-4.8,1.4c-1.4,0-2.5-0.2-3.3-0.7c-0.9-0.5-1.5-1-2-1.6s-0.9-1.2-1.1-1.6h-0.3v11.9H598.5z M602.7,106.3
		c0,1.6,0.2,3,0.7,4.1c0.5,1.2,1.1,2.1,2,2.8c0.9,0.7,1.9,1,3.2,1c1.3,0,2.4-0.3,3.3-1c0.9-0.7,1.5-1.6,2-2.8c0.5-1.2,0.7-2.5,0.7-4
		c0-1.5-0.2-2.8-0.7-4c-0.4-1.2-1.1-2.1-2-2.8c-0.9-0.7-2-1-3.3-1c-1.3,0-2.3,0.3-3.2,1s-1.5,1.6-2,2.7
		C603,103.4,602.7,104.8,602.7,106.3z"/>
	<path class="st3" d="M633.2,118c-2.1,0-3.9-0.5-5.5-1.4s-2.8-2.3-3.6-4c-0.9-1.7-1.3-3.7-1.3-6.1c0-2.3,0.4-4.3,1.3-6.1
		c0.9-1.7,2.1-3.1,3.6-4s3.4-1.4,5.5-1.4s3.9,0.5,5.5,1.4c1.6,1,2.8,2.3,3.6,4c0.9,1.7,1.3,3.8,1.3,6.1c0,2.3-0.4,4.3-1.3,6.1
		c-0.9,1.7-2.1,3.1-3.6,4C637.1,117.5,635.3,118,633.2,118z M633.2,114.3c1.4,0,2.5-0.4,3.4-1.1c0.9-0.7,1.6-1.7,2-2.9
		c0.4-1.2,0.6-2.5,0.6-3.9c0-1.4-0.2-2.7-0.6-3.9c-0.4-1.2-1.1-2.2-2-2.9c-0.9-0.7-2-1.1-3.4-1.1c-1.4,0-2.5,0.4-3.4,1.1
		c-0.9,0.7-1.6,1.7-2,2.9s-0.6,2.5-0.6,3.9c0,1.4,0.2,2.8,0.6,3.9s1.1,2.2,2,2.9C630.7,114,631.8,114.3,633.2,114.3z"/>
	<path class="st3" d="M665.7,86.8l1.8,2.8c-0.7,0.6-1.4,1-2.3,1.3c-0.8,0.3-1.8,0.4-2.9,0.5s-2.4,0.1-3.8,0.2c-1.6,0-2.9,0.4-4,1
		c-1,0.6-1.8,1.6-2.4,2.9c-0.6,1.3-0.9,2.8-1.1,4.7h0.3c0.7-1.4,1.7-2.4,3-3.1c1.3-0.7,2.8-1,4.4-1c1.8,0,3.4,0.4,4.8,1.2
		c1.4,0.8,2.5,2,3.3,3.6s1.2,3.5,1.2,5.8c0,2.3-0.4,4.3-1.3,6c-0.8,1.7-2,3-3.6,3.9c-1.5,0.9-3.4,1.4-5.4,1.4s-3.9-0.5-5.5-1.4
		c-1.5-0.9-2.7-2.4-3.6-4.2c-0.8-1.9-1.3-4.2-1.3-6.9v-2.2c0-5.1,0.9-9,2.7-11.5c1.8-2.6,4.6-3.9,8.2-4c1.2,0,2.2,0,3.1,0
		c0.9,0,1.7,0,2.4-0.1C664.7,87.5,665.3,87.2,665.7,86.8z M657.8,114.3c1.2,0,2.3-0.3,3.1-0.9c0.9-0.6,1.6-1.5,2-2.6
		c0.5-1.1,0.7-2.5,0.7-4c0-1.5-0.2-2.8-0.7-3.9s-1.2-1.9-2-2.4c-0.9-0.6-1.9-0.8-3.2-0.8c-0.9,0-1.7,0.2-2.4,0.5
		c-0.7,0.3-1.3,0.8-1.8,1.4c-0.5,0.6-0.9,1.4-1.2,2.2c-0.3,0.9-0.4,1.9-0.4,3c0,2.3,0.5,4.1,1.6,5.5S656,114.3,657.8,114.3z"/>
	<path class="st3" d="M677.2,95.2v22.4H673V95.2H677.2z M688.1,104.5v3.8H676v-3.8H688.1z M691.2,95.2v22.4h-4.3V95.2H691.2z"/>
	<path class="st3" d="M706.6,118c-2.2,0-4.1-0.5-5.7-1.4c-1.6-0.9-2.8-2.3-3.7-4c-0.9-1.7-1.3-3.7-1.3-6.1c0-2.3,0.4-4.3,1.3-6.1
		c0.9-1.7,2.1-3.1,3.6-4.1c1.5-1,3.4-1.5,5.4-1.5c1.3,0,2.5,0.2,3.7,0.6c1.2,0.4,2.2,1.1,3.2,2c0.9,0.9,1.7,2.1,2.2,3.5
		c0.5,1.4,0.8,3.1,0.8,5.2v1.5h-17.8v-3.3h13.5c0-1.1-0.2-2.2-0.7-3.1s-1.1-1.6-2-2.1c-0.8-0.5-1.8-0.8-2.9-0.8
		c-1.2,0-2.3,0.3-3.2,0.9c-0.9,0.6-1.6,1.4-2.1,2.3s-0.7,2-0.7,3.1v2.5c0,1.5,0.3,2.8,0.8,3.8c0.5,1,1.3,1.8,2.2,2.4
		s2.1,0.8,3.3,0.8c0.8,0,1.6-0.1,2.3-0.4s1.3-0.6,1.8-1.1s0.9-1.1,1.1-1.8l4.1,0.7c-0.3,1.2-0.9,2.3-1.8,3.2
		c-0.8,0.9-1.9,1.6-3.2,2.1C709.7,117.7,708.2,118,706.6,118z"/>
	<path class="st3" d="M730.7,118c-2.2,0-4.1-0.5-5.7-1.4c-1.6-0.9-2.8-2.3-3.7-4c-0.9-1.7-1.3-3.7-1.3-6.1c0-2.3,0.4-4.3,1.3-6.1
		c0.9-1.7,2.1-3.1,3.6-4.1c1.5-1,3.4-1.5,5.4-1.5c1.3,0,2.5,0.2,3.7,0.6c1.2,0.4,2.2,1.1,3.2,2c0.9,0.9,1.7,2.1,2.2,3.5
		c0.5,1.4,0.8,3.1,0.8,5.2v1.5h-17.8v-3.3H736c0-1.1-0.2-2.2-0.7-3.1s-1.1-1.6-2-2.1c-0.8-0.5-1.8-0.8-2.9-0.8
		c-1.2,0-2.3,0.3-3.2,0.9c-0.9,0.6-1.6,1.4-2.1,2.3s-0.7,2-0.7,3.1v2.5c0,1.5,0.3,2.8,0.8,3.8c0.5,1,1.3,1.8,2.2,2.4
		s2.1,0.8,3.3,0.8c0.8,0,1.6-0.1,2.3-0.4s1.3-0.6,1.8-1.1s0.9-1.1,1.1-1.8l4.1,0.7c-0.3,1.2-0.9,2.3-1.8,3.2
		c-0.8,0.9-1.9,1.6-3.2,2.1C733.8,117.7,732.3,118,730.7,118z"/>
	<path class="st3" d="M748,117.8c-0.8,0-1.5-0.3-2.1-0.9c-0.6-0.6-0.9-1.3-0.9-2.1c0-0.8,0.3-1.5,0.9-2c0.6-0.6,1.3-0.9,2.1-0.9
		s1.5,0.3,2.1,0.9c0.6,0.6,0.9,1.3,0.9,2c0,0.5-0.1,1-0.4,1.5c-0.3,0.4-0.6,0.8-1.1,1.1C749,117.7,748.5,117.8,748,117.8z"/>
	<path class="st3" d="M759.6,117.8c-0.8,0-1.5-0.3-2.1-0.9c-0.6-0.6-0.9-1.3-0.9-2.1c0-0.8,0.3-1.5,0.9-2c0.6-0.6,1.3-0.9,2.1-0.9
		s1.5,0.3,2.1,0.9c0.6,0.6,0.9,1.3,0.9,2c0,0.5-0.1,1-0.4,1.5c-0.3,0.4-0.6,0.8-1.1,1.1C760.6,117.7,760.1,117.8,759.6,117.8z"/>
</g>
<g>
	<path class="st4" d="M373.6,212.4h228.3c18.4,0,33.4-14.9,33.4-33.4v0c0-18.4-14.9-33.4-33.4-33.4H373.6
		c-18.4,0-33.4,14.9-33.4,33.4v0C340.3,197.4,355.2,212.4,373.6,212.4z"/>
	<g>
		<g>
			<path class="st5" d="M429.5,178.2c0,3.2-0.6,5.9-1.7,8.2c-1.2,2.3-2.8,4-4.8,5.3c-2,1.2-4.3,1.8-6.9,1.8c-2.6,0-4.9-0.6-6.9-1.8
				c-2-1.2-3.6-3-4.8-5.3c-1.2-2.3-1.7-5-1.7-8.2c0-3.2,0.6-5.9,1.7-8.2c1.2-2.3,2.8-4,4.8-5.3c2-1.2,4.3-1.8,6.9-1.8
				c2.6,0,4.9,0.6,6.9,1.8c2,1.2,3.6,3,4.8,5.3C429,172.3,429.5,175,429.5,178.2z M425.1,178.2c0-2.4-0.4-4.5-1.2-6.1
				s-1.8-2.9-3.2-3.8c-1.4-0.9-2.9-1.3-4.6-1.3c-1.7,0-3.3,0.4-4.6,1.3c-1.3,0.9-2.4,2.1-3.2,3.8s-1.2,3.7-1.2,6.1s0.4,4.5,1.2,6.1
				c0.8,1.7,1.8,2.9,3.2,3.8c1.3,0.9,2.9,1.3,4.6,1.3c1.7,0,3.2-0.4,4.6-1.3c1.4-0.9,2.4-2.1,3.2-3.8
				C424.7,182.7,425.1,180.6,425.1,178.2z"/>
			<path class="st5" d="M433.5,174.5v-3.8h18.9v3.8h-7.3v18.6h-4.3v-18.6H433.5z"/>
			<path class="st5" d="M453.4,193.1l0-3.8h0.8c0.6,0,1.1-0.1,1.6-0.4c0.4-0.3,0.8-0.7,1-1.4c0.3-0.6,0.5-1.5,0.6-2.7
				s0.3-2.6,0.3-4.3l0.4-9.9h15.6v22.4h-4.3v-18.6h-7.3l-0.3,7.6c-0.1,1.8-0.3,3.5-0.6,4.8c-0.3,1.4-0.7,2.5-1.2,3.4
				c-0.5,0.9-1.2,1.6-2.1,2.1c-0.9,0.5-1.9,0.7-3.1,0.7H453.4z"/>
			<path class="st5" d="M483.8,187l9.9-16.3h4.7v22.4h-4.3v-16.3l-9.8,16.3h-4.7v-22.4h4.3V187z"/>
			<path class="st5" d="M520.3,181.1v3.8c-0.7,0.3-1.4,0.5-2.1,0.7c-0.7,0.2-1.5,0.4-2.4,0.5s-1.7,0.2-2.6,0.2c-2.8,0-5-0.7-6.6-2
				c-1.6-1.4-2.4-3.4-2.4-6.2v-7.3h4.2v7.3c0,1.1,0.2,1.9,0.6,2.6c0.4,0.7,0.9,1.1,1.7,1.5c0.7,0.3,1.6,0.5,2.6,0.5
				c1.3,0,2.5-0.1,3.6-0.4S519.1,181.5,520.3,181.1z M522.2,170.7v22.4h-4.3v-22.4H522.2z"/>
			<path class="st5" d="M532.2,170.7v22.4H528v-22.4H532.2z M543.1,180v3.8H531V180H543.1z M546.2,170.7v22.4h-4.3v-22.4H546.2z"/>
			<path class="st5" d="M561.4,193.6c-2.1,0-3.9-0.5-5.5-1.4s-2.8-2.3-3.6-4c-0.9-1.7-1.3-3.7-1.3-6.1c0-2.3,0.4-4.3,1.3-6.1
				c0.9-1.7,2.1-3.1,3.6-4s3.4-1.4,5.5-1.4s3.9,0.5,5.5,1.4c1.6,1,2.8,2.3,3.6,4c0.9,1.7,1.3,3.8,1.3,6.1c0,2.3-0.4,4.3-1.3,6.1
				c-0.9,1.7-2.1,3.1-3.6,4C565.3,193.1,563.5,193.6,561.4,193.6z M561.4,189.9c1.4,0,2.5-0.4,3.4-1.1c0.9-0.7,1.6-1.7,2-2.9
				c0.4-1.2,0.6-2.5,0.6-3.9c0-1.4-0.2-2.7-0.6-3.9c-0.4-1.2-1.1-2.2-2-2.9c-0.9-0.7-2-1.1-3.4-1.1c-1.4,0-2.5,0.4-3.4,1.1
				c-0.9,0.7-1.6,1.7-2,2.9c-0.4,1.2-0.6,2.5-0.6,3.9c0,1.4,0.2,2.8,0.6,3.9c0.4,1.2,1.1,2.1,2,2.9
				C558.9,189.5,560,189.9,561.4,189.9z"/>
		</g>
	</g>
</g>
</svg>
