<?xml version="1.0" encoding="utf-8"?>
<!-- Generator: Adobe Illustrator 23.0.1, SVG Export Plug-In . SVG Version: 6.00 Build 0)  -->
<svg version="1.1" id="Слой_1" xmlns="http://www.w3.org/2000/svg" xmlns:xlink="http://www.w3.org/1999/xlink" x="0px" y="0px"
	 viewBox="0 0 350 700" style="enable-background:new 0 0 350 700;" xml:space="preserve">
<style type="text/css">
	.st0{font-family:'MyriadPro-Regular';}
	.st1{font-size:12px;}
	.st2{fill:#FFA65C;}
	.st3{fill:#BC723F;}
	.st4{opacity:0.36;}
	.st5{fill:#FFFFFF;}
	.st6{fill:#8E4040;}
</style>
<text transform="matrix(1 0 0 1 36.2002 447.7334)" class="st0 st1">УAловите свое</text>
<text transform="matrix(1 0 0 1 -90.7334 382.667)" class="st0 st1">мм</text>
<g>
	<rect x="-127.5" y="-17.5" class="st2" width="506" height="731"/>
	<path d="M378-17v730h-505V-17H378 M379-18h-507v732h507V-18L379-18z"/>
</g>
<g>
	<path class="st3" d="M251.73,51.1l-0.61-1.19l-8.32-4.44l14.26,28.16c0.33,0.65,0.38,1.31,0.16,2c-0.22,0.68-0.66,1.19-1.31,1.52
		c-0.65,0.33-1.32,0.38-2,0.14c-0.69-0.23-1.19-0.66-1.51-1.29L234.9,41.42l6.03-3.06l9.97,5.46l1.69-11.36l5.92-3l17.51,34.57
		c0.33,0.65,0.37,1.32,0.13,2.01c-0.24,0.69-0.69,1.2-1.33,1.53c-0.63,0.32-1.29,0.36-1.99,0.14s-1.21-0.66-1.52-1.29l-14.21-28.05
		l-1.34,9.06l0.66,1.3c0.32,0.63,0.36,1.29,0.14,1.99c-0.23,0.7-0.66,1.21-1.29,1.52c-0.65,0.33-1.32,0.38-2,0.14
		C252.56,52.16,252.05,51.73,251.73,51.1z"/>
</g>
<g>
	<path class="st3" d="M312.18,604.9l-2,6.25l15.6,30.81l5.47,1.64l-13.8,6.99l2.39-5.62l-10.23-20.19l3.74,30.98l-2.88,1.46
		l-0.65-0.69l2.61-1.32l-4.11-32.97l-2.32-4.59l4.44,36.46l-2.1,1.06l-20.48-20.05l8.04,15.87c1.07,2.12,1.97,3.55,2.7,4.29
		c0.72,0.74,1.88,1.37,3.45,1.91l4.43,2.05l-15.69,7.95l-0.95-0.54l14.73-7.46l-1.95-1.09l-13.38,6.78l0.46-0.65
		c1.6-2.34,2.44-4.32,2.52-5.93c0.08-1.61-0.57-3.76-1.94-6.46l-12.56-24.81l-5.84-1.71l15.51-7.85l-2.36,6.13l21.21,20.81
		l-0.24-3.16l-18.95-18.37l2.46-4.9l0.89,0.19l-2.41,4.54l17.73,17.29l-3.09-25.31l-5.65-2.08L312.18,604.9z M281.82,629.21
		l10.91,21.54c1.67,3.3,3.14,5.41,4.39,6.33c1.26,0.92,3.02,1.16,5.28,0.72l-0.5-0.31c-2.65-0.37-4.62-1.83-5.92-4.39l-1.13-2.22
		l-8.98-17.73L281.82,629.21z M315.04,606.39l-2.16,4.15l15.32,30.24l8.23,3.3l-15.93,8.07l-0.83-0.6l14.52-7.35l-6.56-2.6
		l-15.79-31.17l2.31-4.22L315.04,606.39z"/>
</g>
<g>
	<path class="st3" d="M39.47,637.38l18.04,35.61l-10.15,5.14l-12.9-25.46l6.31,28.8l-6.94,3.51l-19.74-21.99l12.9,25.46l-8.19,4.15
		L0.76,656.99l14.28-7.23l14.75,16.3l-4.65-21.41L39.47,637.38z"/>
</g>
<g>
	<path class="st3" d="M113.59,505.17l12.93,13.79l5.78,6.08l5.22,5.52l0.68,0.69l-13.21,6.69l-11.94-13.25l-2.14,18.04l-15.7-8.16
		c0.7,3.58,1.67,7.91,2.93,12.99c0.5,1.93,0.75,3.1,0.75,3.51c0,0.41-0.25,0.74-0.76,1c-0.64,0.32-1.06,0.27-1.28-0.17
		c-0.07-0.13-0.23-0.96-0.5-2.5l-1-5.31l-1.7-9.18l-3.32-17.95l20.63,11.22L113.59,505.17z"/>
</g>
<g>
	<path class="st3" d="M115.43,369.99c0.74,1.46,0.68,2.4-0.16,2.82c-0.08,0.04-0.14,0.07-0.2,0.1s-0.13,0.06-0.2,0.1
		c-0.19,0.1-0.61,0.49-1.24,1.18c-0.64,0.69-1.05,1.08-1.24,1.18c-0.19,0.1-0.45,0.25-0.78,0.46c-0.33,0.21-0.57,0.35-0.72,0.43
		c-0.73,0.37-1.47,0.09-2.22-0.82c-0.52-0.75-1.04-1.52-1.54-2.33c-1.87-1.89-3.75-3.98-5.62-6.25c-1.47-1.76-4.14-4.88-8-9.38
		c-0.91-0.84-2.18-2.65-3.83-5.42c-0.98,0.16-1.51,0.26-1.58,0.3c-1.07,0.54-1.35,1.56-0.84,3.04c0.51,1.48,1.13,3.85,1.86,7.11
		c0.11,1.35,0.27,3.31,0.49,5.88c0.22,2.57,0.67,4.63,1.35,6.17c0.12,0.52,0.43,2.03,0.92,4.54l0.94,2.71
		c0.34,1.42,0.04,2.37-0.87,2.84c-0.08,0.04-0.46,0.04-1.15,0c-0.69-0.04-1.1-0.02-1.21,0.04c-0.12,0.06-0.3,0.24-0.56,0.54
		c-0.26,0.3-0.44,0.48-0.56,0.54c-0.88,0.45-1.95-0.05-3.21-1.48c-0.35-0.4-0.97-1.2-1.86-2.38c-0.54-0.4-1.3-1.05-2.29-1.95
		c-3.15-3.94-7.42-9.05-12.81-15.32c-0.39-0.48-0.99-0.53-1.82-0.16l-1.72,1.02c-0.13,0.4,0.02,1.03,0.44,1.87l0.96,1.9
		c0.35,1.55,0.84,3.33,1.47,5.32c0.9,2.92,2.82,8.27,5.76,16.08c-0.02,0.92-0.21,1.48-0.6,1.67c-0.12,0.06-0.37,0.06-0.75,0.02
		c-0.39-0.05-0.63-0.04-0.75,0.02c-0.12,0.06-0.15,0.11-0.1,0.16s0.02,0.1-0.1,0.16c-0.1,0-0.27-0.01-0.52-0.03
		c-0.38,0.1-1.53,0.58-3.45,1.46c-0.54-0.11-0.9-0.34-1.07-0.69c-0.12-0.23-0.3-1.07-0.56-2.53c-0.28-1.69-0.45-2.64-0.5-2.85
		c-0.41-0.9-1.14-2.87-2.19-5.9c-0.53-1.61-1.44-4.47-2.75-8.57c-0.2-0.67-0.59-1.92-1.17-3.74c-0.21-0.42-0.48-0.96-0.81-1.61
		c-0.25-0.5-0.52-1.06-0.79-1.69c-0.24-1.81-0.36-2.73-0.38-2.77c-0.14-0.27-0.34-0.43-0.63-0.48c-0.28-0.05-0.53-0.09-0.76-0.12
		l0.08-1.12c0.36-0.42,0.8-0.86,1.33-1.33c0.91-0.75,2.56-1.73,4.96-2.94c0.15-0.08,0.43-0.16,0.84-0.25
		c0.41-0.09,0.69-0.17,0.84-0.25l5.7-2.89c0.91-0.46,1.9,0.03,2.96,1.46c0.15,0.21,1.15,1.37,2.99,3.47c0.25,0.5,0.68,1.2,1.29,2.09
		c0.46,0.63,1.17,1.6,2.14,2.89c0.81,0.79,1.86,1.99,3.17,3.59c0.1,0.09,0.39,0.67,0.87,1.72c0.27,0.54,0.68,1.01,1.22,1.41
		c-0.22-0.52-0.48-1.23-0.8-2.14c-0.4-1.93-1-4.26-1.81-7c-0.16-0.5-0.53-3.85-1.11-10.04c-0.2-0.48-0.38-0.94-0.56-1.39
		c-0.22-0.71-0.24-1.22-0.06-1.53c0.18-0.31,0.99-0.95,2.42-1.92c1.15-0.78,1.99-1.3,2.53-1.57c0.15-0.08,0.44-0.14,0.88-0.19
		c0.43-0.05,0.72-0.11,0.88-0.19c0.12-0.06,1-0.6,2.64-1.63l2.61-1.54c0.84-0.43,1.71-0.14,2.6,0.85c0.23,0.84,0.58,1.73,1.05,2.64
		c0.66,1.3,1.56,2.7,2.7,4.19c0.79,0.8,2.14,2.29,4.06,4.45c0.23,0.36,1.04,1.52,2.41,3.47c0.85,0.72,1.71,1.62,2.58,2.67
		c0.31,0.32,0.93,1.26,1.86,2.81c0.31,0.23,0.75,0.58,1.33,1.06C113.19,367.08,114.97,369.07,115.43,369.99z"/>
</g>
<g>
	<path class="st3" d="M286.82,448.65l2.45-4.09l-19.63-38.76l-4.06-0.58l7.2-3.64l14.87,18.88l-2.18-25.31l4-2.02l-2.05,3.67
		l19.71,38.93l4.18,0.52l-6.77,3.43l-16.57-38.21l4.58,28.08l-19.35-24.98l18.17,41.78L286.82,448.65z"/>
</g>
<text transform="matrix(0.8921 -0.4518 0.4518 0.8921 702.0383 598.0627)" class="st3" style="font-family:'WishfulWaves'; font-size:99px;">M</text>
<g class="st4">
	<rect x="-11.5" y="-84.5" width="389" height="795"/>
	<path d="M377-84v794H-11V-84H377 M378-85H-12v796h390V-85L378-85z"/>
</g>
<g>
	<path class="st5" d="M98.77,161.79H95.7l-23.47-29.59v23.1c0,1.52,0.45,2.57,1.34,3.14c0.89,0.57,2.82,0.86,5.79,0.86h4.45v2.48
		H55.37v-2.48h4.83c2.62,0,4.37-0.29,5.24-0.88c0.87-0.58,1.31-1.63,1.31-3.13v-18.34c0-1.35-0.39-2.3-1.17-2.86
		c-0.78-0.56-2.57-0.84-5.38-0.84h-4.83v-2.48h27.55l17.92,22.31l18.95-22.31h28.44v2.48h-6.72c-3.88,0-5.82,0.92-5.82,2.75v21.09
		c0,1.48,1.68,2.22,5.03,2.22h7.3v2.48h-36.59v-2.48h6.78c3.93,0,5.89-0.93,5.89-2.78v-24.1L98.77,161.79z"/>
	<path class="st5" d="M223.95,158.38l2.47,1.85c-3.34,1.66-7.04,2.48-11.1,2.48c-3.11,0-5.72-0.41-7.85-1.22
		c-2.12-0.82-3.99-2.25-5.59-4.3c-4.34,2.21-8.16,3.68-11.44,4.42c-3.29,0.74-7.24,1.11-11.86,1.11c-6.58,0-11.58-0.68-15.01-2.05
		c-3.43-1.37-5.14-3.12-5.14-5.26c0-3.22,3.92-5.9,11.75-8.03c7.83-2.13,18.26-3.55,31.28-4.25v-4.7c0-1.68-1.39-3.11-4.18-4.3
		c-2.79-1.19-6.33-1.79-10.62-1.79c-3.97,0-7.4,0.4-10.28,1.19c-2.06,0.6-3.08,1.18-3.08,1.75c0,0.33,0.55,0.85,1.64,1.56
		c1.32,0.88,1.99,1.67,1.99,2.35c0,0.99-0.66,1.8-1.99,2.43c-1.33,0.63-3.06,0.94-5.21,0.94c-2.29,0-4.19-0.37-5.72-1.13
		c-1.53-0.75-2.3-1.71-2.3-2.88c0-2.18,2.55-4.18,7.64-5.99c5.09-1.81,11.78-2.71,20.04-2.71c7.63,0,13.45,0.79,17.47,2.38
		c4.02,1.61,6.03,3.56,6.03,5.86v16.95c0,1.5,0.5,2.6,1.51,3.31c1,0.73,2.31,1.09,3.91,1.09
		C220.11,159.44,221.99,159.08,223.95,158.38z M201.47,145.3c-11.61,0.77-19.83,2.03-24.67,3.77c-3.61,1.32-5.41,3.2-5.41,5.63
		c0,1.7,0.94,3.03,2.81,3.99c1.87,0.96,4.32,1.44,7.33,1.44c5.39,0,10.06-0.99,14.01-2.96c3.95-1.97,5.93-4.45,5.93-7.43V145.3z"/>
	<path class="st5" d="M236.36,141.83h-5.14l1.58-11.06h61.93l1.6,11.06h-5.14c-1.46-3.73-3.4-6.09-5.84-7.08
		c-2.44-0.99-5.43-1.49-8.98-1.49h-7.17v23.83c0,1.48,1.67,2.22,5,2.22h7.26v2.48h-36.53v-2.48h6.78c3.93,0,5.89-0.93,5.89-2.78
		v-23.27h-6.44c-4.07,0-7.23,0.58-9.49,1.74C239.41,136.15,237.63,138.43,236.36,141.83z"/>
	<path class="st5" d="M55.37,208.79v-2.48h6.82c3.9,0,5.86-0.95,5.86-2.85v-21.09c0-1.41-1.64-2.12-4.93-2.12h-7.33v-2.48H91.9
		c6.62,0,11.57,0.2,14.84,0.61c3.27,0.41,6.03,1.24,8.29,2.5s3.39,2.78,3.39,4.57c0,2.23-1.84,3.98-5.52,5.26
		c-3.68,1.28-7.8,1.98-12.37,2.09c13.71,0.93,20.56,3.6,20.56,8.01c0,5.32-8.94,7.98-26.82,7.98H55.37z M79.63,191.71h9.43
		c11.16,0,16.75-1.86,16.75-5.59c0-3.86-5.06-5.79-15.17-5.79H86.6c-4.65,0-6.97,0.93-6.97,2.78V191.71z M79.63,194.19v9.34
		c0,1.01,0.43,1.74,1.3,2.18c0.87,0.44,2.37,0.66,4.51,0.66h5.54c7.15,0,11.76-0.53,13.81-1.6c2.05-1.07,3.08-2.45,3.08-4.14
		c0-4.29-5.54-6.44-16.61-6.44H79.63z"/>
	<path class="st5" d="M187.29,183.07v-1.29c-0.36-1.02-2-1.52-4.91-1.52h-7.29v-2.48h36.11v2.48h-6.51c-3.88,0-5.82,0.94-5.82,2.81
		v21.02c0,1.48,1.67,2.22,5,2.22h7.33v2.48h-36.53v-2.48h6.78c3.88,0,5.82-0.93,5.82-2.78v-16.98l-32.28,16.39v1.16
		c0,1.48,1.64,2.22,4.93,2.22h7.47v2.48h-36.59v-2.48h6.78c3.88,0,5.82-0.93,5.82-2.78v-21.05c0-1.48-1.64-2.22-4.91-2.22h-7.29
		v-2.48h36.18v2.48h-6.58c-3.88,0-5.82,0.94-5.82,2.81v16.48L187.29,183.07z"/>
	<path class="st5" d="M291.73,180.25h6.51v-2.48h-36.11v2.48h7.29c2.91,0,4.54,0.51,4.91,1.52v1.29l-32.28,16.48v-16.48
		c0-1.88,1.94-2.81,5.82-2.81h6.58v-2.48h-36.18v2.48h7.29c3.27,0,4.91,0.74,4.91,2.22v21.05c0,1.85-1.94,2.78-5.82,2.78h-6.78v2.48
		h36.59v-2.48h-7.47c-3.29,0-4.93-0.74-4.93-2.22v-1.16l32.28-16.39v16.98c0,1.85-1.94,2.78-5.82,2.78h-6.78v2.48h36.53v-2.48h-7.33
		c-3.34,0-5-0.74-5-2.22v-21.02C285.9,181.19,287.84,180.25,291.73,180.25z"/>
	<g>
		<path class="st6" d="M60.68,227.89v-4.17h34.06v4.17h-5.62c-3.88,0-5.82,1.54-5.82,4.61v8.78c0,3.22,1.08,5.7,3.24,7.42
			c2.16,1.72,5.06,2.59,8.7,2.59c2.91,0,6.08-0.66,9.52-1.97c3.43-1.32,6.26-2.97,8.49-4.98v-12.73c0-2.48-1.67-3.73-5-3.73h-5.55
			v-4.17h34.54v4.17h-6.51c-3.93,0-5.89,1.54-5.89,4.61v35.42c0,2.48,1.67,3.73,5,3.73h7.4v4.17h-36.59v-4.17h6.78
			c3.88,0,5.82-1.56,5.82-4.67v-18.35c-6.84,5.41-14.09,8.12-21.76,8.12c-4.88,0-9.4-1.13-13.55-3.39
			c-4.15-2.26-6.23-6.71-6.23-13.34v-8.4c0-2.48-1.67-3.73-5-3.73H60.68z"/>
		<path class="st6" d="M143.67,223.72h30.77v3.78h-2.88c-2.7,0-4.53,0.29-5.52,0.86c-0.98,0.58-1.47,1.4-1.47,2.47
			c0,0.48,0.14,0.96,0.41,1.45l17.89,31.3l13.29-25.97c0.96-1.85,1.44-3.67,1.44-5.45c0-1.37-0.66-2.44-1.99-3.2
			c-1.33-0.76-3.97-1.25-7.95-1.47v-3.78h26.73v3.78c-5.16,0.41-8.63,2.28-10.42,5.62l-23.76,44.84
			c-4.04,7.62-8.09,12.85-12.15,15.71c-4.11,2.89-8.52,4.34-13.23,4.34c-3.43,0-6.18-0.76-8.26-2.28c-2.08-1.52-3.12-3.39-3.12-5.62
			c0-1.67,0.64-3.04,1.92-4.11c1.28-1.08,2.88-1.61,4.8-1.61c1.74,0,3.2,0.46,4.39,1.39c1.19,0.93,1.78,2.04,1.78,3.34
			c0,0.41-0.09,0.96-0.27,1.67c-0.18,0.56-0.27,0.96-0.27,1.22c0,0.89,0.71,1.33,2.12,1.33c1.51,0,3.21-0.44,5.11-1.33
			c1.9-0.89,3.67-2.32,5.31-4.28c1.64-1.97,4.53-6.32,8.65-13.06l-24.37-42.38c-0.87-1.48-1.95-2.59-3.25-3.31
			c-1.3-0.72-3.2-1.21-5.71-1.47V223.72z"/>
		<path class="st6" d="M255.64,271.65v4.17h-36.46v-4.17h7.2c3.65,0,5.48-1.26,5.48-3.78v-36.25c0-2.48-1.66-3.73-4.97-3.73h-7.29
			v-4.17h36.05v4.17h-6.44c-3.93,0-5.89,1.54-5.89,4.61v15.12h7.81c4.71,0,8.12-0.77,10.25-2.31c2.12-1.54,3.73-4.55,4.83-9.03
			c0.91-3.71,1.76-6.29,2.54-7.76c0.78-1.46,2.2-2.77,4.28-3.92c2.08-1.15,4.51-1.72,7.3-1.72c3.79,0,6.67,1.03,8.63,3.09
			c1.96,2.06,2.95,4.2,2.95,6.42c0,1.74-0.64,3.22-1.92,4.42c-1.28,1.21-3.11,1.81-5.48,1.81c-2.24,0-3.92-0.53-5.04-1.58
			c-1.12-1.06-1.68-2.31-1.68-3.75c0-1.22,0.37-2.37,1.1-3.45c0.69-0.96,1.03-1.56,1.03-1.78c0-0.52-0.48-0.78-1.44-0.78
			c-1.64,0-3.06,0.55-4.25,1.64c-1.19,1.09-2.17,3.31-2.95,6.64c-1.19,5.08-2.52,8.37-4.01,9.87c-1.49,1.5-3.6,2.92-6.34,4.25
			c8.54,0.93,13.87,3.97,15.97,9.12l3.02,7.28c1.32,3.19,2.81,4.78,4.45,4.78c2.15,0,3.61-2.46,4.39-7.39h4.87
			c-0.87,5.63-2.49,9.23-4.86,10.79c-2.37,1.56-5.29,2.34-8.76,2.34c-5.56,0-9.26-2.6-11.08-7.8l-3.06-8.61
			c-2.01-5.89-6.51-8.84-13.5-8.84h-9.05v15.4c0,1.82,0.37,3.09,1.1,3.81c0.73,0.72,2.03,1.08,3.91,1.08H255.64z"/>
	</g>
	<g>
		<path class="st5" d="M248.13,172.71c5.87,0,11.73,0,17.6,0"/>
		<g>
			<path class="st5" d="M248.13,174.21c5.87,0,11.73,0,17.6,0c1.93,0,1.93-3,0-3c-5.87,0-11.73,0-17.6,0
				C246.2,171.21,246.2,174.21,248.13,174.21L248.13,174.21z"/>
		</g>
	</g>
</g>
</svg>
