<?xml version="1.0" encoding="utf-8"?>
<!-- Generator: Adobe Illustrator 24.2.3, SVG Export Plug-In . SVG Version: 6.00 Build 0)  -->
<svg version="1.1" id="Слой_1" xmlns="http://www.w3.org/2000/svg" xmlns:xlink="http://www.w3.org/1999/xlink" x="0px" y="0px"
	 viewBox="0 0 133.8 133.8" style="enable-background:new 0 0 133.8 133.8;" xml:space="preserve">
<style type="text/css">
	.st0{fill:url(#SVGID_1_);}
	.st1{fill:url(#SVGID_2_);}
	.st2{fill:url(#SVGID_3_);}
</style>
<g id="Layer_2">
</g>
<g id="Layer_1">
	<g>
		<linearGradient id="SVGID_1_" gradientUnits="userSpaceOnUse" x1="14.8047" y1="112.1823" x2="101.1025" y2="-7.8177">
			<stop  offset="0" style="stop-color:#FF4F2D"/>
			<stop  offset="1" style="stop-color:#FF236E"/>
		</linearGradient>
		<path class="st0" d="M41.9,100.7L11.8,70.6C-2,56.8-2,34.3,11.8,20.5l0,0c13.8-13.8,36.3-13.8,50.1,0L92,50.6
			c13.8,13.8,13.8,36.3,0,50.1l0,0C78.2,114.5,55.6,114.5,41.9,100.7z"/>
		<linearGradient id="SVGID_2_" gradientUnits="userSpaceOnUse" x1="34.6442" y1="126.4498" x2="120.942" y2="6.4498">
			<stop  offset="0" style="stop-color:#FF4F2D"/>
			<stop  offset="1" style="stop-color:#FF236E"/>
		</linearGradient>
		<path class="st1" d="M41.9,50.6L72,20.5c13.8-13.8,36.3-13.8,50.1,0l0,0c13.8,13.8,13.8,36.3,0,50.1L92,100.7
			c-13.8,13.8-36.3,13.8-50.1,0l0,0C28.1,86.9,28.1,64.4,41.9,50.6z"/>
		<linearGradient id="SVGID_3_" gradientUnits="userSpaceOnUse" x1="39.5371" y1="129.9686" x2="125.8349" y2="9.9686">
			<stop  offset="0" style="stop-color:#FF4F2D"/>
			<stop  offset="1" style="stop-color:#FF236E"/>
		</linearGradient>
		<path class="st2" d="M63.4,122.2L36.6,95.4c-1.9-1.9-1.9-5.1,0-7.1l26.8-26.8c1.9-1.9,5.1-1.9,7.1,0l26.8,26.8
			c1.9,1.9,1.9,5.1,0,7.1l-26.8,26.8C68.5,124.1,65.3,124.1,63.4,122.2z"/>
	</g>
</g>
</svg>
