<?xml version="1.0" encoding="utf-8"?>
<!-- Generator: Adobe Illustrator 24.2.3, SVG Export Plug-In . SVG Version: 6.00 Build 0)  -->
<svg version="1.1" id="Слой_1" xmlns="http://www.w3.org/2000/svg" xmlns:xlink="http://www.w3.org/1999/xlink" x="0px" y="0px"
	 viewBox="0 0 400 400" style="enable-background:new 0 0 400 400;" xml:space="preserve">
<style type="text/css">
	.st0{opacity:0.64;}
	.st1{opacity:0.92;clip-path:url(#SVGID_2_);}
	.st2{clip-path:url(#SVGID_4_);}
	.st3{clip-path:url(#SVGID_8_);}
	.st4{fill:#AFAFAF;}
	.st5{fill:#56351E;}
	.st6{fill:#6B4124;}
</style>
<g id="Слой_2" class="st0">
</g>
<g>
	<defs>
		<circle id="SVGID_1_" cx="201" cy="201" r="200"/>
	</defs>
	<clipPath id="SVGID_2_">
		<use xlink:href="#SVGID_1_"  style="overflow:visible;"/>
	</clipPath>
	<g class="st1">
		<g>
			<defs>
				<rect id="SVGID_3_" x="1" width="400" height="399"/>
			</defs>
			<clipPath id="SVGID_4_">
				<use xlink:href="#SVGID_3_"  style="overflow:visible;"/>
			</clipPath>
			<g class="st2">
				<g>
					<defs>
						<rect id="SVGID_5_" x="-4" y="-5" width="410" height="409"/>
					</defs>
					<clipPath id="SVGID_6_">
						<use xlink:href="#SVGID_5_"  style="overflow:visible;"/>
					</clipPath>
					<g style="clip-path:url(#SVGID_6_);">
						
							<image style="overflow:visible;" width="855" height="853" xlink:href="A042EE97.jpg"  transform="matrix(0.48 0 0 0.48 -4.32 -5.28)">
						</image>
					</g>
				</g>
			</g>
		</g>
	</g>
	<g class="st1">
		<g>
			<defs>
				<rect id="SVGID_7_" x="1" width="400" height="399"/>
			</defs>
			<clipPath id="SVGID_8_">
				<use xlink:href="#SVGID_7_"  style="overflow:visible;"/>
			</clipPath>
			<g class="st3">
				<g>
					<defs>
						<rect id="SVGID_9_" x="-4" y="-5" width="410" height="409"/>
					</defs>
					<clipPath id="SVGID_10_">
						<use xlink:href="#SVGID_9_"  style="overflow:visible;"/>
					</clipPath>
					<g style="clip-path:url(#SVGID_10_);">
						
							<image style="overflow:visible;" width="855" height="853" xlink:href="A042EE95.jpg"  transform="matrix(0.48 0 0 0.48 -4.32 -5.28)">
						</image>
					</g>
				</g>
			</g>
		</g>
	</g>
</g>
<g id="Слой_3">
</g>
<g>
	<path d="M277.2,264.9V98.2c0-1.7-1.4-3.1-3.1-3.1H144.3c-11.9,0-21.5,9.6-21.5,21.5v166.7c0,11.9,9.6,21.5,21.5,21.5h129.9
		c1.7,0,3.1-1.4,3.1-3.1v-12.3c0-0.8-0.3-1.6-0.9-2.2c-5.6-5.6-5.6-14.7,0-20.2C276.9,266.5,277.2,265.7,277.2,264.9z M128.9,116.6
		c0-7.4,5.3-13.6,12.3-15.1v148.2c-4.8,0.7-9.1,3-12.3,6.3V116.6z M271.1,249.6H156.6c-1.7,0-3.1,1.4-3.1,3.1c0,1.7,1.4,3.1,3.1,3.1
		h114.5v6.1H144.3c-5.1,0-9.2,4.1-9.2,9.2v12.3c0,5.1,4.1,9.2,9.2,9.2h126.8v6.1H144.3c-8.5,0-15.4-6.9-15.4-15.4v-12.3
		c0-8.5,6.9-15.4,15.4-15.4c1.7,0,3.1-1.4,3.1-3.1V101.3h123.7V249.6z M266.2,274.1h-125v-3.1c0-1.7,1.4-3.1,3.1-3.1h123.9
		C267.2,269.9,266.5,272,266.2,274.1z M268.2,286.4H144.3c-1.7,0-3.1-1.4-3.1-3.1v-3.1h125C266.5,282.4,267.2,284.5,268.2,286.4z"/>
	<path class="st4" d="M268.2,286.4H144.3c-1.7,0-3.1-1.4-3.1-3.1v-3.1h125C266.5,282.4,267.2,284.5,268.2,286.4z"/>
	<path class="st4" d="M268.2,268c-1,1.9-1.6,4-2,6.1h-125v-3.1c0-1.7,1.4-3.1,3.1-3.1H268.2z"/>
	<path class="st5" d="M135.1,271.1v12.3c0,5.1,4.1,9.2,9.2,9.2h126.8v6.1H144.3c-8.5,0-15.4-6.9-15.4-15.4v-12.3
		c0-8.5,6.9-15.4,15.4-15.4c1.7,0,3.1-1.4,3.1-3.1v0l6.1,0c0,1.7,1.4,3.1,3.1,3.1h114.5v6.1H144.3
		C139.2,261.9,135.1,266,135.1,271.1z"/>
	<path class="st5" d="M141.2,101.6v148.2c-4.8,0.7-9.1,3-12.3,6.3V116.6C128.9,109.2,134.2,103,141.2,101.6z"/>
	<path class="st6" d="M271.1,101.3v148.3H156.6c-1.7,0-3.1,1.4-3.1,3.1l-2.9,0l-3.2,0V101.3H271.1z"/>
</g>
</svg>
