<?xml version="1.0" encoding="utf-8"?>
<!-- Generator: Adobe Illustrator 24.2.3, SVG Export Plug-In . SVG Version: 6.00 Build 0)  -->
<svg version="1.1" id="Слой_1" xmlns="http://www.w3.org/2000/svg" xmlns:xlink="http://www.w3.org/1999/xlink" x="0px" y="0px"
	 viewBox="0 0 400 400" style="enable-background:new 0 0 400 400;" xml:space="preserve">
<style type="text/css">
	.st0{opacity:0.64;}
	.st1{opacity:0.92;clip-path:url(#SVGID_2_);}
	.st2{clip-path:url(#SVGID_4_);}
	.st3{clip-path:url(#SVGID_2_);}
	.st4{clip-path:url(#SVGID_2_);fill:#C69A7B;}
	.st5{clip-path:url(#SVGID_2_);fill:#53091B;}
	.st6{clip-path:url(#SVGID_2_);fill:#6B4124;}
	.st7{clip-path:url(#SVGID_2_);fill:#FFD2B3;}
</style>
<g id="Слой_2" class="st0">
</g>
<g>
	<defs>
		<circle id="SVGID_1_" cx="200" cy="201" r="200"/>
	</defs>
	<clipPath id="SVGID_2_">
		<use xlink:href="#SVGID_1_"  style="overflow:visible;"/>
	</clipPath>
	<g class="st1">
		<g>
			<defs>
				<rect id="SVGID_3_" width="400" height="399"/>
			</defs>
			<clipPath id="SVGID_4_">
				<use xlink:href="#SVGID_3_"  style="overflow:visible;"/>
			</clipPath>
			<g class="st2">
				<g>
					<defs>
						<rect id="SVGID_5_" x="-5" y="-5" width="410" height="409"/>
					</defs>
					<clipPath id="SVGID_6_">
						<use xlink:href="#SVGID_5_"  style="overflow:visible;"/>
					</clipPath>
					<g style="clip-path:url(#SVGID_6_);">
						
							<image style="overflow:visible;" width="855" height="853" xlink:href="E3467A71.jpg"  transform="matrix(0.48 0 0 0.48 -5.28 -5.28)">
						</image>
					</g>
				</g>
			</g>
		</g>
	</g>
	<path class="st3" d="M203,163.3c-0.3,0.5-0.8,0.8-1.2,1.1l-0.2,0.1c-0.5,0.3-1.1,0.4-1.7,0.4c-0.9,0-1.8-0.3-2.5-0.9
		c-2.2-1.3-4.6-2.1-7-2.4c-0.5-0.1-1-0.1-1.6-0.2c-18.5,2.9-37.2,4.5-56,4.9c-0.7,0-1.4,0-2.1,0h-0.1c-2.2,0-3.9-1.7-4-3.8
		c0-0.7,0.1-1.3,0.4-1.8l0.3-0.5c0.7-1,1.8-1.6,3.1-1.6c2.4,0,4.8-0.1,7.2-0.1c16.8-0.5,33.5-2.1,50.1-4.7c0.3-0.1,0.7-0.1,1-0.1
		c3.9,0.2,7.6,1.2,11.1,2.9c0.8,0.4,1.5,0.8,2.3,1.3C203.9,159.1,204.3,161.5,203,163.3z"/>
	<path class="st3" d="M286.2,253.2c-3,3.9-7.6,6.1-12.5,6.1h-0.3c-3.2-0.1-6.4-1.1-9-3l-0.8-0.6c-0.1-0.1-0.3-0.2-0.5-0.4l-0.6-0.5
		L217,222.2c-1.8-1.2-2.2-3.6-1-5.4c1.2-1.8,3.6-2.2,5.4-1c0,0,0.1,0.1,0.1,0.1l3.1,2.2l0,0l7.7,5.6l34.9,25.2l0.4,0.3
		c0.1,0.1,0.3,0.2,0.4,0.3l0.8,0.5c3.5,2.5,8.4,1.8,11.1-1.5c1.6-2,2.1-4.7,1.4-7.1c0-0.1,0-0.2-0.1-0.3c-0.4-1.5-1.3-2.8-2.6-3.8
		l-61.6-50.2c-23.6,12.5-40.3,6.1-48.2,1c-4.2-2.7-5.3-8.3-2.6-12.4c0.8-1.3,2-2.4,3.4-3.1l20.6-10.9l9.6-5.1l5.1-2.7
		c4.5-2.4,9.8-2.8,14.7-1.3l20.8,6.8c6.1,2,12.8,1.8,18.8-0.7l4.8-2l4.3-1.8c1.8-0.7,3.8,0,4.8,1.6c0.1,0.2,0.2,0.3,0.3,0.5
		c0.8,2-0.1,4.3-2.1,5.1l-3.1,1.3l-6,2.5c-7.7,3.2-16.3,3.5-24.2,0.9l-20.8-6.8c-2.9-0.9-6-0.6-8.7,0.8l-6.8,3.6l-0.2,0.1l-28.2,15
		c-0.4,0.2-0.7,0.6-0.7,1c0,0.4,0.2,0.8,0.5,1c8.2,5.2,22.3,9.1,42.5-2.5c1.4-0.8,3.2-0.7,4.4,0.4l63.6,51.8
		c0.9,0.7,1.7,1.5,2.4,2.4c1.3,1.6,2.2,3.4,2.8,5.4c0.2,0.8,0.4,1.6,0.5,2.4C289.9,245.6,288.8,249.8,286.2,253.2z"/>
	<path class="st3" d="M270.5,270.9c-3,4.2-7.8,6.6-13,6.6l0,0c-0.9,0-1.8-0.1-2.7-0.2c-2.3-0.4-4.6-1.3-6.5-2.7l-4.5-3.2L206,244.6
		c0,0,0,0,0,0c-1.7-1.3-2.1-3.7-0.8-5.5c1-1.3,2.7-1.9,4.2-1.4c0.1,0,0.2,0.1,0.3,0.1c0.2,0.1,0.3,0.1,0.5,0.2
		c0.1,0,0.2,0.1,0.3,0.2l37.8,26.8l4.5,3.2c3.8,2.5,8.9,1.4,11.4-2.4c2.3-3.5,1.6-8.2-1.7-10.9c0,0-0.1-0.1-0.1-0.1l-42.1-30.4
		c-1.7-1.4-1.9-3.8-0.6-5.5c1.3-1.5,3.5-1.9,5.1-0.8l7.7,5.6l34.4,24.8c0.2,0.1,0.3,0.3,0.5,0.4c3.4,2.7,5.5,6.5,6,10.5
		C273.9,263.3,273,267.4,270.5,270.9z"/>
	<path class="st3" d="M254.8,277.2c0.1,3.2-0.8,6.4-2.7,9.2c-2.3,3.4-5.9,5.7-10,6.4c-0.9,0.2-1.9,0.3-2.8,0.3
		c-2.4,0-4.7-0.6-6.8-1.6c-0.7-0.3-1.3-0.7-2-1.2l-36.3-25.2l-1.6-1.1c-1.8-1.2-2.2-3.7-1-5.4c1.2-1.8,3.7-2.2,5.4-1l37.9,26.2
		c3.5,2.4,8.3,1.5,10.7-2c0.9-1.3,1.4-2.9,1.4-4.4c0-2.4-1.1-4.8-3.2-6.3L206,244.6l0,0c0,0,0,0,0,0c-1.7-1.2-2.2-3.6-1-5.4
		c1-1.4,2.8-2,4.3-1.5c0.1,0,0.2,0.1,0.3,0.1c0.2,0.1,0.3,0.1,0.5,0.2c0.1,0,0.2,0.1,0.3,0.2c0,0,0.1,0.1,0.1,0.1l37.7,26.7
		C252.4,267.9,254.6,272.5,254.8,277.2z"/>
	<path class="st3" d="M232.4,291.5c-0.2,2.7-1.1,5.4-2.7,7.8c-2.9,4.2-7.7,6.7-12.8,6.7h0c-2.7,0-5.4-0.7-7.8-2.1l-18.6-10.7
		l-2.4-1.4c-1.9-1.1-2.5-3.5-1.4-5.3c1.1-1.8,3.4-2.5,5.3-1.4l4.2,2.4l16.8,9.7c3.7,2.1,8.4,0.8,10.6-2.8c2.1-3.5,1.1-8-2.3-10.2
		l-26.9-18.6c-0.1-0.1-0.2-0.1-0.3-0.2c-1.5-1.3-1.8-3.5-0.7-5.2c1.2-1.8,3.7-2.2,5.4-1l26.9,18.6
		C230.4,280.9,232.8,286.2,232.4,291.5z"/>
	<path class="st3" d="M194.9,268.4c-3.3-3.8-8.1-5.6-12.8-5.3c-3.4,0.2-6.7,1.5-9.4,3.9l-10.4,9.1c-3.4,3-5.4,7.3-5.3,11.8
		c0,0.9,0.1,1.9,0.2,2.7c1.3,7.4,7.8,13,15.5,12.9c3.8,0,7.5-1.4,10.4-3.9l7.5-6.6l2.9-2.5c1.1-1,2-2,2.8-3.2
		c1.7-2.6,2.6-5.6,2.6-8.6C198.8,275.1,197.5,271.4,194.9,268.4z M177.8,293.9c-3.3,2.9-8.3,2.6-11.2-0.7c-2.8-3.2-2.6-7.9,0.4-10.9
		l9.7-8.5h0c0,0,0.1-0.1,0.1-0.1l0.9-0.8c1.4-1.3,3.3-2,5.2-2c2.3,0,4.4,1,5.9,2.7c2.9,3.3,2.6,8.3-0.7,11.2L177.8,293.9z"/>
	<path class="st4" d="M188.3,284.7l-10.4,9.2c-3.3,2.9-8.3,2.6-11.2-0.7c-2.8-3.2-2.6-7.9,0.4-10.9l9.7-8.5h0c0,0,0.1-0.1,0.1-0.1
		l0.9-0.8c1.4-1.3,3.3-2,5.2-2c2.3,0,4.4,1,5.9,2.7C191.9,276.8,191.5,281.8,188.3,284.7z"/>
	<path class="st3" d="M178.2,251.6l-0.1-0.1c-3.4-3.8-8.2-5.6-13-5.3c-3.3,0.2-6.6,1.5-9.2,3.9l-17.4,15.3c0,0,0,0,0,0
		c-3.8,3.3-5.6,8.1-5.3,12.8c0.2,3.4,1.5,6.8,3.9,9.5c2.8,3.1,6.6,5.1,10.8,5.3c0.3,0,0.7,0,1,0c2.9,0,5.7-0.8,8.2-2.3
		c0.8-0.5,1.5-1,2.2-1.6l7.8-6.8l9.7-8.5h0c0,0,0.1-0.1,0.1-0.1c3.1-2.8,4.9-6.6,5.2-10.6C182.4,259.1,181.1,254.9,178.2,251.6z
		 M148.4,285.2c-2.1-0.1-4-1.1-5.4-2.6c-2.9-3.3-2.7-8.2,0.5-11.2c0,0,0.1-0.1,0.1-0.1l16.5-14.5l0.9-0.8c1.4-1.3,3.3-2,5.2-2
		c0.2,0,0.4,0,0.5,0c2.1,0.1,4,1.1,5.4,2.7l0.1,0.1c2.9,3.3,2.6,8.3-0.7,11.2l-17.5,15.3C152.6,284.6,150.5,285.3,148.4,285.2z"/>
	<path class="st4" d="M171.6,267.9l-17.5,15.3c-1.6,1.4-3.6,2.1-5.7,2c-2.1-0.1-4-1.1-5.4-2.6c-2.9-3.3-2.7-8.2,0.5-11.2l16.3-14.3
		c0.1-0.1,0.2-0.2,0.3-0.3l0.9-0.8c1.4-1.3,3.3-2,5.2-2c0.2,0,0.4,0,0.5,0c2.1,0.1,4,1.1,5.4,2.7l0.1,0.1
		C175.2,260,174.9,265,171.6,267.9z"/>
	<path class="st3" d="M161.3,234.8l-0.4-0.5c-5.3-6-14-7-20.5-2.7c-0.6,0.4-1.2,0.8-1.7,1.3l-8.2,7.2c-0.1,0.1-0.2,0.2-0.3,0.3
		l-11.7,10.3c-3.2,2.8-5,6.7-5.3,10.6c-0.3,4.1,1,8.3,3.8,11.6l0.4,0.5c2.7,3.1,6.6,5.1,10.8,5.3c0.4,0,0.7,0,1,0
		c1.3,0,2.7-0.2,3.9-0.5c2.4-0.6,4.6-1.8,6.4-3.4l3.9-3.4l16.3-14.3c0.1-0.1,0.2-0.2,0.3-0.3c3.1-2.8,4.7-6.6,5-10.5
		C165.4,242.2,164.1,238.1,161.3,234.8z M123.3,268.2l-0.4-0.5c-2.8-3.1-2.6-7.9,0.3-10.8c0.1-0.1,0.3-0.2,0.4-0.4l12.3-10.8
		c0,0,0,0,0.1-0.1l7.9-6.9c1.4-1.3,3.3-2,5.2-2c0.2,0,0.3,0,0.5,0c2.1,0.1,4,1.1,5.4,2.7l0.4,0.5h0c2.9,3.3,2.5,8.3-0.7,11.2
		l-20.2,17.8C131.1,271.8,126.1,271.4,123.3,268.2z"/>
	<path class="st4" d="M154.6,251.1l-20.2,17.8c-3.3,2.9-8.3,2.5-11.2-0.7l-0.4-0.5c-2.8-3.1-2.6-7.9,0.3-10.8l12.1-10.6
		c0.2-0.2,0.4-0.3,0.6-0.5c0,0,0,0,0.1-0.1l7.9-6.9c1.4-1.3,3.3-2,5.2-2c0.2,0,0.3,0,0.5,0c2.1,0.1,4,1.1,5.4,2.7l0.4,0.5h0
		C158.2,243.3,157.9,248.2,154.6,251.1z"/>
	<path class="st3" d="M140.3,231.6c-0.5-2.7-1.7-5.3-3.6-7.5l-0.1-0.2c0,0,0,0,0,0c-5.7-6.5-15.7-7.2-22.2-1.4l-9.4,8.3l-3.3,2.9
		c-0.9,0.8-1.7,1.7-2.4,2.7c-1.7,2.4-2.7,5.2-2.9,8.2c-0.5,8.7,6.1,16.2,14.8,16.8c0.3,0,0.7,0,1,0c0.3,0,0.6,0,0.9,0
		c3.5-0.2,6.8-1.5,9.5-3.9l0.6-0.5l12.1-10.6c0.2-0.2,0.4-0.3,0.6-0.5c0,0,0,0,0.1-0.1C139.7,241.9,141.3,236.6,140.3,231.6z
		 M118.4,250.6l-1,0.8c0,0,0,0-0.1,0.1c-1.5,1.3-3.3,1.9-5.1,1.9c-2.3,0-4.5-1-6.1-2.8c-2.9-3.3-2.6-8.3,0.7-11.2l0.4-0.3l0.9-0.8
		l11.3-9.9c1.4-1.3,3.3-2,5.2-2c0.2,0,0.3,0,0.5,0c2.1,0.1,4.1,1.1,5.4,2.7l0.1,0.2h0c2.8,3.2,2.6,7.9-0.4,10.9
		c-0.1,0.1-0.2,0.2-0.3,0.3L118.4,250.6z"/>
	<path class="st4" d="M130.4,240.1c-0.1,0.1-0.2,0.2-0.3,0.3l-11.7,10.3l-1,0.8c0,0,0,0-0.1,0.1c-1.5,1.3-3.3,1.9-5.1,1.9
		c-2.3,0-4.5-1-6.1-2.8c-2.9-3.3-2.6-8.3,0.7-11.2l0.4-0.3c0.4-0.2,0.7-0.5,0.9-0.8l11.3-9.9c1.4-1.3,3.3-2,5.2-2c0.2,0,0.3,0,0.5,0
		c2.1,0.1,4.1,1.1,5.4,2.7l0.1,0.2h0C133.6,232.4,133.4,237.1,130.4,240.1z"/>
	<path class="st3" d="M108.3,238.1c0,0-0.1,0.1-0.1,0.1c-0.3,0.3-0.6,0.6-0.9,0.8c-0.6,0.4-1.3,0.6-2.1,0.6l0,0
		c-0.8,0-1.7-0.3-2.3-0.8l-3.5-2.6l-6.5-4.9l-3.4-2.6c-1.7-1.3-2-3.8-0.7-5.5c1.3-1.7,3.8-2.1,5.5-0.8l2.8,2.1l8,6.1l2.6,2
		C109.2,234,109.6,236.4,108.3,238.1z"/>
	<path class="st3" d="M309.8,220.9l-3.8,3.8l-16.6,16.6l-1.5,1.5c-0.7,0.7-1.7,1.1-2.8,1.1c-1.7,0-3.2-1.1-3.7-2.7
		c0-0.1,0-0.2-0.1-0.3c-0.1-0.3-0.1-0.6-0.1-1c0-1,0.4-2,1.1-2.8l21.9-21.9c1.3-1.3,3.3-1.4,4.8-0.5c0.2,0.2,0.5,0.3,0.7,0.6
		c0.6,0.7,1,1.4,1.1,2.3v0C311,218.9,310.7,220,309.8,220.9z"/>
	<path class="st3" d="M341.7,218.3l-23.3-101.4c-0.1-0.6-0.4-1.1-0.7-1.5c-1.3-1.7-3.8-2-5.5-0.7l-47.3,36.6c-1.6,1.2-2,3.4-0.9,5.1
		l0.2,0.3l4.1,6.7l33.5,54.5l4.2,6.8l5.7,9.3c0.7,1.2,2,1.9,3.3,1.9c0.7,0,1.3-0.2,1.9-0.5l22.8-12.8
		C341.3,221.7,342.1,220,341.7,218.3z M316.4,226.7l-5.5-8.9v0l-1.8-2.8l-35.9-58.4l-0.8-1.2l39.7-30.7l21.2,92.6L316.4,226.7z"/>
	<path class="st5" d="M333.4,217.2l-17,9.5l-5.5-8.9v0c-0.1-0.8-0.4-1.6-1.1-2.3c-0.2-0.2-0.4-0.4-0.7-0.6l-35.9-58.4l-0.8-1.2
		l39.7-30.7L333.4,217.2z"/>
	<path class="st4" d="M301.8,217.9l-15.7,15.7c-0.7-0.9-1.5-1.7-2.4-2.4l-63.6-51.8c-1.3-1-3-1.2-4.4-0.4
		c-20.2,11.6-34.3,7.7-42.5,2.5c-0.3-0.2-0.5-0.6-0.5-1c0-0.4,0.3-0.8,0.7-1l28.2-15l0.2-0.1l6.8-3.6c2.7-1.4,5.8-1.7,8.7-0.8
		l20.8,6.8c7.9,2.6,16.5,2.3,24.2-0.9l6-2.5L301.8,217.9z"/>
	<path class="st3" d="M137.1,152.6L89.8,116c-0.5-0.3-1-0.6-1.5-0.7c-2.1-0.5-4.2,0.8-4.7,2.9L60.4,219.7c-0.4,1.7,0.4,3.4,1.9,4.3
		l22.8,12.8c0.6,0.3,1.2,0.5,1.9,0.5c1.4,0,2.6-0.7,3.3-1.8l2.5-4.1l4.1-6.7l35.8-58.3l4.9-7.9l0.4-0.6
		C139.1,156.1,138.7,153.9,137.1,152.6z M85.6,228.1l-17-9.5l21.2-92.6l39.7,30.7l-2.2,3.5l-0.3,0.5L85.6,228.1z"/>
	<polygon class="st6" points="129.5,156.7 127.4,160.2 127.1,160.7 85.6,228.1 68.6,218.6 89.9,125.9 	"/>
	<path class="st7" d="M280,248.3c-2.7,3.4-7.6,4.1-11.1,1.5l-0.8-0.5c-0.1-0.1-0.2-0.2-0.4-0.3l-0.4-0.3c-0.2-0.1-0.3-0.3-0.5-0.4
		l-34.4-24.8l-7.7-5.6l0,0l-3.1-2.2c0,0-0.1-0.1-0.1-0.1c-1.8-1.2-4.2-0.8-5.4,1c-1.2,1.8-0.8,4.2,1,5.4l45.4,32.7
		c3.3,2.6,4,7.3,1.7,10.9c-2.5,3.8-7.6,4.9-11.4,2.4l-4.5-3.2L210.5,238c-0.1-0.1-0.2-0.1-0.3-0.2c-0.2-0.1-0.3-0.2-0.5-0.2
		c-0.1,0-0.2-0.1-0.3-0.1c-1.6-0.5-3.4,0.1-4.3,1.5c-1.2,1.8-0.8,4.2,1,5.4c0,0,0,0,0,0l0,0l37.7,26.7c2.1,1.5,3.2,3.9,3.2,6.3
		c0,1.5-0.4,3-1.4,4.4c-2.4,3.5-7.2,4.4-10.7,2L197,257.6c-1.8-1.2-4.2-0.8-5.4,1c-1.2,1.8-0.8,4.2,1,5.4l1.6,1.1
		c0.1,0.1,0.2,0.2,0.3,0.2l26.9,18.6c3.4,2.3,4.4,6.8,2.3,10.2c-2.2,3.6-6.9,4.9-10.6,2.8l-16.8-9.7c1.7-2.6,2.6-5.6,2.6-8.6
		c0-3.7-1.3-7.4-3.9-10.4c-3.3-3.8-8.1-5.6-12.8-5.3c0.3-4.1-1-8.2-3.9-11.5l-0.1-0.1c-3.4-3.8-8.2-5.6-13-5.3c0.3-4-1-8.1-3.9-11.4
		l-0.4-0.5c-5.3-6-14-7-20.5-2.7c-0.5-2.7-1.7-5.3-3.6-7.5l-0.1-0.2c0,0,0,0,0,0c-5.7-6.5-15.7-7.2-22.2-1.4l-9.4,8.3l-8-6.1
		l35.8-58.3c18.8-0.3,37.4-2,56-4.9c0.5,0,1.1,0.1,1.6,0.2l-20.6,10.9c-1.4,0.7-2.5,1.8-3.4,3.1c-2.7,4.2-1.5,9.7,2.6,12.4
		c8,5.1,24.7,11.5,48.2-1l61.6,50.2c1.2,1,2.1,2.3,2.6,3.8c0,0.1,0,0.2,0.1,0.3C282.1,243.6,281.6,246.3,280,248.3z"/>
</g>
<g id="Слой_3">
</g>
</svg>
