<?xml version="1.0" encoding="utf-8"?>
<!-- Generator: Adobe Illustrator 24.2.3, SVG Export Plug-In . SVG Version: 6.00 Build 0)  -->
<svg version="1.1" id="Слой_1" xmlns="http://www.w3.org/2000/svg" xmlns:xlink="http://www.w3.org/1999/xlink" x="0px" y="0px"
	 viewBox="0 0 400 400" style="enable-background:new 0 0 400 400;" xml:space="preserve">
<style type="text/css">
	.st0{opacity:0.64;}
	.st1{opacity:0.92;clip-path:url(#SVGID_2_);}
	.st2{clip-path:url(#SVGID_4_);}
	.st3{clip-path:url(#SVGID_6_);}
	.st4{display:none;opacity:0.92;clip-path:url(#SVGID_2_);}
	.st5{display:inline;}
	.st6{clip-path:url(#SVGID_10_);}
	.st7{clip-path:url(#SVGID_12_);}
	.st8{fill:#6B4124;}
	.st9{fill:#FFFFFF;}
</style>
<g id="Слой_2" class="st0">
</g>
<g>
	<defs>
		<circle id="SVGID_1_" cx="201" cy="201" r="200"/>
	</defs>
	<clipPath id="SVGID_2_">
		<use xlink:href="#SVGID_1_"  style="overflow:visible;"/>
	</clipPath>
	<g class="st1">
		<g>
			<defs>
				<rect id="SVGID_3_" x="1" width="400" height="399"/>
			</defs>
			<clipPath id="SVGID_4_">
				<use xlink:href="#SVGID_3_"  style="overflow:visible;"/>
			</clipPath>
			<g class="st2">
				<g>
					<defs>
						<rect id="SVGID_5_" x="-4" y="-5" width="410" height="409"/>
					</defs>
					<clipPath id="SVGID_6_">
						<use xlink:href="#SVGID_5_"  style="overflow:visible;"/>
					</clipPath>
					<g class="st3">
						<defs>
							<rect id="SVGID_7_" x="-4" y="-5" width="410" height="409"/>
						</defs>
						<clipPath id="SVGID_8_">
							<use xlink:href="#SVGID_7_"  style="overflow:visible;"/>
						</clipPath>
						<g style="clip-path:url(#SVGID_8_);">
							
								<image style="overflow:visible;" width="855" height="853" xlink:href="3347538A.jpg"  transform="matrix(0.48 0 0 0.48 -4.32 -5.28)">
							</image>
						</g>
					</g>
				</g>
			</g>
		</g>
	</g>
	<g class="st4">
		<g class="st5">
			<defs>
				<rect id="SVGID_9_" x="1" width="400" height="399"/>
			</defs>
			<clipPath id="SVGID_10_">
				<use xlink:href="#SVGID_9_"  style="overflow:visible;"/>
			</clipPath>
			<g class="st6">
				<g>
					<defs>
						<rect id="SVGID_11_" x="-4" y="-5" width="410" height="409"/>
					</defs>
					<clipPath id="SVGID_12_">
						<use xlink:href="#SVGID_11_"  style="overflow:visible;"/>
					</clipPath>
					<g class="st7">
						<defs>
							<rect id="SVGID_13_" x="-4" y="-5" width="410" height="409"/>
						</defs>
						<clipPath id="SVGID_14_">
							<use xlink:href="#SVGID_13_"  style="overflow:visible;"/>
						</clipPath>
						<g style="clip-path:url(#SVGID_14_);">
							
								<image style="overflow:visible;" width="855" height="853" xlink:href="3347538E.jpg"  transform="matrix(0.48 0 0 0.48 -4.32 -5.28)">
							</image>
						</g>
					</g>
				</g>
			</g>
		</g>
	</g>
</g>
<g id="Слой_3">
</g>
<path class="st8" d="M296.1,138v6.2H109.6V138c0-12.8,10.4-23.3,23.3-23.3h139.9C285.6,114.7,296.1,125.2,296.1,138L296.1,138z"/>
<path class="st9" d="M296.1,144.2v131.5c0,5.1-4.1,9.4-9.3,9.4H118.8c-5.1,0-9.3-4.2-9.3-9.4V144.2H296.1z"/>
<path d="M238,208.5h-20.7c-3.4,0-6.2-2.8-6.2-6.2s2.8-6.2,6.2-6.2h14.5v-14.5c0-3.4,2.8-6.2,6.2-6.2c3.4,0,6.2,2.8,6.2,6.2v20.7
	C244.2,205.7,241.5,208.5,238,208.5z"/>
<path d="M168.5,214c-0.5,0-1-0.1-1.5-0.2c-3.3-0.8-5.4-4.2-4.5-7.6c4.6-18.2,21-31,39.9-31c9.4,0,18.5,3.2,25.7,9
	c5.2,4,9.3,9.4,11.8,15.5c1.3,3.2-0.2,6.8-3.4,8.1c-3.2,1.3-6.8-0.2-8.1-3.4c-1.7-4.1-4.5-7.8-8.1-10.6c-5-4.1-11.4-6.3-17.9-6.3
	c-13.2,0-24.7,8.9-27.9,21.6C173.8,212.1,171.3,214,168.5,214L168.5,214z"/>
<path d="M203.2,258.2c-9.4,0-18.5-3.2-25.7-9c-5.2-4-9.3-9.4-11.8-15.5c-1.3-3.2,0.2-6.8,3.4-8.1c3.2-1.3,6.8,0.2,8.1,3.4
	c1.7,4.1,4.5,7.8,8.1,10.6c5,4.1,11.4,6.3,17.9,6.3c13.2,0,24.7-8.9,27.9-21.6c0.8-3.3,4.3-5.3,7.6-4.5c3.3,0.8,5.4,4.2,4.5,7.6
	C238.5,245.5,222.1,258.2,203.2,258.2L203.2,258.2z"/>
<path d="M167.6,258.2c-3.4,0-6.2-2.8-6.2-6.2v-20.7c0-3.4,2.8-6.2,6.2-6.2h20.7c3.4,0,6.2,2.8,6.2,6.2c0,3.4-2.8,6.2-6.2,6.2h-14.5
	V252C173.8,255.4,171,258.2,167.6,258.2z"/>
<path d="M279.5,291.3H126.1c-12.6,0-22.8-10.2-22.8-22.8V131.8c0-12.6,10.2-22.8,22.8-22.8h153.3c12.6,0,22.8,10.2,22.8,22.8v136.8
	C302.3,281.1,292,291.3,279.5,291.3z M126.1,121.4c-5.7,0-10.4,4.6-10.4,10.4v136.8c0,5.7,4.6,10.4,10.4,10.4h153.3
	c5.7,0,10.4-4.6,10.4-10.4V131.8c0-5.7-4.6-10.4-10.4-10.4H126.1z"/>
<path d="M296.1,150.4H109.6c-3.4,0-6.2-2.8-6.2-6.2s2.8-6.2,6.2-6.2h186.5c3.4,0,6.2,2.8,6.2,6.2S299.5,150.4,296.1,150.4z"/>
</svg>
