<?xml version="1.0" encoding="utf-8"?>
<!-- Generator: Adobe Illustrator 23.0.1, SVG Export Plug-In . SVG Version: 6.00 Build 0)  -->
<svg version="1.1" id="Слой_1" xmlns="http://www.w3.org/2000/svg" xmlns:xlink="http://www.w3.org/1999/xlink" x="0px" y="0px"
	 viewBox="0 0 350 700" style="enable-background:new 0 0 350 700;" xml:space="preserve">
<style type="text/css">
	.st0{font-family:'ArialMT';}
	.st1{font-size:12px;}
	.st2{fill:#600B1F;}
	.st3{fill:#9B1E3F;}
	.st4{opacity:0.14;}
	.st5{fill:#FFFFFF;}
	.st6{fill:#8E4040;}
</style>
<text transform="matrix(1 0 0 1 36.2002 447.7334)" class="st0 st1">УAловите свое</text>
<text transform="matrix(1 0 0 1 -90.7334 382.667)" class="st0 st1">мм</text>
<g>
	<rect x="-127.5" y="-17.5" class="st2" width="506" height="731"/>
	<path class="st2" d="M378-17v730h-505V-17H378 M379-18h-507v732h507V-18L379-18z"/>
</g>
<g>
	<path class="st3" d="M251.7,51.1l-0.6-1.2l-8.3-4.4l14.3,28.2c0.3,0.7,0.4,1.3,0.2,2c-0.2,0.7-0.7,1.2-1.3,1.5
		c-0.6,0.3-1.3,0.4-2,0.1c-0.7-0.2-1.2-0.7-1.5-1.3l-17.5-34.6l6-3.1l10,5.5l1.7-11.4l5.9-3L276,64c0.3,0.7,0.4,1.3,0.1,2
		s-0.7,1.2-1.3,1.5c-0.6,0.3-1.3,0.4-2,0.1s-1.2-0.7-1.5-1.3l-14.2-28l-1.3,9.1l0.7,1.3c0.3,0.6,0.4,1.3,0.1,2
		c-0.2,0.7-0.7,1.2-1.3,1.5c-0.6,0.3-1.3,0.4-2,0.1C252.6,52.2,252.1,51.7,251.7,51.1z"/>
</g>
<g>
	<path class="st3" d="M312.2,604.9l-2,6.3l15.6,30.8l5.5,1.6l-13.8,7l2.4-5.6l-10.2-20.2l3.7,31l-2.9,1.5l-0.6-0.7l2.6-1.3l-4.1-33
		l-2.3-4.6l4.4,36.5l-2.1,1.1l-20.5-20l8,15.9c1.1,2.1,2,3.5,2.7,4.3c0.7,0.7,1.9,1.4,3.5,1.9l4.4,2l-15.7,8l-1-0.5l14.7-7.5l-2-1.1
		l-13.4,6.8l0.5-0.7c1.6-2.3,2.4-4.3,2.5-5.9s-0.6-3.8-1.9-6.5L277.7,627l-5.8-1.7l15.5-7.8l-2.4,6.1l21.2,20.8l-0.2-3.2l-19-18.4
		l2.5-4.9l0.9,0.2l-2.4,4.5l17.7,17.3l-3.1-25.3l-5.6-2.1L312.2,604.9z M281.8,629.2l10.9,21.5c1.7,3.3,3.1,5.4,4.4,6.3
		c1.3,0.9,3,1.2,5.3,0.7l-0.5-0.3c-2.6-0.4-4.6-1.8-5.9-4.4l-1.1-2.2l-9-17.7L281.8,629.2z M315,606.4l-2.2,4.2l15.3,30.2l8.2,3.3
		l-15.9,8.1l-0.8-0.6l14.5-7.3l-6.6-2.6l-15.8-31.2l2.3-4.2L315,606.4z"/>
</g>
<g>
	<path class="st3" d="M39.5,637.4l18,35.6l-10.2,5.1l-12.9-25.5l6.3,28.8l-6.9,3.5l-19.7-22L27,688.5l-8.2,4.2L0.8,657l14.3-7.2
		l14.8,16.3l-4.6-21.4L39.5,637.4z"/>
</g>
<g>
	<path class="st3" d="M113.6,505.2l12.9,13.8l5.8,6.1l5.2,5.5l0.7,0.7l-13.2,6.7L113,524.7l-2.1,18l-15.7-8.2
		c0.7,3.6,1.7,7.9,2.9,13c0.5,1.9,0.8,3.1,0.8,3.5c0,0.4-0.3,0.7-0.8,1c-0.6,0.3-1.1,0.3-1.3-0.2c-0.1-0.1-0.2-1-0.5-2.5l-1-5.3
		l-1.7-9.2l-3.3-18l20.6,11.2L113.6,505.2z"/>
</g>
<g>
	<path class="st3" d="M115.4,370c0.7,1.5,0.7,2.4-0.2,2.8c-0.1,0-0.1,0.1-0.2,0.1s-0.1,0.1-0.2,0.1c-0.2,0.1-0.6,0.5-1.2,1.2
		c-0.6,0.7-1.1,1.1-1.2,1.2c-0.2,0.1-0.4,0.3-0.8,0.5s-0.6,0.4-0.7,0.4c-0.7,0.4-1.5,0.1-2.2-0.8c-0.5-0.8-1-1.5-1.5-2.3
		c-1.9-1.9-3.8-4-5.6-6.3c-1.5-1.8-4.1-4.9-8-9.4c-0.9-0.8-2.2-2.6-3.8-5.4c-1,0.2-1.5,0.3-1.6,0.3c-1.1,0.5-1.3,1.6-0.8,3
		s1.1,3.9,1.9,7.1c0.1,1.4,0.3,3.3,0.5,5.9s0.7,4.6,1.3,6.2c0.1,0.5,0.4,2,0.9,4.5l0.9,2.7c0.3,1.4,0,2.4-0.9,2.8
		c-0.1,0-0.5,0-1.2,0s-1.1,0-1.2,0c-0.1,0.1-0.3,0.2-0.6,0.5c-0.3,0.3-0.4,0.5-0.6,0.5c-0.9,0.5-1.9,0-3.2-1.5
		c-0.3-0.4-1-1.2-1.9-2.4c-0.5-0.4-1.3-1-2.3-2c-3.2-3.9-7.4-9-12.8-15.3c-0.4-0.5-1-0.5-1.8-0.2l-1.7,1c-0.1,0.4,0,1,0.4,1.9l1,1.9
		c0.3,1.5,0.8,3.3,1.5,5.3c0.9,2.9,2.8,8.3,5.8,16.1c0,0.9-0.2,1.5-0.6,1.7c-0.1,0.1-0.4,0.1-0.8,0c-0.4,0-0.6,0-0.8,0
		s-0.2,0.1-0.1,0.2s0,0.1-0.1,0.2c-0.1,0-0.3,0-0.5,0c-0.4,0.1-1.5,0.6-3.4,1.5c-0.5-0.1-0.9-0.3-1.1-0.7c-0.1-0.2-0.3-1.1-0.6-2.5
		c-0.3-1.7-0.4-2.6-0.5-2.9c-0.4-0.9-1.1-2.9-2.2-5.9c-0.5-1.6-1.4-4.5-2.8-8.6c-0.2-0.7-0.6-1.9-1.2-3.7c-0.2-0.4-0.5-1-0.8-1.6
		c-0.3-0.5-0.5-1.1-0.8-1.7c-0.2-1.8-0.4-2.7-0.4-2.8c-0.1-0.3-0.3-0.4-0.6-0.5c-0.3,0-0.5-0.1-0.8-0.1l0.1-1.1
		c0.4-0.4,0.8-0.9,1.3-1.3c0.9-0.8,2.6-1.7,5-2.9c0.2-0.1,0.4-0.2,0.8-0.3s0.7-0.2,0.8-0.3l5.7-2.9c0.9-0.5,1.9,0,3,1.5
		c0.2,0.2,1.2,1.4,3,3.5c0.3,0.5,0.7,1.2,1.3,2.1c0.5,0.6,1.2,1.6,2.1,2.9c0.8,0.8,1.9,2,3.2,3.6c0.1,0.1,0.4,0.7,0.9,1.7
		c0.3,0.5,0.7,1,1.2,1.4c-0.2-0.5-0.5-1.2-0.8-2.1c-0.4-1.9-1-4.3-1.8-7c-0.2-0.5-0.5-3.9-1.1-10c-0.2-0.5-0.4-0.9-0.6-1.4
		c-0.2-0.7-0.2-1.2-0.1-1.5s1-1,2.4-1.9c1.2-0.8,2-1.3,2.5-1.6c0.2-0.1,0.4-0.1,0.9-0.2c0.4,0,0.7-0.1,0.9-0.2
		c0.1-0.1,1-0.6,2.6-1.6l2.6-1.5c0.8-0.4,1.7-0.1,2.6,0.9c0.2,0.8,0.6,1.7,1.1,2.6c0.7,1.3,1.6,2.7,2.7,4.2c0.8,0.8,2.1,2.3,4.1,4.5
		c0.2,0.4,1,1.5,2.4,3.5c0.8,0.7,1.7,1.6,2.6,2.7c0.3,0.3,0.9,1.3,1.9,2.8c0.3,0.2,0.8,0.6,1.3,1.1C113.2,367.1,115,369.1,115.4,370
		z"/>
</g>
<g>
	<path class="st3" d="M286.8,448.6l2.5-4.1l-19.6-38.8l-4.1-0.6l7.2-3.6l14.9,18.9l-2.2-25.3l4-2l-2,3.7l19.7,38.9l4.2,0.5l-6.8,3.4
		L288,401.5l4.6,28.1l-19.4-25l18.2,41.8L286.8,448.6z"/>
</g>
<text transform="matrix(0.8921 -0.4518 0.4518 0.8921 702.0384 598.0625)" style="fill:#BC723F; font-family:'WishfulWaves'; font-size:99px;">M</text>
<g class="st4">
	<rect x="-31.5" y="-24.5" width="389" height="795"/>
	<path d="M357-24v794H-31V-24H357 M358-25H-32v796h390V-25L358-25z"/>
</g>
<g>
	<path class="st5" d="M98.8,161.8h-3.1l-23.5-29.6v23.1c0,1.5,0.4,2.6,1.3,3.1c0.9,0.6,2.8,0.9,5.8,0.9h4.4v2.5H55.4v-2.5h4.8
		c2.6,0,4.4-0.3,5.2-0.9c0.9-0.6,1.3-1.6,1.3-3.1v-18.3c0-1.4-0.4-2.3-1.2-2.9s-2.6-0.8-5.4-0.8h-4.8v-2.5h27.6l17.9,22.3l18.9-22.3
		h28.4v2.5h-6.7c-3.9,0-5.8,0.9-5.8,2.8v21.1c0,1.5,1.7,2.2,5,2.2h7.3v2.5h-36.6v-2.5h6.8c3.9,0,5.9-0.9,5.9-2.8v-24.1L98.8,161.8z"
		/>
	<path class="st5" d="M223.9,158.4l2.5,1.9c-3.3,1.7-7,2.5-11.1,2.5c-3.1,0-5.7-0.4-7.9-1.2c-2.1-0.8-4-2.3-5.6-4.3
		c-4.3,2.2-8.2,3.7-11.4,4.4c-3.3,0.7-7.2,1.1-11.9,1.1c-6.6,0-11.6-0.7-15-2.1c-3.4-1.4-5.1-3.1-5.1-5.3c0-3.2,3.9-5.9,11.8-8
		s18.3-3.6,31.3-4.3v-4.7c0-1.7-1.4-3.1-4.2-4.3s-6.3-1.8-10.6-1.8c-4,0-7.4,0.4-10.3,1.2c-2.1,0.6-3.1,1.2-3.1,1.8
		c0,0.3,0.6,0.9,1.6,1.6c1.3,0.9,2,1.7,2,2.4c0,1-0.7,1.8-2,2.4c-1.3,0.6-3.1,0.9-5.2,0.9c-2.3,0-4.2-0.4-5.7-1.1
		c-1.5-0.8-2.3-1.7-2.3-2.9c0-2.2,2.6-4.2,7.6-6c5.1-1.8,11.8-2.7,20-2.7c7.6,0,13.4,0.8,17.5,2.4c4,1.6,6,3.6,6,5.9V155
		c0,1.5,0.5,2.6,1.5,3.3c1,0.7,2.3,1.1,3.9,1.1C220.1,159.4,222,159.1,223.9,158.4z M201.5,145.3c-11.6,0.8-19.8,2-24.7,3.8
		c-3.6,1.3-5.4,3.2-5.4,5.6c0,1.7,0.9,3,2.8,4s4.3,1.4,7.3,1.4c5.4,0,10.1-1,14-3s5.9-4.4,5.9-7.4L201.5,145.3L201.5,145.3z"/>
	<path class="st5" d="M236.4,141.8h-5.1l1.6-11.1h61.9l1.6,11.1h-5.1c-1.5-3.7-3.4-6.1-5.8-7.1s-5.4-1.5-9-1.5h-7.2v23.8
		c0,1.5,1.7,2.2,5,2.2h7.3v2.5h-36.5v-2.5h6.8c3.9,0,5.9-0.9,5.9-2.8v-23.3h-6.4c-4.1,0-7.2,0.6-9.5,1.7
		C239.4,136.1,237.6,138.4,236.4,141.8z"/>
	<path class="st5" d="M55.4,208.8v-2.5h6.8c3.9,0,5.9-0.9,5.9-2.9v-21.1c0-1.4-1.6-2.1-4.9-2.1h-7.3v-2.5h36.1
		c6.6,0,11.6,0.2,14.8,0.6c3.3,0.4,6,1.2,8.3,2.5s3.4,2.8,3.4,4.6c0,2.2-1.8,4-5.5,5.3s-7.8,2-12.4,2.1c13.7,0.9,20.6,3.6,20.6,8
		c0,5.3-8.9,8-26.8,8H55.4z M79.6,191.7h9.4c11.2,0,16.8-1.9,16.8-5.6c0-3.9-5.1-5.8-15.2-5.8h-4c-4.7,0-7,0.9-7,2.8V191.7z
		 M79.6,194.2v9.3c0,1,0.4,1.7,1.3,2.2c0.9,0.4,2.4,0.7,4.5,0.7H91c7.2,0,11.8-0.5,13.8-1.6c2.1-1.1,3.1-2.4,3.1-4.1
		c0-4.3-5.5-6.4-16.6-6.4L79.6,194.2L79.6,194.2z"/>
	<path class="st5" d="M187.3,183.1v-1.3c-0.4-1-2-1.5-4.9-1.5h-7.3v-2.5h36.1v2.5h-6.5c-3.9,0-5.8,0.9-5.8,2.8v21
		c0,1.5,1.7,2.2,5,2.2h7.3v2.5h-36.5v-2.5h6.8c3.9,0,5.8-0.9,5.8-2.8v-17L155,202.9v1.2c0,1.5,1.6,2.2,4.9,2.2h7.5v2.5h-36.6v-2.5
		h6.8c3.9,0,5.8-0.9,5.8-2.8v-21.1c0-1.5-1.6-2.2-4.9-2.2h-7.3v-2.5h36.2v2.5h-6.6c-3.9,0-5.8,0.9-5.8,2.8v16.5L187.3,183.1z"/>
	<path class="st5" d="M291.7,180.3h6.5v-2.5h-36.1v2.5h7.3c2.9,0,4.5,0.5,4.9,1.5v1.3l-32.3,16.5v-16.5c0-1.9,1.9-2.8,5.8-2.8h6.6
		v-2.5h-36.2v2.5h7.3c3.3,0,4.9,0.7,4.9,2.2v21.1c0,1.9-1.9,2.8-5.8,2.8h-6.8v2.5h36.6v-2.5H247c-3.3,0-4.9-0.7-4.9-2.2v-1.2
		l32.3-16.4v17c0,1.9-1.9,2.8-5.8,2.8h-6.8v2.5h36.5v-2.5h-7.3c-3.3,0-5-0.7-5-2.2v-21C285.9,181.2,287.8,180.3,291.7,180.3z"/>
	<g>
		<path class="st6" d="M60.7,227.9v-4.2h34.1v4.2h-5.6c-3.9,0-5.8,1.5-5.8,4.6v8.8c0,3.2,1.1,5.7,3.2,7.4c2.2,1.7,5.1,2.6,8.7,2.6
			c2.9,0,6.1-0.7,9.5-2c3.4-1.3,6.3-3,8.5-5v-12.7c0-2.5-1.7-3.7-5-3.7h-5.6v-4.2h34.5v4.2h-6.5c-3.9,0-5.9,1.5-5.9,4.6v35.4
			c0,2.5,1.7,3.7,5,3.7h7.4v4.2h-36.6v-4.2h6.8c3.9,0,5.8-1.6,5.8-4.7v-18.4c-6.8,5.4-14.1,8.1-21.8,8.1c-4.9,0-9.4-1.1-13.6-3.4
			s-6.2-6.7-6.2-13.3v-8.4c0-2.5-1.7-3.7-5-3.7L60.7,227.9L60.7,227.9z"/>
		<path class="st6" d="M143.7,223.7h30.8v3.8h-2.9c-2.7,0-4.5,0.3-5.5,0.9c-1,0.6-1.5,1.4-1.5,2.5c0,0.5,0.1,1,0.4,1.4l17.9,31.3
			l13.3-26c1-1.9,1.4-3.7,1.4-5.4c0-1.4-0.7-2.4-2-3.2s-4-1.3-7.9-1.5v-3.8h26.7v3.8c-5.2,0.4-8.6,2.3-10.4,5.6l-23.8,44.8
			c-4,7.6-8.1,12.9-12.1,15.7c-4.1,2.9-8.5,4.3-13.2,4.3c-3.4,0-6.2-0.8-8.3-2.3s-3.1-3.4-3.1-5.6c0-1.7,0.6-3,1.9-4.1
			c1.3-1.1,2.9-1.6,4.8-1.6c1.7,0,3.2,0.5,4.4,1.4c1.2,0.9,1.8,2,1.8,3.3c0,0.4-0.1,1-0.3,1.7c-0.2,0.6-0.3,1-0.3,1.2
			c0,0.9,0.7,1.3,2.1,1.3c1.5,0,3.2-0.4,5.1-1.3c1.9-0.9,3.7-2.3,5.3-4.3c1.6-2,4.5-6.3,8.6-13.1l-24.4-42.4
			c-0.9-1.5-1.9-2.6-3.3-3.3s-3.2-1.2-5.7-1.5L143.7,223.7L143.7,223.7z"/>
		<path class="st6" d="M255.6,271.6v4.2h-36.5v-4.2h7.2c3.6,0,5.5-1.3,5.5-3.8v-36.3c0-2.5-1.7-3.7-5-3.7h-7.3v-4.2h36.1v4.2h-6.4
			c-3.9,0-5.9,1.5-5.9,4.6v15.1h7.8c4.7,0,8.1-0.8,10.3-2.3c2.1-1.5,3.7-4.6,4.8-9c0.9-3.7,1.8-6.3,2.5-7.8c0.8-1.5,2.2-2.8,4.3-3.9
			s4.5-1.7,7.3-1.7c3.8,0,6.7,1,8.6,3.1s3,4.2,3,6.4c0,1.7-0.6,3.2-1.9,4.4c-1.3,1.2-3.1,1.8-5.5,1.8c-2.2,0-3.9-0.5-5-1.6
			c-1.1-1.1-1.7-2.3-1.7-3.8c0-1.2,0.4-2.4,1.1-3.4c0.7-1,1-1.6,1-1.8c0-0.5-0.5-0.8-1.4-0.8c-1.6,0-3.1,0.6-4.3,1.6s-2.2,3.3-3,6.6
			c-1.2,5.1-2.5,8.4-4,9.9c-1.5,1.5-3.6,2.9-6.3,4.3c8.5,0.9,13.9,4,16,9.1l3,7.3c1.3,3.2,2.8,4.8,4.5,4.8c2.1,0,3.6-2.5,4.4-7.4
			h4.9c-0.9,5.6-2.5,9.2-4.9,10.8s-5.3,2.3-8.8,2.3c-5.6,0-9.3-2.6-11.1-7.8l-3.1-8.6c-2-5.9-6.5-8.8-13.5-8.8h-9.1v15.4
			c0,1.8,0.4,3.1,1.1,3.8c0.7,0.7,2,1.1,3.9,1.1L255.6,271.6L255.6,271.6z"/>
	</g>
	<g>
		<path class="st5" d="M248.1,172.7c5.9,0,11.7,0,17.6,0"/>
		<g>
			<path class="st5" d="M248.1,174.2c5.9,0,11.7,0,17.6,0c1.9,0,1.9-3,0-3c-5.9,0-11.7,0-17.6,0
				C246.2,171.2,246.2,174.2,248.1,174.2L248.1,174.2z"/>
		</g>
	</g>
</g>
</svg>
