<?xml version="1.0" encoding="utf-8"?>
<!-- Generator: Adobe Illustrator 23.0.1, SVG Export Plug-In . SVG Version: 6.00 Build 0)  -->
<svg version="1.1" id="Слой_1" xmlns="http://www.w3.org/2000/svg" xmlns:xlink="http://www.w3.org/1999/xlink" x="0px" y="0px"
	 viewBox="0 0 1280 600" style="enable-background:new 0 0 1280 600;" xml:space="preserve">
<style type="text/css">
	.st0{fill:#600B1F;}
	.st1{font-family:'ArialMT';}
	.st2{font-size:12px;}
	.st3{fill:#9B1E3F;}
	.st4{opacity:0.32;}
	.st5{opacity:0.43;enable-background:new    ;}
	.st6{fill:#FFFFFF;}
	.st7{fill:#C64747;}
</style>
<g>
	<text transform="matrix(1 0 0 1 500.2002 408.7334)" class="st0 st1 st2">УAловите свое</text>
	<text transform="matrix(1 0 0 1 373.2666 343.667)" class="st0 st1 st2">мм</text>
	<g>
		<rect x="-2.5" y="2.5" class="st0" width="1441" height="602"/>
		<path class="st0" d="M1438,3v601H-2V3H1438 M1439,2H-3v603h1442V2L1439,2z"/>
	</g>
</g>
<g id="Слой_3">
	<path class="st3" d="M108.9,108.4l-0.9-1.8l-12.9-6.9l22.2,43.7c0.5,1,0.6,2,0.2,3.1c-0.3,1.1-1,1.9-2,2.4s-2,0.6-3.1,0.2
		s-1.8-1-2.3-2L82.8,93.3l9.4-4.8l15.5,8.5l2.6-17.6l9.2-4.7l27.2,53.7c0.5,1,0.6,2.1,0.2,3.1s-1.1,1.9-2.1,2.4
		c-1,0.5-2,0.6-3.1,0.2c-1.1-0.4-1.9-1-2.4-2l-22.1-43.6l-2.1,14.1l1,2c0.5,1,0.6,2,0.2,3.1c-0.4,1.1-1,1.9-2,2.4
		c-1,0.5-2,0.6-3.1,0.2C110.2,110,109.4,109.3,108.9,108.4z"/>
	<path class="st3" d="M196.1,374.9l-2.9,9l22.4,44.3l7.9,2.4l-19.8,10l3.4-8.1l-14.7-29l5.4,44.5l-4.1,2.1l-0.9-1l3.8-1.9l-5.9-47.4
		l-3.3-6.6l6.4,52.4l-3,1.5l-29.4-28.8l11.6,22.8c1.5,3,2.8,5.1,3.9,6.2c1,1.1,2.7,2,5,2.7l6.4,3l-22.6,11.4l-1.4-0.8l21.2-10.7
		l-2.8-1.6l-19.2,9.7l0.7-0.9c2.3-3.4,3.5-6.2,3.6-8.5s-0.8-5.4-2.8-9.3l-18.1-35.7l-8.4-2.5l22.3-11.3l-3.4,8.8l30.5,29.9l-0.4-4.5
		L160,400.7l3.5-7l1.3,0.3l-3.5,6.5l25.5,24.9l-4.4-36.4l-8.1-3L196.1,374.9z M152.4,409.8l15.7,31c2.4,4.7,4.5,7.8,6.3,9.1
		c1.8,1.3,4.3,1.7,7.6,1l-0.7-0.5c-3.8-0.5-6.6-2.6-8.5-6.3l-1.6-3.2l-12.9-25.5L152.4,409.8z M200.2,377l-3.1,6l22,43.5l11.8,4.7
		l-22.9,11.6l-1.2-0.9l20.9-10.6l-9.4-3.7l-22.7-44.8l3.3-6.1L200.2,377z"/>
	<path class="st3" d="M390.4,182.2l29.8,58.9l-16.8,8.5l-21.3-42.1l10.4,47.6l-11.5,5.8l-32.6-36.4l21.3,42.1l-13.5,6.9l-29.8-58.9
		l23.6-12l24.4,26.9l-7.7-35.4L390.4,182.2z"/>
	<path class="st3" d="M594,436.4l25.7,27.4l11.5,12.1l10.4,11l1.3,1.4l-26.2,13.3l-23.7-26.3l-4.3,35.8l-31.2-16.2
		c1.4,7.1,3.3,15.7,5.8,25.8c1,3.8,1.5,6.2,1.5,7s-0.5,1.5-1.5,2c-1.3,0.6-2.1,0.5-2.5-0.3c-0.1-0.3-0.5-1.9-1-5l-2-10.5l-3.4-18.2
		l-6.6-35.6l40.9,22.3L594,436.4z"/>
	<path class="st3" d="M1103.9,152.6c1.1,2.2,1.1,3.7-0.2,4.3c-0.1,0.1-0.2,0.1-0.3,0.2c-0.1,0-0.2,0.1-0.3,0.2
		c-0.3,0.1-0.9,0.8-1.9,1.8s-1.6,1.7-1.9,1.8c-0.3,0.1-0.7,0.4-1.2,0.7c-0.5,0.3-0.9,0.5-1.1,0.7c-1.1,0.6-2.3,0.1-3.4-1.3
		c-0.8-1.1-1.6-2.3-2.4-3.6c-2.9-2.9-5.8-6.1-8.6-9.6c-2.3-2.7-6.4-7.5-12.3-14.4c-1.4-1.3-3.4-4.1-5.9-8.3
		c-1.5,0.3-2.3,0.4-2.4,0.5c-1.7,0.8-2.1,2.4-1.3,4.7c0.8,2.3,1.7,5.9,2.9,10.9c0.2,2.1,0.4,5.1,0.8,9s1,7.1,2.1,9.5
		c0.2,0.8,0.7,3.1,1.4,7l1.4,4.2c0.5,2.2,0.1,3.6-1.3,4.4c-0.1,0.1-0.7,0.1-1.8,0s-1.7,0-1.9,0.1c-0.2,0.1-0.5,0.4-0.9,0.8
		s-0.7,0.7-0.9,0.8c-1.4,0.7-3-0.1-4.9-2.3c-0.5-0.6-1.5-1.8-2.8-3.7c-0.8-0.6-2-1.6-3.5-3c-4.8-6.1-11.4-13.9-19.7-23.5
		c-0.6-0.7-1.5-0.8-2.8-0.3l-2.7,1.6c-0.2,0.6,0,1.6,0.7,2.9l1.5,2.9c0.5,2.4,1.3,5.1,2.3,8.2c1.4,4.5,4.3,12.7,8.8,24.7
		c0,1.4-0.3,2.3-0.9,2.6c-0.2,0.1-0.6,0.1-1.2,0s-1-0.1-1.2,0s-0.2,0.2-0.2,0.2c0.1,0.1,0,0.2-0.2,0.3c-0.2,0-0.4,0-0.8,0
		c-0.6,0.1-2.4,0.9-5.3,2.2c-0.8-0.2-1.4-0.5-1.6-1.1c-0.2-0.4-0.5-1.6-0.9-3.9c-0.4-2.6-0.7-4.1-0.8-4.4c-0.6-1.4-1.8-4.4-3.4-9.1
		c-0.8-2.5-2.2-6.9-4.2-13.2c-0.3-1-0.9-2.9-1.8-5.8c-0.3-0.6-0.7-1.5-1.3-2.5c-0.4-0.8-0.8-1.6-1.2-2.6c-0.4-2.8-0.6-4.2-0.6-4.3
		c-0.2-0.4-0.5-0.7-1-0.7c-0.4-0.1-0.8-0.1-1.2-0.2l0.1-1.7c0.5-0.6,1.2-1.3,2-2c1.4-1.1,3.9-2.7,7.6-4.5c0.2-0.1,0.7-0.2,1.3-0.4
		c0.6-0.1,1.1-0.3,1.3-0.4l8.8-4.4c1.4-0.7,2.9,0,4.6,2.3c0.2,0.3,1.8,2.1,4.6,5.3c0.4,0.8,1.1,1.8,2,3.2c0.7,1,1.8,2.5,3.3,4.4
		c1.2,1.2,2.9,3.1,4.9,5.5c0.2,0.1,0.6,1,1.3,2.6c0.4,0.8,1,1.6,1.9,2.2c-0.3-0.8-0.7-1.9-1.2-3.3c-0.6-3-1.5-6.6-2.8-10.8
		c-0.2-0.8-0.8-5.9-1.7-15.4c-0.3-0.7-0.6-1.4-0.9-2.1c-0.3-1.1-0.4-1.9-0.1-2.4c0.3-0.5,1.5-1.5,3.7-2.9c1.8-1.2,3.1-2,3.9-2.4
		c0.2-0.1,0.7-0.2,1.3-0.3c0.7-0.1,1.1-0.2,1.3-0.3c0.2-0.1,1.5-0.9,4.1-2.5l4-2.4c1.3-0.7,2.6-0.2,4,1.3c0.4,1.3,0.9,2.7,1.6,4.1
		c1,2,2.4,4.2,4.2,6.4c1.2,1.2,3.3,3.5,6.2,6.8c0.4,0.6,1.6,2.3,3.7,5.3c1.3,1.1,2.6,2.5,4,4.1c0.5,0.5,1.4,1.9,2.9,4.3
		c0.5,0.4,1.2,0.9,2,1.6C1100.5,148.1,1103.2,151.1,1103.9,152.6z"/>
	<path class="st3" d="M899.2,397l3.7-6.2l-29.9-59l-6.2-0.9l11-5.5l22.6,28.7l-3.3-38.5l6.1-3.1l-3.1,5.6l30,59.3l6.4,0.8l-10.3,5.2
		l-25.2-58.1l7,42.8l-29.5-38l27.7,63.6L899.2,397z"/>
	<path class="st3" d="M1244.9,533.9L1244.9,533.9c-0.1,0.4-0.5,1.6-1.1,3.7c-0.6,1.3-2.3,2.7-5,4c-4.4,2.2-6.4,3.3-6.1,3.1
		c-4,2.1-7.2,3.7-9.7,4.9c-0.5,0.2-0.8,0.1-1-0.3c-0.2-0.5-0.2-1.2,0.2-2.3c-0.1-7.6-1.7-14-4.8-19.3c-0.3-0.4-0.8-1.2-1.5-2.3
		c0.9,3.9,1.5,7.8,1.9,11.7c-0.2,1.6-0.5,4-0.8,7.3c0.1,0.8,0.3,2.1,0.4,3.8c-1.1,2.1-2.6,3.7-4.5,4.9c-0.2,0.1-0.8,0.3-1.6,0.5
		l0.1,0c-0.3,0.2-0.9,0.4-1.7,0.6l-0.9,0.8l-0.8,0.6c-0.2,0.2-0.5,0.3-0.9,0.5c-0.3,0.1-1.1,0.5-2.2,1.1c-0.8,0.5-1.6,0.9-2.2,1.1
		c-0.4,0.3-0.8,0.3-1.1,0l-1.1-0.8c-0.3-4.6-1.4-9-3.4-13.3c0.5,1.7,0.9,4.1,1.3,7.3c0.3,2,0.1,4.4-0.5,7.2
		c-0.1,0.3-0.4,0.9-0.9,1.8c-0.5,0.5-0.9,1-1.2,1.3c-0.5,0.4-1,0.6-1.5,0.8c-2.4,1.8-4.7,3.1-6.8,4c-0.9,0.4-3.3,1.8-7.1,4.2
		c-1.7,0.7-3.1,0.7-4.2,0.2c-0.5-0.6-0.8-1.6-0.8-3c-0.2-0.8-0.3-2.3-0.5-4.4c0-0.8,0-1.5,0.1-2.2c-0.7-4-2-7.8-3.9-11.6
		c-0.1-0.3-0.2-0.6-0.3-0.8l-0.4-0.8c-0.3-0.6-0.5-1.2-0.6-1.8c-2.7-5-8.9-10.7-18.7-17.1c-3-2-5.3-3.7-6.8-5
		c-3.9-3.5-6.9-7.5-9.1-11.8c-3.3-6.4-4.8-13.3-4.7-20.7c0.1-0.4,0.3-1,0.7-1.9l1.3-2c0.8-0.4,1.4-0.6,1.9-0.5l0-0.1
		c0.1,0,0.1-0.1,0.1-0.2c3.9-2.2,9.4-5.4,16.7-9.5l0.3-0.2c0.2-0.1,0.3-0.1,0.3-0.2c0.3-0.2,0.7-0.4,1.1-0.5s0.8-0.2,1.2-0.3
		l2.9-1.5c0.2-0.1,0.5-0.2,0.8-0.3c0.4,0.1,0.7,0.3,0.8,0.5c0.1,0.2,0.2,0.4,0.3,0.5c1,1.2,1.8,2.5,2.5,3.8c0.6,1.2,1.4,3,2.3,5.5
		s1.8,4.3,2.4,5.6c1.6,3,3.2,4.9,4.8,5.8c-2-3.4-2.8-9-2.4-16.8c0.1-1.8,0.1-3.6,0.1-5.6c-0.1,0.1-0.2,0.2-0.3,0.2l-0.1,0.2
		c0.3-1.2,0.9-2.6,1.8-4.1c1-1.2,1.9-2.4,2.8-3.6c1.6-0.7,3.8-1.8,6.9-3.1c3.1-1.4,5.3-2.4,6.9-3.1c0.3-0.1,0.6-0.2,0.9-0.4
		c0.2-0.1,0.5-0.3,0.8-0.5c0.7-0.4,1.7-1,2.9-1.9c0.4-0.3,0.8-0.5,1.3-0.7c0.3-0.1,0.7-0.5,1.1-0.9c1.2-0.5,2.8-0.6,4.8-0.3
		c0.2,0.1,0.4,0.1,0.8,0.2c0.3,1,0.1,1.9-0.7,2.6c0,6.4,1.4,12.6,4.2,18.4c2.8,5.9,6.8,10.8,11.9,14.7c11.4,7,19.2,13.8,23.5,20.5
		c1.8,2.7,3.1,5.9,4,9.4C1243.7,523.4,1244.4,527.6,1244.9,533.9z M1226.9,540.7c2.5-1,6.2-2.6,11.2-4.6c0.4-7-1.2-13.8-4.7-20.5
		c-3.5-6.6-8.3-11.7-14.4-15.2c-9.1-5.3-15.8-12-19.9-20.3c-2.6-5.1-4-10.4-4.3-15.9c-0.1,0.1-0.3,0.1-0.5,0.1l-1.7,0.9
		c-0.3,0.1-0.6,0.3-0.8,0.4l-0.7,0.4c-0.5,0.3-1.1,0.5-1.6,0.8c-0.5,0.3-1.1,0.6-1.8,0.9l-1.3,0.7c-0.1,0.1-0.3,0.1-0.4,0.2
		l-0.6,0.3c-0.2,0.1-0.5,0.3-0.9,0.5s-0.7,0.4-0.9,0.5c-1.3,0.4-2.5,0.9-3.7,1.5c-1.8,0.4-2.7,0.7-2.8,0.7l-1.6,0.6
		c-0.5,0.2-1,0.4-1.6,0.7c-0.3,2.5,0.1,6.3,1.3,11.6c0.3,1.2,0.7,2.5,1.1,4.1c0.1,3,0.9,5.8,2.3,8.4c1.6,2.9,3,5.5,4.5,7.7
		c0.4,0.2,0.7,0.6,0.9,1c0.7,1.4,0.4,2.4-0.9,3.2c-0.2,0.1-0.8,0.3-1.6,0.5c-0.5,0.4-1.5,0.1-3.2-0.7c-4.8-2.6-8.7-5.8-11.4-9.5
		c-2.4-2.6-5.6-7.8-9.5-15.5l-0.8-1.6c-0.4,0-1.7,0.4-3.9,1l-0.5,0.4c-0.7,0.5-1.6,1-2.7,1.6c-3.4,2.4-5,3.5-4.5,3.3l-5.4,2.7
		c-1.3,0.7-2.3,1.8-3,3.5c0.7,5.4,2.4,10.4,5.1,15.2c2.2,3.7,5.7,7.7,10.6,12c3.6,4.1,8.9,8.7,15.7,13.8c0.9,0.9,2.4,2.3,4.3,4.1
		l0.3,0.1c0.9,1.4,2.4,3.5,4.5,6.3c1,2.2,1.8,4.6,2.3,7.4c0.4,2.5,0.8,4.9,1.3,7.3c0.1,0.3,0.1,0.6,0.2,1.1c0.7,0,1.2,0,1.5-0.1
		l1-0.3c3.1-2.1,4.8-3.2,5-3.3l1.6-0.8c0.1-0.1,0.3-0.1,0.4-0.2l0.8-0.4c0.7-0.4,1.3-0.5,1.7-0.5l0.3-0.2l0-1.3
		c-0.1-1.3-0.2-3.3-0.3-6c-0.6-1.7-1.3-3.9-2.2-6.5c-0.3-0.8-0.5-1.4-0.7-1.9c-1-1.9-2.8-4.8-5.5-8.9c-3.4-3.9-6.8-6.7-10.1-8.5
		c-1.3-0.7-2.6-1.4-3.9-2.1c-1.7-1-2.8-1.9-3.3-2.8l0.4,0.1c-0.8-0.5-1.3-1-1.6-1.5c0.2-0.5,0.6-1.1,1.1-1.9
		c0.6-0.4,1.3-0.5,2.1-0.5c0.4,0.1,1,0.2,1.7,0.3c2.1,0.8,4.1,1.8,5.9,3.1c1.7,0.5,4.2,1.7,7.8,3.7l3.7,2.1c1.2,0.7,2.6,1.3,3.9,1.8
		c3.4,2.9,6.2,6.3,8.6,10.2c0.9,1.6,1.8,3.8,2.6,6.6c0.9,3,1.6,5.1,2.2,6.3c0.1,0.2,0.1,0.3,0.1,0.5c0.4-0.2,1-0.6,1.8-1.1
		c0.5-0.3,1.2-0.5,1.9-0.7c0,0.3,0,0.8,0,1.5c2-4.9,2.8-10.2,2.2-15.8c-0.5-5.4-2.2-10.4-5-15.1c-1.7-2.8-4-5.6-6.9-8.2
		c-0.5-0.5-2.1-2.2-4.7-5.1c-0.2-0.6-0.1-1.1,0.5-1.6c0.2-0.1,0.3-0.2,0.5-0.4l0.4-0.2c1.1-0.6,3.2-0.2,6.2,1.1c1.6,1,4,2.7,7,5
		c0.6,0.5,1.2,0.9,1.8,1.2c2.4,2.1,4.4,4.2,6,6.2c1.2,1.4,2.7,3.9,4.5,7.5l0.2,0.3c0,0.1,0.1,0.2,0.2,0.3c0.1,0.2,0.2,0.3,0.1,0.3
		c0.7,1.4,1.2,2.4,1.5,2.9c0.4,0.8,0.8,1.8,1,3c0.4,0.5,0.7,1,1,1.6c0.2,0.6,0.3,1.1,0.3,1.7L1226.9,540.7z"/>
</g>
<g id="Слой_4" class="st4">
	<rect x="-27" y="-13.4" class="st5" width="1324" height="640"/>
</g>
<g>
	<path class="st6" d="M541.8,118.8h-3.1l-23.5-29.6v23.1c0,1.5,0.5,2.6,1.3,3.1s2.8,0.9,5.8,0.9h4.5v2.5h-28.4v-2.5h4.8
		c2.6,0,4.4-0.3,5.2-0.9c0.9-0.6,1.3-1.6,1.3-3.1V94c0-1.3-0.4-2.3-1.2-2.9s-2.6-0.8-5.4-0.8h-4.8v-2.5h27.6l17.9,22.3l19-22.3h28.4
		v2.5h-6.7c-3.9,0-5.8,0.9-5.8,2.8v21.1c0,1.5,1.7,2.2,5,2.2h7.3v2.5h-36.6v-2.5h6.8c3.9,0,5.9-0.9,5.9-2.8V89.4L541.8,118.8z"/>
	<path class="st6" d="M667,115.4l2.5,1.8c-3.3,1.7-7,2.5-11.1,2.5c-3.1,0-5.7-0.4-7.8-1.2c-2.1-0.8-4-2.3-5.6-4.3
		c-4.3,2.2-8.2,3.7-11.4,4.4s-7.2,1.1-11.9,1.1c-6.6,0-11.6-0.7-15-2.1s-5.1-3.1-5.1-5.3c0-3.2,3.9-5.9,11.8-8s18.3-3.6,31.3-4.3
		v-4.7c0-1.7-1.4-3.1-4.2-4.3s-6.3-1.8-10.6-1.8c-4,0-7.4,0.4-10.3,1.2c-2.1,0.6-3.1,1.2-3.1,1.8c0,0.3,0.5,0.8,1.6,1.6
		c1.3,0.9,2,1.7,2,2.3c0,1-0.7,1.8-2,2.4s-3.1,0.9-5.2,0.9c-2.3,0-4.2-0.4-5.7-1.1c-1.5-0.8-2.3-1.7-2.3-2.9c0-2.2,2.5-4.2,7.6-6
		s11.8-2.7,20-2.7c7.6,0,13.5,0.8,17.5,2.4c4,1.6,6,3.6,6,5.9V112c0,1.5,0.5,2.6,1.5,3.3c1,0.7,2.3,1.1,3.9,1.1
		C663.1,116.4,665,116.1,667,115.4z M644.5,102.3c-11.6,0.8-19.8,2-24.7,3.8c-3.6,1.3-5.4,3.2-5.4,5.6c0,1.7,0.9,3,2.8,4
		s4.3,1.4,7.3,1.4c5.4,0,10.1-1,14-3s5.9-4.4,5.9-7.4L644.5,102.3L644.5,102.3z"/>
	<path class="st6" d="M679.4,98.8h-5.1l1.6-11.1h61.9l1.6,11.1h-5.1c-1.5-3.7-3.4-6.1-5.8-7.1c-2.4-1-5.4-1.5-9-1.5h-7.2v23.8
		c0,1.5,1.7,2.2,5,2.2h7.3v2.5h-36.5v-2.5h6.8c3.9,0,5.9-0.9,5.9-2.8V90.3h-6.4c-4.1,0-7.2,0.6-9.5,1.7S680.6,95.4,679.4,98.8z"/>
	<path class="st6" d="M498.4,165.8v-2.5h6.8c3.9,0,5.9-0.9,5.9-2.9v-21.1c0-1.4-1.6-2.1-4.9-2.1h-7.3v-2.5h36.1
		c6.6,0,11.6,0.2,14.8,0.6s6,1.2,8.3,2.5c2.3,1.3,3.4,2.8,3.4,4.6c0,2.2-1.8,4-5.5,5.3s-7.8,2-12.4,2.1c13.7,0.9,20.6,3.6,20.6,8
		c0,5.3-8.9,8-26.8,8H498.4z M522.6,148.7h9.4c11.2,0,16.8-1.9,16.8-5.6c0-3.9-5.1-5.8-15.2-5.8h-4c-4.7,0-7,0.9-7,2.8L522.6,148.7
		L522.6,148.7z M522.6,151.2v9.3c0,1,0.4,1.7,1.3,2.2c0.9,0.4,2.4,0.7,4.5,0.7h5.5c7.2,0,11.8-0.5,13.8-1.6s3.1-2.4,3.1-4.1
		c0-4.3-5.5-6.4-16.6-6.4L522.6,151.2L522.6,151.2z"/>
	<path class="st6" d="M630.3,140.1v-1.3c-0.4-1-2-1.5-4.9-1.5h-7.3v-2.5h36.1v2.5h-6.5c-3.9,0-5.8,0.9-5.8,2.8v21
		c0,1.5,1.7,2.2,5,2.2h7.3v2.5h-36.5v-2.5h6.8c3.9,0,5.8-0.9,5.8-2.8v-17L598,159.9v1.2c0,1.5,1.6,2.2,4.9,2.2h7.5v2.5h-36.6v-2.5
		h6.8c3.9,0,5.8-0.9,5.8-2.8v-21.1c0-1.5-1.6-2.2-4.9-2.2h-7.3v-2.5h36.2v2.5h-6.6c-3.9,0-5.8,0.9-5.8,2.8v16.5L630.3,140.1z"/>
	<path class="st6" d="M734.7,137.3h6.5v-2.5h-36.1v2.5h7.3c2.9,0,4.5,0.5,4.9,1.5v1.3L685,156.5v-16.5c0-1.9,1.9-2.8,5.8-2.8h6.6
		v-2.5h-36.2v2.5h7.3c3.3,0,4.9,0.7,4.9,2.2v21.1c0,1.9-1.9,2.8-5.8,2.8h-6.8v2.5h36.6v-2.5H690c-3.3,0-4.9-0.7-4.9-2.2v-1.2
		l32.3-16.4v17c0,1.9-1.9,2.8-5.8,2.8h-6.8v2.5h36.5v-2.5h-7.3c-3.3,0-5-0.7-5-2.2v-21C728.9,138.2,730.8,137.3,734.7,137.3z"/>
	<g>
		<path class="st7" d="M503.7,184.9v-4.2h34.1v4.2h-5.6c-3.9,0-5.8,1.5-5.8,4.6v8.8c0,3.2,1.1,5.7,3.2,7.4s5.1,2.6,8.7,2.6
			c2.9,0,6.1-0.7,9.5-2c3.4-1.3,6.3-3,8.5-5v-12.7c0-2.5-1.7-3.7-5-3.7h-5.5v-4.2h34.5v4.2h-6.5c-3.9,0-5.9,1.5-5.9,4.6v35.4
			c0,2.5,1.7,3.7,5,3.7h7.4v4.2h-36.6v-4.2h6.8c3.9,0,5.8-1.6,5.8-4.7v-18.4c-6.8,5.4-14.1,8.1-21.8,8.1c-4.9,0-9.4-1.1-13.5-3.4
			c-4.2-2.3-6.2-6.7-6.2-13.3v-8.4c0-2.5-1.7-3.7-5-3.7L503.7,184.9L503.7,184.9z"/>
		<path class="st7" d="M586.7,180.7h30.8v3.8h-2.9c-2.7,0-4.5,0.3-5.5,0.9c-1,0.6-1.5,1.4-1.5,2.5c0,0.5,0.1,1,0.4,1.4l17.9,31.3
			l13.3-26c1-1.9,1.4-3.7,1.4-5.4c0-1.4-0.7-2.4-2-3.2s-4-1.3-8-1.5v-3.8h26.7v3.8c-5.2,0.4-8.6,2.3-10.4,5.6l-23.8,44.8
			c-4,7.6-8.1,12.9-12.2,15.7c-4.1,2.9-8.5,4.3-13.2,4.3c-3.4,0-6.2-0.8-8.3-2.3s-3.1-3.4-3.1-5.6c0-1.7,0.6-3,1.9-4.1
			c1.3-1.1,2.9-1.6,4.8-1.6c1.7,0,3.2,0.5,4.4,1.4s1.8,2,1.8,3.3c0,0.4-0.1,1-0.3,1.7c-0.2,0.6-0.3,1-0.3,1.2c0,0.9,0.7,1.3,2.1,1.3
			c1.5,0,3.2-0.4,5.1-1.3c1.9-0.9,3.7-2.3,5.3-4.3c1.6-2,4.5-6.3,8.7-13.1l-24.4-42.4c-0.9-1.5-2-2.6-3.3-3.3s-3.2-1.2-5.7-1.5
			L586.7,180.7L586.7,180.7z"/>
		<path class="st7" d="M698.6,228.6v4.2h-36.5v-4.2h7.2c3.7,0,5.5-1.3,5.5-3.8v-36.3c0-2.5-1.7-3.7-5-3.7h-7.3v-4.2h36v4.2h-6.4
			c-3.9,0-5.9,1.5-5.9,4.6v15.1h7.8c4.7,0,8.1-0.8,10.3-2.3c2.1-1.5,3.7-4.6,4.8-9c0.9-3.7,1.8-6.3,2.5-7.8c0.8-1.5,2.2-2.8,4.3-3.9
			s4.5-1.7,7.3-1.7c3.8,0,6.7,1,8.6,3.1s3,4.2,3,6.4c0,1.7-0.6,3.2-1.9,4.4c-1.3,1.2-3.1,1.8-5.5,1.8c-2.2,0-3.9-0.5-5-1.6
			c-1.1-1.1-1.7-2.3-1.7-3.8c0-1.2,0.4-2.4,1.1-3.4c0.7-1,1-1.6,1-1.8c0-0.5-0.5-0.8-1.4-0.8c-1.6,0-3.1,0.6-4.3,1.6s-2.2,3.3-3,6.6
			c-1.2,5.1-2.5,8.4-4,9.9s-3.6,2.9-6.3,4.3c8.5,0.9,13.9,4,16,9.1l3,7.3c1.3,3.2,2.8,4.8,4.5,4.8c2.2,0,3.6-2.5,4.4-7.4h4.9
			c-0.9,5.6-2.5,9.2-4.9,10.8s-5.3,2.3-8.8,2.3c-5.6,0-9.3-2.6-11.1-7.8l-3.1-8.6c-2-5.9-6.5-8.8-13.5-8.8h-9v15.4
			c0,1.8,0.4,3.1,1.1,3.8s2,1.1,3.9,1.1L698.6,228.6L698.6,228.6z"/>
	</g>
	<g>
		<path class="st6" d="M691.1,129.7c5.9,0,11.7,0,17.6,0"/>
		<g>
			<path class="st6" d="M691.1,131.2c5.9,0,11.7,0,17.6,0c1.9,0,1.9-3,0-3c-5.9,0-11.7,0-17.6,0
				C689.2,128.2,689.2,131.2,691.1,131.2L691.1,131.2z"/>
		</g>
	</g>
</g>
</svg>
