<?xml version="1.0" encoding="utf-8"?>
<!-- Generator: Adobe Illustrator 24.2.3, SVG Export Plug-In . SVG Version: 6.00 Build 0)  -->
<svg version="1.2" baseProfile="tiny" id="Слой_1"
	 xmlns="http://www.w3.org/2000/svg" xmlns:xlink="http://www.w3.org/1999/xlink" x="0px" y="0px" width="400px" height="400px"
	 viewBox="0 0 400 400" overflow="visible" xml:space="preserve">
<g id="Слой_2">
</g>
<image width="400" height="400" xlink:href="3347538A.png"  transform="matrix(1 0 0 1 1 1)">
</image>
<g id="Слой_3">
</g>
<path fill="#6B4124" d="M296.05,138.01v6.22H109.57v-6.22c0-12.85,10.44-23.29,23.29-23.29h139.9
	C285.61,114.72,296.05,125.16,296.05,138.01L296.05,138.01z"/>
<path fill="#FFFFFF" d="M296.05,144.22v131.53c0,5.14-4.14,9.37-9.28,9.37H118.85c-5.14,0-9.28-4.23-9.28-9.37V144.22H296.05z"/>
<path d="M238.03,208.46h-20.72c-3.43,0-6.22-2.78-6.22-6.22s2.78-6.22,6.22-6.22h14.5v-14.5c0-3.43,2.78-6.22,6.22-6.22
	c3.43,0,6.22,2.78,6.22,6.22v20.72C244.25,205.67,241.46,208.46,238.03,208.46z"/>
<path d="M168.5,214.01c-0.51,0-1.02-0.06-1.53-0.18c-3.32-0.85-5.35-4.23-4.51-7.55c4.62-18.24,21.04-30.97,39.93-30.97
	c9.42,0,18.52,3.21,25.65,9.03c5.16,3.99,9.3,9.41,11.84,15.53c1.31,3.17-0.19,6.8-3.37,8.11c-3.16,1.32-6.8-0.19-8.12-3.37
	c-1.71-4.13-4.51-7.78-8.09-10.56c-5.04-4.11-11.35-6.32-17.91-6.32c-13.2,0-24.67,8.88-27.86,21.58
	C173.82,212.13,171.28,214.01,168.5,214.01L168.5,214.01z"/>
<path d="M203.22,258.19c-9.42,0-18.52-3.21-25.65-9.03c-5.16-3.99-9.3-9.41-11.84-15.53c-1.31-3.17,0.19-6.8,3.37-8.12
	c3.17-1.27,6.8,0.19,8.12,3.37c1.71,4.14,4.51,7.78,8.09,10.56c5.04,4.11,11.35,6.32,17.91,6.32c13.2,0,24.67-8.87,27.86-21.58
	c0.85-3.33,4.29-5.35,7.55-4.51c3.32,0.85,5.35,4.23,4.51,7.55C238.54,245.46,222.12,258.19,203.22,258.19L203.22,258.19z"/>
<path d="M167.58,258.19c-3.43,0-6.22-2.78-6.22-6.22v-20.72c0-3.43,2.78-6.22,6.22-6.22h20.72c3.43,0,6.22,2.78,6.22,6.22
	c0,3.43-2.78,6.22-6.22,6.22h-14.5v14.5C173.8,255.4,171.01,258.19,167.58,258.19z"/>
<path d="M279.47,291.34H126.14c-12.57,0-22.79-10.22-22.79-22.79V131.79c0-12.57,10.22-22.79,22.79-22.79h153.33
	c12.57,0,22.79,10.22,22.79,22.79v136.76C302.27,281.12,292.05,291.34,279.47,291.34z M126.14,121.43
	c-5.71,0-10.36,4.65-10.36,10.36v136.76c0,5.71,4.65,10.36,10.36,10.36h153.33c5.71,0,10.36-4.65,10.36-10.36V131.79
	c0-5.71-4.65-10.36-10.36-10.36H126.14z"/>
<path d="M296.05,150.44H109.57c-3.43,0-6.22-2.78-6.22-6.22s2.78-6.22,6.22-6.22h186.48c3.43,0,6.22,2.78,6.22,6.22
	S299.48,150.44,296.05,150.44z"/>
</svg>
