<?xml version="1.0" encoding="utf-8"?>
<!-- Generator: Adobe Illustrator 23.0.1, SVG Export Plug-In . SVG Version: 6.00 Build 0)  -->
<svg version="1.1" xmlns="http://www.w3.org/2000/svg" xmlns:xlink="http://www.w3.org/1999/xlink" x="0px" y="0px"
	 viewBox="0 0 1280 600" style="enable-background:new 0 0 1280 600;" xml:space="preserve">
<style type="text/css">
	.st0{font-family:'MyriadPro-Regular';}
	.st1{font-size:12px;}
	.st2{fill:#FFA65C;}
	.st3{fill:#BC723F;}
	.st4{opacity:0.43;}
	.st5{fill:#FFFFFF;}
	.st6{fill:#C64747;}
</style>
<g id="Слой_2">
	<text transform="matrix(1 0 0 1 500.2002 408.7334)" class="st0 st1">УAловите свое</text>
	<text transform="matrix(1 0 0 1 373.2666 343.667)" class="st0 st1">мм</text>
	<g>
		<rect x="-2.5" y="2.5" class="st2" width="1441" height="602"/>
		<path d="M1438,3v601H-2V3H1438 M1439,2H-3v603h1442V2L1439,2z"/>
	</g>
</g>
<g id="Слой_3">
	<path class="st3" d="M108.92,108.36l-0.94-1.85l-12.92-6.89l22.15,43.73c0.51,1.01,0.59,2.04,0.24,3.1
		c-0.35,1.06-1.02,1.85-2.03,2.36c-1.01,0.51-2.04,0.58-3.11,0.22c-1.07-0.36-1.85-1.03-2.35-2.01L82.77,93.32l9.37-4.75l15.48,8.48
		l2.62-17.64l9.19-4.66l27.19,53.69c0.51,1.01,0.58,2.05,0.2,3.12s-1.07,1.87-2.07,2.38c-0.98,0.5-2.01,0.57-3.09,0.21
		c-1.08-0.35-1.87-1.02-2.37-2L117.22,88.6l-2.09,14.06l1.03,2.03c0.5,0.98,0.57,2.01,0.21,3.09c-0.36,1.08-1.02,1.87-2,2.37
		c-1.01,0.51-2.04,0.58-3.11,0.22C110.19,110.01,109.41,109.34,108.92,108.36z"/>
	<path class="st3" d="M196.08,374.88l-2.87,8.99l22.43,44.29l7.86,2.36l-19.84,10.05l3.44-8.08l-14.7-29.02l5.38,44.53l-4.14,2.1
		l-0.93-0.99l3.75-1.9l-5.91-47.4l-3.34-6.6l6.39,52.41l-3.02,1.53l-29.44-28.82l11.55,22.81c1.54,3.05,2.84,5.1,3.88,6.16
		c1.04,1.06,2.7,1.98,4.96,2.74l6.37,2.95l-22.55,11.42l-1.37-0.77l21.17-10.72l-2.8-1.56l-19.23,9.74l0.67-0.93
		c2.3-3.37,3.51-6.21,3.62-8.53s-0.82-5.41-2.78-9.29l-18.06-35.66l-8.4-2.46l22.29-11.29l-3.39,8.82l30.49,29.91l-0.35-4.54
		l-27.25-26.41l3.53-7.04l1.28,0.27l-3.47,6.53l25.49,24.86l-4.45-36.38l-8.12-2.98L196.08,374.88z M152.44,409.83l15.68,30.96
		c2.4,4.74,4.51,7.78,6.32,9.1c1.81,1.32,4.34,1.67,7.59,1.03l-0.71-0.45c-3.81-0.53-6.64-2.63-8.51-6.31l-1.62-3.19l-12.91-25.49
		L152.44,409.83z M200.2,377.02l-3.1,5.96l22.02,43.47l11.83,4.74l-22.9,11.6l-1.19-0.86l20.87-10.57l-9.42-3.73l-22.69-44.81
		l3.32-6.07L200.2,377.02z"/>
	<path class="st3" d="M390.35,182.19l29.81,58.86l-16.78,8.5l-21.32-42.09l10.43,47.6l-11.47,5.81l-32.64-36.36l21.32,42.09
		l-13.54,6.86l-29.81-58.87l23.61-11.96l24.37,26.94l-7.69-35.39L390.35,182.19z"/>
	<path class="st3" d="M593.99,436.35l25.66,27.37l11.47,12.07l10.36,10.95l1.35,1.38l-26.22,13.28l-23.69-26.31l-4.26,35.8
		l-31.16-16.2c1.38,7.1,3.32,15.7,5.81,25.78c1,3.83,1.49,6.16,1.49,6.97c0,0.81-0.51,1.48-1.51,1.99
		c-1.26,0.64-2.11,0.53-2.55-0.33c-0.13-0.26-0.46-1.91-1-4.97l-1.97-10.54l-3.38-18.23l-6.59-35.62l40.94,22.27L593.99,436.35z"/>
	<path class="st3" d="M1103.92,152.56c1.13,2.24,1.05,3.69-0.24,4.34c-0.12,0.06-0.22,0.11-0.31,0.16c-0.09,0.04-0.19,0.1-0.31,0.16
		c-0.29,0.15-0.93,0.75-1.91,1.81c-0.98,1.06-1.62,1.66-1.91,1.81c-0.3,0.15-0.69,0.38-1.2,0.71c-0.5,0.32-0.87,0.54-1.11,0.66
		c-1.12,0.57-2.26,0.14-3.42-1.27c-0.8-1.15-1.59-2.34-2.37-3.57c-2.88-2.91-5.76-6.11-8.64-9.61c-2.26-2.7-6.36-7.51-12.29-14.41
		c-1.39-1.29-3.36-4.07-5.89-8.34c-1.5,0.25-2.32,0.4-2.43,0.46c-1.65,0.84-2.08,2.39-1.3,4.67c0.78,2.28,1.74,5.92,2.87,10.92
		c0.16,2.07,0.41,5.09,0.75,9.04c0.34,3.95,1.03,7.11,2.08,9.48c0.18,0.8,0.66,3.12,1.42,6.97l1.45,4.17
		c0.52,2.19,0.07,3.64-1.34,4.36c-0.12,0.06-0.71,0.06-1.77,0.01c-1.06-0.05-1.68-0.04-1.86,0.05c-0.18,0.09-0.46,0.36-0.86,0.82
		c-0.4,0.46-0.68,0.73-0.86,0.82c-1.36,0.69-3-0.07-4.93-2.28c-0.53-0.62-1.48-1.84-2.85-3.66c-0.83-0.62-2-1.61-3.51-2.99
		c-4.84-6.06-11.41-13.9-19.69-23.54c-0.6-0.73-1.53-0.82-2.79-0.25l-2.65,1.56c-0.2,0.62,0.03,1.58,0.68,2.87l1.48,2.91
		c0.54,2.39,1.29,5.11,2.26,8.18c1.38,4.48,4.33,12.71,8.85,24.7c-0.02,1.42-0.33,2.27-0.92,2.57c-0.18,0.09-0.56,0.1-1.15,0.03
		c-0.59-0.07-0.97-0.06-1.15,0.03c-0.18,0.09-0.23,0.17-0.15,0.24c0.07,0.07,0.02,0.16-0.15,0.25c-0.15,0-0.41-0.01-0.8-0.04
		c-0.59,0.15-2.36,0.9-5.3,2.24c-0.83-0.17-1.38-0.52-1.64-1.05c-0.18-0.35-0.47-1.65-0.86-3.89c-0.43-2.6-0.69-4.05-0.78-4.38
		c-0.63-1.38-1.75-4.4-3.37-9.06c-0.81-2.48-2.22-6.87-4.23-13.17c-0.3-1.03-0.9-2.95-1.8-5.75c-0.33-0.65-0.74-1.47-1.25-2.47
		c-0.39-0.76-0.79-1.63-1.22-2.6c-0.36-2.78-0.56-4.19-0.59-4.25c-0.21-0.41-0.53-0.66-0.96-0.73c-0.43-0.08-0.82-0.14-1.17-0.18
		l0.12-1.72c0.55-0.65,1.24-1.33,2.05-2.04c1.4-1.15,3.94-2.66,7.62-4.52c0.23-0.12,0.67-0.24,1.29-0.38
		c0.63-0.13,1.06-0.26,1.29-0.38l8.76-4.44c1.4-0.71,2.92,0.04,4.55,2.25c0.24,0.32,1.77,2.1,4.59,5.33
		c0.39,0.77,1.05,1.84,1.98,3.21c0.7,0.98,1.8,2.46,3.29,4.44c1.24,1.22,2.86,3.06,4.87,5.52c0.15,0.15,0.59,1.03,1.34,2.65
		c0.42,0.83,1.04,1.55,1.87,2.16c-0.33-0.8-0.74-1.9-1.22-3.29c-0.61-2.96-1.54-6.55-2.78-10.76c-0.24-0.77-0.81-5.91-1.71-15.43
		c-0.3-0.74-0.59-1.45-0.86-2.13c-0.33-1.1-0.36-1.88-0.08-2.36c0.28-0.47,1.52-1.46,3.72-2.95c1.76-1.19,3.06-1.99,3.88-2.41
		c0.23-0.12,0.68-0.22,1.35-0.29c0.66-0.08,1.11-0.18,1.35-0.29c0.18-0.09,1.53-0.92,4.06-2.5l4.02-2.37
		c1.29-0.66,2.63-0.22,3.99,1.31c0.36,1.3,0.9,2.65,1.62,4.07c1.01,2,2.4,4.15,4.15,6.44c1.22,1.23,3.29,3.51,6.23,6.83
		c0.36,0.56,1.59,2.34,3.7,5.34c1.3,1.12,2.63,2.48,3.96,4.1c0.47,0.5,1.43,1.94,2.86,4.32c0.47,0.35,1.16,0.9,2.04,1.63
		C1100.48,148.09,1103.21,151.15,1103.92,152.56z"/>
	<path class="st3" d="M899.21,396.98l3.73-6.22l-29.88-58.99l-6.19-0.88l10.96-5.55l22.63,28.74l-3.31-38.53l6.08-3.08l-3.13,5.59
		l30.01,59.25l6.36,0.79l-10.31,5.22l-25.23-58.15l6.96,42.75l-29.45-38.03l27.65,63.59L899.21,396.98z"/>
	<path class="st3" d="M1244.94,533.86l-0.09,0.04c-0.03,0.38-0.38,1.59-1.04,3.64c-0.58,1.33-2.25,2.65-4.98,3.97
		c-4.42,2.24-6.45,3.27-6.09,3.09c-3.97,2.09-7.21,3.73-9.71,4.92c-0.5,0.18-0.84,0.09-1.02-0.26c-0.24-0.47-0.19-1.24,0.16-2.31
		c-0.14-7.58-1.74-14.01-4.78-19.3c-0.3-0.44-0.81-1.23-1.52-2.35c0.88,3.94,1.53,7.84,1.94,11.72c-0.23,1.6-0.47,4.03-0.75,7.29
		c0.12,0.83,0.25,2.1,0.38,3.82c-1.08,2.11-2.59,3.73-4.53,4.86c-0.24,0.12-0.75,0.27-1.55,0.45l0.09-0.04
		c-0.35,0.18-0.91,0.39-1.68,0.63l-0.93,0.8l-0.79,0.63c-0.21,0.18-0.5,0.33-0.88,0.45c-0.33,0.09-1.06,0.46-2.21,1.12
		c-0.85,0.51-1.59,0.88-2.21,1.12c-0.38,0.27-0.75,0.27-1.11,0.01l-1.06-0.79c-0.25-4.58-1.38-9-3.39-13.27
		c0.47,1.67,0.92,4.09,1.35,7.26c0.27,2,0.11,4.39-0.47,7.18c-0.12,0.35-0.41,0.94-0.88,1.77c-0.47,0.53-0.88,0.96-1.23,1.29
		c-0.47,0.38-0.97,0.64-1.5,0.76c-2.44,1.75-4.69,3.08-6.75,3.98c-0.91,0.39-3.27,1.8-7.06,4.24c-1.73,0.67-3.14,0.74-4.22,0.22
		c-0.52-0.59-0.77-1.6-0.76-3.03c-0.18-0.8-0.34-2.27-0.47-4.43c-0.03-0.8,0.01-1.52,0.12-2.17c-0.67-3.96-1.96-7.82-3.88-11.59
		c-0.09-0.32-0.18-0.58-0.27-0.75l-0.4-0.8c-0.3-0.59-0.49-1.19-0.59-1.81c-2.66-4.95-8.87-10.65-18.65-17.11
		c-3.02-2.02-5.27-3.7-6.76-5.02c-3.86-3.53-6.89-7.47-9.1-11.83c-3.25-6.42-4.81-13.34-4.67-20.74c0.09-0.41,0.31-1.05,0.69-1.9
		l1.3-1.99c0.76-0.38,1.4-0.56,1.93-0.53l0.04-0.13c0.06-0.03,0.1-0.09,0.13-0.18c3.86-2.22,9.43-5.37,16.69-9.45l0.35-0.18
		c0.17-0.09,0.29-0.15,0.35-0.18c0.32-0.24,0.67-0.41,1.05-0.53c0.38-0.12,0.78-0.21,1.19-0.27l2.89-1.46
		c0.23-0.12,0.51-0.22,0.83-0.31c0.44,0.15,0.71,0.31,0.8,0.48c0.12,0.24,0.21,0.41,0.27,0.53c0.98,1.21,1.8,2.46,2.46,3.75
		c0.6,1.18,1.37,3.01,2.33,5.48c0.96,2.47,1.75,4.33,2.38,5.57c1.58,2.97,3.16,4.91,4.75,5.8c-2.03-3.41-2.82-9-2.38-16.77
		c0.1-1.75,0.13-3.62,0.11-5.6c-0.07,0.11-0.15,0.19-0.25,0.24l-0.1,0.16c0.26-1.24,0.87-2.6,1.83-4.06
		c0.96-1.18,1.9-2.39,2.82-3.62c1.55-0.74,3.85-1.78,6.9-3.14c3.05-1.35,5.35-2.4,6.9-3.14c0.31-0.11,0.62-0.24,0.91-0.39
		c0.24-0.12,0.49-0.28,0.76-0.47c0.74-0.43,1.72-1.05,2.95-1.85c0.38-0.27,0.82-0.49,1.32-0.67c0.29-0.15,0.66-0.45,1.1-0.89
		c1.24-0.48,2.85-0.59,4.83-0.33c0.18,0.06,0.43,0.12,0.75,0.17c0.3,1.03,0.07,1.89-0.7,2.57c0.01,6.44,1.41,12.58,4.22,18.42
		c2.84,5.89,6.8,10.81,11.91,14.74c11.38,6.98,19.21,13.82,23.5,20.54c1.76,2.74,3.09,5.88,3.99,9.42
		C1243.71,523.41,1244.43,527.6,1244.94,533.86z M1226.87,540.68c2.5-1.05,6.24-2.57,11.22-4.57c0.38-6.99-1.2-13.84-4.74-20.54
		c-3.51-6.64-8.3-11.72-14.37-15.22c-9.11-5.29-15.76-12.05-19.92-20.28c-2.56-5.06-3.99-10.36-4.28-15.9
		c-0.12,0.06-0.28,0.11-0.49,0.13l-1.68,0.85c-0.29,0.15-0.56,0.28-0.79,0.4l-0.71,0.36c-0.53,0.27-1.06,0.54-1.59,0.81
		c-0.5,0.33-1.09,0.63-1.77,0.89l-1.32,0.67c-0.12,0.06-0.27,0.13-0.44,0.22l-0.62,0.31c-0.24,0.12-0.54,0.28-0.93,0.47
		s-0.69,0.35-0.93,0.47c-1.29,0.38-2.52,0.87-3.7,1.46c-1.78,0.42-2.73,0.66-2.85,0.72l-1.58,0.6c-0.5,0.18-1.04,0.43-1.63,0.72
		c-0.31,2.45,0.13,6.33,1.34,11.64c0.3,1.18,0.66,2.55,1.08,4.11c0.1,2.98,0.86,5.78,2.26,8.4c1.55,2.92,3.04,5.49,4.47,7.72
		c0.41,0.23,0.73,0.56,0.93,0.97c0.69,1.36,0.38,2.43-0.91,3.24c-0.24,0.12-0.78,0.28-1.63,0.5c-0.47,0.39-1.52,0.14-3.15-0.74
		c-4.85-2.57-8.65-5.75-11.38-9.55c-2.43-2.61-5.6-7.78-9.51-15.49l-0.8-1.59c-0.36,0.03-1.67,0.36-3.94,0.99l-0.48,0.36
		c-0.65,0.48-1.56,1.01-2.74,1.61c-3.44,2.41-4.96,3.51-4.54,3.3l-5.39,2.73c-1.3,0.66-2.29,1.83-2.99,3.51
		c0.65,5.37,2.36,10.42,5.13,15.16c2.17,3.71,5.72,7.72,10.64,12.03c3.62,4.08,8.87,8.68,15.74,13.78c0.92,0.94,2.36,2.32,4.32,4.14
		l0.27,0.09c0.95,1.44,2.45,3.53,4.5,6.26c1.01,2.15,1.78,4.61,2.3,7.38c0.42,2.45,0.85,4.9,1.28,7.34c0.06,0.26,0.13,0.63,0.23,1.1
		c0.68,0.03,1.18-0.01,1.51-0.1l0.97-0.27c3.09-2.08,4.75-3.18,4.98-3.3l1.59-0.81c0.12-0.06,0.27-0.13,0.44-0.22l0.79-0.4
		c0.71-0.36,1.28-0.54,1.72-0.54l0.35-0.18l-0.01-1.33c-0.13-1.27-0.21-3.26-0.25-5.98c-0.57-1.71-1.29-3.86-2.16-6.45
		c-0.27-0.82-0.51-1.44-0.72-1.86c-0.96-1.88-2.79-4.84-5.49-8.87c-3.44-3.88-6.81-6.72-10.1-8.54c-1.3-0.67-2.62-1.37-3.95-2.11
		c-1.69-0.99-2.79-1.92-3.29-2.77l0.4,0.13c-0.77-0.5-1.29-1.01-1.56-1.54c0.21-0.47,0.56-1.09,1.05-1.87
		c0.62-0.38,1.31-0.55,2.08-0.5c0.41,0.09,0.99,0.2,1.73,0.35c2.1,0.79,4.07,1.82,5.9,3.11c1.65,0.49,4.24,1.73,7.77,3.72l3.73,2.11
		c1.24,0.7,2.55,1.3,3.91,1.8c3.38,2.88,6.24,6.27,8.6,10.18c0.95,1.59,1.81,3.79,2.56,6.58c0.87,3.04,1.61,5.14,2.2,6.32
		c0.09,0.18,0.13,0.34,0.14,0.49c0.41-0.21,1-0.58,1.76-1.12c0.53-0.27,1.15-0.51,1.86-0.72c0.03,0.35,0.02,0.84-0.04,1.46
		c2.01-4.94,2.75-10.2,2.22-15.77c-0.5-5.37-2.16-10.41-4.99-15.12c-1.73-2.83-4.04-5.57-6.95-8.24c-0.53-0.47-2.09-2.16-4.67-5.07
		c-0.24-0.62-0.07-1.15,0.52-1.59c0.18-0.09,0.34-0.21,0.48-0.36l0.44-0.22c1.11-0.56,3.17-0.2,6.17,1.09
		c1.63,1.03,3.97,2.69,7.04,4.98c0.56,0.53,1.17,0.93,1.81,1.19c2.4,2.12,4.39,4.17,5.99,6.17c1.16,1.41,2.65,3.91,4.46,7.51
		l0.18,0.35c0.03,0.06,0.09,0.18,0.18,0.35c0.12,0.24,0.16,0.33,0.13,0.26c0.71,1.41,1.21,2.38,1.47,2.91
		c0.42,0.83,0.75,1.84,0.99,3.05c0.39,0.47,0.73,1,1.03,1.59c0.21,0.56,0.31,1.13,0.32,1.73L1226.87,540.68z"/>
</g>
<g id="Слой_4">
	<rect x="-19" y="-7" class="st4" width="1324" height="640"/>
</g>
<g id="Слой_1">
	<path class="st5" d="M541.77,118.79h-3.07l-23.47-29.59v23.1c0,1.52,0.45,2.57,1.34,3.14c0.89,0.57,2.82,0.86,5.79,0.86h4.45v2.48
		h-28.44v-2.48h4.83c2.62,0,4.37-0.29,5.24-0.88c0.87-0.58,1.31-1.63,1.31-3.13V93.96c0-1.35-0.39-2.3-1.17-2.86
		c-0.78-0.56-2.57-0.84-5.38-0.84h-4.83v-2.48h27.55l17.92,22.31l18.95-22.31h28.44v2.48h-6.72c-3.88,0-5.82,0.92-5.82,2.75v21.09
		c0,1.48,1.68,2.22,5.03,2.22h7.3v2.48h-36.59v-2.48h6.78c3.93,0,5.89-0.93,5.89-2.78v-24.1L541.77,118.79z"/>
	<path class="st5" d="M666.95,115.38l2.47,1.85c-3.34,1.66-7.04,2.48-11.1,2.48c-3.11,0-5.72-0.41-7.85-1.22
		c-2.12-0.82-3.99-2.25-5.59-4.3c-4.34,2.21-8.15,3.68-11.44,4.42s-7.24,1.11-11.86,1.11c-6.58,0-11.58-0.68-15.01-2.05
		c-3.43-1.37-5.14-3.12-5.14-5.26c0-3.22,3.92-5.9,11.75-8.03c7.83-2.13,18.26-3.55,31.28-4.25v-4.7c0-1.68-1.39-3.11-4.18-4.3
		c-2.79-1.19-6.33-1.79-10.62-1.79c-3.97,0-7.4,0.4-10.28,1.19c-2.06,0.6-3.08,1.18-3.08,1.75c0,0.33,0.55,0.85,1.64,1.56
		c1.32,0.88,1.99,1.67,1.99,2.35c0,0.99-0.66,1.8-1.99,2.43c-1.33,0.63-3.06,0.94-5.21,0.94c-2.29,0-4.19-0.37-5.72-1.13
		c-1.53-0.75-2.3-1.71-2.3-2.88c0-2.18,2.55-4.18,7.64-5.99c5.09-1.81,11.78-2.71,20.04-2.71c7.63,0,13.45,0.79,17.47,2.38
		c4.02,1.61,6.03,3.56,6.03,5.86v16.95c0,1.5,0.5,2.6,1.51,3.31c1,0.73,2.31,1.09,3.91,1.09
		C663.11,116.44,664.99,116.08,666.95,115.38z M644.47,102.3c-11.61,0.77-19.83,2.03-24.67,3.77c-3.61,1.32-5.41,3.2-5.41,5.63
		c0,1.7,0.94,3.03,2.81,3.99c1.87,0.96,4.32,1.44,7.33,1.44c5.39,0,10.06-0.99,14.01-2.96c3.95-1.97,5.93-4.45,5.93-7.43V102.3z"/>
	<path class="st5" d="M679.36,98.83h-5.14l1.58-11.06h61.93l1.6,11.06h-5.14c-1.46-3.73-3.41-6.09-5.84-7.08
		c-2.44-0.99-5.43-1.49-8.98-1.49h-7.17v23.83c0,1.48,1.67,2.22,5,2.22h7.26v2.48h-36.53v-2.48h6.78c3.93,0,5.89-0.93,5.89-2.78
		V90.25h-6.44c-4.07,0-7.23,0.58-9.49,1.74S680.63,95.43,679.36,98.83z"/>
	<path class="st5" d="M498.37,165.79v-2.48h6.82c3.9,0,5.86-0.95,5.86-2.85v-21.09c0-1.41-1.64-2.12-4.93-2.12h-7.33v-2.48h36.11
		c6.62,0,11.57,0.2,14.84,0.61c3.27,0.41,6.03,1.24,8.29,2.5c2.26,1.26,3.39,2.78,3.39,4.57c0,2.23-1.84,3.98-5.52,5.26
		c-3.68,1.28-7.8,1.98-12.37,2.09c13.71,0.93,20.56,3.6,20.56,8.01c0,5.32-8.94,7.98-26.82,7.98H498.37z M522.63,148.71h9.43
		c11.16,0,16.75-1.86,16.75-5.59c0-3.86-5.06-5.79-15.17-5.79h-4.03c-4.65,0-6.97,0.93-6.97,2.78V148.71z M522.63,151.19v9.34
		c0,1.01,0.43,1.74,1.3,2.18c0.87,0.44,2.37,0.66,4.51,0.66h5.54c7.15,0,11.76-0.53,13.81-1.6c2.05-1.07,3.08-2.45,3.08-4.14
		c0-4.29-5.54-6.44-16.61-6.44H522.63z"/>
	<path class="st5" d="M630.29,140.07v-1.29c-0.36-1.02-2-1.52-4.91-1.52h-7.29v-2.48h36.11v2.48h-6.51c-3.88,0-5.82,0.94-5.82,2.81
		v21.02c0,1.48,1.67,2.22,5,2.22h7.33v2.48h-36.53v-2.48h6.78c3.88,0,5.82-0.93,5.82-2.78v-16.98l-32.28,16.39v1.16
		c0,1.48,1.64,2.22,4.93,2.22h7.47v2.48h-36.59v-2.48h6.78c3.88,0,5.82-0.93,5.82-2.78v-21.05c0-1.48-1.64-2.22-4.91-2.22h-7.29
		v-2.48h36.18v2.48h-6.58c-3.88,0-5.82,0.94-5.82,2.81v16.48L630.29,140.07z"/>
	<path class="st5" d="M734.73,137.25h6.51v-2.48h-36.11v2.48h7.29c2.91,0,4.54,0.51,4.91,1.52v1.29l-32.28,16.48v-16.48
		c0-1.88,1.94-2.81,5.82-2.81h6.58v-2.48h-36.18v2.48h7.29c3.27,0,4.91,0.74,4.91,2.22v21.05c0,1.85-1.94,2.78-5.82,2.78h-6.78v2.48
		h36.59v-2.48h-7.47c-3.29,0-4.93-0.74-4.93-2.22v-1.16l32.28-16.39v16.98c0,1.85-1.94,2.78-5.82,2.78h-6.78v2.48h36.53v-2.48h-7.33
		c-3.34,0-5-0.74-5-2.22v-21.02C728.9,138.19,730.84,137.25,734.73,137.25z"/>
	<g>
		<path class="st6" d="M503.68,184.89v-4.17h34.06v4.17h-5.62c-3.88,0-5.82,1.54-5.82,4.61v8.78c0,3.22,1.08,5.7,3.24,7.42
			c2.16,1.72,5.06,2.59,8.7,2.59c2.91,0,6.08-0.66,9.52-1.97c3.43-1.32,6.26-2.97,8.49-4.98v-12.73c0-2.48-1.67-3.73-5-3.73h-5.55
			v-4.17h34.54v4.17h-6.51c-3.93,0-5.89,1.54-5.89,4.61v35.42c0,2.48,1.67,3.73,5,3.73h7.4v4.17h-36.59v-4.17h6.78
			c3.88,0,5.82-1.56,5.82-4.67v-18.35c-6.84,5.41-14.09,8.12-21.76,8.12c-4.88,0-9.4-1.13-13.55-3.39
			c-4.15-2.26-6.23-6.71-6.23-13.34v-8.4c0-2.48-1.67-3.73-5-3.73H503.68z"/>
		<path class="st6" d="M586.67,180.72h30.77v3.78h-2.88c-2.7,0-4.53,0.29-5.52,0.86c-0.98,0.58-1.47,1.4-1.47,2.47
			c0,0.48,0.14,0.96,0.41,1.45l17.89,31.3l13.29-25.97c0.96-1.85,1.44-3.67,1.44-5.45c0-1.37-0.66-2.44-1.99-3.2
			c-1.33-0.76-3.97-1.25-7.95-1.47v-3.78h26.73v3.78c-5.16,0.41-8.63,2.28-10.42,5.62l-23.76,44.84
			c-4.04,7.62-8.09,12.85-12.15,15.71c-4.11,2.89-8.52,4.34-13.23,4.34c-3.43,0-6.18-0.76-8.26-2.28c-2.08-1.52-3.12-3.39-3.12-5.62
			c0-1.67,0.64-3.04,1.92-4.11c1.28-1.08,2.88-1.61,4.8-1.61c1.74,0,3.2,0.46,4.39,1.39c1.19,0.93,1.78,2.04,1.78,3.34
			c0,0.41-0.09,0.96-0.27,1.67c-0.18,0.56-0.27,0.96-0.27,1.22c0,0.89,0.71,1.33,2.12,1.33c1.51,0,3.21-0.44,5.11-1.33
			c1.9-0.89,3.67-2.32,5.31-4.28c1.64-1.97,4.53-6.32,8.65-13.06l-24.37-42.38c-0.87-1.48-1.95-2.59-3.25-3.31
			c-1.3-0.72-3.2-1.21-5.71-1.47V180.72z"/>
		<path class="st6" d="M698.64,228.65v4.17h-36.46v-4.17h7.2c3.65,0,5.48-1.26,5.48-3.78v-36.25c0-2.48-1.66-3.73-4.97-3.73h-7.29
			v-4.17h36.05v4.17h-6.44c-3.93,0-5.89,1.54-5.89,4.61v15.12h7.81c4.71,0,8.12-0.77,10.25-2.31c2.12-1.54,3.73-4.55,4.83-9.03
			c0.91-3.71,1.76-6.29,2.54-7.76c0.78-1.46,2.2-2.77,4.28-3.92c2.08-1.15,4.51-1.72,7.3-1.72c3.79,0,6.67,1.03,8.63,3.09
			c1.96,2.06,2.95,4.2,2.95,6.42c0,1.74-0.64,3.22-1.92,4.42c-1.28,1.21-3.11,1.81-5.48,1.81c-2.24,0-3.92-0.53-5.04-1.58
			c-1.12-1.06-1.68-2.31-1.68-3.75c0-1.22,0.37-2.37,1.1-3.45c0.69-0.96,1.03-1.56,1.03-1.78c0-0.52-0.48-0.78-1.44-0.78
			c-1.64,0-3.06,0.55-4.25,1.64c-1.19,1.09-2.17,3.31-2.95,6.64c-1.19,5.08-2.52,8.37-4.01,9.87c-1.49,1.5-3.6,2.92-6.34,4.25
			c8.54,0.93,13.87,3.97,15.97,9.12l3.02,7.28c1.32,3.19,2.81,4.78,4.45,4.78c2.15,0,3.61-2.46,4.39-7.39h4.87
			c-0.87,5.63-2.49,9.23-4.86,10.79c-2.37,1.56-5.29,2.34-8.76,2.34c-5.56,0-9.26-2.6-11.08-7.8l-3.06-8.61
			c-2.01-5.89-6.51-8.84-13.5-8.84h-9.05v15.4c0,1.82,0.37,3.09,1.1,3.81c0.73,0.72,2.03,1.08,3.91,1.08H698.64z"/>
	</g>
	<g>
		<path class="st5" d="M691.13,129.71c5.87,0,11.73,0,17.6,0"/>
		<g>
			<path class="st5" d="M691.13,131.21c5.87,0,11.73,0,17.6,0c1.93,0,1.93-3,0-3c-5.87,0-11.73,0-17.6,0
				C689.2,128.21,689.2,131.21,691.13,131.21L691.13,131.21z"/>
		</g>
	</g>
</g>
</svg>
