<?xml version="1.0" encoding="utf-8"?>
<!-- Generator: Adobe Illustrator 23.0.1, SVG Export Plug-In . SVG Version: 6.00 Build 0)  -->
<svg version="1.1" xmlns="http://www.w3.org/2000/svg" xmlns:xlink="http://www.w3.org/1999/xlink" x="0px" y="0px"
	 viewBox="0 0 700 160" style="enable-background:new 0 0 700 160;" xml:space="preserve">
<style type="text/css">
	.st0{fill:#FFFFFF;stroke:#000000;stroke-miterlimit:10;}
	.st1{fill:#FFE79B;}
	.st2{fill:#F7D773;}
	.st3{fill:#FFEFB8;}
	.st4{fill:#727272;}
</style>
<g id="Слой_13">
	<rect x="-5.5" y="-3.5" class="st0" width="708" height="167"/>
</g>
<g id="Слой_2">
	<g>
		<path class="st1" d="M8.3,45.9v19.6v5.7c0,0.7-0.2,1.9,0.1,2.6c0.3,0.6,1.1,1.1,1.6,1.5l3.1,2.4c0.7,0.5,1.3,1.1,2.1,1.3
			c0-2.7-0.3-5.6,0-8.3c0.1-0.7,0.5-1.3,0.6-2c0.2-3.4,0-6.9-0.1-10.2c-0.1-1.4,0-2.8,0-4.1c0-0.6,0.1-1.4-0.1-2
			c-0.4-1.6-2.8-1.9-3.3-3.4C10.9,47.9,9.7,46.8,8.3,45.9z"/>
		<path class="st2" d="M8.4,45.9c1.4,1.7,3.5,3,5.2,4.3c0.6,0.5,1.6,1.1,2,1.8c0.3,0.6,0.2,1.4,0.2,2v4c0,3.5,0.2,7.1,0,10.5
			c0,0.7-0.5,1.2-0.6,1.8c-0.2,1.1,0,2.3,0,3.4h11c0.9,0,1.8,0,2.8,0c0.4,0,0.8,0,1.1-0.3c0.4-0.4,0.2-1.1,0.2-1.6v-4
			c0-0.9,0.3-2.4-0.2-3.2c-0.4-0.8-1.3-1.2-1.6-2c-0.3-0.7,0-1.7-0.1-2.4c-0.1-1.1-0.6-2.1-0.8-3.2c-0.1-0.6-0.1-1.1-0.2-1.7
			c-0.3-1.6-1.3-2.8-1.3-4.4C26,51.1,26,51.2,26,51.4c-0.2-0.6-0.2-1.3-0.3-2c-0.2,0.1-0.1,0.1-0.3,0.3c-0.2-0.8-0.6-1.6-0.8-2.4
			c-0.1-0.4-0.1-0.9-0.5-1.2c-0.3-0.2-0.9-0.2-1.3-0.2h-2.9H8.4z"/>
		<path class="st1" d="M24.2,45.9c0.4,1.3,0.7,2.6,1.2,3.8c0.2-0.1,0.1-0.1,0.3-0.3l0.2,2c0.1-0.2,0.1-0.2,0.2-0.5
			c0.1,0.5,0.1,0.9,0.2,1.4c0.3,1,0.8,1.9,1.1,2.9c0.2,0.6,0.1,1.2,0.2,1.8c0.2,1,0.6,1.9,0.7,2.9c0.4-0.9,0.2-2.3,0.2-3.4v-7.2
			c0-0.8,0.3-2.7-0.2-3.3c-0.3-0.3-0.8-0.2-1.1-0.2C26.1,45.9,25.1,45.9,24.2,45.9z"/>
		<path class="st3" d="M8.9,47.2v26c0.3-0.6,0.2-1.3,0.2-2v-3.8V53.8v-4.4C9,48.7,9.1,47.9,8.9,47.2 M12.1,49.1
			c0.9,1.2,2.5,1.7,3.2,2.9c0.4,0.6,0.3,1.6,0.3,2.3v4.9c0.4-0.9,0.2-2.1,0.2-3.1c0-1.2,0.3-3-0.1-4.1c-0.2-0.5-0.7-0.9-1.1-1.2
			C13.8,50.2,13,49.4,12.1,49.1 M28.5,62.8c0,0,0,0.2,0.1,0.1C28.6,62.9,28.6,62.7,28.5,62.8 M14.8,78.9C14.7,79,14.9,79,14.9,79
			C15,78.9,14.8,78.9,14.8,78.9z"/>
	</g>
</g>
<g id="Слой_2__x28_копия_x29_">
	<g>
		<path class="st1" d="M8.3,125.9v19.6v5.7c0,0.7-0.2,1.9,0.1,2.6c0.3,0.6,1.1,1.1,1.6,1.5l3.1,2.4c0.7,0.5,1.3,1.1,2.1,1.3
			c0-2.7-0.3-5.6,0-8.3c0.1-0.7,0.5-1.3,0.6-2c0.2-3.4,0-6.9-0.1-10.2c-0.1-1.4,0-2.8,0-4.1c0-0.6,0.1-1.4-0.1-2
			c-0.4-1.6-2.8-1.9-3.3-3.4C10.9,127.9,9.7,126.8,8.3,125.9z"/>
		<path class="st2" d="M8.4,125.9c1.4,1.7,3.5,3,5.2,4.3c0.6,0.5,1.6,1.1,2,1.8c0.3,0.6,0.2,1.4,0.2,2v4c0,3.5,0.2,7.1,0,10.5
			c0,0.7-0.5,1.2-0.6,1.8c-0.2,1.1,0,2.3,0,3.4h11c0.9,0,1.8,0,2.8,0c0.4,0,0.8,0,1.1-0.3c0.4-0.4,0.2-1.1,0.2-1.6v-4
			c0-0.9,0.3-2.4-0.2-3.2c-0.4-0.8-1.3-1.2-1.6-2c-0.3-0.7,0-1.7-0.1-2.4c-0.1-1.1-0.6-2.1-0.8-3.2c-0.1-0.6-0.1-1.1-0.2-1.7
			c-0.3-1.6-1.3-2.8-1.3-4.4c-0.1,0.2-0.1,0.2-0.2,0.5c-0.2-0.6-0.2-1.3-0.3-2c-0.2,0.1-0.1,0.1-0.3,0.3c-0.2-0.8-0.6-1.6-0.8-2.4
			c-0.1-0.4-0.1-0.9-0.5-1.2c-0.3-0.2-0.9-0.2-1.3-0.2h-2.9H8.4z"/>
		<path class="st1" d="M24.2,125.9c0.4,1.3,0.7,2.6,1.2,3.8c0.2-0.1,0.1-0.1,0.3-0.3l0.2,2c0.1-0.2,0.1-0.2,0.2-0.5
			c0.1,0.5,0.1,0.9,0.2,1.4c0.3,1,0.8,1.9,1.1,2.9c0.2,0.6,0.1,1.2,0.2,1.8c0.2,1,0.6,1.9,0.7,2.9c0.4-0.9,0.2-2.3,0.2-3.4v-7.2
			c0-0.8,0.3-2.7-0.2-3.3c-0.3-0.3-0.8-0.2-1.1-0.2C26.1,125.9,25.1,125.9,24.2,125.9z"/>
		<path class="st3" d="M8.9,127.2v26c0.3-0.6,0.2-1.3,0.2-2v-3.8v-13.6v-4.4C9,128.7,9.1,127.9,8.9,127.2 M12.1,129.1
			c0.9,1.2,2.5,1.7,3.2,2.9c0.4,0.6,0.3,1.6,0.3,2.3v4.9c0.4-0.9,0.2-2.1,0.2-3.1c0-1.2,0.3-3-0.1-4.1c-0.2-0.5-0.7-0.9-1.1-1.2
			C13.8,130.2,13,129.4,12.1,129.1 M28.5,142.8c0,0,0,0.2,0.1,0.1C28.6,142.9,28.6,142.7,28.5,142.8 M14.8,158.9
			c-0.1,0.1,0.1,0.1,0.1,0.1C15,158.9,14.8,158.9,14.8,158.9z"/>
	</g>
</g>
<g id="Слой_2__x28_копия2_x29_">
	<g>
		<path class="st1" d="M8.3,85.9v19.6v5.7c0,0.7-0.2,1.9,0.1,2.6c0.3,0.6,1.1,1.1,1.6,1.5l3.1,2.4c0.7,0.5,1.3,1.1,2.1,1.3
			c0-2.7-0.3-5.6,0-8.3c0.1-0.7,0.5-1.3,0.6-2c0.2-3.4,0-6.9-0.1-10.2c-0.1-1.4,0-2.8,0-4.1c0-0.6,0.1-1.4-0.1-2
			c-0.4-1.6-2.8-1.9-3.3-3.4C10.9,87.9,9.7,86.8,8.3,85.9z"/>
		<path class="st2" d="M8.4,85.9c1.4,1.7,3.5,3,5.2,4.3c0.6,0.5,1.6,1.1,2,1.8c0.3,0.6,0.2,1.4,0.2,2v4c0,3.5,0.2,7.1,0,10.5
			c0,0.7-0.5,1.2-0.6,1.8c-0.2,1.1,0,2.3,0,3.4h11c0.9,0,1.8,0,2.8,0c0.4,0,0.8,0,1.1-0.3c0.4-0.4,0.2-1.1,0.2-1.6v-4
			c0-0.9,0.3-2.4-0.2-3.2c-0.4-0.8-1.3-1.2-1.6-2c-0.3-0.7,0-1.7-0.1-2.4c-0.1-1.1-0.6-2.1-0.8-3.2c-0.1-0.6-0.1-1.1-0.2-1.7
			c-0.3-1.6-1.3-2.8-1.3-4.4C26,91.1,26,91.2,26,91.4c-0.2-0.6-0.2-1.3-0.3-2c-0.2,0.1-0.1,0.1-0.3,0.3c-0.2-0.8-0.6-1.6-0.8-2.4
			c-0.1-0.4-0.1-0.9-0.5-1.2c-0.3-0.2-0.9-0.2-1.3-0.2h-2.9H8.4z"/>
		<path class="st1" d="M24.2,85.9c0.4,1.3,0.7,2.6,1.2,3.8c0.2-0.1,0.1-0.1,0.3-0.3l0.2,2c0.1-0.2,0.1-0.2,0.2-0.5
			c0.1,0.5,0.1,0.9,0.2,1.4c0.3,1,0.8,1.9,1.1,2.9c0.2,0.6,0.1,1.2,0.2,1.8c0.2,1,0.6,1.9,0.7,2.9c0.4-0.9,0.2-2.3,0.2-3.4v-7.2
			c0-0.8,0.3-2.7-0.2-3.3c-0.3-0.3-0.8-0.2-1.1-0.2C26.1,85.9,25.1,85.9,24.2,85.9z"/>
		<path class="st3" d="M8.9,87.2v26c0.3-0.6,0.2-1.3,0.2-2v-3.8V93.8v-4.4C9,88.7,9.1,87.9,8.9,87.2 M12.1,89.1
			c0.9,1.2,2.5,1.7,3.2,2.9c0.4,0.6,0.3,1.6,0.3,2.3v4.9c0.4-0.9,0.2-2.1,0.2-3.1c0-1.2,0.3-3-0.1-4.1c-0.2-0.5-0.7-0.9-1.1-1.2
			C13.8,90.2,13,89.4,12.1,89.1 M28.5,102.8c0,0,0,0.2,0.1,0.1C28.6,102.9,28.6,102.7,28.5,102.8 M14.8,118.9
			c-0.1,0.1,0.1,0.1,0.1,0.1C15,118.9,14.8,118.9,14.8,118.9z"/>
	</g>
</g>
<g id="Слой_2__x28_копия3_x29_">
	<g>
		<path class="st1" d="M8.3,5.9v19.6v5.7c0,0.7-0.2,1.9,0.1,2.6c0.3,0.6,1.1,1.1,1.6,1.5l3.1,2.4c0.7,0.5,1.3,1.1,2.1,1.3
			c0-2.7-0.3-5.6,0-8.3c0.1-0.7,0.5-1.3,0.6-2c0.2-3.4,0-6.9-0.1-10.2c-0.1-1.4,0-2.8,0-4.1c0-0.6,0.1-1.4-0.1-2
			c-0.4-1.6-2.8-1.9-3.3-3.4C10.9,7.9,9.7,6.8,8.3,5.9z"/>
		<path class="st2" d="M8.4,5.9c1.4,1.7,3.5,3,5.2,4.3c0.6,0.5,1.6,1.1,2,1.8c0.3,0.6,0.2,1.4,0.2,2v4c0,3.5,0.2,7.1,0,10.5
			c0,0.7-0.5,1.2-0.6,1.8c-0.2,1.1,0,2.3,0,3.4h11c0.9,0,1.8,0,2.8,0c0.4,0,0.8,0,1.1-0.3c0.4-0.4,0.2-1.1,0.2-1.6v-4
			c0-0.9,0.3-2.4-0.2-3.2c-0.4-0.8-1.3-1.2-1.6-2c-0.3-0.7,0-1.7-0.1-2.4c-0.1-1.1-0.6-2.1-0.8-3.2c-0.1-0.6-0.1-1.1-0.2-1.7
			c-0.3-1.6-1.3-2.8-1.3-4.4C26,11.1,26,11.2,26,11.4c-0.2-0.6-0.2-1.3-0.3-2c-0.2,0.1-0.1,0.1-0.3,0.3c-0.2-0.8-0.6-1.6-0.8-2.4
			c-0.1-0.4-0.1-0.9-0.5-1.2c-0.3-0.2-0.9-0.2-1.3-0.2h-2.9H8.4z"/>
		<path class="st1" d="M24.2,5.9c0.4,1.3,0.7,2.6,1.2,3.8c0.2-0.1,0.1-0.1,0.3-0.3l0.2,2c0.1-0.2,0.1-0.2,0.2-0.5
			c0.1,0.5,0.1,0.9,0.2,1.4c0.3,1,0.8,1.9,1.1,2.9c0.2,0.6,0.1,1.2,0.2,1.8c0.2,1,0.6,1.9,0.7,2.9c0.4-0.9,0.2-2.3,0.2-3.4V9.4
			c0-0.8,0.3-2.7-0.2-3.3c-0.3-0.3-0.8-0.2-1.1-0.2C26.1,5.9,25.1,5.9,24.2,5.9z"/>
		<path class="st3" d="M8.9,7.2v26c0.3-0.6,0.2-1.3,0.2-2v-3.8V13.8V9.4C9,8.7,9.1,7.9,8.9,7.2 M12.1,9.1c0.9,1.2,2.5,1.7,3.2,2.9
			c0.4,0.6,0.3,1.6,0.3,2.3v4.9c0.4-0.9,0.2-2.1,0.2-3.1c0-1.2,0.3-3-0.1-4.1c-0.2-0.5-0.7-0.9-1.1-1.2C13.8,10.2,13,9.4,12.1,9.1
			 M28.5,22.8c0,0,0,0.2,0.1,0.1C28.6,22.9,28.6,22.7,28.5,22.8 M14.8,38.9C14.7,39,14.9,39,14.9,39C15,38.9,14.8,38.9,14.8,38.9z"
			/>
	</g>
</g>
<g id="Слой_6">
	<g>
		<path d="M45.5,28.2V11h3.3v9.1l3.9-4.4h4.1l-4.3,4.5l4.6,7.9h-3.6l-3.1-5.6l-1.5,1.6v4H45.5z"/>
		<path d="M58.2,21.8c0-1.1,0.3-2.2,0.8-3.2s1.3-1.8,2.3-2.3s2.1-0.8,3.3-0.8c1.9,0,3.4,0.6,4.6,1.8s1.8,2.8,1.8,4.6
			c0,1.9-0.6,3.4-1.8,4.7s-2.7,1.9-4.6,1.9c-1.1,0-2.2-0.3-3.3-0.8s-1.8-1.3-2.4-2.3S58.2,23.2,58.2,21.8z M61.6,22
			c0,1.2,0.3,2.2,0.9,2.8s1.3,1,2.2,1s1.6-0.3,2.2-1s0.9-1.6,0.9-2.9c0-1.2-0.3-2.2-0.9-2.8s-1.3-1-2.2-1s-1.6,0.3-2.2,1
			S61.6,20.7,61.6,22z"/>
		<path d="M79.3,15.8v2.6h-2.3v5c0,1,0,1.6,0.1,1.8s0.1,0.3,0.3,0.4s0.3,0.2,0.6,0.2c0.3,0,0.7-0.1,1.3-0.3l0.3,2.6
			c-0.8,0.3-1.6,0.5-2.6,0.5c-0.6,0-1.1-0.1-1.6-0.3s-0.8-0.5-1-0.8s-0.4-0.7-0.5-1.3c-0.1-0.4-0.1-1.2-0.1-2.3v-5.4h-1.5v-2.6h1.5
			v-2.5l3.3-1.9v4.4H79.3z"/>
		<path d="M88.8,24.2l3.3,0.6c-0.4,1.2-1.1,2.1-2,2.7s-2,0.9-3.4,0.9c-2.2,0-3.8-0.7-4.8-2.1c-0.8-1.1-1.2-2.6-1.2-4.3
			c0-2.1,0.5-3.7,1.6-4.8s2.4-1.8,4.1-1.8c1.9,0,3.3,0.6,4.4,1.8s1.6,3.1,1.5,5.6H84c0,1,0.3,1.7,0.8,2.3s1.1,0.8,1.9,0.8
			c0.5,0,0.9-0.1,1.3-0.4S88.6,24.9,88.8,24.2z M89,20.9c0-1-0.3-1.7-0.7-2.2s-1-0.7-1.7-0.7c-0.7,0-1.3,0.3-1.8,0.8
			s-0.7,1.2-0.7,2.1H89z"/>
		<path d="M98.1,28.2h-3.3V15.8h3.1v1.8c0.5-0.8,1-1.4,1.4-1.7s0.9-0.4,1.4-0.4c0.8,0,1.5,0.2,2.2,0.6l-1,2.9
			c-0.6-0.4-1.1-0.5-1.5-0.5c-0.5,0-0.9,0.1-1.2,0.4s-0.6,0.7-0.8,1.4s-0.3,2.1-0.3,4.2V28.2z"/>
		<path d="M102.3,32.9v-2.1H116v2.1H102.3z"/>
		<path d="M121,28.2l-5-12.4h3.5l2.3,6.4l0.7,2.1c0.2-0.5,0.3-0.9,0.3-1.1c0.1-0.4,0.2-0.7,0.4-1.1l2.4-6.4h3.4L124,28.2H121z"/>
		<path d="M135.8,11c1.7,0,3,0.6,3.9,1.8c1.1,1.4,1.7,3.7,1.7,7c0,3.3-0.6,5.6-1.7,7c-0.9,1.2-2.2,1.8-3.9,1.8c-1.7,0-3-0.6-4-1.9
			s-1.5-3.6-1.5-6.9c0-3.2,0.6-5.6,1.7-7C132.9,11.5,134.2,11,135.8,11z M135.8,13.7c-0.4,0-0.8,0.1-1.1,0.4s-0.6,0.7-0.7,1.4
			c-0.2,0.9-0.3,2.3-0.3,4.3s0.1,3.4,0.3,4.2s0.5,1.3,0.8,1.5s0.7,0.4,1.1,0.4s0.8-0.1,1.1-0.4s0.6-0.7,0.7-1.4
			c0.2-0.8,0.3-2.3,0.3-4.3s-0.1-3.4-0.3-4.2s-0.5-1.3-0.8-1.5S136.2,13.7,135.8,13.7z"/>
	</g>
</g>
<g id="Слой_6__x28_копия_x29_">
	<g>
		<path d="M45.5,68.2V51h3.3v9.1l3.9-4.4h4.1l-4.3,4.5l4.6,7.9h-3.6l-3.1-5.6l-1.5,1.6v4H45.5z"/>
		<path d="M58.2,61.8c0-1.1,0.3-2.2,0.8-3.2s1.3-1.8,2.3-2.3s2.1-0.8,3.3-0.8c1.9,0,3.4,0.6,4.6,1.8s1.8,2.8,1.8,4.6
			c0,1.9-0.6,3.4-1.8,4.7s-2.7,1.9-4.6,1.9c-1.1,0-2.2-0.3-3.3-0.8s-1.8-1.3-2.4-2.3S58.2,63.2,58.2,61.8z M61.6,62
			c0,1.2,0.3,2.2,0.9,2.8s1.3,1,2.2,1s1.6-0.3,2.2-1s0.9-1.6,0.9-2.9c0-1.2-0.3-2.2-0.9-2.8s-1.3-1-2.2-1s-1.6,0.3-2.2,1
			S61.6,60.7,61.6,62z"/>
		<path d="M79.3,55.8v2.6h-2.3v5c0,1,0,1.6,0.1,1.8s0.1,0.3,0.3,0.4s0.3,0.2,0.6,0.2c0.3,0,0.7-0.1,1.3-0.3l0.3,2.6
			c-0.8,0.3-1.6,0.5-2.6,0.5c-0.6,0-1.1-0.1-1.6-0.3s-0.8-0.5-1-0.8s-0.4-0.7-0.5-1.3c-0.1-0.4-0.1-1.2-0.1-2.3v-5.4h-1.5v-2.6h1.5
			v-2.5l3.3-1.9v4.4H79.3z"/>
		<path d="M88.8,64.2l3.3,0.6c-0.4,1.2-1.1,2.1-2,2.7s-2,0.9-3.4,0.9c-2.2,0-3.8-0.7-4.8-2.1c-0.8-1.1-1.2-2.6-1.2-4.3
			c0-2.1,0.5-3.7,1.6-4.8s2.4-1.8,4.1-1.8c1.9,0,3.3,0.6,4.4,1.8s1.6,3.1,1.5,5.6H84c0,1,0.3,1.7,0.8,2.3s1.1,0.8,1.9,0.8
			c0.5,0,0.9-0.1,1.3-0.4S88.6,64.9,88.8,64.2z M89,60.9c0-1-0.3-1.7-0.7-2.2s-1-0.7-1.7-0.7c-0.7,0-1.3,0.3-1.8,0.8
			s-0.7,1.2-0.7,2.1H89z"/>
		<path d="M98.1,68.2h-3.3V55.8h3.1v1.8c0.5-0.8,1-1.4,1.4-1.7s0.9-0.4,1.4-0.4c0.8,0,1.5,0.2,2.2,0.6l-1,2.9
			c-0.6-0.4-1.1-0.5-1.5-0.5c-0.5,0-0.9,0.1-1.2,0.4s-0.6,0.7-0.8,1.4s-0.3,2.1-0.3,4.2V68.2z"/>
		<path d="M102.3,72.9v-2.1H116v2.1H102.3z"/>
		<path d="M121,68.2l-5-12.4h3.5l2.3,6.4l0.7,2.1c0.2-0.5,0.3-0.9,0.3-1.1c0.1-0.4,0.2-0.7,0.4-1.1l2.4-6.4h3.4L124,68.2H121z"/>
		<path d="M138.7,68.2h-3.3V55.8c-1.2,1.1-2.6,2-4.3,2.5v-3c0.9-0.3,1.8-0.8,2.8-1.6s1.7-1.7,2.1-2.7h2.7V68.2z"/>
	</g>
</g>
<g id="Слой_6__x28_копия2_x29_">
	<g>
		<path d="M45.5,108.2V91h3.3v9.1l3.9-4.4h4.1l-4.3,4.5l4.6,7.9h-3.6l-3.1-5.6l-1.5,1.6v4H45.5z"/>
		<path d="M58.2,101.8c0-1.1,0.3-2.2,0.8-3.2s1.3-1.8,2.3-2.3s2.1-0.8,3.3-0.8c1.9,0,3.4,0.6,4.6,1.8s1.8,2.8,1.8,4.6
			c0,1.9-0.6,3.4-1.8,4.7s-2.7,1.9-4.6,1.9c-1.1,0-2.2-0.3-3.3-0.8s-1.8-1.3-2.4-2.3S58.2,103.2,58.2,101.8z M61.6,102
			c0,1.2,0.3,2.2,0.9,2.8s1.3,1,2.2,1s1.6-0.3,2.2-1s0.9-1.6,0.9-2.9c0-1.2-0.3-2.2-0.9-2.8s-1.3-1-2.2-1s-1.6,0.3-2.2,1
			S61.6,100.7,61.6,102z"/>
		<path d="M79.3,95.8v2.6h-2.3v5c0,1,0,1.6,0.1,1.8s0.1,0.3,0.3,0.4s0.3,0.2,0.6,0.2c0.3,0,0.7-0.1,1.3-0.3l0.3,2.6
			c-0.8,0.3-1.6,0.5-2.6,0.5c-0.6,0-1.1-0.1-1.6-0.3s-0.8-0.5-1-0.8s-0.4-0.7-0.5-1.3c-0.1-0.4-0.1-1.2-0.1-2.3v-5.4h-1.5v-2.6h1.5
			v-2.5l3.3-1.9v4.4H79.3z"/>
		<path d="M88.8,104.2l3.3,0.6c-0.4,1.2-1.1,2.1-2,2.7s-2,0.9-3.4,0.9c-2.2,0-3.8-0.7-4.8-2.1c-0.8-1.1-1.2-2.6-1.2-4.3
			c0-2.1,0.5-3.7,1.6-4.8s2.4-1.8,4.1-1.8c1.9,0,3.3,0.6,4.4,1.8s1.6,3.1,1.5,5.6H84c0,1,0.3,1.7,0.8,2.3s1.1,0.8,1.9,0.8
			c0.5,0,0.9-0.1,1.3-0.4S88.6,104.9,88.8,104.2z M89,100.9c0-1-0.3-1.7-0.7-2.2s-1-0.7-1.7-0.7c-0.7,0-1.3,0.3-1.8,0.8
			s-0.7,1.2-0.7,2.1H89z"/>
		<path d="M98.1,108.2h-3.3V95.8h3.1v1.8c0.5-0.8,1-1.4,1.4-1.7s0.9-0.4,1.4-0.4c0.8,0,1.5,0.2,2.2,0.6l-1,2.9
			c-0.6-0.4-1.1-0.5-1.5-0.5c-0.5,0-0.9,0.1-1.2,0.4s-0.6,0.7-0.8,1.4s-0.3,2.1-0.3,4.2V108.2z"/>
		<path d="M102.3,112.9v-2.1H116v2.1H102.3z"/>
		<path d="M121,108.2l-5-12.4h3.5l2.3,6.4l0.7,2.1c0.2-0.5,0.3-0.9,0.3-1.1c0.1-0.4,0.2-0.7,0.4-1.1l2.4-6.4h3.4l-4.9,12.4H121z"/>
		<path d="M138.7,108.2h-3.3V95.8c-1.2,1.1-2.6,2-4.3,2.5v-3c0.9-0.3,1.8-0.8,2.8-1.6s1.7-1.7,2.1-2.7h2.7V108.2z"/>
		<path d="M144.3,108.2v-3.3h3.3v3.3H144.3z"/>
		<path d="M150.3,103.8l3.3-0.3c0.1,0.7,0.4,1.3,0.8,1.8s1,0.7,1.6,0.7c0.7,0,1.3-0.3,1.7-0.8s0.7-1.4,0.7-2.5
			c0-1.1-0.2-1.8-0.7-2.4s-1.1-0.8-1.8-0.8c-0.9,0-1.8,0.4-2.5,1.3l-2.7-0.4l1.7-8.9h8.7v3.1h-6.2l-0.5,2.9c0.7-0.4,1.5-0.6,2.3-0.6
			c1.5,0,2.7,0.5,3.7,1.6s1.5,2.4,1.5,4.1c0,1.4-0.4,2.7-1.2,3.8c-1.1,1.5-2.7,2.3-4.7,2.3c-1.6,0-2.9-0.4-3.9-1.3
			S150.5,105.2,150.3,103.8z"/>
	</g>
</g>
<g id="Слой_6__x28_копия3_x29_">
	<g>
		<path d="M45.5,148.2V131h3.3v9.1l3.9-4.4h4.1l-4.3,4.5l4.6,7.9h-3.6l-3.1-5.6l-1.5,1.6v4H45.5z"/>
		<path d="M58.2,141.8c0-1.1,0.3-2.2,0.8-3.2s1.3-1.8,2.3-2.3s2.1-0.8,3.3-0.8c1.9,0,3.4,0.6,4.6,1.8s1.8,2.8,1.8,4.6
			c0,1.9-0.6,3.4-1.8,4.7s-2.7,1.9-4.6,1.9c-1.1,0-2.2-0.3-3.3-0.8s-1.8-1.3-2.4-2.3S58.2,143.2,58.2,141.8z M61.6,142
			c0,1.2,0.3,2.2,0.9,2.8s1.3,1,2.2,1s1.6-0.3,2.2-1s0.9-1.6,0.9-2.9c0-1.2-0.3-2.2-0.9-2.8s-1.3-1-2.2-1s-1.6,0.3-2.2,1
			S61.6,140.7,61.6,142z"/>
		<path d="M79.3,135.8v2.6h-2.3v5c0,1,0,1.6,0.1,1.8s0.1,0.3,0.3,0.4s0.3,0.2,0.6,0.2c0.3,0,0.7-0.1,1.3-0.3l0.3,2.6
			c-0.8,0.3-1.6,0.5-2.6,0.5c-0.6,0-1.1-0.1-1.6-0.3s-0.8-0.5-1-0.8s-0.4-0.7-0.5-1.3c-0.1-0.4-0.1-1.2-0.1-2.3v-5.4h-1.5v-2.6h1.5
			v-2.5l3.3-1.9v4.4H79.3z"/>
		<path d="M88.8,144.2l3.3,0.6c-0.4,1.2-1.1,2.1-2,2.7s-2,0.9-3.4,0.9c-2.2,0-3.8-0.7-4.8-2.1c-0.8-1.1-1.2-2.6-1.2-4.3
			c0-2.1,0.5-3.7,1.6-4.8s2.4-1.8,4.1-1.8c1.9,0,3.3,0.6,4.4,1.8s1.6,3.1,1.5,5.6H84c0,1,0.3,1.7,0.8,2.3s1.1,0.8,1.9,0.8
			c0.5,0,0.9-0.1,1.3-0.4S88.6,144.9,88.8,144.2z M89,140.9c0-1-0.3-1.7-0.7-2.2s-1-0.7-1.7-0.7c-0.7,0-1.3,0.3-1.8,0.8
			s-0.7,1.2-0.7,2.1H89z"/>
		<path d="M98.1,148.2h-3.3v-12.4h3.1v1.8c0.5-0.8,1-1.4,1.4-1.7s0.9-0.4,1.4-0.4c0.8,0,1.5,0.2,2.2,0.6l-1,2.9
			c-0.6-0.4-1.1-0.5-1.5-0.5c-0.5,0-0.9,0.1-1.2,0.4s-0.6,0.7-0.8,1.4s-0.3,2.1-0.3,4.2V148.2z"/>
		<path d="M102.3,152.9v-2.1H116v2.1H102.3z"/>
		<path d="M121,148.2l-5-12.4h3.5l2.3,6.4l0.7,2.1c0.2-0.5,0.3-0.9,0.3-1.1c0.1-0.4,0.2-0.7,0.4-1.1l2.4-6.4h3.4l-4.9,12.4H121z"/>
		<path d="M141.4,145.1v3.1h-11.5c0.1-1.2,0.5-2.3,1.1-3.3s1.9-2.4,3.7-4.1c1.5-1.4,2.4-2.3,2.7-2.8c0.5-0.7,0.7-1.4,0.7-2
			c0-0.7-0.2-1.3-0.6-1.7s-0.9-0.6-1.6-0.6c-0.7,0-1.2,0.2-1.6,0.6s-0.6,1.1-0.7,2.1l-3.3-0.3c0.2-1.8,0.8-3.1,1.8-3.9
			s2.3-1.2,3.9-1.2c1.7,0,3,0.5,4,1.4s1.5,2.1,1.5,3.4c0,0.8-0.1,1.5-0.4,2.2s-0.7,1.4-1.3,2.2c-0.4,0.5-1.1,1.2-2.2,2.2
			s-1.7,1.6-2,1.9s-0.5,0.6-0.7,0.9H141.4z"/>
	</g>
</g>
<g id="Слой_10">
	<g>
		<path class="st4" d="M501.8,20.4c0-2,0.2-3.7,0.6-4.9s1-2.2,1.9-2.9s1.9-1,3.1-1c0.9,0,1.7,0.2,2.4,0.6s1.3,0.9,1.7,1.6
			s0.8,1.6,1.1,2.6s0.4,2.4,0.4,4.1c0,2-0.2,3.6-0.6,4.9s-1,2.2-1.9,2.9s-1.9,1-3.1,1c-1.7,0-3-0.6-3.9-1.8
			C502.4,25.9,501.8,23.6,501.8,20.4z M504,20.4c0,2.8,0.3,4.7,1,5.6s1.5,1.4,2.4,1.4s1.8-0.5,2.4-1.4s1-2.8,1-5.6
			c0-2.8-0.3-4.7-1-5.6s-1.5-1.4-2.5-1.4c-1,0-1.7,0.4-2.3,1.2C504.3,15.6,504,17.6,504,20.4z"/>
		<path class="st4" d="M521.9,28.8v-4.1h-7.5v-1.9l7.8-11.1h1.7v11.1h2.3v1.9H524v4.1H521.9z M521.9,22.8v-7.7l-5.4,7.7H521.9z"/>
		<path class="st4" d="M529.7,28.8v-2.4h2.4v2.4H529.7z"/>
		<path class="st4" d="M535.2,20.4c0-2,0.2-3.7,0.6-4.9s1-2.2,1.9-2.9s1.9-1,3.1-1c0.9,0,1.7,0.2,2.4,0.6s1.3,0.9,1.7,1.6
			s0.8,1.6,1.1,2.6s0.4,2.4,0.4,4.1c0,2-0.2,3.6-0.6,4.9s-1,2.2-1.9,2.9s-1.9,1-3.1,1c-1.7,0-3-0.6-3.9-1.8
			C535.7,25.9,535.2,23.6,535.2,20.4z M537.3,20.4c0,2.8,0.3,4.7,1,5.6s1.5,1.4,2.4,1.4s1.8-0.5,2.4-1.4s1-2.8,1-5.6
			c0-2.8-0.3-4.7-1-5.6s-1.5-1.4-2.5-1.4c-1,0-1.7,0.4-2.3,1.2C537.7,15.6,537.3,17.6,537.3,20.4z"/>
		<path class="st4" d="M556.5,28.8h-2.1V15.4c-0.5,0.5-1.2,1-2,1.5s-1.6,0.8-2.2,1.1v-2c1.2-0.6,2.2-1.2,3.1-2s1.5-1.6,1.9-2.3h1.4
			V28.8z"/>
		<path class="st4" d="M563,28.8v-2.4h2.4v2.4H563z"/>
		<path class="st4" d="M579.6,26.8v2h-11.4c0-0.5,0.1-1,0.2-1.5c0.3-0.8,0.8-1.5,1.4-2.3s1.6-1.6,2.8-2.6c1.9-1.5,3.1-2.7,3.8-3.6
			s1-1.7,1-2.5c0-0.8-0.3-1.5-0.9-2.1s-1.4-0.9-2.3-0.9c-1,0-1.8,0.3-2.4,0.9s-0.9,1.5-0.9,2.5l-2.2-0.2c0.1-1.6,0.7-2.8,1.7-3.7
			s2.3-1.3,3.9-1.3c1.6,0,3,0.5,3.9,1.4s1.4,2,1.4,3.4c0,0.7-0.1,1.4-0.4,2s-0.7,1.4-1.4,2.1s-1.7,1.7-3.3,3
			c-1.3,1.1-2.1,1.8-2.4,2.2s-0.7,0.8-0.9,1.1H579.6z"/>
		<path class="st4" d="M581.9,20.4c0-2,0.2-3.7,0.6-4.9s1-2.2,1.9-2.9s1.9-1,3.1-1c0.9,0,1.7,0.2,2.4,0.6s1.3,0.9,1.7,1.6
			s0.8,1.6,1.1,2.6s0.4,2.4,0.4,4.1c0,2-0.2,3.6-0.6,4.9s-1,2.2-1.9,2.9s-1.9,1-3.1,1c-1.7,0-3-0.6-3.9-1.8
			C582.4,25.9,581.9,23.6,581.9,20.4z M584,20.4c0,2.8,0.3,4.7,1,5.6s1.5,1.4,2.4,1.4s1.8-0.5,2.4-1.4s1-2.8,1-5.6
			c0-2.8-0.3-4.7-1-5.6s-1.5-1.4-2.5-1.4c-1,0-1.7,0.4-2.3,1.2C584.4,15.6,584,17.6,584,20.4z"/>
		<path class="st4" d="M603.2,28.8h-2.1V15.4c-0.5,0.5-1.2,1-2,1.5s-1.6,0.8-2.2,1.1v-2c1.2-0.6,2.2-1.2,3.1-2s1.5-1.6,1.9-2.3h1.4
			V28.8z"/>
		<path class="st4" d="M608.9,24.9l2-0.2c0.2,1,0.5,1.6,1,2.1s1.1,0.6,1.9,0.6c0.6,0,1.2-0.1,1.7-0.4s0.9-0.7,1.2-1.2s0.6-1.2,0.8-2
			s0.3-1.7,0.3-2.6c0-0.1,0-0.2,0-0.4c-0.4,0.7-1,1.2-1.7,1.6s-1.5,0.6-2.4,0.6c-1.4,0-2.6-0.5-3.6-1.5s-1.5-2.4-1.5-4.1
			c0-1.7,0.5-3.1,1.5-4.2s2.3-1.6,3.9-1.6c1.1,0,2.1,0.3,3.1,0.9s1.6,1.5,2.1,2.6s0.7,2.7,0.7,4.8c0,2.2-0.2,3.9-0.7,5.2
			s-1.2,2.3-2.1,3s-2,1-3.3,1c-1.3,0-2.4-0.4-3.3-1.1S609.1,26.2,608.9,24.9z M617.5,17.3c0-1.2-0.3-2.2-1-2.9s-1.4-1.1-2.3-1.1
			c-0.9,0-1.8,0.4-2.4,1.1s-1,1.8-1,3c0,1.1,0.3,2,1,2.7s1.5,1,2.4,1c1,0,1.8-0.3,2.4-1S617.5,18.5,617.5,17.3z"/>
		<path class="st4" d="M639.7,26.8v2h-11.4c0-0.5,0.1-1,0.2-1.5c0.3-0.8,0.8-1.5,1.4-2.3s1.6-1.6,2.8-2.6c1.9-1.5,3.1-2.7,3.8-3.6
			s1-1.7,1-2.5c0-0.8-0.3-1.5-0.9-2.1s-1.4-0.9-2.3-0.9c-1,0-1.8,0.3-2.4,0.9s-0.9,1.5-0.9,2.5l-2.2-0.2c0.1-1.6,0.7-2.8,1.7-3.7
			s2.3-1.3,3.9-1.3c1.6,0,3,0.5,3.9,1.4s1.4,2,1.4,3.4c0,0.7-0.1,1.4-0.4,2s-0.7,1.4-1.4,2.1s-1.7,1.7-3.3,3
			c-1.3,1.1-2.1,1.8-2.4,2.2s-0.7,0.8-0.9,1.1H639.7z"/>
		<path class="st4" d="M641.9,20.4c0-2,0.2-3.7,0.6-4.9s1-2.2,1.9-2.9s1.9-1,3.1-1c0.9,0,1.7,0.2,2.4,0.6s1.3,0.9,1.7,1.6
			s0.8,1.6,1.1,2.6s0.4,2.4,0.4,4.1c0,2-0.2,3.6-0.6,4.9s-1,2.2-1.9,2.9s-1.9,1-3.1,1c-1.7,0-3-0.6-3.9-1.8
			C642.5,25.9,641.9,23.6,641.9,20.4z M644.1,20.4c0,2.8,0.3,4.7,1,5.6s1.5,1.4,2.4,1.4s1.8-0.5,2.4-1.4s1-2.8,1-5.6
			c0-2.8-0.3-4.7-1-5.6s-1.5-1.4-2.5-1.4c-1,0-1.7,0.4-2.3,1.2C644.5,15.6,644.1,17.6,644.1,20.4z"/>
		<path class="st4" d="M656.4,18.8v-2.4h2.4v2.4H656.4z M656.4,28.8v-2.4h2.4v2.4H656.4z"/>
		<path class="st4" d="M669.9,28.8h-2.1V15.4c-0.5,0.5-1.2,1-2,1.5s-1.6,0.8-2.2,1.1v-2c1.2-0.6,2.2-1.2,3.1-2s1.5-1.6,1.9-2.3h1.4
			V28.8z"/>
		<path class="st4" d="M675.3,20.4c0-2,0.2-3.7,0.6-4.9s1-2.2,1.9-2.9s1.9-1,3.1-1c0.9,0,1.7,0.2,2.4,0.6s1.3,0.9,1.7,1.6
			s0.8,1.6,1.1,2.6s0.4,2.4,0.4,4.1c0,2-0.2,3.6-0.6,4.9s-1,2.2-1.9,2.9s-1.9,1-3.1,1c-1.7,0-3-0.6-3.9-1.8
			C675.9,25.9,675.3,23.6,675.3,20.4z M677.5,20.4c0,2.8,0.3,4.7,1,5.6s1.5,1.4,2.4,1.4s1.8-0.5,2.4-1.4s1-2.8,1-5.6
			c0-2.8-0.3-4.7-1-5.6s-1.5-1.4-2.5-1.4c-1,0-1.7,0.4-2.3,1.2C677.8,15.6,677.5,17.6,677.5,20.4z"/>
	</g>
</g>
<g id="Слой_10__x28_копия_x29_">
	<g>
		<path class="st4" d="M509.7,68.8h-2.1V55.4c-0.5,0.5-1.2,1-2,1.5s-1.6,0.8-2.2,1.1v-2c1.2-0.6,2.2-1.2,3.1-2s1.5-1.6,1.9-2.3h1.4
			V68.8z"/>
		<path class="st4" d="M515.2,64.3l2.1-0.3c0.2,1.2,0.7,2.1,1.2,2.6s1.3,0.8,2.1,0.8c1,0,1.8-0.3,2.5-1s1-1.5,1-2.6
			c0-1-0.3-1.8-0.9-2.4s-1.4-0.9-2.4-0.9c-0.4,0-0.9,0.1-1.5,0.2l0.2-1.9c0.1,0,0.3,0,0.3,0c0.9,0,1.7-0.2,2.4-0.7s1.1-1.2,1.1-2.2
			c0-0.8-0.3-1.4-0.8-1.9s-1.2-0.8-2-0.8c-0.8,0-1.5,0.3-2.1,0.8s-0.9,1.3-1.1,2.3l-2.1-0.4c0.3-1.4,0.8-2.5,1.8-3.3
			s2.1-1.2,3.4-1.2c0.9,0,1.8,0.2,2.6,0.6s1.4,1,1.8,1.6s0.6,1.4,0.6,2.2c0,0.7-0.2,1.4-0.6,2s-1,1.1-1.8,1.5c1,0.2,1.8,0.7,2.4,1.5
			s0.8,1.7,0.8,2.8c0,1.5-0.5,2.8-1.6,3.8s-2.5,1.6-4.1,1.6c-1.5,0-2.8-0.4-3.8-1.3S515.3,65.7,515.2,64.3z"/>
		<path class="st4" d="M529.7,68.8v-2.4h2.4v2.4H529.7z"/>
		<path class="st4" d="M535.2,60.4c0-2,0.2-3.7,0.6-4.9s1-2.2,1.9-2.9s1.9-1,3.1-1c0.9,0,1.7,0.2,2.4,0.6s1.3,0.9,1.7,1.6
			s0.8,1.6,1.1,2.6s0.4,2.4,0.4,4.1c0,2-0.2,3.6-0.6,4.9s-1,2.2-1.9,2.9s-1.9,1-3.1,1c-1.7,0-3-0.6-3.9-1.8
			C535.7,65.9,535.2,63.6,535.2,60.4z M537.3,60.4c0,2.8,0.3,4.7,1,5.6s1.5,1.4,2.4,1.4s1.8-0.5,2.4-1.4s1-2.8,1-5.6
			c0-2.8-0.3-4.7-1-5.6s-1.5-1.4-2.5-1.4c-1,0-1.7,0.4-2.3,1.2C537.7,55.6,537.3,57.6,537.3,60.4z"/>
		<path class="st4" d="M551.8,59.5c-0.9-0.3-1.5-0.8-1.9-1.4s-0.6-1.3-0.6-2.1c0-1.3,0.4-2.3,1.3-3.2s2.1-1.3,3.6-1.3
			c1.5,0,2.7,0.4,3.6,1.3s1.4,1.9,1.4,3.2c0,0.8-0.2,1.5-0.6,2.1s-1.1,1-1.9,1.4c1.1,0.3,1.9,0.9,2.4,1.7s0.8,1.7,0.8,2.7
			c0,1.5-0.5,2.7-1.6,3.7s-2.4,1.5-4.1,1.5s-3.1-0.5-4.1-1.5s-1.6-2.3-1.6-3.8c0-1.1,0.3-2.1,0.8-2.8S550.7,59.8,551.8,59.5z
			 M550.7,63.9c0,0.6,0.1,1.2,0.4,1.7s0.7,1,1.3,1.3s1.2,0.5,1.8,0.5c1,0,1.8-0.3,2.5-1s1-1.5,1-2.5c0-1-0.3-1.9-1-2.5s-1.5-1-2.5-1
			c-1,0-1.8,0.3-2.5,1S550.7,62.9,550.7,63.9z M551.3,56c0,0.8,0.3,1.5,0.8,2s1.2,0.8,2,0.8c0.8,0,1.5-0.3,2-0.8s0.8-1.1,0.8-1.9
			c0-0.8-0.3-1.4-0.8-2s-1.2-0.8-2-0.8c-0.8,0-1.5,0.3-2,0.8S551.3,55.2,551.3,56z"/>
		<path class="st4" d="M563,68.8v-2.4h2.4v2.4H563z"/>
		<path class="st4" d="M579.6,66.8v2h-11.4c0-0.5,0.1-1,0.2-1.5c0.3-0.8,0.8-1.5,1.4-2.3s1.6-1.6,2.8-2.6c1.9-1.5,3.1-2.7,3.8-3.6
			s1-1.7,1-2.5c0-0.8-0.3-1.5-0.9-2.1s-1.4-0.9-2.3-0.9c-1,0-1.8,0.3-2.4,0.9s-0.9,1.5-0.9,2.5l-2.2-0.2c0.1-1.6,0.7-2.8,1.7-3.7
			s2.3-1.3,3.9-1.3c1.6,0,3,0.5,3.9,1.4s1.4,2,1.4,3.4c0,0.7-0.1,1.4-0.4,2s-0.7,1.4-1.4,2.1s-1.7,1.7-3.3,3
			c-1.3,1.1-2.1,1.8-2.4,2.2s-0.7,0.8-0.9,1.1H579.6z"/>
		<path class="st4" d="M581.9,60.4c0-2,0.2-3.7,0.6-4.9s1-2.2,1.9-2.9s1.9-1,3.1-1c0.9,0,1.7,0.2,2.4,0.6s1.3,0.9,1.7,1.6
			s0.8,1.6,1.1,2.6s0.4,2.4,0.4,4.1c0,2-0.2,3.6-0.6,4.9s-1,2.2-1.9,2.9s-1.9,1-3.1,1c-1.7,0-3-0.6-3.9-1.8
			C582.4,65.9,581.9,63.6,581.9,60.4z M584,60.4c0,2.8,0.3,4.7,1,5.6s1.5,1.4,2.4,1.4s1.8-0.5,2.4-1.4s1-2.8,1-5.6
			c0-2.8-0.3-4.7-1-5.6s-1.5-1.4-2.5-1.4c-1,0-1.7,0.4-2.3,1.2C584.4,55.6,584,57.6,584,60.4z"/>
		<path class="st4" d="M603.2,68.8h-2.1V55.4c-0.5,0.5-1.2,1-2,1.5s-1.6,0.8-2.2,1.1v-2c1.2-0.6,2.2-1.2,3.1-2s1.5-1.6,1.9-2.3h1.4
			V68.8z"/>
		<path class="st4" d="M608.9,64.9l2-0.2c0.2,1,0.5,1.6,1,2.1s1.1,0.6,1.9,0.6c0.6,0,1.2-0.1,1.7-0.4s0.9-0.7,1.2-1.2s0.6-1.2,0.8-2
			s0.3-1.7,0.3-2.6c0-0.1,0-0.2,0-0.4c-0.4,0.7-1,1.2-1.7,1.6s-1.5,0.6-2.4,0.6c-1.4,0-2.6-0.5-3.6-1.5s-1.5-2.4-1.5-4.1
			c0-1.7,0.5-3.1,1.5-4.2s2.3-1.6,3.9-1.6c1.1,0,2.1,0.3,3.1,0.9s1.6,1.5,2.1,2.6s0.7,2.7,0.7,4.8c0,2.2-0.2,3.9-0.7,5.2
			s-1.2,2.3-2.1,3s-2,1-3.3,1c-1.3,0-2.4-0.4-3.3-1.1S609.1,66.2,608.9,64.9z M617.5,57.3c0-1.2-0.3-2.2-1-2.9s-1.4-1.1-2.3-1.1
			c-0.9,0-1.8,0.4-2.4,1.1s-1,1.8-1,3c0,1.1,0.3,2,1,2.7s1.5,1,2.4,1c1,0,1.8-0.3,2.4-1S617.5,58.5,617.5,57.3z"/>
		<path class="st4" d="M636.5,68.8h-2.1V55.4c-0.5,0.5-1.2,1-2,1.5s-1.6,0.8-2.2,1.1v-2c1.2-0.6,2.2-1.2,3.1-2s1.5-1.6,1.9-2.3h1.4
			V68.8z"/>
		<path class="st4" d="M643.1,58.8v-2.4h2.4v2.4H643.1z M643.1,68.8v-2.4h2.4v2.4H643.1z"/>
		<path class="st4" d="M648.6,60.4c0-2,0.2-3.7,0.6-4.9s1-2.2,1.9-2.9s1.9-1,3.1-1c0.9,0,1.7,0.2,2.4,0.6s1.3,0.9,1.7,1.6
			s0.8,1.6,1.1,2.6s0.4,2.4,0.4,4.1c0,2-0.2,3.6-0.6,4.9s-1,2.2-1.9,2.9s-1.9,1-3.1,1c-1.7,0-3-0.6-3.9-1.8
			C649.2,65.9,648.6,63.6,648.6,60.4z M650.8,60.4c0,2.8,0.3,4.7,1,5.6s1.5,1.4,2.4,1.4s1.8-0.5,2.4-1.4s1-2.8,1-5.6
			c0-2.8-0.3-4.7-1-5.6s-1.5-1.4-2.5-1.4c-1,0-1.7,0.4-2.3,1.2C651.1,55.6,650.8,57.6,650.8,60.4z"/>
		<path class="st4" d="M662,64.3l2.1-0.3c0.2,1.2,0.7,2.1,1.2,2.6s1.3,0.8,2.1,0.8c1,0,1.8-0.3,2.5-1s1-1.5,1-2.6
			c0-1-0.3-1.8-0.9-2.4s-1.4-0.9-2.4-0.9c-0.4,0-0.9,0.1-1.5,0.2l0.2-1.9c0.1,0,0.3,0,0.3,0c0.9,0,1.7-0.2,2.4-0.7s1.1-1.2,1.1-2.2
			c0-0.8-0.3-1.4-0.8-1.9s-1.2-0.8-2-0.8c-0.8,0-1.5,0.3-2.1,0.8s-0.9,1.3-1.1,2.3l-2.1-0.4c0.3-1.4,0.8-2.5,1.8-3.3
			s2.1-1.2,3.4-1.2c0.9,0,1.8,0.2,2.6,0.6s1.4,1,1.8,1.6s0.6,1.4,0.6,2.2c0,0.7-0.2,1.4-0.6,2s-1,1.1-1.8,1.5c1,0.2,1.8,0.7,2.4,1.5
			s0.8,1.7,0.8,2.8c0,1.5-0.5,2.8-1.6,3.8s-2.5,1.6-4.1,1.6c-1.5,0-2.8-0.4-3.8-1.3S662.1,65.7,662,64.3z"/>
	</g>
</g>
<g id="Слой_10__x28_копия2_x29_">
	<g>
		<path class="st4" d="M509.7,108.8h-2.1V95.4c-0.5,0.5-1.2,1-2,1.5s-1.6,0.8-2.2,1.1v-2c1.2-0.6,2.2-1.2,3.1-2s1.5-1.6,1.9-2.3h1.4
			V108.8z"/>
		<path class="st4" d="M515.5,104.9l2-0.2c0.2,1,0.5,1.6,1,2.1s1.1,0.6,1.9,0.6c0.6,0,1.2-0.1,1.7-0.4s0.9-0.7,1.2-1.2
			s0.6-1.2,0.8-2s0.3-1.7,0.3-2.6c0-0.1,0-0.2,0-0.4c-0.4,0.7-1,1.2-1.7,1.6s-1.5,0.6-2.4,0.6c-1.4,0-2.6-0.5-3.6-1.5
			s-1.5-2.4-1.5-4.1c0-1.7,0.5-3.1,1.5-4.2s2.3-1.6,3.9-1.6c1.1,0,2.1,0.3,3.1,0.9s1.6,1.5,2.1,2.6s0.7,2.7,0.7,4.8
			c0,2.2-0.2,3.9-0.7,5.2s-1.2,2.3-2.1,3s-2,1-3.3,1c-1.3,0-2.4-0.4-3.3-1.1S515.6,106.2,515.5,104.9z M524.1,97.3
			c0-1.2-0.3-2.2-1-2.9s-1.4-1.1-2.3-1.1c-0.9,0-1.8,0.4-2.4,1.1s-1,1.8-1,3c0,1.1,0.3,2,1,2.7s1.5,1,2.4,1c1,0,1.8-0.3,2.4-1
			S524.1,98.5,524.1,97.3z"/>
		<path class="st4" d="M529.7,108.8v-2.4h2.4v2.4H529.7z"/>
		<path class="st4" d="M535.2,100.4c0-2,0.2-3.7,0.6-4.9s1-2.2,1.9-2.9s1.9-1,3.1-1c0.9,0,1.7,0.2,2.4,0.6s1.3,0.9,1.7,1.6
			s0.8,1.6,1.1,2.6s0.4,2.4,0.4,4.1c0,2-0.2,3.6-0.6,4.9s-1,2.2-1.9,2.9s-1.9,1-3.1,1c-1.7,0-3-0.6-3.9-1.8
			C535.7,105.9,535.2,103.6,535.2,100.4z M537.3,100.4c0,2.8,0.3,4.7,1,5.6s1.5,1.4,2.4,1.4s1.8-0.5,2.4-1.4s1-2.8,1-5.6
			c0-2.8-0.3-4.7-1-5.6s-1.5-1.4-2.5-1.4c-1,0-1.7,0.4-2.3,1.2C537.7,95.6,537.3,97.6,537.3,100.4z"/>
		<path class="st4" d="M548.8,104.9l2-0.2c0.2,1,0.5,1.6,1,2.1s1.1,0.6,1.9,0.6c0.6,0,1.2-0.1,1.7-0.4s0.9-0.7,1.2-1.2
			s0.6-1.2,0.8-2s0.3-1.7,0.3-2.6c0-0.1,0-0.2,0-0.4c-0.4,0.7-1,1.2-1.7,1.6s-1.5,0.6-2.4,0.6c-1.4,0-2.6-0.5-3.6-1.5
			s-1.5-2.4-1.5-4.1c0-1.7,0.5-3.1,1.5-4.2s2.3-1.6,3.9-1.6c1.1,0,2.1,0.3,3.1,0.9s1.6,1.5,2.1,2.6s0.7,2.7,0.7,4.8
			c0,2.2-0.2,3.9-0.7,5.2s-1.2,2.3-2.1,3s-2,1-3.3,1c-1.3,0-2.4-0.4-3.3-1.1S549,106.2,548.8,104.9z M557.5,97.3
			c0-1.2-0.3-2.2-1-2.9s-1.4-1.1-2.3-1.1c-0.9,0-1.8,0.4-2.4,1.1s-1,1.8-1,3c0,1.1,0.3,2,1,2.7s1.5,1,2.4,1c1,0,1.8-0.3,2.4-1
			S557.5,98.5,557.5,97.3z"/>
		<path class="st4" d="M563,108.8v-2.4h2.4v2.4H563z"/>
		<path class="st4" d="M579.6,106.8v2h-11.4c0-0.5,0.1-1,0.2-1.5c0.3-0.8,0.8-1.5,1.4-2.3s1.6-1.6,2.8-2.6c1.9-1.5,3.1-2.7,3.8-3.6
			s1-1.7,1-2.5c0-0.8-0.3-1.5-0.9-2.1s-1.4-0.9-2.3-0.9c-1,0-1.8,0.3-2.4,0.9s-0.9,1.5-0.9,2.5l-2.2-0.2c0.1-1.6,0.7-2.8,1.7-3.7
			s2.3-1.3,3.9-1.3c1.6,0,3,0.5,3.9,1.4s1.4,2,1.4,3.4c0,0.7-0.1,1.4-0.4,2s-0.7,1.4-1.4,2.1s-1.7,1.7-3.3,3
			c-1.3,1.1-2.1,1.8-2.4,2.2s-0.7,0.8-0.9,1.1H579.6z"/>
		<path class="st4" d="M581.9,100.4c0-2,0.2-3.7,0.6-4.9s1-2.2,1.9-2.9s1.9-1,3.1-1c0.9,0,1.7,0.2,2.4,0.6s1.3,0.9,1.7,1.6
			s0.8,1.6,1.1,2.6s0.4,2.4,0.4,4.1c0,2-0.2,3.6-0.6,4.9s-1,2.2-1.9,2.9s-1.9,1-3.1,1c-1.7,0-3-0.6-3.9-1.8
			C582.4,105.9,581.9,103.6,581.9,100.4z M584,100.4c0,2.8,0.3,4.7,1,5.6s1.5,1.4,2.4,1.4s1.8-0.5,2.4-1.4s1-2.8,1-5.6
			c0-2.8-0.3-4.7-1-5.6s-1.5-1.4-2.5-1.4c-1,0-1.7,0.4-2.3,1.2C584.4,95.6,584,97.6,584,100.4z"/>
		<path class="st4" d="M603.2,108.8h-2.1V95.4c-0.5,0.5-1.2,1-2,1.5s-1.6,0.8-2.2,1.1v-2c1.2-0.6,2.2-1.2,3.1-2s1.5-1.6,1.9-2.3h1.4
			V108.8z"/>
		<path class="st4" d="M608.9,104.9l2-0.2c0.2,1,0.5,1.6,1,2.1s1.1,0.6,1.9,0.6c0.6,0,1.2-0.1,1.7-0.4s0.9-0.7,1.2-1.2
			s0.6-1.2,0.8-2s0.3-1.7,0.3-2.6c0-0.1,0-0.2,0-0.4c-0.4,0.7-1,1.2-1.7,1.6s-1.5,0.6-2.4,0.6c-1.4,0-2.6-0.5-3.6-1.5
			s-1.5-2.4-1.5-4.1c0-1.7,0.5-3.1,1.5-4.2s2.3-1.6,3.9-1.6c1.1,0,2.1,0.3,3.1,0.9s1.6,1.5,2.1,2.6s0.7,2.7,0.7,4.8
			c0,2.2-0.2,3.9-0.7,5.2s-1.2,2.3-2.1,3s-2,1-3.3,1c-1.3,0-2.4-0.4-3.3-1.1S609.1,106.2,608.9,104.9z M617.5,97.3
			c0-1.2-0.3-2.2-1-2.9s-1.4-1.1-2.3-1.1c-0.9,0-1.8,0.4-2.4,1.1s-1,1.8-1,3c0,1.1,0.3,2,1,2.7s1.5,1,2.4,1c1,0,1.8-0.3,2.4-1
			S617.5,98.5,617.5,97.3z"/>
		<path class="st4" d="M639.7,106.8v2h-11.4c0-0.5,0.1-1,0.2-1.5c0.3-0.8,0.8-1.5,1.4-2.3s1.6-1.6,2.8-2.6c1.9-1.5,3.1-2.7,3.8-3.6
			s1-1.7,1-2.5c0-0.8-0.3-1.5-0.9-2.1s-1.4-0.9-2.3-0.9c-1,0-1.8,0.3-2.4,0.9s-0.9,1.5-0.9,2.5l-2.2-0.2c0.1-1.6,0.7-2.8,1.7-3.7
			s2.3-1.3,3.9-1.3c1.6,0,3,0.5,3.9,1.4s1.4,2,1.4,3.4c0,0.7-0.1,1.4-0.4,2s-0.7,1.4-1.4,2.1s-1.7,1.7-3.3,3
			c-1.3,1.1-2.1,1.8-2.4,2.2s-0.7,0.8-0.9,1.1H639.7z"/>
		<path class="st4" d="M641.9,100.4c0-2,0.2-3.7,0.6-4.9s1-2.2,1.9-2.9s1.9-1,3.1-1c0.9,0,1.7,0.2,2.4,0.6s1.3,0.9,1.7,1.6
			s0.8,1.6,1.1,2.6s0.4,2.4,0.4,4.1c0,2-0.2,3.6-0.6,4.9s-1,2.2-1.9,2.9s-1.9,1-3.1,1c-1.7,0-3-0.6-3.9-1.8
			C642.5,105.9,641.9,103.6,641.9,100.4z M644.1,100.4c0,2.8,0.3,4.7,1,5.6s1.5,1.4,2.4,1.4s1.8-0.5,2.4-1.4s1-2.8,1-5.6
			c0-2.8-0.3-4.7-1-5.6s-1.5-1.4-2.5-1.4c-1,0-1.7,0.4-2.3,1.2C644.5,95.6,644.1,97.6,644.1,100.4z"/>
		<path class="st4" d="M656.4,98.8v-2.4h2.4v2.4H656.4z M656.4,108.8v-2.4h2.4v2.4H656.4z"/>
		<path class="st4" d="M673,106.8v2h-11.4c0-0.5,0.1-1,0.2-1.5c0.3-0.8,0.8-1.5,1.4-2.3s1.6-1.6,2.8-2.6c1.9-1.5,3.1-2.7,3.8-3.6
			s1-1.7,1-2.5c0-0.8-0.3-1.5-0.9-2.1s-1.4-0.9-2.3-0.9c-1,0-1.8,0.3-2.4,0.9s-0.9,1.5-0.9,2.5l-2.2-0.2c0.1-1.6,0.7-2.8,1.7-3.7
			s2.3-1.3,3.9-1.3c1.6,0,3,0.5,3.9,1.4s1.4,2,1.4,3.4c0,0.7-0.1,1.4-0.4,2s-0.7,1.4-1.4,2.1s-1.7,1.7-3.3,3
			c-1.3,1.1-2.1,1.8-2.4,2.2s-0.7,0.8-0.9,1.1H673z"/>
		<path class="st4" d="M686.2,95.9l-2.1,0.2c-0.2-0.8-0.5-1.4-0.8-1.8c-0.6-0.6-1.3-0.9-2.1-0.9c-0.7,0-1.3,0.2-1.8,0.6
			c-0.7,0.5-1.2,1.2-1.6,2.1s-0.6,2.3-0.6,4c0.5-0.8,1.1-1.3,1.9-1.7s1.5-0.6,2.3-0.6c1.4,0,2.6,0.5,3.6,1.6s1.5,2.4,1.5,4
			c0,1.1-0.2,2.1-0.7,3s-1.1,1.6-1.9,2.1s-1.7,0.7-2.8,0.7c-1.8,0-3.2-0.6-4.3-1.9s-1.7-3.4-1.7-6.4c0-3.3,0.6-5.7,1.8-7.2
			c1.1-1.3,2.5-2,4.3-2c1.4,0,2.5,0.4,3.3,1.1S686.1,94.5,686.2,95.9z M677.6,103.3c0,0.7,0.2,1.4,0.5,2.1s0.7,1.2,1.3,1.5
			s1.1,0.5,1.7,0.5c0.9,0,1.7-0.4,2.3-1.1s1-1.7,1-2.9c0-1.2-0.3-2.1-0.9-2.8s-1.4-1-2.4-1c-1,0-1.8,0.3-2.4,1
			S677.6,102.2,677.6,103.3z"/>
	</g>
</g>
<g id="Слой_10__x28_копия3_x29_">
	<g>
		<path class="st4" d="M512.9,146.8v2h-11.4c0-0.5,0.1-1,0.2-1.5c0.3-0.8,0.8-1.5,1.4-2.3s1.6-1.6,2.8-2.6c1.9-1.5,3.1-2.7,3.8-3.6
			s1-1.7,1-2.5c0-0.8-0.3-1.5-0.9-2.1s-1.4-0.9-2.3-0.9c-1,0-1.8,0.3-2.4,0.9s-0.9,1.5-0.9,2.5l-2.2-0.2c0.1-1.6,0.7-2.8,1.7-3.7
			s2.3-1.3,3.9-1.3c1.6,0,3,0.5,3.9,1.4s1.4,2,1.4,3.4c0,0.7-0.1,1.4-0.4,2s-0.7,1.4-1.4,2.1s-1.7,1.7-3.3,3
			c-1.3,1.1-2.1,1.8-2.4,2.2s-0.7,0.8-0.9,1.1H512.9z"/>
		<path class="st4" d="M521.9,148.8v-4.1h-7.5v-1.9l7.8-11.1h1.7v11.1h2.3v1.9H524v4.1H521.9z M521.9,142.8v-7.7l-5.4,7.7H521.9z"/>
		<path class="st4" d="M529.7,148.8v-2.4h2.4v2.4H529.7z"/>
		<path class="st4" d="M535.2,140.4c0-2,0.2-3.7,0.6-4.9s1-2.2,1.9-2.9s1.9-1,3.1-1c0.9,0,1.7,0.2,2.4,0.6s1.3,0.9,1.7,1.6
			s0.8,1.6,1.1,2.6s0.4,2.4,0.4,4.1c0,2-0.2,3.6-0.6,4.9s-1,2.2-1.9,2.9s-1.9,1-3.1,1c-1.7,0-3-0.6-3.9-1.8
			C535.7,145.9,535.2,143.6,535.2,140.4z M537.3,140.4c0,2.8,0.3,4.7,1,5.6s1.5,1.4,2.4,1.4s1.8-0.5,2.4-1.4s1-2.8,1-5.6
			c0-2.8-0.3-4.7-1-5.6s-1.5-1.4-2.5-1.4c-1,0-1.7,0.4-2.3,1.2C537.7,135.6,537.3,137.6,537.3,140.4z"/>
		<path class="st4" d="M556.5,148.8h-2.1v-13.4c-0.5,0.5-1.2,1-2,1.5s-1.6,0.8-2.2,1.1v-2c1.2-0.6,2.2-1.2,3.1-2s1.5-1.6,1.9-2.3
			h1.4V148.8z"/>
		<path class="st4" d="M563,148.8v-2.4h2.4v2.4H563z"/>
		<path class="st4" d="M579.6,146.8v2h-11.4c0-0.5,0.1-1,0.2-1.5c0.3-0.8,0.8-1.5,1.4-2.3s1.6-1.6,2.8-2.6c1.9-1.5,3.1-2.7,3.8-3.6
			s1-1.7,1-2.5c0-0.8-0.3-1.5-0.9-2.1s-1.4-0.9-2.3-0.9c-1,0-1.8,0.3-2.4,0.9s-0.9,1.5-0.9,2.5l-2.2-0.2c0.1-1.6,0.7-2.8,1.7-3.7
			s2.3-1.3,3.9-1.3c1.6,0,3,0.5,3.9,1.4s1.4,2,1.4,3.4c0,0.7-0.1,1.4-0.4,2s-0.7,1.4-1.4,2.1s-1.7,1.7-3.3,3
			c-1.3,1.1-2.1,1.8-2.4,2.2s-0.7,0.8-0.9,1.1H579.6z"/>
		<path class="st4" d="M581.9,140.4c0-2,0.2-3.7,0.6-4.9s1-2.2,1.9-2.9s1.9-1,3.1-1c0.9,0,1.7,0.2,2.4,0.6s1.3,0.9,1.7,1.6
			s0.8,1.6,1.1,2.6s0.4,2.4,0.4,4.1c0,2-0.2,3.6-0.6,4.9s-1,2.2-1.9,2.9s-1.9,1-3.1,1c-1.7,0-3-0.6-3.9-1.8
			C582.4,145.9,581.9,143.6,581.9,140.4z M584,140.4c0,2.8,0.3,4.7,1,5.6s1.5,1.4,2.4,1.4s1.8-0.5,2.4-1.4s1-2.8,1-5.6
			c0-2.8-0.3-4.7-1-5.6s-1.5-1.4-2.5-1.4c-1,0-1.7,0.4-2.3,1.2C584.4,135.6,584,137.6,584,140.4z"/>
		<path class="st4" d="M606.3,146.8v2h-11.4c0-0.5,0.1-1,0.2-1.5c0.3-0.8,0.8-1.5,1.4-2.3s1.6-1.6,2.8-2.6c1.9-1.5,3.1-2.7,3.8-3.6
			s1-1.7,1-2.5c0-0.8-0.3-1.5-0.9-2.1s-1.4-0.9-2.3-0.9c-1,0-1.8,0.3-2.4,0.9s-0.9,1.5-0.9,2.5l-2.2-0.2c0.1-1.6,0.7-2.8,1.7-3.7
			s2.3-1.3,3.9-1.3c1.6,0,3,0.5,3.9,1.4s1.4,2,1.4,3.4c0,0.7-0.1,1.4-0.4,2s-0.7,1.4-1.4,2.1s-1.7,1.7-3.3,3
			c-1.3,1.1-2.1,1.8-2.4,2.2s-0.7,0.8-0.9,1.1H606.3z"/>
		<path class="st4" d="M608.6,140.4c0-2,0.2-3.7,0.6-4.9s1-2.2,1.9-2.9s1.9-1,3.1-1c0.9,0,1.7,0.2,2.4,0.6s1.3,0.9,1.7,1.6
			s0.8,1.6,1.1,2.6s0.4,2.4,0.4,4.1c0,2-0.2,3.6-0.6,4.9s-1,2.2-1.9,2.9s-1.9,1-3.1,1c-1.7,0-3-0.6-3.9-1.8
			C609.1,145.9,608.6,143.6,608.6,140.4z M610.7,140.4c0,2.8,0.3,4.7,1,5.6s1.5,1.4,2.4,1.4s1.8-0.5,2.4-1.4s1-2.8,1-5.6
			c0-2.8-0.3-4.7-1-5.6s-1.5-1.4-2.5-1.4c-1,0-1.7,0.4-2.3,1.2C611.1,135.6,610.7,137.6,610.7,140.4z"/>
		<path class="st4" d="M636.5,148.8h-2.1v-13.4c-0.5,0.5-1.2,1-2,1.5s-1.6,0.8-2.2,1.1v-2c1.2-0.6,2.2-1.2,3.1-2s1.5-1.6,1.9-2.3
			h1.4V148.8z"/>
		<path class="st4" d="M642.1,133.9v-2h11.1v1.6c-1.1,1.2-2.2,2.7-3.3,4.6s-1.9,3.9-2.5,6c-0.4,1.4-0.7,3-0.8,4.7h-2.2
			c0-1.4,0.3-3,0.8-4.9s1.2-3.8,2.2-5.5s2-3.3,3-4.5H642.1z"/>
		<path class="st4" d="M656.4,138.8v-2.4h2.4v2.4H656.4z M656.4,148.8v-2.4h2.4v2.4H656.4z"/>
		<path class="st4" d="M668.7,148.8v-4.1h-7.5v-1.9l7.8-11.1h1.7v11.1h2.3v1.9h-2.3v4.1H668.7z M668.7,142.8v-7.7l-5.4,7.7H668.7z"
			/>
		<path class="st4" d="M675.3,144.3l2.2-0.2c0.2,1.1,0.5,1.9,1.1,2.4s1.3,0.8,2.2,0.8c1,0,1.9-0.4,2.6-1.1s1.1-1.8,1.1-3
			c0-1.2-0.3-2.2-1-2.8s-1.6-1-2.7-1c-0.7,0-1.3,0.2-1.8,0.5s-1,0.7-1.3,1.2l-2-0.3l1.7-8.8h8.5v2H679l-0.9,4.6
			c1-0.7,2.1-1.1,3.2-1.1c1.5,0,2.8,0.5,3.8,1.6s1.5,2.4,1.5,4c0,1.6-0.5,2.9-1.4,4c-1.1,1.4-2.6,2.1-4.5,2.1
			c-1.6,0-2.8-0.4-3.8-1.3S675.4,145.8,675.3,144.3z"/>
	</g>
</g>
</svg>
