<?xml version="1.0" encoding="utf-8"?>
<!-- Generator: Adobe Illustrator 24.2.3, SVG Export Plug-In . SVG Version: 6.00 Build 0)  -->
<svg version="1.1" id="Слой_1" xmlns="http://www.w3.org/2000/svg" xmlns:xlink="http://www.w3.org/1999/xlink" x="0px" y="0px"
	 viewBox="0 0 5418 1337.3" style="enable-background:new 0 0 5418 1337.3;" xml:space="preserve">
<style type="text/css">
	.st0{fill:#FFFFFF;stroke:#000000;stroke-miterlimit:10;}
	.st1{fill:#FFE79B;}
	.st2{fill:#F7D773;}
	.st3{fill:#FFEFB8;}
	.st4{fill:#727272;}
</style>
<g id="Слой_13">
	<rect x="-1.7" y="12.5" class="st0" width="5437.1" height="1282.5"/>
</g>
<g id="Слой_2_1_">
	<g>
		<path class="st1" d="M121,425.8v150v43.6c0,5.4-1.5,14.5,0.8,19.9c2.3,4.6,8.4,8.4,12.2,11.5l23.7,18.4c5.4,3.8,10,8.4,16.1,10
			c0-20.7-2.3-42.9,0-63.5c0.8-5.4,3.8-10,4.6-15.3c1.5-26,0-52.8-0.8-78.1c-0.8-10.7,0-21.4,0-31.4c0-4.6,0.8-10.7-0.8-15.3
			c-3.1-12.2-21.4-14.5-25.3-26C140.9,441.1,131.7,432.7,121,425.8z"/>
		<path class="st2" d="M121.8,425.8c10.7,13,26.8,23,39.8,32.9c4.6,3.8,12.2,8.4,15.3,13.8c2.3,4.6,1.5,10.7,1.5,15.3v30.6
			c0,26.8,1.5,54.4,0,80.4c0,5.4-3.8,9.2-4.6,13.8c-1.5,8.4,0,17.6,0,26H258c6.9,0,13.8,0,21.4,0c3.1,0,6.1,0,8.4-2.3
			c3.1-3.1,1.5-8.4,1.5-12.2v-30.6c0-6.9,2.3-18.4-1.5-24.5c-3.1-6.1-10-9.2-12.2-15.3c-2.3-5.4,0-13-0.8-18.4
			c-0.8-8.4-4.6-16.1-6.1-24.5c-0.8-4.6-0.8-8.4-1.5-13c-2.3-12.2-10-21.4-10-33.7c-0.8,1.5-0.8,2.3-0.8,3.8
			c-1.5-4.6-1.5-10-2.3-15.3c-1.5,0.8-0.8,0.8-2.3,2.3c-1.5-6.1-4.6-12.2-6.1-18.4c-0.8-3.1-0.8-6.9-3.8-9.2
			c-2.3-1.5-6.9-1.5-10-1.5h-22.2C209.8,425.8,121.8,425.8,121.8,425.8z"/>
		<path class="st1" d="M242.7,425.8c3.1,10,5.4,19.9,9.2,29.1c1.5-0.8,0.8-0.8,2.3-2.3l1.5,15.3c0.8-1.5,0.8-1.5,1.5-3.8
			c0.8,3.8,0.8,6.9,1.5,10.7c2.3,7.7,6.1,14.5,8.4,22.2c1.5,4.6,0.8,9.2,1.5,13.8c1.5,7.7,4.6,14.5,5.4,22.2
			c3.1-6.9,1.5-17.6,1.5-26v-55.1c0-6.1,2.3-20.7-1.5-25.3c-2.3-2.3-6.1-1.5-8.4-1.5C257.3,425.8,249.6,425.8,242.7,425.8z"/>
		<path class="st3" d="M125.6,435.8v199c2.3-4.6,1.5-10,1.5-15.3v-29.1V486.3v-33.7C126.3,447.2,127.1,441.1,125.6,435.8
			 M150.1,450.3c6.9,9.2,19.1,13,24.5,22.2c3.1,4.6,2.3,12.2,2.3,17.6v37.5c3.1-6.9,1.5-16.1,1.5-23.7c0-9.2,2.3-23-0.8-31.4
			c-1.5-3.8-5.4-6.9-8.4-9.2C163.1,458.7,157,452.6,150.1,450.3 M275.6,555.2c0,0,0,1.5,0.8,0.8C276.4,556,276.4,554.4,275.6,555.2
			 M170.7,678.4c-0.8,0.8,0.8,0.8,0.8,0.8C172.3,678.4,170.7,678.4,170.7,678.4z"/>
	</g>
</g>
<g id="Слой_2__x28_копия_x29_">
	<g>
		<path class="st1" d="M121,1038.2v150v43.6c0,5.4-1.5,14.5,0.8,19.9c2.3,4.6,8.4,8.4,12.2,11.5l23.7,18.4c5.4,3.8,10,8.4,16.1,10
			c0-20.7-2.3-42.9,0-63.5c0.8-5.4,3.8-10,4.6-15.3c1.5-26,0-52.8-0.8-78.1c-0.8-10.7,0-21.4,0-31.4c0-4.6,0.8-10.7-0.8-15.3
			c-3.1-12.2-21.4-14.5-25.3-26C140.9,1053.6,131.7,1045.1,121,1038.2z"/>
		<path class="st2" d="M121.8,1038.2c10.7,13,26.8,23,39.8,32.9c4.6,3.8,12.2,8.4,15.3,13.8c2.3,4.6,1.5,10.7,1.5,15.3v30.6
			c0,26.8,1.5,54.4,0,80.4c0,5.4-3.8,9.2-4.6,13.8c-1.5,8.4,0,17.6,0,26H258c6.9,0,13.8,0,21.4,0c3.1,0,6.1,0,8.4-2.3
			c3.1-3.1,1.5-8.4,1.5-12.2v-30.6c0-6.9,2.3-18.4-1.5-24.5c-3.1-6.1-10-9.2-12.2-15.3c-2.3-5.4,0-13-0.8-18.4
			c-0.8-8.4-4.6-16.1-6.1-24.5c-0.8-4.6-0.8-8.4-1.5-13c-2.3-12.2-10-21.4-10-33.7c-0.8,1.5-0.8,1.5-1.5,3.8
			c-1.5-4.6-1.5-10-2.3-15.3c-1.5,0.8-0.8,0.8-2.3,2.3c-1.5-6.1-4.6-12.2-6.1-18.4c-0.8-3.1-0.8-6.9-3.8-9.2
			c-2.3-1.5-6.9-1.5-10-1.5H209L121.8,1038.2L121.8,1038.2z"/>
		<path class="st1" d="M242.7,1038.2c3.1,10,5.4,19.9,9.2,29.1c1.5-0.8,0.8-0.8,2.3-2.3l1.5,15.3c0.8-1.5,0.8-1.5,1.5-3.8
			c0.8,3.8,0.8,6.9,1.5,10.7c2.3,7.7,6.1,14.5,8.4,22.2c1.5,4.6,0.8,9.2,1.5,13.8c1.5,7.7,4.6,14.5,5.4,22.2
			c3.1-6.9,1.5-17.6,1.5-26v-55.1c0-6.1,2.3-20.7-1.5-25.3c-2.3-2.3-6.1-1.5-8.4-1.5C257.3,1038.2,249.6,1038.2,242.7,1038.2z"/>
		<path class="st3" d="M125.6,1048.2v199c2.3-4.6,1.5-10,1.5-15.3v-29.1v-104.1V1065C126.3,1059.7,127.1,1053.6,125.6,1048.2
			 M150.1,1062.7c6.9,9.2,19.1,13,24.5,22.2c3.1,4.6,2.3,12.2,2.3,17.6v37.5c3.1-6.9,1.5-16.1,1.5-23.7c0-9.2,2.3-23-0.8-31.4
			c-1.5-3.8-5.4-6.9-8.4-9.2C163.1,1071.2,157,1065,150.1,1062.7 M275.6,1167.6c0,0,0,1.5,0.8,0.8
			C276.4,1168.4,276.4,1166.9,275.6,1167.6 M170.7,1290.9c-0.8,0.8,0.8,0.8,0.8,0.8C172.3,1290.9,170.7,1290.9,170.7,1290.9z"/>
	</g>
</g>
<g id="Слой_2__x28_копия2_x29_">
	<g>
		<path class="st1" d="M121,732v150v43.6c0,5.4-1.5,14.5,0.8,19.9c2.3,4.6,8.4,8.4,12.2,11.5l23.7,18.4c5.4,3.8,10,8.4,16.1,10
			c0-20.7-2.3-42.9,0-63.5c0.8-5.4,3.8-10,4.6-15.3c1.5-26,0-52.8-0.8-78.1c-0.8-10.7,0-21.4,0-31.4c0-4.6,0.8-10.7-0.8-15.3
			c-3.1-12.2-21.4-14.5-25.3-26C140.9,747.3,131.7,738.9,121,732z"/>
		<path class="st2" d="M121.8,732c10.7,13,26.8,23,39.8,32.9c4.6,3.8,12.2,8.4,15.3,13.8c2.3,4.6,1.5,10.7,1.5,15.3v30.6
			c0,26.8,1.5,54.4,0,80.4c0,5.4-3.8,9.2-4.6,13.8c-1.5,8.4,0,17.6,0,26H258c6.9,0,13.8,0,21.4,0c3.1,0,6.1,0,8.4-2.3
			c3.1-3.1,1.5-8.4,1.5-12.2v-30.6c0-6.9,2.3-18.4-1.5-24.5c-3.1-6.1-10-9.2-12.2-15.3c-2.3-5.4,0-13-0.8-18.4
			c-0.8-8.4-4.6-16.1-6.1-24.5c-0.8-4.6-0.8-8.4-1.5-13c-2.3-12.2-10-21.4-10-33.7c-0.8,1.5-0.8,2.3-0.8,3.8
			c-1.5-4.6-1.5-10-2.3-15.3c-1.5,0.8-0.8,0.8-2.3,2.3c-1.5-6.1-4.6-12.2-6.1-18.4c-0.8-3.1-0.8-6.9-3.8-9.2
			c-2.3-1.5-6.9-1.5-10-1.5h-22.2C209.8,732,121.8,732,121.8,732z"/>
		<path class="st1" d="M242.7,732c3.1,10,5.4,19.9,9.2,29.1c1.5-0.8,0.8-0.8,2.3-2.3l1.5,15.3c0.8-1.5,0.8-1.5,1.5-3.8
			c0.8,3.8,0.8,6.9,1.5,10.7c2.3,7.7,6.1,14.5,8.4,22.2c1.5,4.6,0.8,9.2,1.5,13.8c1.5,7.7,4.6,14.5,5.4,22.2
			c3.1-6.9,1.5-17.6,1.5-26v-55.1c0-6.1,2.3-20.7-1.5-25.3c-2.3-2.3-6.1-1.5-8.4-1.5C257.3,732,249.6,732,242.7,732z"/>
		<path class="st3" d="M125.6,742v199c2.3-4.6,1.5-10,1.5-15.3v-29.1V792.5v-33.7C126.3,753.5,127.1,747.3,125.6,742 M150.1,756.5
			c6.9,9.2,19.1,13,24.5,22.2c3.1,4.6,2.3,12.2,2.3,17.6v37.5c3.1-6.9,1.5-16.1,1.5-23.7c0-9.2,2.3-23-0.8-31.4
			c-1.5-3.8-5.4-6.9-8.4-9.2C163.1,764.9,157,758.8,150.1,756.5 M275.6,861.4c0,0,0,1.5,0.8,0.8
			C276.4,862.2,276.4,860.6,275.6,861.4 M170.7,984.7c-0.8,0.8,0.8,0.8,0.8,0.8C172.3,984.7,170.7,984.7,170.7,984.7z"/>
	</g>
</g>
<g id="Слой_2__x28_копия3_x29_">
	<g>
		<path class="st1" d="M121,119.6v150v43.6c0,5.4-1.5,14.5,0.8,19.9c2.3,4.6,8.4,8.4,12.2,11.5l23.7,18.4c5.4,3.8,10,8.4,16.1,10
			c0-20.7-2.3-42.9,0-63.5c0.8-5.4,3.8-10,4.6-15.3c1.5-26,0-52.8-0.8-78.1c-0.8-10.7,0-21.4,0-31.4c0-4.6,0.8-10.7-0.8-15.3
			c-3.1-12.2-21.4-14.5-25.3-26C140.9,134.9,131.7,126.5,121,119.6z"/>
		<path class="st2" d="M121.8,119.6c10.7,13,26.8,23,39.8,32.9c4.6,3.8,12.2,8.4,15.3,13.8c2.3,4.6,1.5,10.7,1.5,15.3v30.6
			c0,26.8,1.5,54.4,0,80.4c0,5.4-3.8,9.2-4.6,13.8c-1.5,8.4,0,17.6,0,26H258c6.9,0,13.8,0,21.4,0c3.1,0,6.1,0,8.4-2.3
			c3.1-3.1,1.5-8.4,1.5-12.2v-30.6c0-6.9,2.3-18.4-1.5-24.5c-3.1-6.1-10-9.2-12.2-15.3c-2.3-5.4,0-13-0.8-18.4
			c-0.8-8.4-4.6-16.1-6.1-24.5c-0.8-4.6-0.8-8.4-1.5-13c-2.3-12.2-10-21.4-10-33.7c-0.8,1.5-0.8,2.3-0.8,3.8
			c-1.5-4.6-1.5-10-2.3-15.3c-1.5,0.8-0.8,0.8-2.3,2.3c-1.5-6.1-4.6-12.2-6.1-18.4c-0.8-3.1-0.8-6.9-3.8-9.2
			c-2.3-1.5-6.9-1.5-10-1.5h-22.2C209.8,119.6,121.8,119.6,121.8,119.6z"/>
		<path class="st1" d="M242.7,119.6c3.1,10,5.4,19.9,9.2,29.1c1.5-0.8,0.8-0.8,2.3-2.3l1.5,15.3c0.8-1.5,0.8-1.5,1.5-3.8
			c0.8,3.8,0.8,6.9,1.5,10.7c2.3,7.7,6.1,14.5,8.4,22.2c1.5,4.6,0.8,9.2,1.5,13.8c1.5,7.7,4.6,14.5,5.4,22.2
			c3.1-6.9,1.5-17.6,1.5-26v-54.4c0-6.1,2.3-20.7-1.5-25.3c-2.3-2.3-6.1-1.5-8.4-1.5C257.3,119.6,249.6,119.6,242.7,119.6z"/>
		<path class="st3" d="M125.6,129.5v199c2.3-4.6,1.5-10,1.5-15.3v-29.1v-104v-33.7C126.3,141,127.1,134.9,125.6,129.5 M150.1,144.1
			c6.9,9.2,19.1,13,24.5,22.2c3.1,4.6,2.3,12.2,2.3,17.6v37.5c3.1-6.9,1.5-16.1,1.5-23.7c0-9.2,2.3-23-0.8-31.4
			c-1.5-3.8-5.4-6.9-8.4-9.2C163.1,152.5,157,146.4,150.1,144.1 M275.6,249c0,0,0,1.5,0.8,0.8C276.4,249.7,276.4,248.2,275.6,249
			 M170.7,372.2c-0.8,0.8,0.8,0.8,0.8,0.8C172.3,372.2,170.7,372.2,170.7,372.2z"/>
	</g>
</g>
<g>
	<g>
		<path d="M405.6,292.8V159h23.7v133.8H405.6z M427.1,261.3l-0.1-28.6h3.8l36.1-40.3h27.6l-44.4,49.4h-4.9L427.1,261.3z
			 M468.6,292.8l-32.7-45.7l15.9-16.7l45,62.3H468.6z"/>
		<path d="M554,294.8c-9.8,0-18.3-2.2-25.5-6.5s-12.8-10.3-16.7-18.1c-3.9-7.8-5.9-16.8-5.9-27.2c0-10.4,2-19.4,5.9-27.2
			c3.9-7.8,9.5-13.9,16.7-18.2s15.7-6.5,25.5-6.5c9.8,0,18.3,2.2,25.5,6.5s12.8,10.4,16.7,18.2c3.9,7.8,5.9,16.9,5.9,27.2
			c0,10.4-2,19.4-5.9,27.2c-3.9,7.8-9.5,13.8-16.7,18.1S563.8,294.8,554,294.8z M554.2,275.8c5.3,0,9.8-1.5,13.3-4.4
			c3.6-2.9,6.2-6.9,8-11.9c1.8-5,2.6-10.5,2.6-16.6c0-6.1-0.9-11.7-2.6-16.7c-1.8-5-4.4-9-8-11.9c-3.6-3-8-4.4-13.3-4.4
			c-5.4,0-10,1.5-13.6,4.4c-3.6,3-6.3,6.9-8,11.9c-1.8,5-2.6,10.6-2.6,16.7c0,6.1,0.9,11.6,2.6,16.6c1.8,5,4.4,8.9,8,11.9
			C544.2,274.4,548.7,275.8,554.2,275.8z"/>
		<path d="M672.2,192.5v18.3h-57.7v-18.3H672.2z M628.8,168.4h23.7v94.2c0,3.2,0.5,5.6,1.5,7.3c1,1.7,2.3,2.8,3.9,3.4
			c1.6,0.6,3.4,0.9,5.4,0.9c1.5,0,2.8-0.1,4.1-0.3c1.2-0.2,2.2-0.4,2.8-0.6l4,18.5c-1.3,0.4-3.1,0.9-5.4,1.4
			c-2.3,0.5-5.2,0.8-8.5,0.9c-5.9,0.2-11.3-0.7-16-2.7c-4.7-2-8.5-5.1-11.3-9.2c-2.8-4.2-4.1-9.4-4.1-15.7V168.4z"/>
		<path d="M736.5,294.8c-10.1,0-18.7-2.1-26-6.3c-7.3-4.2-12.9-10.2-16.8-17.9c-3.9-7.7-5.9-16.8-5.9-27.3c0-10.3,2-19.4,5.9-27.2
			c3.9-7.8,9.5-13.9,16.6-18.3c7.1-4.4,15.4-6.6,25-6.6c6.2,0,12,1,17.5,3c5.5,2,10.4,5,14.6,9.2c4.2,4.1,7.6,9.4,10,15.8
			c2.4,6.4,3.7,14,3.7,22.8v7.3h-82.3v-15.9h59.6c0-4.5-1-8.6-2.9-12.1c-1.9-3.5-4.6-6.3-8-8.4c-3.4-2-7.4-3.1-11.9-3.1
			c-4.8,0-9.1,1.2-12.7,3.5c-3.7,2.3-6.5,5.4-8.5,9.1c-2,3.8-3.1,7.9-3.1,12.4v13.9c0,5.8,1.1,10.8,3.2,15c2.1,4.2,5.1,7.3,9,9.5
			c3.8,2.2,8.3,3.3,13.5,3.3c3.4,0,6.6-0.5,9.3-1.5c2.8-1,5.2-2.4,7.3-4.3c2-1.9,3.6-4.3,4.6-7.1l22.1,2.5c-1.4,5.8-4,10.9-7.9,15.3
			c-3.9,4.3-8.9,7.7-14.9,10.1C751.2,293.6,744.3,294.8,736.5,294.8z"/>
		<path d="M801.1,292.8V192.5H824v16.7h1c1.8-5.8,5-10.3,9.4-13.4c4.5-3.2,9.6-4.7,15.3-4.7c1.3,0,2.8,0.1,4.4,0.2
			c1.6,0.1,3,0.3,4.1,0.5v21.8c-1-0.3-2.6-0.7-4.7-0.9c-2.2-0.3-4.2-0.4-6.2-0.4c-4.3,0-8.2,0.9-11.6,2.8c-3.4,1.9-6.1,4.4-8.1,7.7
			c-2,3.3-2.9,7-2.9,11.3v59H801.1z"/>
		<path d="M948.2,292.8v18.9h-86.4v-18.9H948.2z"/>
		<path d="M1049.8,192.5l-35.7,100.4H988l-35.7-100.4h25.2l23.1,74.6h1l23.1-74.6H1049.8z"/>
		<path d="M1120.3,159v133.8h-24.2V182.6h-0.8l-31.3,20v-22.2l33.3-21.4H1120.3z"/>
	</g>
</g>
<g>
	<g>
		<path d="M405.6,605.3V471.5h23.7v133.8H405.6z M427.1,573.8l-0.1-28.6h3.8l36.1-40.3h27.6l-44.4,49.4h-4.9L427.1,573.8z
			 M468.6,605.3l-32.7-45.7l15.9-16.7l45,62.3H468.6z"/>
		<path d="M554,607.3c-9.8,0-18.3-2.2-25.5-6.5s-12.8-10.3-16.7-18.1c-3.9-7.8-5.9-16.8-5.9-27.2c0-10.4,2-19.4,5.9-27.2
			c3.9-7.8,9.5-13.9,16.7-18.2s15.7-6.5,25.5-6.5c9.8,0,18.3,2.2,25.5,6.5s12.8,10.4,16.7,18.2c3.9,7.8,5.9,16.9,5.9,27.2
			c0,10.4-2,19.4-5.9,27.2c-3.9,7.8-9.5,13.8-16.7,18.1S563.8,607.3,554,607.3z M554.2,588.4c5.3,0,9.8-1.5,13.3-4.4
			c3.6-2.9,6.2-6.9,8-11.9c1.8-5,2.6-10.5,2.6-16.6c0-6.1-0.9-11.7-2.6-16.7c-1.8-5-4.4-9-8-11.9c-3.6-3-8-4.4-13.3-4.4
			c-5.4,0-10,1.5-13.6,4.4c-3.6,3-6.3,6.9-8,11.9c-1.8,5-2.6,10.6-2.6,16.7c0,6.1,0.9,11.6,2.6,16.6c1.8,5,4.4,8.9,8,11.9
			C544.2,586.9,548.7,588.4,554.2,588.4z"/>
		<path d="M672.2,505v18.3h-57.7V505H672.2z M628.8,480.9h23.7v94.2c0,3.2,0.5,5.6,1.5,7.3c1,1.7,2.3,2.8,3.9,3.4
			c1.6,0.6,3.4,0.9,5.4,0.9c1.5,0,2.8-0.1,4.1-0.3c1.2-0.2,2.2-0.4,2.8-0.6l4,18.5c-1.3,0.4-3.1,0.9-5.4,1.4
			c-2.3,0.5-5.2,0.8-8.5,0.9c-5.9,0.2-11.3-0.7-16-2.7c-4.7-2-8.5-5.1-11.3-9.2c-2.8-4.2-4.1-9.4-4.1-15.7V480.9z"/>
		<path d="M736.5,607.3c-10.1,0-18.7-2.1-26-6.3c-7.3-4.2-12.9-10.2-16.8-17.9c-3.9-7.7-5.9-16.8-5.9-27.3c0-10.3,2-19.4,5.9-27.2
			c3.9-7.8,9.5-13.9,16.6-18.3c7.1-4.4,15.4-6.6,25-6.6c6.2,0,12,1,17.5,3c5.5,2,10.4,5,14.6,9.2c4.2,4.1,7.6,9.4,10,15.8
			c2.4,6.4,3.7,14,3.7,22.8v7.3h-82.3v-15.9h59.6c0-4.5-1-8.6-2.9-12.1c-1.9-3.5-4.6-6.3-8-8.4c-3.4-2-7.4-3.1-11.9-3.1
			c-4.8,0-9.1,1.2-12.7,3.5c-3.7,2.3-6.5,5.4-8.5,9.1c-2,3.8-3.1,7.9-3.1,12.4V561c0,5.8,1.1,10.8,3.2,15c2.1,4.2,5.1,7.3,9,9.5
			c3.8,2.2,8.3,3.3,13.5,3.3c3.4,0,6.6-0.5,9.3-1.5c2.8-1,5.2-2.4,7.3-4.3c2-1.9,3.6-4.3,4.6-7.1l22.1,2.5c-1.4,5.8-4,10.9-7.9,15.3
			c-3.9,4.3-8.9,7.7-14.9,10.1C751.2,606.1,744.3,607.3,736.5,607.3z"/>
		<path d="M801.1,605.3V505H824v16.7h1c1.8-5.8,5-10.3,9.4-13.4c4.5-3.2,9.6-4.7,15.3-4.7c1.3,0,2.8,0.1,4.4,0.2
			c1.6,0.1,3,0.3,4.1,0.5V526c-1-0.3-2.6-0.7-4.7-0.9c-2.2-0.3-4.2-0.4-6.2-0.4c-4.3,0-8.2,0.9-11.6,2.8c-3.4,1.9-6.1,4.4-8.1,7.7
			c-2,3.3-2.9,7-2.9,11.3v59H801.1z"/>
		<path d="M948.2,605.3v18.9h-86.4v-18.9H948.2z"/>
		<path d="M1049.8,505l-35.7,100.4H988L952.2,505h25.2l23.1,74.6h1l23.1-74.6H1049.8z"/>
		<path d="M1065.9,605.3v-17.5l46.5-45.5c4.4-4.5,8.1-8.5,11.1-12c3-3.5,5.2-6.9,6.7-10.1c1.5-3.3,2.2-6.8,2.2-10.5
			c0-4.2-1-7.9-2.9-10.9c-1.9-3-4.6-5.4-7.9-7c-3.4-1.7-7.2-2.5-11.4-2.5c-4.4,0-8.3,0.9-11.6,2.7c-3.3,1.8-5.9,4.4-7.7,7.7
			c-1.8,3.3-2.7,7.3-2.7,11.8h-23.1c0-8.5,1.9-15.9,5.8-22.2c3.9-6.3,9.2-11.1,16-14.6c6.8-3.4,14.6-5.2,23.5-5.2
			c9,0,16.9,1.7,23.7,5c6.8,3.4,12.1,8,15.8,13.8c3.8,5.8,5.7,12.5,5.7,20c0,5-1,9.9-2.9,14.8c-1.9,4.8-5.3,10.2-10.1,16.1
			c-4.8,5.9-11.6,13-20.2,21.4l-23.1,23.5v0.9h58.3v20.3H1065.9z"/>
	</g>
</g>
<g>
	<g>
		<path d="M405.6,914.8V781h23.7v133.8H405.6z M427.1,883.3l-0.1-28.6h3.8l36.1-40.3h27.6l-44.4,49.4h-4.9L427.1,883.3z
			 M468.6,914.8l-32.7-45.7l15.9-16.7l45,62.3H468.6z"/>
		<path d="M554,916.7c-9.8,0-18.3-2.2-25.5-6.5s-12.8-10.3-16.7-18.1c-3.9-7.8-5.9-16.8-5.9-27.2s2-19.4,5.9-27.2
			c3.9-7.8,9.5-13.9,16.7-18.2s15.7-6.5,25.5-6.5c9.8,0,18.3,2.2,25.5,6.5s12.8,10.4,16.7,18.2c3.9,7.8,5.9,16.9,5.9,27.2
			s-2,19.4-5.9,27.2c-3.9,7.8-9.5,13.8-16.7,18.1S563.8,916.7,554,916.7z M554.2,897.8c5.3,0,9.8-1.5,13.3-4.4
			c3.6-2.9,6.2-6.9,8-11.9c1.8-5,2.6-10.5,2.6-16.6c0-6.1-0.9-11.7-2.6-16.7c-1.8-5-4.4-9-8-11.9c-3.6-3-8-4.4-13.3-4.4
			c-5.4,0-10,1.5-13.6,4.4c-3.6,3-6.3,6.9-8,11.9c-1.8,5-2.6,10.6-2.6,16.7c0,6.1,0.9,11.6,2.6,16.6c1.8,5,4.4,8.9,8,11.9
			C544.2,896.3,548.7,897.8,554.2,897.8z"/>
		<path d="M672.2,814.4v18.3h-57.7v-18.3H672.2z M628.8,790.4h23.7v94.2c0,3.2,0.5,5.6,1.5,7.3c1,1.7,2.3,2.8,3.9,3.4
			c1.6,0.6,3.4,0.9,5.4,0.9c1.5,0,2.8-0.1,4.1-0.3c1.2-0.2,2.2-0.4,2.8-0.6l4,18.5c-1.3,0.4-3.1,0.9-5.4,1.4
			c-2.3,0.5-5.2,0.8-8.5,0.9c-5.9,0.2-11.3-0.7-16-2.7c-4.7-2-8.5-5.1-11.3-9.2c-2.8-4.2-4.1-9.4-4.1-15.7V790.4z"/>
		<path d="M736.5,916.7c-10.1,0-18.7-2.1-26-6.3c-7.3-4.2-12.9-10.2-16.8-17.9s-5.9-16.8-5.9-27.3c0-10.3,2-19.4,5.9-27.2
			c3.9-7.8,9.5-13.9,16.6-18.3c7.1-4.4,15.4-6.6,25-6.6c6.2,0,12,1,17.5,3c5.5,2,10.4,5,14.6,9.2c4.2,4.1,7.6,9.4,10,15.8
			c2.4,6.4,3.7,14,3.7,22.8v7.3h-82.3v-15.9h59.6c0-4.5-1-8.6-2.9-12.1c-1.9-3.5-4.6-6.3-8-8.4c-3.4-2-7.4-3.1-11.9-3.1
			c-4.8,0-9.1,1.2-12.7,3.5c-3.7,2.3-6.5,5.4-8.5,9.1c-2,3.8-3.1,7.9-3.1,12.4v13.9c0,5.8,1.1,10.8,3.2,15c2.1,4.2,5.1,7.3,9,9.5
			c3.8,2.2,8.3,3.3,13.5,3.3c3.4,0,6.6-0.5,9.3-1.5c2.8-1,5.2-2.4,7.3-4.3c2-1.9,3.6-4.3,4.6-7.1l22.1,2.5c-1.4,5.8-4,10.9-7.9,15.3
			c-3.9,4.3-8.9,7.7-14.9,10.1C751.2,915.6,744.3,916.7,736.5,916.7z"/>
		<path d="M801.1,914.8V814.4H824v16.7h1c1.8-5.8,5-10.3,9.4-13.4c4.5-3.2,9.6-4.7,15.3-4.7c1.3,0,2.8,0.1,4.4,0.2
			c1.6,0.1,3,0.3,4.1,0.5v21.8c-1-0.3-2.6-0.7-4.7-0.9s-4.2-0.4-6.2-0.4c-4.3,0-8.2,0.9-11.6,2.8c-3.4,1.9-6.1,4.4-8.1,7.7
			c-2,3.3-2.9,7-2.9,11.3v59H801.1z"/>
		<path d="M948.2,914.8v18.9h-86.4v-18.9H948.2z"/>
		<path d="M1049.8,814.4l-35.7,100.4H988l-35.7-100.4h25.2l23.1,74.6h1l23.1-74.6H1049.8z"/>
		<path d="M1113.9,916.6c-9.4,0-17.8-1.6-25.1-4.8c-7.3-3.2-13.1-7.7-17.3-13.5c-4.2-5.8-6.5-12.4-6.7-19.9h24.6
			c0.2,3.6,1.4,6.8,3.6,9.4c2.2,2.7,5.1,4.8,8.7,6.2c3.6,1.5,7.7,2.2,12.2,2.2c4.8,0,9-0.8,12.7-2.5c3.7-1.7,6.6-4,8.7-7
			s3.1-6.5,3.1-10.4c0-4.1-1-7.6-3.1-10.7c-2.1-3.1-5.2-5.5-9.2-7.3c-4-1.7-8.9-2.6-14.5-2.6h-11.8v-18.7h11.8
			c4.7,0,8.7-0.8,12.3-2.4c3.5-1.6,6.3-3.9,8.3-6.8c2-2.9,3-6.3,2.9-10.2c0-3.8-0.8-7.1-2.5-9.9c-1.7-2.8-4.1-5-7.3-6.6
			c-3.1-1.6-6.8-2.4-10.9-2.4c-4.1,0-7.9,0.7-11.4,2.2c-3.5,1.5-6.3,3.6-8.4,6.3c-2.1,2.7-3.3,6-3.4,9.7h-23.3
			c0.2-7.5,2.3-14.1,6.5-19.8c4.2-5.7,9.7-10.1,16.7-13.3c7-3.2,14.8-4.8,23.5-4.8c8.9,0,16.7,1.7,23.3,5
			c6.6,3.3,11.7,7.8,15.3,13.4c3.6,5.6,5.4,11.8,5.4,18.6c0,7.5-2.2,13.9-6.6,18.9c-4.5,5.1-10.3,8.4-17.5,10v1
			c9.4,1.3,16.6,4.8,21.7,10.4c5,5.6,7.5,12.6,7.5,21c0,7.5-2.1,14.2-6.4,20.1c-4.2,5.9-10.1,10.5-17.5,13.9
			C1132,914.9,1123.5,916.6,1113.9,916.6z"/>
	</g>
</g>
<g>
	<g>
		<path d="M449.4,1223.1c-10,0-18.6-2.2-25.8-6.6c-7.2-4.4-12.7-10.5-16.5-18.3c-3.9-7.8-5.8-16.7-5.8-26.9c0-10.2,2-19.2,5.9-27
			c3.9-7.8,9.5-13.9,16.6-18.3c7.2-4.4,15.6-6.6,25.5-6.6c8.1,0,15.4,1.5,21.7,4.5c6.3,3,11.3,7.2,15.1,12.6
			c3.7,5.4,5.9,11.8,6.4,19h-22.6c-0.9-4.8-3.1-8.9-6.5-12.1c-3.4-3.2-8-4.9-13.7-4.9c-4.8,0-9.1,1.3-12.7,3.9
			c-3.7,2.6-6.5,6.3-8.5,11.1c-2,4.8-3,10.6-3,17.4c0,6.8,1,12.7,3,17.6c2,4.9,4.8,8.7,8.5,11.3c3.6,2.6,7.9,4,12.8,4
			c3.5,0,6.6-0.7,9.4-2c2.8-1.3,5.1-3.3,7-5.8c1.9-2.5,3.2-5.6,3.9-9.2h22.6c-0.6,7.1-2.7,13.4-6.3,18.9c-3.6,5.5-8.5,9.7-14.8,12.8
			C465.1,1221.6,457.8,1223.1,449.4,1223.1z"/>
		<path d="M535.5,1162.4v58.8h-23.7v-133.8H535v50.5h1.2c2.4-5.7,6-10.1,10.9-13.4c4.9-3.3,11.2-4.9,18.9-4.9c7,0,13,1.5,18.2,4.4
			c5.2,2.9,9.2,7.2,12.1,12.8c2.9,5.6,4.3,12.5,4.3,20.6v63.9h-23.7v-60.2c0-6.8-1.7-12-5.2-15.8c-3.5-3.8-8.3-5.7-14.5-5.7
			c-4.2,0-7.9,0.9-11.2,2.7c-3.3,1.8-5.9,4.4-7.7,7.8C536.4,1153.4,535.5,1157.5,535.5,1162.4z"/>
		<path d="M688.6,1179v-58.2h23.7v100.4h-22.9v-17.8h-1c-2.3,5.6-6,10.2-11.1,13.8c-5.2,3.6-11.5,5.4-19,5.4
			c-6.6,0-12.4-1.5-17.4-4.4s-9-7.2-11.8-12.9c-2.8-5.6-4.2-12.5-4.2-20.5v-63.9h23.7v60.2c0,6.4,1.7,11.4,5.2,15.2
			c3.5,3.7,8.1,5.6,13.7,5.6c3.5,0,6.9-0.8,10.1-2.5c3.3-1.7,6-4.2,8.1-7.6C687.5,1188.3,688.6,1184.1,688.6,1179z"/>
		<path d="M736.5,1221.2v-133.8h23.7v133.8H736.5z M758.1,1189.7l-0.1-28.6h3.8l36.1-40.3h27.6l-44.4,49.4h-4.9L758.1,1189.7z
			 M799.5,1221.2l-32.7-45.7l15.9-16.7l45,62.3H799.5z"/>
	</g>
</g>
<g>
	<g>
		<path class="st4" d="M3905.9,291.7c-10.3,0-19.1-2.8-26.5-8.2c-7.3-5.4-12.9-13.3-16.8-23.6s-5.8-22.8-5.8-37.3
			c0-14.5,1.9-26.9,5.8-37.2c3.9-10.3,9.5-18.1,16.9-23.5c7.3-5.4,16.1-8.1,26.4-8.1c10.2,0,19,2.7,26.3,8.1
			c7.3,5.4,12.9,13.3,16.8,23.5c3.9,10.3,5.8,22.6,5.8,37.1c0,14.6-1.9,27-5.8,37.3c-3.9,10.3-9.5,18.2-16.8,23.6
			C3925,289,3916.2,291.7,3905.9,291.7z M3905.9,274.3c9.1,0,16.1-4.4,21.3-13.3c5.1-8.8,7.7-21.6,7.7-38.4
			c0-11.1-1.2-20.5-3.5-28.2c-2.3-7.7-5.7-13.5-10-17.5c-4.3-4-9.5-6-15.5-6c-9,0-16.1,4.4-21.2,13.3c-5.1,8.9-7.7,21.7-7.8,38.4
			c0,11.2,1.2,20.6,3.5,28.3c2.3,7.7,5.7,13.5,10,17.4C3894.7,272.3,3899.9,274.3,3905.9,274.3z"/>
		<path class="st4" d="M3975.4,263.3V247l57.8-91.3h12.9v24h-8.2l-41.4,65.5v1h79.3v17.1H3975.4z M4038.8,289.5v-31.1l0.1-7.4v-95.3
			h19.1v133.8H4038.8z"/>
		<path class="st4" d="M4111.7,290.7c-3.6,0-6.6-1.3-9.2-3.8c-2.6-2.5-3.9-5.6-3.9-9.2c0-3.6,1.3-6.6,3.9-9.2
			c2.6-2.5,5.6-3.8,9.2-3.8c3.6,0,6.6,1.3,9.2,3.8c2.6,2.5,3.9,5.6,3.9,9.2c0,2.4-0.6,4.6-1.8,6.6c-1.2,2-2.8,3.6-4.7,4.7
			C4116.3,290.1,4114.1,290.7,4111.7,290.7z"/>
		<path class="st4" d="M4197.2,291.7c-10.3,0-19.1-2.8-26.5-8.2c-7.3-5.4-12.9-13.3-16.8-23.6s-5.8-22.8-5.8-37.3
			c0-14.5,1.9-26.9,5.8-37.2c3.9-10.3,9.5-18.1,16.9-23.5c7.3-5.4,16.1-8.1,26.4-8.1c10.2,0,19,2.7,26.3,8.1
			c7.3,5.4,12.9,13.3,16.8,23.5c3.9,10.3,5.8,22.6,5.8,37.1c0,14.6-1.9,27-5.8,37.3c-3.9,10.3-9.5,18.2-16.8,23.6
			C4216.3,289,4207.5,291.7,4197.2,291.7z M4197.2,274.3c9.1,0,16.1-4.4,21.3-13.3c5.1-8.8,7.7-21.6,7.7-38.4
			c0-11.1-1.2-20.5-3.5-28.2c-2.3-7.7-5.7-13.5-10-17.5c-4.3-4-9.5-6-15.5-6c-9,0-16.1,4.4-21.2,13.3c-5.1,8.9-7.7,21.7-7.8,38.4
			c0,11.2,1.2,20.6,3.5,28.3c2.3,7.7,5.7,13.5,10,17.4C4186,272.3,4191.2,274.3,4197.2,274.3z"/>
		<path class="st4" d="M4320.2,155.7v133.8H4300V175.9h-0.8l-32,20.9v-19.3l33.4-21.8H4320.2z"/>
		<path class="st4" d="M4369.6,290.7c-3.6,0-6.6-1.3-9.2-3.8c-2.6-2.5-3.9-5.6-3.9-9.2c0-3.6,1.3-6.6,3.9-9.2
			c2.6-2.5,5.6-3.8,9.2-3.8c3.6,0,6.6,1.3,9.2,3.8c2.6,2.5,3.9,5.6,3.9,9.2c0,2.4-0.6,4.6-1.8,6.6c-1.2,2-2.8,3.6-4.7,4.7
			C4374.2,290.1,4372,290.7,4369.6,290.7z"/>
		<path class="st4" d="M4408.5,289.5v-14.6l45.3-46.9c4.8-5.1,8.8-9.6,12-13.4c3.2-3.9,5.5-7.5,7.1-11c1.6-3.5,2.4-7.2,2.4-11.1
			c0-4.4-1-8.3-3.1-11.5c-2.1-3.2-4.9-5.8-8.6-7.5c-3.6-1.8-7.7-2.6-12.2-2.6c-4.8,0-9,1-12.5,2.9c-3.6,2-6.3,4.7-8.2,8.3
			c-1.9,3.6-2.9,7.8-2.9,12.5h-19.3c0-8.1,1.9-15.3,5.6-21.4c3.7-6.1,8.9-10.8,15.4-14.2c6.5-3.4,14-5.1,22.3-5.1
			c8.4,0,15.8,1.7,22.2,5c6.4,3.3,11.4,7.9,15.1,13.6c3.6,5.7,5.4,12.2,5.4,19.4c0,5-0.9,9.8-2.8,14.6c-1.9,4.7-5.1,10-9.6,15.8
			c-4.6,5.8-10.9,12.9-19.1,21.1l-26.6,27.8v1h60.2v17.3H4408.5z"/>
		<path class="st4" d="M4568,291.7c-10.3,0-19.1-2.8-26.5-8.2c-7.3-5.4-12.9-13.3-16.8-23.6s-5.8-22.8-5.8-37.3
			c0-14.5,1.9-26.9,5.8-37.2c3.9-10.3,9.5-18.1,16.9-23.5c7.3-5.4,16.1-8.1,26.4-8.1c10.2,0,19,2.7,26.3,8.1
			c7.3,5.4,12.9,13.3,16.8,23.5c3.9,10.3,5.8,22.6,5.8,37.1c0,14.6-1.9,27-5.8,37.3c-3.9,10.3-9.5,18.2-16.8,23.6
			C4587,289,4578.2,291.7,4568,291.7z M4568,274.3c9.1,0,16.1-4.4,21.3-13.3c5.1-8.8,7.7-21.6,7.7-38.4c0-11.1-1.2-20.5-3.5-28.2
			c-2.3-7.7-5.7-13.5-10-17.5c-4.3-4-9.5-6-15.5-6c-9,0-16.1,4.4-21.2,13.3c-5.1,8.9-7.7,21.7-7.8,38.4c0,11.2,1.2,20.6,3.5,28.3
			c2.3,7.7,5.7,13.5,10,17.4C4556.7,272.3,4561.9,274.3,4568,274.3z"/>
		<path class="st4" d="M4691,155.7v133.8h-20.3V175.9h-0.8l-32,20.9v-19.3l33.4-21.8H4691z"/>
		<path class="st4" d="M4771.7,153.5c6,0,11.8,1.1,17.6,3.3c5.8,2.1,11,5.6,15.7,10.5c4.7,4.9,8.4,11.4,11.2,19.6
			c2.8,8.2,4.2,18.5,4.3,30.8c0,11.7-1.2,22.1-3.6,31.3c-2.3,9.1-5.7,16.8-10.1,23.1c-4.4,6.3-9.7,11-15.9,14.3
			c-6.2,3.3-13.2,4.9-21,4.9c-8,0-15.1-1.6-21.2-4.7c-6.2-3.1-11.2-7.5-15.1-13c-3.9-5.6-6.3-11.9-7.3-19.2h19.9
			c1.3,5.8,4,10.4,8,14c4,3.6,9.2,5.3,15.6,5.3c9.8,0,17.4-4.3,22.9-12.8c5.5-8.6,8.3-20.5,8.3-35.9h-1c-2.3,3.7-5.1,7-8.5,9.7
			c-3.4,2.7-7.2,4.8-11.3,6.3c-4.2,1.5-8.6,2.2-13.4,2.2c-7.7,0-14.7-1.9-21.1-5.7c-6.3-3.8-11.4-9-15.1-15.6
			c-3.7-6.6-5.6-14.2-5.6-22.7c0-8.5,1.9-16.3,5.8-23.2c3.9-6.9,9.3-12.4,16.2-16.4C4754.2,155.5,4762.3,153.5,4771.7,153.5z
			 M4771.8,170.5c-5.1,0-9.7,1.3-13.8,3.8c-4.1,2.5-7.3,5.9-9.6,10.2c-2.4,4.3-3.5,9-3.5,14.3c0,5.2,1.1,9.9,3.4,14.1
			c2.3,4.2,5.4,7.6,9.4,10c4,2.5,8.5,3.7,13.7,3.7c3.8,0,7.4-0.7,10.7-2.2c3.3-1.5,6.2-3.5,8.7-6.2c2.5-2.6,4.4-5.6,5.8-9
			c1.4-3.4,2.1-6.9,2.1-10.6c0-5-1.2-9.6-3.5-13.9c-2.3-4.3-5.5-7.7-9.6-10.3C4781.6,171.8,4776.9,170.5,4771.8,170.5z"/>
		<path class="st4" d="M4892.9,289.5v-14.6l45.3-46.9c4.8-5.1,8.8-9.6,12-13.4c3.2-3.9,5.5-7.5,7.1-11c1.6-3.5,2.4-7.2,2.4-11.1
			c0-4.4-1-8.3-3.1-11.5c-2.1-3.2-4.9-5.8-8.6-7.5c-3.6-1.8-7.7-2.6-12.2-2.6c-4.8,0-9,1-12.5,2.9c-3.6,2-6.3,4.7-8.2,8.3
			c-1.9,3.6-2.9,7.8-2.9,12.5h-19.3c0-8.1,1.9-15.3,5.6-21.4c3.7-6.1,8.9-10.8,15.4-14.2c6.5-3.4,14-5.1,22.3-5.1
			c8.4,0,15.8,1.7,22.2,5c6.4,3.3,11.4,7.9,15.1,13.6c3.6,5.7,5.4,12.2,5.4,19.4c0,5-0.9,9.8-2.8,14.6c-1.9,4.7-5.1,10-9.6,15.8
			c-4.6,5.8-10.9,12.9-19.1,21.1l-26.6,27.8v1h60.2v17.3H4892.9z"/>
		<path class="st4" d="M5052.3,291.7c-10.3,0-19.1-2.8-26.5-8.2c-7.3-5.4-12.9-13.3-16.8-23.6s-5.8-22.8-5.8-37.3
			c0-14.5,1.9-26.9,5.8-37.2c3.9-10.3,9.5-18.1,16.9-23.5c7.3-5.4,16.1-8.1,26.4-8.1c10.2,0,19,2.7,26.3,8.1
			c7.3,5.4,12.9,13.3,16.8,23.5c3.9,10.3,5.8,22.6,5.8,37.1c0,14.6-1.9,27-5.8,37.3c-3.9,10.3-9.5,18.2-16.8,23.6
			C5071.4,289,5062.6,291.7,5052.3,291.7z M5052.3,274.3c9.1,0,16.1-4.4,21.3-13.3c5.1-8.8,7.7-21.6,7.7-38.4
			c0-11.1-1.2-20.5-3.5-28.2c-2.3-7.7-5.7-13.5-10-17.5c-4.3-4-9.5-6-15.5-6c-9,0-16.1,4.4-21.2,13.3c-5.1,8.9-7.7,21.7-7.8,38.4
			c0,11.2,1.2,20.6,3.5,28.3c2.3,7.7,5.7,13.5,10,17.4C5041.1,272.3,5046.3,274.3,5052.3,274.3z"/>
		<path class="st4" d="M5137.7,217.7c-3.6,0-6.6-1.3-9.2-3.8c-2.6-2.5-3.9-5.6-3.9-9.2c0-3.6,1.3-6.6,3.9-9.2
			c2.6-2.5,5.6-3.8,9.2-3.8c3.6,0,6.6,1.3,9.2,3.8c2.6,2.5,3.9,5.6,3.9,9.2c0,2.4-0.6,4.6-1.8,6.6c-1.2,2-2.8,3.6-4.7,4.7
			C5142.3,217.1,5140.1,217.7,5137.7,217.7z M5137.7,290.7c-3.6,0-6.6-1.3-9.2-3.8c-2.6-2.5-3.9-5.6-3.9-9.2c0-3.6,1.3-6.6,3.9-9.2
			c2.6-2.5,5.6-3.8,9.2-3.8c3.6,0,6.6,1.3,9.2,3.8c2.6,2.5,3.9,5.6,3.9,9.2c0,2.4-0.6,4.6-1.8,6.6c-1.2,2-2.8,3.6-4.7,4.7
			C5142.3,290.1,5140.1,290.7,5137.7,290.7z"/>
		<path class="st4" d="M5227.4,155.7v133.8h-20.3V175.9h-0.8l-32,20.9v-19.3l33.4-21.8H5227.4z"/>
		<path class="st4" d="M5310.2,291.7c-10.3,0-19.1-2.8-26.5-8.2c-7.3-5.4-12.9-13.3-16.8-23.6s-5.8-22.8-5.8-37.3
			c0-14.5,1.9-26.9,5.8-37.2c3.9-10.3,9.5-18.1,16.9-23.5c7.3-5.4,16.1-8.1,26.4-8.1c10.2,0,19,2.7,26.3,8.1
			c7.3,5.4,12.9,13.3,16.8,23.5c3.9,10.3,5.8,22.6,5.8,37.1c0,14.6-1.9,27-5.8,37.3c-3.9,10.3-9.5,18.2-16.8,23.6
			C5329.3,289,5320.5,291.7,5310.2,291.7z M5310.2,274.3c9.1,0,16.1-4.4,21.3-13.3c5.1-8.8,7.7-21.6,7.7-38.4
			c0-11.1-1.2-20.5-3.5-28.2c-2.3-7.7-5.7-13.5-10-17.5c-4.3-4-9.5-6-15.5-6c-9,0-16.1,4.4-21.2,13.3c-5.1,8.9-7.7,21.7-7.8,38.4
			c0,11.2,1.2,20.6,3.5,28.3c2.3,7.7,5.7,13.5,10,17.4C5299,272.3,5304.2,274.3,5310.2,274.3z"/>
	</g>
</g>
<g>
	<g>
		<path class="st4" d="M3910.1,468.9v133.8h-20.3V489.2h-0.8l-32,20.9v-19.3l33.4-21.8H3910.1z"/>
		<path class="st4" d="M3992.9,604.6c-9,0-17-1.5-24-4.6c-7-3.1-12.6-7.4-16.7-12.9c-4.1-5.5-6.3-11.9-6.6-19.2h20.5
			c0.3,4,1.6,7.4,4,10.3c2.4,2.9,5.6,5.1,9.5,6.7c3.9,1.6,8.3,2.4,13.1,2.4c5.3,0,9.9-0.9,14-2.7s7.3-4.4,9.6-7.7
			c2.3-3.3,3.5-7.1,3.5-11.4c0-4.5-1.1-8.4-3.4-11.9c-2.3-3.4-5.6-6.1-10-8.1c-4.4-2-9.7-2.9-15.8-2.9h-11.3V526h11.3
			c5,0,9.3-0.9,13.1-2.7c3.8-1.8,6.7-4.3,8.9-7.5c2.1-3.2,3.2-7,3.2-11.3c0-4.1-0.9-7.7-2.8-10.8c-1.9-3.1-4.5-5.5-7.8-7.2
			c-3.4-1.7-7.4-2.6-11.9-2.6c-4.4,0-8.4,0.8-12.2,2.4c-3.8,1.6-6.8,3.9-9.2,6.8c-2.4,2.9-3.6,6.5-3.8,10.6h-19.5
			c0.2-7.2,2.4-13.6,6.4-19.1c4.1-5.5,9.5-9.8,16.2-12.9c6.7-3.1,14.2-4.6,22.3-4.6c8.6,0,16,1.7,22.2,5c6.3,3.3,11.1,7.8,14.5,13.3
			c3.4,5.5,5.1,11.6,5.1,18.2c0,7.5-2,13.9-6.2,19.1c-4.2,5.2-9.8,8.7-16.8,10.5v1c8.9,1.4,15.8,4.9,20.7,10.6
			c4.9,5.7,7.3,12.8,7.3,21.2c0,7.4-2,14-6.1,19.8c-4.1,5.8-9.7,10.4-16.8,13.8C4010.2,602.9,4002,604.6,3992.9,604.6z"/>
		<path class="st4" d="M4078,604c-3.6,0-6.6-1.3-9.2-3.8c-2.6-2.5-3.9-5.6-3.9-9.2c0-3.6,1.3-6.6,3.9-9.2c2.6-2.5,5.6-3.8,9.2-3.8
			c3.6,0,6.6,1.3,9.2,3.8c2.6,2.5,3.9,5.6,3.9,9.2c0,2.4-0.6,4.6-1.8,6.6c-1.2,2-2.8,3.6-4.7,4.7C4082.5,603.4,4080.4,604,4078,604z
			"/>
		<path class="st4" d="M4163.5,605c-10.3,0-19.1-2.8-26.5-8.2c-7.3-5.4-12.9-13.3-16.8-23.6s-5.8-22.8-5.8-37.3
			c0-14.5,1.9-26.9,5.8-37.2c3.9-10.3,9.5-18.1,16.9-23.5c7.3-5.4,16.1-8.1,26.4-8.1c10.2,0,19,2.7,26.3,8.1
			c7.3,5.4,12.9,13.3,16.8,23.5c3.9,10.3,5.8,22.6,5.8,37.1c0,14.6-1.9,27-5.8,37.3c-3.9,10.3-9.5,18.2-16.8,23.6
			C4182.6,602.2,4173.8,605,4163.5,605z M4163.5,587.5c9.1,0,16.1-4.4,21.3-13.3c5.1-8.8,7.7-21.6,7.7-38.4
			c0-11.1-1.2-20.5-3.5-28.2c-2.3-7.7-5.7-13.5-10-17.5c-4.3-4-9.5-6-15.5-6c-9,0-16.1,4.4-21.2,13.3c-5.1,8.9-7.7,21.7-7.8,38.4
			c0,11.2,1.2,20.6,3.5,28.3c2.3,7.7,5.7,13.5,10,17.4C4152.3,585.5,4157.4,587.5,4163.5,587.5z"/>
		<path class="st4" d="M4281,604.6c-9.4,0-17.6-1.6-24.8-4.8c-7.2-3.2-12.8-7.7-16.8-13.3c-4.1-5.7-6.1-12.1-6-19.3
			c0-5.7,1.1-10.9,3.5-15.6c2.4-4.8,5.6-8.8,9.7-12c4.1-3.2,8.7-5.2,13.7-6.1v-0.8c-6.7-1.6-12-5.2-16-10.7c-4-5.5-6-11.9-5.9-19.1
			c0-6.8,1.8-12.9,5.5-18.3c3.7-5.4,8.7-9.6,15.2-12.7c6.4-3.1,13.8-4.6,22-4.6c8.1,0,15.4,1.6,21.9,4.7c6.4,3.1,11.5,7.4,15.2,12.7
			c3.7,5.4,5.6,11.5,5.6,18.3c0,7.2-2.1,13.5-6.1,19.1c-4.1,5.5-9.3,9.1-15.8,10.7v0.8c5,0.9,9.5,2.9,13.6,6.1c4,3.2,7.3,7.2,9.7,12
			c2.4,4.8,3.6,10,3.7,15.6c0,7.2-2.1,13.7-6.1,19.3c-4.1,5.7-9.7,10.1-16.8,13.3C4298.5,602.9,4290.3,604.6,4281,604.6z M4281,588
			c5.5,0,10.3-0.9,14.4-2.8c4.1-1.9,7.2-4.4,9.4-7.8c2.2-3.3,3.4-7.2,3.4-11.7c0-4.7-1.3-8.8-3.6-12.3c-2.4-3.6-5.6-6.4-9.6-8.4
			c-4.1-2-8.7-3.1-13.9-3.1c-5.3,0-10,1-14,3.1c-4.1,2-7.3,4.9-9.7,8.4c-2.4,3.6-3.5,7.7-3.5,12.3c0,4.5,1,8.4,3.2,11.7
			c2.2,3.3,5.3,5.9,9.4,7.8C4270.6,587.1,4275.4,588,4281,588z M4281,525.8c4.4,0,8.4-0.9,11.8-2.7c3.4-1.8,6.2-4.3,8.1-7.4
			c2-3.2,3-6.9,3-11.2c0-4.2-1-7.8-3-11c-1.9-3.1-4.6-5.6-8.1-7.3c-3.4-1.7-7.4-2.6-12-2.6c-4.6,0-8.7,0.9-12.1,2.6
			c-3.5,1.7-6.2,4.1-8.1,7.3s-2.9,6.8-2.8,11c0,4.3,0.9,8,2.9,11.2c2,3.2,4.7,5.7,8.1,7.4C4272.4,524.9,4276.4,525.8,4281,525.8z"/>
		<path class="st4" d="M4365.1,604c-3.6,0-6.6-1.3-9.2-3.8c-2.6-2.5-3.9-5.6-3.9-9.2c0-3.6,1.3-6.6,3.9-9.2c2.6-2.5,5.6-3.8,9.2-3.8
			c3.6,0,6.6,1.3,9.2,3.8c2.6,2.5,3.9,5.6,3.9,9.2c0,2.4-0.6,4.6-1.8,6.6c-1.2,2-2.8,3.6-4.7,4.7
			C4369.6,603.4,4367.5,604,4365.1,604z"/>
		<path class="st4" d="M4404,602.7v-14.6l45.3-46.9c4.8-5.1,8.8-9.6,12-13.4c3.2-3.9,5.5-7.5,7.1-11c1.6-3.5,2.4-7.2,2.4-11.1
			c0-4.4-1-8.3-3.1-11.5c-2.1-3.2-4.9-5.8-8.6-7.5c-3.6-1.8-7.7-2.6-12.2-2.6c-4.8,0-9,1-12.5,2.9c-3.6,2-6.3,4.7-8.2,8.3
			c-1.9,3.6-2.9,7.8-2.9,12.5h-19.3c0-8.1,1.9-15.3,5.6-21.4c3.7-6.1,8.9-10.8,15.4-14.2c6.5-3.4,14-5.1,22.3-5.1
			c8.4,0,15.8,1.7,22.2,5c6.4,3.3,11.4,7.9,15.1,13.6c3.6,5.7,5.4,12.2,5.4,19.4c0,5-0.9,9.8-2.8,14.6c-1.9,4.7-5.1,10-9.6,15.8
			c-4.6,5.8-10.9,12.9-19.1,21.1l-26.6,27.8v1h60.2v17.3H4404z"/>
		<path class="st4" d="M4563.4,605c-10.3,0-19.1-2.8-26.5-8.2c-7.3-5.4-12.9-13.3-16.8-23.6s-5.8-22.8-5.8-37.3
			c0-14.5,1.9-26.9,5.8-37.2c3.9-10.3,9.5-18.1,16.9-23.5c7.3-5.4,16.1-8.1,26.4-8.1c10.2,0,19,2.7,26.3,8.1
			c7.3,5.4,12.9,13.3,16.8,23.5c3.9,10.3,5.8,22.6,5.8,37.1c0,14.6-1.9,27-5.8,37.3c-3.9,10.3-9.5,18.2-16.8,23.6
			C4582.5,602.2,4573.7,605,4563.4,605z M4563.4,587.5c9.1,0,16.1-4.4,21.3-13.3c5.1-8.8,7.7-21.6,7.7-38.4
			c0-11.1-1.2-20.5-3.5-28.2c-2.3-7.7-5.7-13.5-10-17.5c-4.3-4-9.5-6-15.5-6c-9,0-16.1,4.4-21.2,13.3c-5.1,8.9-7.7,21.7-7.8,38.4
			c0,11.2,1.2,20.6,3.5,28.3c2.3,7.7,5.7,13.5,10,17.4C4552.2,585.5,4557.4,587.5,4563.4,587.5z"/>
		<path class="st4" d="M4686.5,468.9v133.8h-20.3V489.2h-0.8l-32,20.9v-19.3l33.4-21.8H4686.5z"/>
		<path class="st4" d="M4767.2,466.8c6,0,11.8,1.1,17.6,3.3c5.8,2.1,11,5.6,15.7,10.5c4.7,4.9,8.4,11.4,11.2,19.6
			c2.8,8.2,4.2,18.5,4.3,30.8c0,11.7-1.2,22.1-3.6,31.3c-2.3,9.1-5.7,16.8-10.1,23.1c-4.4,6.3-9.7,11-15.9,14.3
			c-6.2,3.3-13.2,4.9-21,4.9c-8,0-15.1-1.6-21.2-4.7c-6.2-3.1-11.2-7.5-15.1-13c-3.9-5.6-6.3-11.9-7.3-19.2h19.9
			c1.3,5.8,4,10.4,8,14c4,3.6,9.2,5.3,15.6,5.3c9.8,0,17.4-4.3,22.9-12.8c5.5-8.6,8.3-20.5,8.3-35.9h-1c-2.3,3.7-5.1,7-8.5,9.7
			c-3.4,2.7-7.2,4.8-11.3,6.3c-4.2,1.5-8.6,2.2-13.4,2.2c-7.7,0-14.7-1.9-21.1-5.7c-6.3-3.8-11.4-9-15.1-15.6
			c-3.7-6.6-5.6-14.2-5.6-22.7c0-8.5,1.9-16.3,5.8-23.2c3.9-6.9,9.3-12.4,16.2-16.4C4749.7,468.7,4757.8,466.7,4767.2,466.8z
			 M4767.2,483.7c-5.1,0-9.7,1.3-13.8,3.8c-4.1,2.5-7.3,5.9-9.6,10.2c-2.4,4.3-3.5,9-3.5,14.3c0,5.2,1.1,9.9,3.4,14.1
			c2.3,4.2,5.4,7.6,9.4,10c4,2.5,8.5,3.7,13.7,3.7c3.8,0,7.4-0.7,10.7-2.2c3.3-1.5,6.2-3.5,8.7-6.2c2.5-2.6,4.4-5.6,5.8-9
			c1.4-3.4,2.1-6.9,2.1-10.6c0-5-1.2-9.6-3.5-13.9c-2.3-4.3-5.5-7.7-9.6-10.3C4777,485,4772.4,483.7,4767.2,483.7z"/>
		<path class="st4" d="M4939.1,468.9v133.8h-20.3V489.2h-0.8l-32,20.9v-19.3l33.4-21.8H4939.1z"/>
		<path class="st4" d="M4988.5,530.9c-3.6,0-6.6-1.3-9.2-3.8c-2.6-2.5-3.9-5.6-3.9-9.2c0-3.6,1.3-6.6,3.9-9.2
			c2.6-2.5,5.6-3.8,9.2-3.8c3.6,0,6.6,1.3,9.2,3.8c2.6,2.5,3.9,5.6,3.9,9.2c0,2.4-0.6,4.6-1.8,6.6c-1.2,2-2.8,3.6-4.7,4.7
			C4993.1,530.3,4990.9,530.9,4988.5,530.9z M4988.5,604c-3.6,0-6.6-1.3-9.2-3.8c-2.6-2.5-3.9-5.6-3.9-9.2c0-3.6,1.3-6.6,3.9-9.2
			c2.6-2.5,5.6-3.8,9.2-3.8c3.6,0,6.6,1.3,9.2,3.8c2.6,2.5,3.9,5.6,3.9,9.2c0,2.4-0.6,4.6-1.8,6.6c-1.2,2-2.8,3.6-4.7,4.7
			C4993.1,603.4,4990.9,604,4988.5,604z"/>
		<path class="st4" d="M5074,605c-10.3,0-19.1-2.8-26.5-8.2c-7.3-5.4-12.9-13.3-16.8-23.6s-5.8-22.8-5.8-37.3
			c0-14.5,1.9-26.9,5.8-37.2c3.9-10.3,9.5-18.1,16.9-23.5c7.3-5.4,16.1-8.1,26.4-8.1c10.2,0,19,2.7,26.3,8.1
			c7.3,5.4,12.9,13.3,16.8,23.5c3.9,10.3,5.8,22.6,5.8,37.1c0,14.6-1.9,27-5.8,37.3c-3.9,10.3-9.5,18.2-16.8,23.6
			C5093.1,602.2,5084.3,605,5074,605z M5074,587.5c9.1,0,16.1-4.4,21.3-13.3c5.1-8.8,7.7-21.6,7.7-38.4c0-11.1-1.2-20.5-3.5-28.2
			c-2.3-7.7-5.7-13.5-10-17.5c-4.3-4-9.5-6-15.5-6c-9,0-16.1,4.4-21.2,13.3c-5.1,8.9-7.7,21.7-7.8,38.4c0,11.2,1.2,20.6,3.5,28.3
			c2.3,7.7,5.7,13.5,10,17.4C5062.8,585.5,5068,587.5,5074,587.5z"/>
		<path class="st4" d="M5192.9,604.6c-9,0-17-1.5-24-4.6c-7-3.1-12.6-7.4-16.7-12.9c-4.1-5.5-6.3-11.9-6.6-19.2h20.5
			c0.3,4,1.6,7.4,4,10.3c2.4,2.9,5.6,5.1,9.5,6.7c3.9,1.6,8.3,2.4,13.1,2.4c5.3,0,9.9-0.9,14-2.7s7.3-4.4,9.6-7.7
			c2.3-3.3,3.5-7.1,3.5-11.4c0-4.5-1.1-8.4-3.4-11.9c-2.3-3.4-5.6-6.1-10-8.1c-4.4-2-9.7-2.9-15.8-2.9h-11.3V526h11.3
			c5,0,9.3-0.9,13.1-2.7c3.8-1.8,6.7-4.3,8.9-7.5c2.1-3.2,3.2-7,3.2-11.3c0-4.1-0.9-7.7-2.8-10.8c-1.9-3.1-4.5-5.5-7.8-7.2
			c-3.4-1.7-7.4-2.6-11.9-2.6c-4.4,0-8.4,0.8-12.2,2.4c-3.8,1.6-6.8,3.9-9.2,6.8c-2.4,2.9-3.6,6.5-3.8,10.6h-19.5
			c0.2-7.2,2.4-13.6,6.4-19.1c4.1-5.5,9.5-9.8,16.2-12.9c6.7-3.1,14.2-4.6,22.3-4.6c8.6,0,16,1.7,22.2,5c6.3,3.3,11.1,7.8,14.5,13.3
			c3.4,5.5,5.1,11.6,5.1,18.2c0,7.5-2,13.9-6.2,19.1c-4.2,5.2-9.8,8.7-16.8,10.5v1c8.9,1.4,15.8,4.9,20.7,10.6
			c4.9,5.7,7.3,12.8,7.3,21.2c0,7.4-2,14-6.1,19.8c-4.1,5.8-9.7,10.4-16.8,13.8C5210.1,602.9,5202,604.6,5192.9,604.6z"/>
	</g>
</g>
<g>
	<g>
		<path class="st4" d="M3910.1,779.4v133.8h-20.3V799.6h-0.8l-32,20.9v-19.3l33.4-21.8H3910.1z"/>
		<path class="st4" d="M3990.8,777.2c6,0,11.8,1.1,17.6,3.3c5.8,2.1,11,5.6,15.7,10.5c4.7,4.9,8.4,11.4,11.2,19.6
			c2.8,8.2,4.2,18.5,4.3,30.8c0,11.7-1.2,22.1-3.6,31.3c-2.3,9.1-5.7,16.8-10.1,23.1c-4.4,6.3-9.7,11-15.9,14.3
			c-6.2,3.3-13.2,4.9-21,4.9c-8,0-15.1-1.6-21.2-4.7c-6.2-3.1-11.2-7.5-15.1-13c-3.9-5.6-6.3-11.9-7.3-19.2h19.9
			c1.3,5.8,4,10.4,8,14c4,3.6,9.2,5.3,15.6,5.3c9.8,0,17.4-4.3,22.9-12.8c5.5-8.6,8.3-20.5,8.3-35.9h-1c-2.3,3.7-5.1,7-8.5,9.7
			c-3.4,2.7-7.2,4.8-11.3,6.3c-4.2,1.5-8.6,2.2-13.4,2.2c-7.7,0-14.7-1.9-21.1-5.7c-6.3-3.8-11.4-9-15.1-15.6
			c-3.7-6.6-5.6-14.2-5.6-22.7s1.9-16.3,5.8-23.2c3.9-6.9,9.3-12.4,16.2-16.4C3973.3,779.2,3981.4,777.2,3990.8,777.2z
			 M3990.9,794.2c-5.1,0-9.7,1.3-13.8,3.8c-4.1,2.5-7.3,5.9-9.6,10.2c-2.4,4.3-3.5,9-3.5,14.3c0,5.2,1.1,9.9,3.4,14.1
			c2.3,4.2,5.4,7.6,9.4,10c4,2.5,8.5,3.7,13.7,3.7c3.8,0,7.4-0.7,10.7-2.2c3.3-1.5,6.2-3.5,8.7-6.2c2.5-2.6,4.4-5.6,5.8-9
			c1.4-3.4,2.1-6.9,2.1-10.6c0-5-1.2-9.6-3.5-13.9c-2.3-4.3-5.5-7.7-9.6-10.3C4000.7,795.5,3996,794.2,3990.9,794.2z"/>
		<path class="st4" d="M4076.4,914.4c-3.6,0-6.6-1.3-9.2-3.8c-2.6-2.5-3.9-5.6-3.9-9.2c0-3.6,1.3-6.6,3.9-9.2
			c2.6-2.5,5.6-3.8,9.2-3.8c3.6,0,6.6,1.3,9.2,3.8c2.6,2.5,3.9,5.6,3.9,9.2c0,2.4-0.6,4.6-1.8,6.6c-1.2,2-2.8,3.6-4.7,4.7
			C4081,913.9,4078.8,914.4,4076.4,914.4z"/>
		<path class="st4" d="M4161.9,915.4c-10.3,0-19.1-2.8-26.5-8.2c-7.3-5.4-12.9-13.3-16.8-23.6c-3.9-10.3-5.8-22.8-5.8-37.3
			c0-14.5,1.9-26.9,5.8-37.2c3.9-10.3,9.5-18.1,16.9-23.5c7.3-5.4,16.1-8.1,26.4-8.1c10.2,0,19,2.7,26.3,8.1
			c7.3,5.4,12.9,13.3,16.8,23.5c3.9,10.3,5.8,22.6,5.8,37.1c0,14.6-1.9,27-5.8,37.3c-3.9,10.3-9.5,18.2-16.8,23.6
			C4181,912.7,4172.2,915.4,4161.9,915.4z M4161.9,898c9.1,0,16.1-4.4,21.3-13.3c5.1-8.8,7.7-21.6,7.7-38.4
			c0-11.1-1.2-20.5-3.5-28.2c-2.3-7.7-5.7-13.5-10-17.5c-4.3-4-9.5-6-15.5-6c-9,0-16.1,4.4-21.2,13.3c-5.1,8.9-7.7,21.7-7.8,38.4
			c0,11.2,1.2,20.6,3.5,28.3c2.3,7.7,5.7,13.5,10,17.4S4155.9,898,4161.9,898z"/>
		<path class="st4" d="M4278.7,777.2c6,0,11.8,1.1,17.6,3.3c5.8,2.1,11,5.6,15.7,10.5c4.7,4.9,8.4,11.4,11.2,19.6
			c2.8,8.2,4.2,18.5,4.3,30.8c0,11.7-1.2,22.1-3.6,31.3c-2.3,9.1-5.7,16.8-10.1,23.1c-4.4,6.3-9.7,11-15.9,14.3
			c-6.2,3.3-13.2,4.9-21,4.9c-8,0-15.1-1.6-21.2-4.7c-6.2-3.1-11.2-7.5-15.1-13c-3.9-5.6-6.3-11.9-7.3-19.2h19.9
			c1.3,5.8,4,10.4,8,14c4,3.6,9.2,5.3,15.6,5.3c9.8,0,17.4-4.3,22.9-12.8c5.5-8.6,8.3-20.5,8.3-35.9h-1c-2.3,3.7-5.1,7-8.5,9.7
			c-3.4,2.7-7.2,4.8-11.3,6.3c-4.2,1.5-8.6,2.2-13.4,2.2c-7.7,0-14.7-1.9-21.1-5.7c-6.3-3.8-11.4-9-15.1-15.6
			c-3.7-6.6-5.6-14.2-5.6-22.7s1.9-16.3,5.8-23.2c3.9-6.9,9.3-12.4,16.2-16.4C4261.2,779.2,4269.3,777.2,4278.7,777.2z
			 M4278.8,794.2c-5.1,0-9.7,1.3-13.8,3.8c-4.1,2.5-7.3,5.9-9.6,10.2c-2.4,4.3-3.5,9-3.5,14.3c0,5.2,1.1,9.9,3.4,14.1
			c2.3,4.2,5.4,7.6,9.4,10c4,2.5,8.5,3.7,13.7,3.7c3.8,0,7.4-0.7,10.7-2.2c3.3-1.5,6.2-3.5,8.7-6.2c2.5-2.6,4.4-5.6,5.8-9
			c1.4-3.4,2.1-6.9,2.1-10.6c0-5-1.2-9.6-3.5-13.9c-2.3-4.3-5.5-7.7-9.6-10.3C4288.6,795.5,4283.9,794.2,4278.8,794.2z"/>
		<path class="st4" d="M4364.3,914.4c-3.6,0-6.6-1.3-9.2-3.8c-2.6-2.5-3.9-5.6-3.9-9.2c0-3.6,1.3-6.6,3.9-9.2
			c2.6-2.5,5.6-3.8,9.2-3.8c3.6,0,6.6,1.3,9.2,3.8c2.6,2.5,3.9,5.6,3.9,9.2c0,2.4-0.6,4.6-1.8,6.6c-1.2,2-2.8,3.6-4.7,4.7
			C4368.9,913.9,4366.7,914.4,4364.3,914.4z"/>
		<path class="st4" d="M4403.2,913.2v-14.6l45.3-46.9c4.8-5.1,8.8-9.6,12-13.4c3.2-3.9,5.5-7.5,7.1-11c1.6-3.5,2.4-7.2,2.4-11.1
			c0-4.4-1-8.3-3.1-11.5c-2.1-3.2-4.9-5.8-8.6-7.5c-3.6-1.8-7.7-2.6-12.2-2.6c-4.8,0-9,1-12.5,2.9c-3.6,2-6.3,4.7-8.2,8.3
			c-1.9,3.6-2.9,7.8-2.9,12.5h-19.3c0-8.1,1.9-15.3,5.6-21.4s8.9-10.8,15.4-14.2c6.5-3.4,14-5.1,22.3-5.1c8.4,0,15.8,1.7,22.2,5
			c6.4,3.3,11.4,7.9,15.1,13.6c3.6,5.7,5.4,12.2,5.4,19.4c0,5-0.9,9.8-2.8,14.6c-1.9,4.7-5.1,10-9.6,15.8
			c-4.6,5.8-10.9,12.9-19.1,21.1l-26.6,27.8v1h60.2v17.3H4403.2z"/>
		<path class="st4" d="M4562.7,915.4c-10.3,0-19.1-2.8-26.5-8.2c-7.3-5.4-12.9-13.3-16.8-23.6c-3.9-10.3-5.8-22.8-5.8-37.3
			c0-14.5,1.9-26.9,5.8-37.2c3.9-10.3,9.5-18.1,16.9-23.5c7.3-5.4,16.1-8.1,26.4-8.1c10.2,0,19,2.7,26.3,8.1
			c7.3,5.4,12.9,13.3,16.8,23.5c3.9,10.3,5.8,22.6,5.8,37.1c0,14.6-1.9,27-5.8,37.3c-3.9,10.3-9.5,18.2-16.8,23.6
			C4581.7,912.7,4572.9,915.4,4562.7,915.4z M4562.7,898c9.1,0,16.1-4.4,21.3-13.3c5.1-8.8,7.7-21.6,7.7-38.4
			c0-11.1-1.2-20.5-3.5-28.2c-2.3-7.7-5.7-13.5-10-17.5c-4.3-4-9.5-6-15.5-6c-9,0-16.1,4.4-21.2,13.3c-5.1,8.9-7.7,21.7-7.8,38.4
			c0,11.2,1.2,20.6,3.5,28.3c2.3,7.7,5.7,13.5,10,17.4S4556.6,898,4562.7,898z"/>
		<path class="st4" d="M4685.7,779.4v133.8h-20.3V799.6h-0.8l-32,20.9v-19.3l33.4-21.8H4685.7z"/>
		<path class="st4" d="M4766.4,777.2c6,0,11.8,1.1,17.6,3.3c5.8,2.1,11,5.6,15.7,10.5c4.7,4.9,8.4,11.4,11.2,19.6
			c2.8,8.2,4.2,18.5,4.3,30.8c0,11.7-1.2,22.1-3.6,31.3c-2.3,9.1-5.7,16.8-10.1,23.1c-4.4,6.3-9.7,11-15.9,14.3
			c-6.2,3.3-13.2,4.9-21,4.9c-8,0-15.1-1.6-21.2-4.7c-6.2-3.1-11.2-7.5-15.1-13c-3.9-5.6-6.3-11.9-7.3-19.2h19.9
			c1.3,5.8,4,10.4,8,14c4,3.6,9.2,5.3,15.6,5.3c9.8,0,17.4-4.3,22.9-12.8c5.5-8.6,8.3-20.5,8.3-35.9h-1c-2.3,3.7-5.1,7-8.5,9.7
			c-3.4,2.7-7.2,4.8-11.3,6.3c-4.2,1.5-8.6,2.2-13.4,2.2c-7.7,0-14.7-1.9-21.1-5.7c-6.3-3.8-11.4-9-15.1-15.6
			c-3.7-6.6-5.6-14.2-5.6-22.7s1.9-16.3,5.8-23.2c3.9-6.9,9.3-12.4,16.2-16.4C4748.9,779.2,4757,777.2,4766.4,777.2z M4766.5,794.2
			c-5.1,0-9.7,1.3-13.8,3.8c-4.1,2.5-7.3,5.9-9.6,10.2c-2.4,4.3-3.5,9-3.5,14.3c0,5.2,1.1,9.9,3.4,14.1c2.3,4.2,5.4,7.6,9.4,10
			c4,2.5,8.5,3.7,13.7,3.7c3.8,0,7.4-0.7,10.7-2.2c3.3-1.5,6.2-3.5,8.7-6.2c2.5-2.6,4.4-5.6,5.8-9c1.4-3.4,2.1-6.9,2.1-10.6
			c0-5-1.2-9.6-3.5-13.9c-2.3-4.3-5.5-7.7-9.6-10.3C4776.3,795.5,4771.6,794.2,4766.5,794.2z"/>
		<path class="st4" d="M4887.6,913.2v-14.6l45.3-46.9c4.8-5.1,8.8-9.6,12-13.4c3.2-3.9,5.5-7.5,7.1-11c1.6-3.5,2.4-7.2,2.4-11.1
			c0-4.4-1-8.3-3.1-11.5c-2.1-3.2-4.9-5.8-8.6-7.5c-3.6-1.8-7.7-2.6-12.2-2.6c-4.8,0-9,1-12.5,2.9c-3.6,2-6.3,4.7-8.2,8.3
			c-1.9,3.6-2.9,7.8-2.9,12.5h-19.3c0-8.1,1.9-15.3,5.6-21.4s8.9-10.8,15.4-14.2c6.5-3.4,14-5.1,22.3-5.1c8.4,0,15.8,1.7,22.2,5
			c6.4,3.3,11.4,7.9,15.1,13.6c3.6,5.7,5.4,12.2,5.4,19.4c0,5-0.9,9.8-2.8,14.6c-1.9,4.7-5.1,10-9.6,15.8
			c-4.6,5.8-10.9,12.9-19.1,21.1l-26.6,27.8v1h60.2v17.3H4887.6z"/>
		<path class="st4" d="M5047,915.4c-10.3,0-19.1-2.8-26.5-8.2c-7.3-5.4-12.9-13.3-16.8-23.6c-3.9-10.3-5.8-22.8-5.8-37.3
			c0-14.5,1.9-26.9,5.8-37.2c3.9-10.3,9.5-18.1,16.9-23.5c7.3-5.4,16.1-8.1,26.4-8.1c10.2,0,19,2.7,26.3,8.1
			c7.3,5.4,12.9,13.3,16.8,23.5c3.9,10.3,5.8,22.6,5.8,37.1c0,14.6-1.9,27-5.8,37.3c-3.9,10.3-9.5,18.2-16.8,23.6
			C5066.1,912.7,5057.3,915.4,5047,915.4z M5047,898c9.1,0,16.1-4.4,21.3-13.3c5.1-8.8,7.7-21.6,7.7-38.4c0-11.1-1.2-20.5-3.5-28.2
			c-2.3-7.7-5.7-13.5-10-17.5c-4.3-4-9.5-6-15.5-6c-9,0-16.1,4.4-21.2,13.3c-5.1,8.9-7.7,21.7-7.8,38.4c0,11.2,1.2,20.6,3.5,28.3
			c2.3,7.7,5.7,13.5,10,17.4S5041,898,5047,898z"/>
		<path class="st4" d="M5132.4,841.4c-3.6,0-6.6-1.3-9.2-3.8c-2.6-2.5-3.9-5.6-3.9-9.2c0-3.6,1.3-6.6,3.9-9.2
			c2.6-2.5,5.6-3.8,9.2-3.8c3.6,0,6.6,1.3,9.2,3.8c2.6,2.5,3.9,5.6,3.9,9.2c0,2.4-0.6,4.6-1.8,6.6c-1.2,2-2.8,3.6-4.7,4.7
			C5137,840.8,5134.8,841.4,5132.4,841.4z M5132.4,914.4c-3.6,0-6.6-1.3-9.2-3.8c-2.6-2.5-3.9-5.6-3.9-9.2c0-3.6,1.3-6.6,3.9-9.2
			c2.6-2.5,5.6-3.8,9.2-3.8c3.6,0,6.6,1.3,9.2,3.8c2.6,2.5,3.9,5.6,3.9,9.2c0,2.4-0.6,4.6-1.8,6.6c-1.2,2-2.8,3.6-4.7,4.7
			C5137,913.9,5134.8,914.4,5132.4,914.4z"/>
		<path class="st4" d="M5171.4,913.2v-14.6l45.3-46.9c4.8-5.1,8.8-9.6,12-13.4c3.2-3.9,5.5-7.5,7.1-11c1.6-3.5,2.4-7.2,2.4-11.1
			c0-4.4-1-8.3-3.1-11.5c-2.1-3.2-4.9-5.8-8.6-7.5c-3.6-1.8-7.7-2.6-12.2-2.6c-4.8,0-9,1-12.5,2.9c-3.6,2-6.3,4.7-8.2,8.3
			c-1.9,3.6-2.9,7.8-2.9,12.5h-19.3c0-8.1,1.9-15.3,5.6-21.4s8.9-10.8,15.4-14.2c6.5-3.4,14-5.1,22.3-5.1c8.4,0,15.8,1.7,22.2,5
			c6.4,3.3,11.4,7.9,15.1,13.6c3.6,5.7,5.4,12.2,5.4,19.4c0,5-0.9,9.8-2.8,14.6c-1.9,4.7-5.1,10-9.6,15.8
			c-4.6,5.8-10.9,12.9-19.1,21.1l-26.6,27.8v1h60.2v17.3H5171.4z"/>
		<path class="st4" d="M5330.9,915c-6-0.1-11.8-1.2-17.6-3.3c-5.8-2.1-11-5.6-15.7-10.5c-4.7-4.9-8.5-11.4-11.3-19.7
			c-2.8-8.2-4.2-18.5-4.2-30.8c0-11.7,1.2-22.1,3.5-31.3c2.3-9.1,5.7-16.8,10.1-23.1c4.4-6.3,9.7-11,15.9-14.3
			c6.2-3.3,13.2-4.9,21-4.9c8,0,15,1.6,21.2,4.8c6.2,3.2,11.2,7.5,15.1,13.1c3.9,5.5,6.3,11.9,7.4,19.1h-19.9
			c-1.4-5.7-4-10.3-8-13.9c-4-3.5-9.2-5.3-15.7-5.3c-9.8,0-17.4,4.3-22.9,12.8c-5.5,8.6-8.2,20.5-8.3,35.8h1c2.3-3.8,5.2-7,8.5-9.7
			c3.4-2.7,7.2-4.7,11.4-6.2c4.2-1.5,8.6-2.2,13.3-2.2c7.8,0,14.8,1.9,21.1,5.7c6.3,3.8,11.3,9,15.1,15.6c3.7,6.6,5.6,14.2,5.6,22.7
			s-1.9,16.3-5.8,23.2c-3.9,6.9-9.3,12.4-16.2,16.4C5348.4,913.1,5340.3,915.1,5330.9,915z M5330.9,898c5.1,0,9.7-1.3,13.8-3.8
			c4.1-2.5,7.3-5.9,9.6-10.2c2.4-4.3,3.5-9,3.5-14.3c0-5.1-1.1-9.8-3.4-14c-2.3-4.2-5.4-7.6-9.4-10.1c-4-2.5-8.5-3.7-13.6-3.7
			c-3.9,0-7.5,0.7-10.7,2.2c-3.3,1.5-6.2,3.5-8.7,6.1c-2.5,2.6-4.4,5.6-5.8,9c-1.4,3.4-2.1,6.9-2.1,10.7c0,5,1.2,9.6,3.5,13.9
			c2.3,4.3,5.5,7.7,9.6,10.3C5321.1,896.7,5325.7,898,5330.9,898z"/>
	</g>
</g>
<g>
	<g>
		<path class="st4" d="M3859.3,1215.5v-14.6l45.3-46.9c4.8-5.1,8.8-9.6,12-13.4c3.2-3.9,5.5-7.5,7.1-11c1.6-3.5,2.4-7.2,2.4-11.1
			c0-4.4-1-8.3-3.1-11.5c-2.1-3.2-4.9-5.8-8.6-7.5c-3.6-1.8-7.7-2.6-12.2-2.6c-4.8,0-9,1-12.5,2.9c-3.6,2-6.3,4.7-8.2,8.3
			c-1.9,3.6-2.9,7.8-2.9,12.5h-19.3c0-8.1,1.9-15.3,5.6-21.4s8.9-10.8,15.4-14.2c6.5-3.4,14-5.1,22.3-5.1c8.4,0,15.8,1.7,22.2,5
			c6.4,3.3,11.4,7.9,15.1,13.6c3.6,5.7,5.4,12.2,5.4,19.4c0,5-0.9,9.8-2.8,14.6c-1.9,4.7-5.1,10-9.6,15.8
			c-4.6,5.8-10.9,12.9-19.1,21.1l-26.6,27.8v1h60.2v17.3H3859.3z"/>
		<path class="st4" d="M3969.4,1189.4V1173l57.8-91.3h12.9v24h-8.2l-41.4,65.5v1h79.3v17.1H3969.4z M4032.8,1215.5v-31.1l0.1-7.4
			v-95.3h19.1v133.8H4032.8z"/>
		<path class="st4" d="M4105.7,1216.7c-3.6,0-6.6-1.3-9.2-3.8c-2.6-2.5-3.9-5.6-3.9-9.2c0-3.6,1.3-6.6,3.9-9.2
			c2.6-2.5,5.6-3.8,9.2-3.8c3.6,0,6.6,1.3,9.2,3.8c2.6,2.5,3.9,5.6,3.9,9.2c0,2.4-0.6,4.6-1.8,6.6c-1.2,2-2.8,3.6-4.7,4.7
			C4110.2,1216.2,4108.1,1216.7,4105.7,1216.7z"/>
		<path class="st4" d="M4191.2,1217.7c-10.3,0-19.1-2.8-26.5-8.2c-7.3-5.4-12.9-13.3-16.8-23.6c-3.9-10.3-5.8-22.8-5.8-37.3
			c0-14.5,1.9-26.9,5.8-37.2c3.9-10.3,9.5-18.1,16.9-23.5c7.3-5.4,16.1-8.1,26.4-8.1c10.2,0,19,2.7,26.3,8.1
			c7.3,5.4,12.9,13.3,16.8,23.5c3.9,10.3,5.8,22.6,5.8,37.1c0,14.6-1.9,27-5.8,37.3c-3.9,10.3-9.5,18.2-16.8,23.6
			C4210.3,1215,4201.5,1217.7,4191.2,1217.7z M4191.2,1200.3c9.1,0,16.1-4.4,21.3-13.3c5.1-8.8,7.7-21.6,7.7-38.4
			c0-11.1-1.2-20.5-3.5-28.2c-2.3-7.7-5.7-13.5-10-17.5c-4.3-4-9.5-6-15.5-6c-9,0-16.1,4.4-21.2,13.3c-5.1,8.9-7.7,21.7-7.8,38.4
			c0,11.2,1.2,20.6,3.5,28.3c2.3,7.7,5.7,13.5,10,17.4S4185.1,1200.3,4191.2,1200.3z"/>
		<path class="st4" d="M4314.2,1081.7v133.8H4294v-113.6h-0.8l-32,20.9v-19.3l33.4-21.8H4314.2z"/>
		<path class="st4" d="M4363.6,1216.7c-3.6,0-6.6-1.3-9.2-3.8c-2.6-2.5-3.9-5.6-3.9-9.2c0-3.6,1.3-6.6,3.9-9.2
			c2.6-2.5,5.6-3.8,9.2-3.8c3.6,0,6.6,1.3,9.2,3.8c2.6,2.5,3.9,5.6,3.9,9.2c0,2.4-0.6,4.6-1.8,6.6c-1.2,2-2.8,3.6-4.7,4.7
			C4368.1,1216.2,4366,1216.7,4363.6,1216.7z"/>
		<path class="st4" d="M4402.5,1215.5v-14.6l45.3-46.9c4.8-5.1,8.8-9.6,12-13.4c3.2-3.9,5.5-7.5,7.1-11c1.6-3.5,2.4-7.2,2.4-11.1
			c0-4.4-1-8.3-3.1-11.5c-2.1-3.2-4.9-5.8-8.6-7.5c-3.6-1.8-7.7-2.6-12.2-2.6c-4.8,0-9,1-12.5,2.9c-3.6,2-6.3,4.7-8.2,8.3
			c-1.9,3.6-2.9,7.8-2.9,12.5h-19.3c0-8.1,1.9-15.3,5.6-21.4s8.9-10.8,15.4-14.2c6.5-3.4,14-5.1,22.3-5.1c8.4,0,15.8,1.7,22.2,5
			c6.4,3.3,11.4,7.9,15.1,13.6c3.6,5.7,5.4,12.2,5.4,19.4c0,5-0.9,9.8-2.8,14.6c-1.9,4.7-5.1,10-9.6,15.8
			c-4.6,5.8-10.9,12.9-19.1,21.1l-26.6,27.8v1h60.2v17.3H4402.5z"/>
		<path class="st4" d="M4561.9,1217.7c-10.3,0-19.1-2.8-26.5-8.2c-7.3-5.4-12.9-13.3-16.8-23.6c-3.9-10.3-5.8-22.8-5.8-37.3
			c0-14.5,1.9-26.9,5.8-37.2c3.9-10.3,9.5-18.1,16.9-23.5c7.3-5.4,16.1-8.1,26.4-8.1c10.2,0,19,2.7,26.3,8.1
			c7.3,5.4,12.9,13.3,16.8,23.5c3.9,10.3,5.8,22.6,5.8,37.1c0,14.6-1.9,27-5.8,37.3c-3.9,10.3-9.5,18.2-16.8,23.6
			C4581,1215,4572.2,1217.7,4561.9,1217.7z M4561.9,1200.3c9.1,0,16.1-4.4,21.3-13.3c5.1-8.8,7.7-21.6,7.7-38.4
			c0-11.1-1.2-20.5-3.5-28.2c-2.3-7.7-5.7-13.5-10-17.5c-4.3-4-9.5-6-15.5-6c-9,0-16.1,4.4-21.2,13.3c-5.1,8.9-7.7,21.7-7.8,38.4
			c0,11.2,1.2,20.6,3.5,28.3c2.3,7.7,5.7,13.5,10,17.4S4555.9,1200.3,4561.9,1200.3z"/>
		<path class="st4" d="M4634.2,1215.5v-14.6l45.3-46.9c4.8-5.1,8.8-9.6,12-13.4c3.2-3.9,5.5-7.5,7.1-11c1.6-3.5,2.4-7.2,2.4-11.1
			c0-4.4-1-8.3-3.1-11.5c-2.1-3.2-4.9-5.8-8.6-7.5c-3.6-1.8-7.7-2.6-12.2-2.6c-4.8,0-9,1-12.5,2.9c-3.6,2-6.3,4.7-8.2,8.3
			c-1.9,3.6-2.9,7.8-2.9,12.5h-19.3c0-8.1,1.9-15.3,5.6-21.4s8.9-10.8,15.4-14.2c6.5-3.4,14-5.1,22.3-5.1c8.4,0,15.8,1.7,22.2,5
			c6.4,3.3,11.4,7.9,15.1,13.6c3.6,5.7,5.4,12.2,5.4,19.4c0,5-0.9,9.8-2.8,14.6c-1.9,4.7-5.1,10-9.6,15.8
			c-4.6,5.8-10.9,12.9-19.1,21.1l-26.6,27.8v1h60.2v17.3H4634.2z"/>
		<path class="st4" d="M4793.6,1217.7c-10.3,0-19.1-2.8-26.5-8.2c-7.3-5.4-12.9-13.3-16.8-23.6c-3.9-10.3-5.8-22.8-5.8-37.3
			c0-14.5,1.9-26.9,5.8-37.2c3.9-10.3,9.5-18.1,16.9-23.5c7.3-5.4,16.1-8.1,26.4-8.1c10.2,0,19,2.7,26.3,8.1
			c7.3,5.4,12.9,13.3,16.8,23.5c3.9,10.3,5.8,22.6,5.8,37.1c0,14.6-1.9,27-5.8,37.3c-3.9,10.3-9.5,18.2-16.8,23.6
			C4812.7,1215,4803.9,1217.7,4793.6,1217.7z M4793.6,1200.3c9.1,0,16.1-4.4,21.3-13.3c5.1-8.8,7.7-21.6,7.7-38.4
			c0-11.1-1.2-20.5-3.5-28.2c-2.3-7.7-5.7-13.5-10-17.5c-4.3-4-9.5-6-15.5-6c-9,0-16.1,4.4-21.2,13.3c-5.1,8.9-7.7,21.7-7.8,38.4
			c0,11.2,1.2,20.6,3.5,28.3c2.3,7.7,5.7,13.5,10,17.4S4787.6,1200.3,4793.6,1200.3z"/>
		<path class="st4" d="M4965.4,1081.7v133.8h-20.3v-113.6h-0.8l-32,20.9v-19.3l33.4-21.8H4965.4z"/>
		<path class="st4" d="M5006.1,1215.5l58.4-115.5v-1H4997v-17.3h88.5v17.9l-58.2,115.9H5006.1z"/>
		<path class="st4" d="M5121.3,1143.7c-3.6,0-6.6-1.3-9.2-3.8c-2.6-2.5-3.9-5.6-3.9-9.2c0-3.6,1.3-6.6,3.9-9.2
			c2.6-2.5,5.6-3.8,9.2-3.8c3.6,0,6.6,1.3,9.2,3.8c2.6,2.5,3.9,5.6,3.9,9.2c0,2.4-0.6,4.6-1.8,6.6c-1.2,2-2.8,3.6-4.7,4.7
			C5125.8,1143.1,5123.7,1143.7,5121.3,1143.7z M5121.3,1216.7c-3.6,0-6.6-1.3-9.2-3.8c-2.6-2.5-3.9-5.6-3.9-9.2
			c0-3.6,1.3-6.6,3.9-9.2c2.6-2.5,5.6-3.8,9.2-3.8c3.6,0,6.6,1.3,9.2,3.8c2.6,2.5,3.9,5.6,3.9,9.2c0,2.4-0.6,4.6-1.8,6.6
			c-1.2,2-2.8,3.6-4.7,4.7C5125.8,1216.2,5123.7,1216.7,5121.3,1216.7z"/>
		<path class="st4" d="M5157.4,1189.4V1173l57.8-91.3h12.9v24h-8.2l-41.4,65.5v1h79.3v17.1H5157.4z M5220.8,1215.5v-31.1l0.1-7.4
			v-95.3h19.1v133.8H5220.8z"/>
		<path class="st4" d="M5324.7,1217.3c-8.2,0-15.5-1.6-22.1-4.7c-6.5-3.2-11.7-7.5-15.6-13c-3.9-5.5-5.9-11.8-6.2-18.9h19.6
			c0.5,5.8,3,10.5,7.6,14.2c4.6,3.7,10.1,5.6,16.6,5.6c5.1,0,9.7-1.2,13.7-3.6c4-2.4,7.1-5.7,9.4-9.8c2.3-4.2,3.4-9,3.4-14.3
			c0-5.4-1.2-10.3-3.5-14.6c-2.4-4.3-5.6-7.6-9.7-10.1c-4.1-2.4-8.8-3.7-14.1-3.7c-4.1,0-8.1,0.7-12.2,2.1c-4.1,1.4-7.4,3.2-9.9,5.5
			l-18.5-2.7l7.5-67.4h73.6v17.3h-56.8l-4.2,37.4h0.8c2.6-2.5,6.1-4.6,10.4-6.3c4.3-1.7,9-2.5,14-2.5c8.1,0,15.4,1.9,21.8,5.8
			c6.4,3.9,11.4,9.2,15.1,15.8c3.7,6.7,5.5,14.4,5.5,23c0,8.7-1.9,16.4-5.8,23.2c-3.9,6.8-9.4,12.1-16.3,16
			C5341.7,1215.4,5333.7,1217.3,5324.7,1217.3z"/>
	</g>
</g>
</svg>
