<svg xmlns="http://www.w3.org/2000/svg" xmlns:xlink="http://www.w3.org/1999/xlink" width="739" height="402" viewBox="0 0 739 402">
    <defs>
        <path id="a" d="M0 .175h443.013v199.896H0z"/>
    </defs>
    <g fill="none" fill-rule="evenodd">
        <path stroke="#DEDEDE" d="M23.75 223.844v-81.991"/>
        <g transform="translate(0 -18)">
            <ellipse cx="160.492" cy="370.186" fill="#DEDEDE" rx="160" ry="7.5"/>
            <g transform="translate(9.991 175.115)">
                <mask id="b" fill="#fff">
                    <use xlink:href="#a"/>
                </mask>
                <path fill="#584041" d="M208.712.175c-.092.505 3.055 3.291 3.469 3.773.513.597 3.344 3.21 3.198 4.006-1.238 6.898-4.01 13.31-7.686 19.243-13.781 22.244-43.18 40.32-41.267 69.57.348 5.327 1.842 10.163 4.328 14.773a22.173 22.173 0 0 0 3.88 2.335c3.316 1.568 6.938 2.329 10.579 2.622 7.743.618 15.622-.519 23.341-1.069a1050.567 1050.567 0 0 1 126.745-1.336c16.376.817 32.947 1.556 49.193 3.846 13.818 1.947 27.754 5.938 38.41 15.386 5.233 4.64 10.095 10.271 13.998 16.078 3.391 5.055 5.718 10.977 6.074 17.097.393 6.732-2.132 12.914-8.409 15.926-6.514 3.127-14.544 3.488-21.613 4.252-10.797 1.167-21.628 1.648-32.459 1.59l-5.257-2.19 15.964-.327-15.964-1.417 20.66-4.373c8.31-.52 16.59-1.467 24.671-3.056 6.434-1.266 12.793-4.011 14.93-10.772 1.962-6.204.445-13.334-2.223-19.094a36.67 36.67 0 0 0-2.673-4.76 9.277 9.277 0 0 0-.321-.455 5.326 5.326 0 0 0-.164-.158 50.624 50.624 0 0 0-8.476-6.353c-6.344-3.8-13.45-6.217-20.635-7.83-13.334-2.995-27.23-3.816-40.92-4.591 3.065.736 6.1 1.604 9.073 2.692 6.295 2.302 12.277 5.176 16.798 10.228 4.53 5.06 9.63 10.265 5.949 17.364-3.097 5.975-9.696 8.154-15.89 9.303-7.968 1.475-16.06 2.452-24.1 3.435a644.57 644.57 0 0 1-48.773 4.079c-6.486.293-12.987.48-19.499.599 12.547 2.269 25.124 4.35 37.771 6.016 11.429 1.506 22.91 2.674 34.42 3.323l7.863 4.403-13.06 1.744 2.622.996c-12.865-1.02-25.692-2.63-38.426-4.578-22.497-3.445-44.807-7.928-67.146-12.267a527.419 527.419 0 0 1-34.706-2.506c-10.842 6.197-22.077 11.568-33.894 15.84-31.728 11.472-65.611 15.698-99.191 16.4-17.164.36-34.336-.199-51.469-1.268-6.325-.394-14.749.226-19.744-4.442-.286-.267-.536-.573-.81-.854-.027.162-.5-.336-1.414-1.491-.903-1.026-1.779-2.079-2.646-3.115-1.063-1.27-2.26-2.567-3.015-4.06-1.774-3.517-.352-7.383 1.934-10.284 4.643-5.89 12.616-8.83 19.802-9.892l.44-.05c.577-4.798 3.438-9.06 7.26-12.141 5.563-4.484 12.694-7.097 19.526-8.895 7.36-1.937 14.971-2.78 22.568-2.995 15.993-.45 32.045 1.586 47.914 3.328 8.59.943 17.173 1.967 25.744 3.069-4.82-3.359-9.397-7.107-13.777-11.217-9.244-8.68-17.939-18.224-28.574-25.229-4.908 4.922-11.07 8.42-18.453 9.327-3.311.41-6.707.173-9.893-.849-1.242-.398-2.325-.995-3.321-1.707.026.119.04.238.073.355-.233-.273-.466-.544-.7-.815-2.056-1.647-3.69-3.836-5.335-6.057-.118-.162-.194-.338-.292-.506l-.342-.402c.05.024.1.045.151.067-1.195-2.503-.286-5.776 1.136-8.03 1.79-2.842 4.73-4.976 7.983-5.784 7.88-1.952 15.967 2.34 22.415 6.629 9.962-9.808 13.337-24.792 15.089-38.572 2.666-20.967 4.668-42.039 6.978-63.047l1.075 1.059c.822.882 1.61 1.799 2.396 2.714.563.657 3.297 3.12 3.2 4.007l-3.118 28.36c-1.066 9.69-2.116 19.383-3.197 29.07-.93 8.326-1.983 16.718-4.494 24.736-2.03 6.48-5.327 12.742-9.802 17.791 3.636 3.019 7.117 6.228 10.517 9.51 5.762 5.567 11.392 11.293 17.572 16.404a92.59 92.59 0 0 0 20.995 13.085c.24.108.487.195.729.301a1387.512 1387.512 0 0 1 56.543 8.841c9.623-5.894 18.926-12.308 28.624-18.084 12.729-7.581 26.053-13.532 40.64-16.404 4.04-.794 8.109-1.385 12.195-1.832a1052.34 1052.34 0 0 0-42.96.722c-16.886.638-33.706 2.284-50.575 3.03-7.156.316-14.702-.182-20.878-4.204-5.27-3.43-9.776-9.075-13.277-14.219-6.459-9.485-7.079-22.186-3.346-32.826 9.786-27.884 41.342-42.87 46.749-72.92zm-92.846 150.238c-15.193-1.543-30.584-3.163-45.842-1.584-7.388.766-14.716 2.323-21.646 5.038-5.68 2.226-11.527 5.267-15.318 10.205 4.114.168 8.223.692 12.255 1.414 17.84 3.19 35.426 8.987 52.199 15.782 1.324.538 2.572 2.727 3.47 3.773.172.202 1.106 1.461 1.922 2.516.426.499.851.993 1.277 1.49-7.756 1.577-15.627 2.505-23.54 2.704a134.406 134.406 0 0 1-24.118-1.557 132.624 132.624 0 0 1-11.624-2.352c-3.505-.872-7.306-1.678-10.363-3.695-3.053-2.01-5.433-5.322-7.709-8.117a25.16 25.16 0 0 1-2-2.809c-1.424.365-2.83.8-4.207 1.334-5.505 2.146-11.929 6.096-13.635 12.18a8.946 8.946 0 0 0-.328 2.392c2.31.771 4.766 1.07 7.181 1.26 7.048.547 14.115.925 21.177 1.245 14.796.67 29.62.888 44.424.38 28.634-.985 57.377-4.685 84.744-13.43 10.961-3.5 21.662-7.83 31.933-13.022-10.244-1.675-20.377-4.085-30.054-7.857a94.086 94.086 0 0 1-4.292-1.813c-15.272-2.069-30.574-3.917-45.906-5.477zm-75.97 21.444c-3.41-.146-6.862-.04-10.255.426-.06.513-.127 1.028-.135 1.55-.017 1.24.161 2.478.468 3.682 2.734 1.293 5.843 1.956 8.718 2.662 3.84.943 7.722 1.713 11.632 2.31 12.318 1.875 24.84 1.972 37.176.404-1.71-.58-3.41-1.2-5.132-1.75-13.65-4.356-28.067-8.667-42.472-9.284zm332.633-39.616c-16.441-5.191-34.221-5.27-51.3-5.06-17.911.22-36.063 1.923-52.86 8.558-15.07 5.952-28.508 15.157-42.08 23.875 4.916.925 9.827 1.867 14.739 2.82 24.972 1.027 50.048.483 74.888-1.4 9.63-.731 19.244-1.679 28.832-2.84 9.12-1.106 18.541-1.947 27.484-4.102 6.794-1.637 14.556-6.151 14.362-14.186a9.768 9.768 0 0 0-.178-1.539 31.33 31.33 0 0 0-2.206-1.303c-3.735-1.965-7.658-3.553-11.681-4.823zM94.104 105.225c-4.336-1.734-9-2.608-13.48-1.231-3.792 1.163-7.093 4.194-8.355 7.883 5.89.808 11.977-.659 17.298-3.607 1.64-.91 3.13-1.941 4.537-3.045z" mask="url(#b)"/>
                <path fill="#5C3F40" d="M352.14 196.093l-13.658 1.866 12.172 6.379c7.303 1.133 12.201 1.7 14.693 1.7 2.493 0 .371-.976-6.363-2.929l6.363-2.044-3.724-4.972h-9.482zM374.321 199.076l3.94 2.984 6.016-1.846z" mask="url(#b)"/>
                <path fill="#5C3F40" d="M336.755 206.16l9.107 11.46 4.92-4.922-4.909-5.79z" mask="url(#b)" transform="rotate(31 343.768 211.89)"/>
                <path fill="#5C3F40" d="M369.344 179.186v-2.983l2.986.95zM363.37 179.186l-9.955-4.972v2.486z" mask="url(#b)"/>
            </g>
            <g transform="rotate(-7 255.624 -2.173)">
                <path stroke="#32454C" d="M7.604 92.647L118.948 5.656a10 10 0 0 1 12.497.147l105.901 86.844H7.604z"/>
                <path fill="#32454C" d="M237.92 85.083c3.537 0 6.418 2.873 6.418 6.405v140.419c0 3.532-2.881 6.404-6.418 6.404H6.417c-3.536 0-6.417-2.872-6.417-6.404V91.487c0-3.53 2.88-6.404 6.417-6.404H237.92z"/>
                <path fill="#FF5C62" d="M225.56 194.904H18.778a4.75 4.75 0 0 1-4.754-4.743v-86.34a4.75 4.75 0 0 1 4.754-4.743H225.56a4.75 4.75 0 0 1 4.753 4.744v86.339a4.75 4.75 0 0 1-4.753 4.743"/>
                <path fill="#FFF" d="M14.027 176.327h216.29v-41.746H14.028z"/>
                <path fill="#000" d="M188.905 176.183H56.348a5.724 5.724 0 0 1-5.722-5.728V139.91a5.724 5.724 0 0 1 5.722-5.727h132.557a5.724 5.724 0 0 1 5.721 5.727v30.545a5.724 5.724 0 0 1-5.721 5.728"/>
                <path fill="#000" d="M96.024 138.645a2.896 2.896 0 0 0-2.895 2.89v27.99a2.895 2.895 0 0 0 2.895 2.89h52.765a2.895 2.895 0 0 0 2.895-2.89v-27.99a2.896 2.896 0 0 0-2.895-2.89H96.024zm52.765 34.156H96.024a3.284 3.284 0 0 1-3.285-3.276v-27.99a3.285 3.285 0 0 1 3.285-3.276h52.765a3.285 3.285 0 0 1 3.285 3.277v27.989a3.284 3.284 0 0 1-3.285 3.276z"/>
                <path fill="#FFF" d="M151.88 141.536v27.989a3.087 3.087 0 0 1-3.09 3.083H96.023a3.087 3.087 0 0 1-3.09-3.083v-27.99a3.087 3.087 0 0 1 3.09-3.083h52.765c1.707 0 3.09 1.38 3.09 3.084"/>
                <path fill="#584041" d="M154.82 137.454l4.658 2.632a23.143 23.143 0 0 0-5.887 15.455c0 4.698 1.395 9.07 3.793 12.726l-3.904 3.726a27.15 27.15 0 0 1-5.52-16.452c0-6.94 2.592-13.274 6.86-18.087z"/>
                <path fill="#000" d="M152.032 135.933h8.597v36.961h-8.597z"/>
                <path fill="#FFF" d="M83.902 155.276c0 7.458-6.061 13.504-13.534 13.504-7.472 0-13.529-6.046-13.529-13.504 0-7.457 6.057-13.503 13.53-13.503 7.472 0 13.533 6.046 13.533 13.503"/>
                <path fill="#000" d="M70.368 142.015c-7.325 0-13.286 5.949-13.286 13.261 0 7.313 5.96 13.262 13.286 13.262 7.33 0 13.291-5.949 13.291-13.262 0-7.312-5.96-13.261-13.29-13.261zm0 27.007c-7.591 0-13.771-6.166-13.771-13.746 0-7.579 6.18-13.745 13.771-13.745 7.597 0 13.776 6.166 13.776 13.745 0 7.58-6.18 13.746-13.776 13.746z"/>
                <path fill="#FFF" d="M188.14 155.276c0 7.458-6.061 13.504-13.534 13.504-7.472 0-13.529-6.046-13.529-13.504 0-7.457 6.057-13.503 13.53-13.503 7.472 0 13.533 6.046 13.533 13.503"/>
                <path fill="#000" d="M174.606 142.015c-7.325 0-13.286 5.949-13.286 13.261 0 7.313 5.96 13.262 13.286 13.262 7.33 0 13.291-5.949 13.291-13.262 0-7.312-5.96-13.261-13.29-13.261zm0 27.007c-7.596 0-13.771-6.166-13.771-13.746 0-7.579 6.175-13.745 13.771-13.745 7.597 0 13.776 6.166 13.776 13.745 0 7.58-6.18 13.746-13.776 13.746z"/>
                <path fill="#B2B9BC" d="M70.592 141.299l.457.007a13.928 13.928 0 0 1 3.464.557l.343.11c.399.123.794.274 1.174.44a13.78 13.78 0 0 1 7.834 8.914c.123.432.223.873.3 1.324l.066.393c.052.366.095.74.114 1.115a13.662 13.662 0 0 1-3.427 10.01c-.314.36-.652.702-1.008 1.03l-.081.07a12.44 12.44 0 0 1-1.032.84 13.698 13.698 0 0 1-8.204 2.704 13.935 13.935 0 0 1-3.922-.564l-.342-.11a11.25 11.25 0 0 1-1.174-.44 13.78 13.78 0 0 1-7.834-8.914 12.152 12.152 0 0 1-.3-1.324l-.067-.394c-.052-.365-.095-.74-.114-1.115a13.662 13.662 0 0 1 3.427-10.01c.315-.36.652-.701 1.009-1.029l.08-.07a12.44 12.44 0 0 1 1.032-.84 13.698 13.698 0 0 1 8.205-2.704zm0 1.015l-.428.007c-2.414.079-4.66.824-6.555 2.063a.549.549 0 0 0-.11.83l1.621 1.762c.219.24.18.621-.085.809a9.194 9.194 0 0 0-1.298 1.099.534.534 0 0 1-.254.144l-.094.014a.546.546 0 0 1-.436-.176l-1.574-1.713a.552.552 0 0 0-.418-.178l-.09.009a.519.519 0 0 0-.314.19 12.504 12.504 0 0 0-2.734 7.832c0 .241.062.639.433.587l2.277-.235.103.02c.224.058.331.189.344.41.047.655.11 1.159.152 1.785.024.303-.143.584-.442.636l-1.74.299a.545.545 0 0 0-.433.702 12.8 12.8 0 0 0 6.342 7.237.576.576 0 0 0 .26.061l.085-.007a.537.537 0 0 0 .434-.373l.404-1.287a.544.544 0 0 1 .552-.383l.091.014.09.03c.518.224 1.06.403 1.62.534.305.072.48.39.39.688l-.39 1.252a.55.55 0 0 0 .457.704c.57.078 1.15.118 1.74.118l.427-.007a12.708 12.708 0 0 0 6.556-2.062.55.55 0 0 0 .11-.831l-.97-1.055a.54.54 0 0 1 .047-.78 9.57 9.57 0 0 0 1.207-1.2.543.543 0 0 1 .406-.19l.09.005a.55.55 0 0 1 .322.172l1.017 1.108a.552.552 0 0 0 .419.179l.09-.01a.519.519 0 0 0 .314-.189 12.644 12.644 0 0 0 2.733-7.882c0-.366-.147-.706-.585-.629l-1.996.342-.086.008c-.295.007-.683-.179-.722-.452-.081-.57-.095-1.106-.21-1.666-.066-.324.096-.646.424-.702l2.048-.353a.54.54 0 0 0 .428-.701 12.766 12.766 0 0 0-6.341-7.238.563.563 0 0 0-.257-.061l-.085.007a.537.537 0 0 0-.433.374l-.732 2.352a.55.55 0 0 1-.45.379l-.087.004a.526.526 0 0 1-.176-.036 9.568 9.568 0 0 0-1.64-.473.542.542 0 0 1-.409-.693l.737-2.383a.55.55 0 0 0-.456-.704 12.86 12.86 0 0 0-1.74-.117zM174.606 141.773l.457.007a13.928 13.928 0 0 1 3.465.557l.342.11c.4.123.794.275 1.174.44a13.78 13.78 0 0 1 7.834 8.915c.124.431.224.872.3 1.323l.067.394c.052.365.095.74.114 1.115a13.662 13.662 0 0 1-3.427 10.01c-.315.36-.652.701-1.009 1.029l-.08.07a12.44 12.44 0 0 1-1.032.84 13.698 13.698 0 0 1-8.205 2.704 13.935 13.935 0 0 1-3.921-.564l-.343-.11a11.25 11.25 0 0 1-1.174-.44 13.78 13.78 0 0 1-7.834-8.914 12.152 12.152 0 0 1-.3-1.324l-.066-.393c-.052-.366-.095-.74-.114-1.115a13.662 13.662 0 0 1 3.427-10.01c.314-.36.652-.702 1.008-1.03l.08-.07a12.44 12.44 0 0 1 1.032-.84 13.698 13.698 0 0 1 8.205-2.704zm0 1.015l-.427.007c-2.415.08-4.661.824-6.556 2.063a.549.549 0 0 0-.11.83l1.622 1.762a.537.537 0 0 1-.086.81 9.47 9.47 0 0 0-1.297 1.098.52.52 0 0 1-.252.144l-.095.014a.55.55 0 0 1-.438-.176l-1.573-1.712a.552.552 0 0 0-.419-.179l-.09.01a.519.519 0 0 0-.314.189c-1.711 2.166-2.733 4.855-2.733 7.832 0 .242.062.639.433.588l2.281-.235.103.02c.224.058.328.188.344.409.043.656.11 1.16.148 1.786.023.302-.143.584-.443.635l-1.74.3a.539.539 0 0 0-.427.701 12.766 12.766 0 0 0 6.341 7.238c.083.042.171.061.257.06l.085-.006a.537.537 0 0 0 .433-.374l.404-1.287a.544.544 0 0 1 .552-.382l.09.013.09.03c.518.224 1.06.403 1.621.534.304.072.48.39.39.689l-.39 1.252a.55.55 0 0 0 .456.704c.57.077 1.15.117 1.74.117l.428-.007a12.708 12.708 0 0 0 6.555-2.062.55.55 0 0 0 .11-.83l-.97-1.055a.54.54 0 0 1 .048-.781 9.57 9.57 0 0 0 1.207-1.2.543.543 0 0 1 .405-.19l.09.006a.55.55 0 0 1 .323.17l1.017 1.11a.552.552 0 0 0 .418.178l.09-.009a.519.519 0 0 0 .314-.19 12.644 12.644 0 0 0 2.734-7.882c0-.366-.148-.706-.585-.628l-1.997.341-.085.008c-.295.007-.684-.178-.723-.452-.08-.57-.095-1.106-.209-1.665-.066-.325.1-.647.428-.703l2.044-.352a.545.545 0 0 0 .433-.702 12.8 12.8 0 0 0-6.342-7.238.576.576 0 0 0-.26-.06l-.085.006a.537.537 0 0 0-.434.374l-.732 2.352a.55.55 0 0 1-.45.379l-.087.005a.526.526 0 0 1-.177-.037 9.446 9.446 0 0 0-1.64-.473.542.542 0 0 1-.408-.693l.736-2.382a.55.55 0 0 0-.456-.704 12.86 12.86 0 0 0-1.74-.118z"/>
                <path fill="#584041" d="M120.52 155.056c0 6.2-1.194 12.125-3.362 17.552H96.024a3.087 3.087 0 0 1-3.09-3.083v-27.99a3.087 3.087 0 0 1 3.09-3.083h21.5a47.151 47.151 0 0 1 2.995 16.604"/>
                <path fill="#B2B9BC" d="M37.316 237.125l8.994-33.205a2.574 2.574 0 0 1 2.486-1.9h147.22c1.165 0 2.183.78 2.487 1.9l8.994 33.205H37.317z"/>
                <path fill="#6F7C81" d="M12.597 231.2a4.986 4.986 0 0 1-4.991 4.981 4.986 4.986 0 0 1-4.991-4.981 4.986 4.986 0 0 1 4.99-4.981 4.986 4.986 0 0 1 4.992 4.981"/>
                <path fill="#6F7C81" d="M7.606 226.456a4.752 4.752 0 0 0-4.754 4.744 4.752 4.752 0 0 0 4.754 4.744c2.62 0 4.753-2.128 4.753-4.744 0-2.616-2.134-4.744-4.753-4.744zm0 9.962c-2.886 0-5.23-2.34-5.23-5.218 0-2.877 2.344-5.218 5.23-5.218 2.88 0 5.229 2.34 5.229 5.218 0 2.877-2.348 5.218-5.23 5.218z"/>
                <path fill="#32454C" d="M10.097 233.684a.72.72 0 0 1-1.018 0l-1.473-1.47-1.469 1.47a.72.72 0 0 1-1.022-1.017l1.474-1.469-1.474-1.47a.72.72 0 0 1 0-1.012.724.724 0 0 1 1.017 0l1.474 1.47 1.469-1.47a.727.727 0 0 1 1.022.003.723.723 0 0 1 0 1.013l-1.474 1.47 1.474 1.469a.724.724 0 0 1 0 1.013"/>
                <path fill="#32454C" d="M7.606 231.88l1.64 1.636c.09.09.204.12.342.14.128 0 .247-.05.338-.14a.482.482 0 0 0 0-.678l-1.64-1.637 1.64-1.636a.474.474 0 0 0 0-.678.481.481 0 0 0-.68-.003l-1.64 1.636-1.645-1.636a.476.476 0 0 0-.675 0 .474.474 0 0 0 0 .677l1.64 1.637-1.64 1.637a.482.482 0 0 0 .68.68l1.64-1.636zm1.982 2.251h-.005a.941.941 0 0 1-.67-.28l-1.307-1.3-1.303 1.3a.955.955 0 0 1-.675.28h-.004a.956.956 0 0 1-.675-1.632l1.302-1.3-1.302-1.302a.957.957 0 0 1 0-1.349.957.957 0 0 1 1.35 0l1.307 1.301 1.302-1.3a.957.957 0 1 1 1.355 1.352l-1.302 1.3 1.302 1.302a.956.956 0 0 1-.675 1.628z"/>
                <path fill="#6F7C81" d="M12.597 92.648a4.986 4.986 0 0 1-4.991 4.98 4.986 4.986 0 0 1-4.991-4.98 4.986 4.986 0 0 1 4.99-4.981 4.986 4.986 0 0 1 4.992 4.98"/>
                <path fill="#6F7C81" d="M7.606 87.904a4.753 4.753 0 0 0-4.754 4.744 4.752 4.752 0 0 0 4.754 4.744c2.62 0 4.753-2.129 4.753-4.744 0-2.616-2.134-4.744-4.753-4.744zm0 9.962c-2.886 0-5.23-2.34-5.23-5.218s2.344-5.219 5.23-5.219c2.88 0 5.229 2.341 5.229 5.219 0 2.877-2.348 5.218-5.23 5.218z"/>
                <path fill="#32454C" d="M10.092 95.132a.715.715 0 0 1-1.013 0l-1.473-1.47-1.474 1.47a.715.715 0 0 1-1.012 0 .715.715 0 0 1-.005-1.017l1.474-1.47-1.474-1.468a.715.715 0 0 1 0-1.013.724.724 0 0 1 1.017 0l1.47 1.469 1.473-1.47a.72.72 0 0 1 1.017.004c.28.279.28.734 0 1.013l-1.469 1.469 1.469 1.47c.28.278.28.734 0 1.013"/>
                <path fill="#32454C" d="M7.606 93.327l1.64 1.637c.09.09.204.12.342.14.128 0 .247-.05.338-.14a.482.482 0 0 0 0-.678l-1.64-1.637 1.64-1.637a.483.483 0 0 0-.685-.68l-1.64 1.636-1.64-1.637a.482.482 0 0 0-.68 0 .483.483 0 0 0 0 .678l1.645 1.637-1.645 1.637a.482.482 0 0 0 .347.821c.129 0 .248-.05.338-.14l1.64-1.637zm1.982 2.252h-.005a.96.96 0 0 1-.675-.28l-1.302-1.301-1.303 1.301a.955.955 0 0 1-.675.28h-.004a.941.941 0 0 1-.67-.28.952.952 0 0 1-.005-1.352l1.302-1.301-1.302-1.302a.948.948 0 0 1 0-1.348.957.957 0 0 1 1.35 0L7.6 91.298l1.307-1.302a.957.957 0 1 1 1.355 1.352l-1.307 1.301 1.307 1.302a.956.956 0 0 1-.675 1.628zM127.398 212.495a4.986 4.986 0 0 1-4.992 4.981 4.986 4.986 0 0 1-4.99-4.98 4.986 4.986 0 0 1 4.99-4.982 4.986 4.986 0 0 1 4.992 4.981"/>
                <path fill="#6F7C81" d="M124.897 214.98a.72.72 0 0 1-1.017 0l-1.474-1.47-1.468 1.47a.72.72 0 0 1-1.022-1.017l1.473-1.47-1.473-1.469a.72.72 0 0 1 0-1.013.724.724 0 0 1 1.017 0l1.473 1.47 1.47-1.47a.727.727 0 0 1 1.021.004.724.724 0 0 1 0 1.013l-1.473 1.47 1.473 1.468a.723.723 0 0 1 0 1.013"/>
                <path fill="#6F7C81" d="M122.406 213.175l1.64 1.637a.48.48 0 0 0 .68-.678l-1.64-1.637 1.64-1.637a.476.476 0 0 0 0-.678.481.481 0 0 0-.68-.003l-1.64 1.637-1.644-1.637a.476.476 0 0 0-.675 0 .474.474 0 0 0 0 .678l1.64 1.636-1.64 1.638a.482.482 0 0 0 .68.68l1.64-1.636zm1.983 2.251a.946.946 0 0 1-.675-.279l-1.308-1.302-1.302 1.302a.958.958 0 0 1-1.355-1.351l1.303-1.303-1.303-1.3a.957.957 0 0 1 0-1.35.957.957 0 0 1 1.35 0l1.307 1.303 1.303-1.303a.957.957 0 1 1 1.355 1.352l-1.303 1.302 1.303 1.301c.37.373.37.977 0 1.35a.954.954 0 0 1-.675.278zM242.336 231.2a4.986 4.986 0 0 1-4.991 4.981 4.986 4.986 0 0 1-4.991-4.981 4.986 4.986 0 0 1 4.99-4.981 4.986 4.986 0 0 1 4.992 4.981"/>
                <path fill="#6F7C81" d="M237.345 226.456c-2.62 0-4.754 2.128-4.754 4.744 0 2.616 2.135 4.744 4.754 4.744a4.752 4.752 0 0 0 4.754-4.744 4.752 4.752 0 0 0-4.754-4.744zm0 9.962c-2.88 0-5.23-2.34-5.23-5.218 0-2.877 2.35-5.218 5.23-5.218 2.885 0 5.229 2.34 5.229 5.218 0 2.877-2.344 5.218-5.23 5.218z"/>
                <path fill="#32454C" d="M239.836 233.684a.72.72 0 0 1-1.017 0l-1.47-1.47-1.473 1.47a.72.72 0 0 1-1.017 0 .715.715 0 0 1 0-1.017l1.469-1.469-1.47-1.47a.71.71 0 0 1 0-1.012.718.718 0 0 1 1.013 0l1.474 1.47 1.474-1.47a.72.72 0 0 1 1.017.003c.28.278.28.735 0 1.013l-1.474 1.47 1.474 1.469c.28.278.28.734 0 1.013"/>
                <path fill="#32454C" d="M237.35 231.88l1.64 1.636c.09.09.209.14.337.14.129 0 .247-.05.342-.14a.482.482 0 0 0 0-.678l-1.64-1.637 1.64-1.636a.483.483 0 0 0-.684-.681l-1.64 1.636-1.64-1.636a.482.482 0 0 0-.68 0 .483.483 0 0 0 0 .677l1.64 1.637-1.64 1.637a.46.46 0 0 0-.138.34c0 .128.048.249.143.34.09.091.21.141.337.142.129 0 .248-.05.343-.141l1.64-1.637zm1.977 2.251a.952.952 0 0 1-.675-.28l-1.302-1.3-1.308 1.3a.952.952 0 0 1-1.63-.675.931.931 0 0 1 .276-.677l1.307-1.3-1.307-1.302a.957.957 0 0 1 0-1.349.963.963 0 0 1 1.354 0l1.303 1.301 1.302-1.3a.96.96 0 0 1 1.355.002.948.948 0 0 1 0 1.35l-1.302 1.3 1.302 1.302a.948.948 0 0 1 0 1.348.946.946 0 0 1-.675.28z"/>
                <path fill="#6F7C81" d="M242.336 92.647a4.986 4.986 0 0 1-4.991 4.981 4.986 4.986 0 0 1-4.991-4.98 4.986 4.986 0 0 1 4.99-4.982 4.986 4.986 0 0 1 4.992 4.981"/>
                <path fill="#6F7C81" d="M237.345 87.904c-2.62 0-4.754 2.128-4.754 4.744 0 2.615 2.135 4.744 4.754 4.744a4.753 4.753 0 0 0 4.754-4.744 4.752 4.752 0 0 0-4.754-4.744zm0 9.962c-2.88 0-5.23-2.341-5.23-5.218 0-2.878 2.35-5.219 5.23-5.219 2.885 0 5.229 2.341 5.229 5.219 0 2.877-2.344 5.218-5.23 5.218z"/>
                <path fill="#32454C" d="M239.836 95.132a.721.721 0 0 1-1.017 0l-1.47-1.47-1.473 1.47a.721.721 0 0 1-1.017 0 .715.715 0 0 1 0-1.017l1.469-1.47-1.47-1.468a.711.711 0 0 1 0-1.014.718.718 0 0 1 1.013 0l1.474 1.47 1.474-1.47a.72.72 0 0 1 1.017.004c.28.278.28.734 0 1.013l-1.474 1.469 1.474 1.47c.28.278.28.734 0 1.013"/>
                <path fill="#32454C" d="M237.35 93.326l1.64 1.638a.476.476 0 0 0 .675 0 .474.474 0 0 0 0-.678l-1.64-1.637 1.64-1.637a.474.474 0 0 0 0-.677.48.48 0 0 0-.68-.004l-1.64 1.637-1.64-1.637a.481.481 0 0 0-.68 0 .483.483 0 0 0 0 .678l1.64 1.637-1.64 1.636a.482.482 0 0 0-.142.34.494.494 0 0 0 .484.482c.129 0 .248-.05.338-.14l1.645-1.638zm1.977 2.253a.952.952 0 0 1-.675-.28l-1.302-1.301-1.308 1.301a.952.952 0 0 1-1.35 0 .974.974 0 0 1-.285-.675c0-.255.1-.495.28-.677l1.308-1.301-1.307-1.302a.957.957 0 0 1 0-1.348.958.958 0 0 1 1.35 0l1.307 1.301 1.302-1.301a.96.96 0 0 1 1.355.003.948.948 0 0 1 0 1.349l-1.302 1.301 1.302 1.302a.956.956 0 0 1-.675 1.628zM70.592 228.979a5.675 5.675 0 0 1-5.68 5.669 5.675 5.675 0 0 1-5.682-5.67 5.675 5.675 0 0 1 5.681-5.668 5.675 5.675 0 0 1 5.68 5.669M94.417 225.27a5.675 5.675 0 0 1-5.68 5.669 5.674 5.674 0 0 1-5.676-5.669 5.674 5.674 0 0 1 5.675-5.669 5.675 5.675 0 0 1 5.681 5.67M185.968 229.302a5.675 5.675 0 0 1-5.681 5.669 5.675 5.675 0 0 1-5.68-5.669 5.675 5.675 0 0 1 5.68-5.669 5.675 5.675 0 0 1 5.68 5.67M163.24 225.27a5.675 5.675 0 0 1-5.68 5.669 5.675 5.675 0 0 1-5.68-5.669 5.675 5.675 0 0 1 5.68-5.669 5.675 5.675 0 0 1 5.68 5.67"/>
                <circle cx="125" cy="8" r="5" fill="#FF5C62"/>
            </g>
        </g>
        <path fill="#DEDEDE" d="M650.376 402c-20.535 0-44.548-.575-70.187-1.778-75.26-3.536-136.039-11.17-135.754-17.053.19-3.881 26.875-6.03 66.604-6.03 20.53 0 44.544.576 70.184 1.778 75.258 3.536 136.038 11.17 135.753 17.053-.19 3.882-26.874 6.03-66.6 6.03"/>
        <path fill="#FF5C62" d="M424.592 138.2s-5.822-63.711 13.869-71.173c19.69-7.46 40.386 52.13 40.386 52.13"/>
        <path fill="#32454C" d="M423.78 140.963a1.943 1.943 0 0 1-1.933-1.767c-.014-.162-1.463-16.326-.456-33.198 1.39-23.289 6.651-36.821 15.635-40.222 3.193-1.209 6.56-1.004 10.006.607 17.354 8.118 32.449 51.061 33.083 52.885a1.943 1.943 0 1 1-3.671 1.279c-.15-.432-15.183-43.215-31.06-50.64-2.493-1.166-4.776-1.327-6.983-.491-15.084 5.71-14.27 52.05-12.683 69.425a1.945 1.945 0 0 1-1.937 2.122"/>
        <path fill="#FFFFFE" d="M532.107 305.32s15.863 45.012 13.17 53.543c-2.693 8.538-18.06 10.623-13.17 20.178 4.963 9.705 27.699 9.489 38.797 3.882 7.73-3.908 8.999-32.205 8.232-50.828"/>
        <path fill="#32454C" d="M552.69 388.189c-9.438 0-18.504-2.586-21.723-8.758-3.648-7 1.848-10.988 6.264-14.193 2.907-2.114 5.912-4.299 6.836-7.175 1.825-5.674-7.131-34.623-13.206-51.538a1.934 1.934 0 0 1 1.19-2.475c1.02-.356 2.14.168 2.502 1.176 1.654 4.608 16.072 45.236 13.247 54.014-1.31 4.084-4.997 6.76-8.251 9.12-5.126 3.722-7.022 5.61-5.1 9.293 4.116 7.899 25.176 8.519 36.34 2.98 5.237-2.598 8.26-22.906 7.19-48.287-.046-1.066.796-1.971 1.874-2.017a1.924 1.924 0 0 1 2.037 1.855c.327 7.737 1.41 46.581-9.344 51.913-5.198 2.58-12.637 4.092-19.855 4.092"/>
        <path fill="#FFEDEE" d="M449.803 131.46l-2.744-3.661s4.71-2.544 10.277 1.23c0 0-2.807-6.539-7.03-9.575 0 0 6.495-3.746 10.647 2.099 0 0-2.185-42.143-22.395-55.172l-.045.015c-17.61 6.724-14.887 58.63-14.085 69.85 5.14.864 16.084 1.65 25.375-4.785"/>
        <path fill="#32454C" d="M425.49 135.323c1.386.177 3.136.326 5.087.326 5.977 0 11.262-1.32 15.742-3.929l-1.476-1.966a1.977 1.977 0 0 1 .635-2.921c.204-.11 2.074-1.074 4.87-1.074.662 0 1.318.053 1.968.158-1.034-1.513-2.326-3.07-3.785-4.117a1.974 1.974 0 0 1 .164-3.31c.257-.148 2.596-1.444 5.574-1.444 1.336 0 2.588.262 3.734.774-1.211-10.91-5.657-38.264-20.351-48.626-11.791 5.94-13.959 38.709-12.162 66.13zm5.088 4.259h-.001c-2.427 0-4.866-.203-7.246-.603a1.96 1.96 0 0 1-1.626-1.798c-1.082-15.11-3.167-64.959 15.414-72.04l.112-.038a1.943 1.943 0 0 1 1.674.206c20.341 13.086 23.17 52.841 23.395 56.655a1.96 1.96 0 0 1-1.906 2.305c-.634-.006-1.235-.286-1.616-.82-1.183-1.662-2.658-2.47-4.509-2.47-.278 0-.55.018-.812.05 2.743 3.061 4.537 6.822 4.967 7.772.172.293.27.635.27 1a1.959 1.959 0 0 1-1.952 1.966h-.013c-.378 0-.757-.11-1.088-.334-1.708-1.155-3.488-1.74-5.292-1.74-.223 0-.436.008-.639.025l1.003 1.335c.322.429.456.971.37 1.502a1.97 1.97 0 0 1-.822 1.306c-5.414 3.743-12.22 5.721-19.683 5.721z"/>
        <path fill="#FF5C62" d="M550.815 150.35c-8.665-14.866-20.935-29.629-38.17-39.781-48.928-28.822-116.022-3.216-92.127 100.565-5.195 15.007-.705 34.685-.705 34.685l6.735-2.173c-3.85 25.923 10.392 41.036 11.973 42.961h8.041c-5.773 20.395 15.781 39.248 15.781 39.248-3.85-7.31 2.694-11.544 2.694-11.544 3.464 25.012 30.022 37.33 30.022 37.33l12.317-5.008c45.802 26.936 83.524 11.16 83.524 11.16 36.18 28.861 68.126-1.535 68.126-1.535 70.434 37.706 86.99-40.405 75.053-93.895-11.93-53.488-59.52-63.487-106.231-54.073-70.198 14.148-72.414-52.526-77.033-57.94"/>
        <path fill="#FFFFFE" d="M709.49 362.22c20.705-42.299 17.08-85.754 1.501-108.425-15.572-22.673-39.572-4.892-39.572-4.892-38.55-19.842-55.404 1.286-55.404 1.286-47.016 33.064-7.198 115.37-6.816 116.257 27.741 8.923 49.327-9.843 49.327-9.843 22.019 11.901 38.744 12.306 50.964 5.618M560.935 177.018c-14.657 13.073-59.003 50.374-64.755 28.537-6.907-26.217-9.063-38.7-28.631-43.845-18.86-4.961-7.646-33.944 27.296-59.482-5.032-1.457-15.942-2.36-20.96-2.7-3.844 8.205-8.785 23.831-17.973 32.283-13.429 12.353-11.272 14.885-32.791 8.913l-2.474 1.67c-5.001 17.308-5.368 40.11 1.226 68.933-5.179 15.056-.702 34.795-.702 34.795l6.713-2.179c-3.836 26.005 10.36 41.166 11.936 43.097h8.016c-5.756 20.459 15.73 39.372 15.73 39.372-3.837-7.333 2.686-11.58 2.686-11.58 3.454 25.09 29.928 37.447 29.928 37.447l2.398-.985-17.744-37.493s-6.14-21.94 4.219-37.186c10.359-15.246 25.898-17.758 33.188-30.688 7.29-12.932 38.177-42.27 50.457-41.497 12.275.772 23.02 3.06 23.02 3.06l-.007-.009c-16.457-7.108-25.47-19.194-30.776-30.463M591.718 357.257s-35.734 15.31-79.836-9.394c4.05-2.566 8.682-5.557 8.682-5.557s2.816-3.145 21.243 1.316c14.229 3.437 29.232 4.029 41.333.266 3.802 9.772 8.578 13.369 8.578 13.369"/>
        <path fill="#32454C" d="M590.86 355.258c.435 0 .862.15 1.213.43 9.955 7.98 20.507 12.021 31.364 12.021 19.664 0 33.82-13.317 33.963-13.454a1.947 1.947 0 0 1 2.262-.306c11.971 6.444 22.866 9.705 32.388 9.705 11.316 0 20.715-4.589 27.935-13.636 16.748-20.985 17.779-60.274 11.647-87.898-10.234-46.065-46.057-55.735-74.304-55.735-9.242 0-19.088 1.045-29.27 3.105-6.572 1.33-12.847 2.007-18.641 2.007-43.718 0-53.627-37.77-57.858-53.897-.753-2.87-1.606-6.12-2.12-6.748a2.303 2.303 0 0 1-.2-.283c-9.98-17.202-22.544-30.363-37.339-39.118-11.918-7.052-24.861-10.78-37.429-10.78-16.961 0-31.785 6.919-41.74 19.48-10.736 13.543-21.14 40.123-9.747 89.833.083.358.062.73-.057 1.077-3.967 11.511-1.993 26.162-1.05 31.538l4.625-1.497a1.954 1.954 0 0 1 1.853.371c.513.436.765 1.107.666 1.777-2.25 15.218 1.624 29.675 10.909 40.76h7.11c.61 0 1.184.286 1.551.774.368.488.487 1.12.32 1.706-3.759 13.343 5.112 26.231 10.807 32.799.532-3.528 2.908-6.086 4.675-7.238a1.927 1.927 0 0 1 1.866-.137c.604.28 1.026.846 1.116 1.51 2.946 21.363 23.86 33.287 28.072 35.487l11.457-4.68a1.928 1.928 0 0 1 1.718.13c17.405 10.278 35.593 15.492 54.058 15.492 16.592 0 27.325-4.4 27.429-4.446.24-.097.499-.15.751-.15zm32.577 16.357c-11.434 0-22.504-4.1-32.914-12.185-3.22 1.165-13.306 4.328-27.843 4.328-18.873 0-37.438-5.226-55.198-15.543l-11.387 4.64c-.5.209-1.06.196-1.55-.032-1.061-.495-24.814-11.807-30.296-34.98-.803 1.491-1.206 3.62.15 6.32.204.313.324.684.324 1.081 0 1.08-.872 1.953-1.945 1.953h-.013c-.457 0-.915-.163-1.28-.482-.88-.774-20.697-18.466-16.897-38.8h-5.56a1.93 1.93 0 0 1-1.501-.716c-.07-.084-.165-.195-.284-.332-9.583-11.247-13.948-25.743-12.447-41.104l-3.812 1.23c-.52.17-1.084.11-1.558-.163a1.943 1.943 0 0 1-.934-1.263c-.185-.813-4.437-19.96.58-35.247-11.541-50.88-.612-78.436 10.615-92.602 10.71-13.51 26.613-20.952 44.784-20.952 13.262 0 26.888 3.915 39.403 11.32 15.34 9.077 28.343 22.665 38.652 40.391.961 1.258 1.602 3.588 2.793 8.128 4.342 16.549 13.381 50.986 54.098 50.986 5.542 0 11.55-.649 17.876-1.93 10.429-2.11 20.533-3.181 30.035-3.181 19.542 0 36.031 4.436 49.013 13.186 14.791 9.97 24.578 25.313 29.083 45.608 3.526 15.882 4.485 33.345 2.696 49.175-1.983 17.594-7.207 32.122-15.102 42.016-7.998 10.018-18.414 15.095-30.968 15.095-9.84 0-20.948-3.203-33.024-9.53-3.798 3.248-17.325 13.585-35.59 13.585z"/>
        <path fill="#FFFFFE" d="M437.553 142.995s-67.005-19.937-40.666 36.558c0 0 6.795 23.736 38.094 23.56"/>
        <path fill="#32454C" d="M434.046 205.877c-16.735 0-26.64-6.712-32.013-12.365-5.447-5.732-7.428-11.479-7.759-12.534-7.58-16.287-8.295-28.182-2.126-35.357 11.777-13.697 44.013-4.316 45.38-3.91a1.96 1.96 0 0 1-1.113 3.76c-.311-.091-31.173-9.073-41.301 2.712-5.086 5.918-4.155 16.435 2.767 31.26a2 2 0 0 1 .108.29c.266.91 6.9 22.383 36.386 22.22h.012a1.96 1.96 0 0 1 .01 3.923l-.351.001"/>
        <path fill="#FF5C62" d="M542.625 169.967s48.352-58.351 34.064-78.842c-14.286-20.492-74.442 23.86-74.442 23.86"/>
        <path fill="#32454C" d="M543.32 171.348a1.96 1.96 0 0 1-1.509-3.21c13.22-15.956 45.109-60.84 34.061-76.687-1.653-2.371-4.07-3.79-7.382-4.336-20.648-3.399-64.06 28.396-64.496 28.718a1.96 1.96 0 0 1-2.327-3.154c1.836-1.353 45.21-33.092 67.456-29.43 4.351.717 7.71 2.723 9.963 5.962 6.422 9.212 2.51 25.82-11.635 49.363-10.286 17.125-22.498 31.918-22.62 32.064-.388.469-.947.71-1.511.71"/>
        <path fill="#FFEDEE" d="M523.082 145.52l5.058-1.713s-2.888-5.634-10.752-5.707c0 0 7.008-4.464 13.086-4.576 0 0-3.825-7.999-11.679-5.112 0 0 29.775-39.455 57.884-38.536l.033.046c12.624 18.353-24.078 66.927-32.218 77.283-5.54-2.611-16.646-9.197-21.412-21.685"/>
        <path fill="#32454C" d="M524.914 147.448c4.417 9.633 12.798 15.263 18.334 18.089 19.964-25.63 39.66-59.357 31.809-73.119-21.576.074-44.43 24.626-52.491 34.16 5.938.728 8.784 6.527 8.91 6.79a1.99 1.99 0 0 1-.093 1.89 1.94 1.94 0 0 1-1.623.938c-2.412.044-5.042.873-7.236 1.79 4.594 1.88 6.48 5.441 6.584 5.643.262.511.29 1.113.076 1.647a1.955 1.955 0 0 1-1.187 1.129l-3.083 1.043zm18.89 22.52c-.277 0-.558-.06-.821-.185-6.273-2.952-17.539-9.842-22.499-22.818a1.992 1.992 0 0 1 .055-1.548c.226-.487.64-.859 1.144-1.03l2.427-.82c-1.388-1.28-3.793-2.748-7.546-2.783a1.953 1.953 0 0 1-1.855-1.433 1.981 1.981 0 0 1 .837-2.203c.253-.16 5.234-3.296 10.656-4.461-1.117-1.135-2.752-2.246-4.872-2.246-.846 0-1.745.173-2.67.512a1.934 1.934 0 0 1-2.234-.686 1.988 1.988 0 0 1 .023-2.36c1.217-1.61 30.13-39.427 58.699-39.427.35 0 .694.005 1.038.017.59.019 1.142.307 1.492.78l.084.11c13.172 19.12-21.496 65.942-32.435 79.837a1.937 1.937 0 0 1-1.523.743zM407.539 183.779c-4.388 0-9.087-.83-13.138-3.393-.914-.577-1.17-1.763-.572-2.647.596-.884 1.82-1.132 2.735-.554 9.522 6.026 24.357.327 24.506.268 1.012-.396 2.163.076 2.573 1.055.41.98-.078 2.095-1.09 2.491-.438.172-7.234 2.78-15.014 2.78M399.188 139.826s14.73-2.09 13.518 7.5c-1.211 9.591-18.13 22.412-21.113 11.645-2.983-10.766 2.552-21.121 7.595-19.145"/>
        <path fill="#32454C" d="M397.177 142.164c-.843 0-1.834.695-2.719 1.908-2.11 2.891-3.588 8.85-1.846 15.101.663 2.382 1.999 2.688 3.087 2.688 5.368 0 13.802-8.189 14.557-14.132.176-1.392-.068-2.457-.748-3.257-1.237-1.455-4.004-2.256-7.79-2.256-1.73 0-2.983.174-2.995.176-.317.044-.64.007-.939-.11a1.64 1.64 0 0 0-.607-.118zm-1.478 23.66c-3.324 0-5.795-2.025-6.778-5.556-2.117-7.598-.285-14.806 2.47-18.58 1.64-2.249 3.695-3.487 5.786-3.487.499 0 .995.07 1.48.21.59-.063 1.704-.158 3.062-.158 3.472 0 8.142.625 10.675 3.605 1.432 1.684 1.994 3.832 1.67 6.386-1.002 7.886-11.128 17.58-18.365 17.58z"/>
        <path fill="#FFFFFE" d="M484.353 140.019s-7.401-5.454-14.284 2.53c-6.882 7.986 4.12 14.688 6.438 14.984 2.318.296 7.846-17.514 7.846-17.514"/>
        <path fill="#32454C" d="M474.567 146.636c-2.165 5.14-1.386 10.476 1.737 11.92 3.124 1.443 7.412-1.552 9.576-6.692 2.165-5.14 1.387-10.476-1.737-11.92-3.125-1.443-7.412 1.552-9.576 6.692"/>
        <path fill="#FFFFFE" d="M441.682 124.069s-5.91-3.936-10.89 3.355c-4.977 7.29 3.883 12.057 5.749 12.157 1.865.101 5.141-15.512 5.141-15.512"/>
        <path fill="#32454C" d="M434.107 130.33c-1.466 4.094-.496 8.153 2.167 9.068 2.663.914 6.01-1.664 7.477-5.757 1.467-4.094.497-8.153-2.166-9.068-2.663-.913-6.01 1.664-7.478 5.757"/>
        <path fill="#FF5C62" d="M478.424 309.463s15.864 45.012 13.171 53.543c-2.693 8.539-18.06 10.624-13.17 20.178 4.962 9.706 27.7 9.49 38.797 3.883 7.735-3.909 9-32.205 8.23-50.829"/>
        <path fill="#FFFFFE" d="M517.225 387.061c6.345-3.21 8.336-22.844 8.422-40.095-10.3-3.591-17.95-13.46-22.433-7.952-3.61 4.433-11.49-1.51-17.608-7.453 3.787 12.7 7.388 26.976 5.99 31.408-2.693 8.55-18.061 10.638-13.172 20.205 4.964 9.718 27.703 9.502 38.801 3.887"/>
        <path fill="#32454C" d="M499.008 392.332c-9.438 0-18.504-2.634-21.724-8.907-3.647-7.114 1.85-11.167 6.265-14.425 2.906-2.148 5.911-4.362 6.836-7.285 1.824-5.774-7.132-35.195-13.206-52.385a1.974 1.974 0 0 1 1.19-2.516 1.958 1.958 0 0 1 2.502 1.195c1.653 4.684 16.07 45.975 13.248 54.895-1.312 4.152-5 6.871-8.253 9.275-5.125 3.777-7.022 5.695-5.1 9.44 4.118 8.026 25.178 8.657 36.343 3.028 5.232-2.641 8.254-23.273 7.186-49.075a1.967 1.967 0 0 1 1.875-2.05c1.074-.059 1.994.802 2.039 1.886.325 7.862 1.405 47.34-9.345 52.76-5.2 2.62-12.637 4.164-19.856 4.164"/>
        <path fill="#FFFFFE" d="M608.166 363.328s4.641 12.351 0 13.898c-4.642 1.546-16.377 18.23 1.032 18.922 27.21 1.07 33.401 1.54 31.852-32.82"/>
        <path fill="#32454C" d="M621.39 399.238c-3.257 0-6.936-.145-11.094-.309l-.538-.026c-8.349-.328-10.635-4.097-11.075-7.202-.906-6.414 5.813-14.436 9.498-15.664.086-.033.237-.085.401-.42.966-2.029-.368-7.655-1.622-11.01a1.962 1.962 0 0 1 1.149-2.534 1.967 1.967 0 0 1 2.535 1.156c.605 1.608 3.515 9.847 1.492 14.088-.579 1.208-1.511 2.055-2.713 2.455-2.076.69-7.442 7.104-6.838 11.378.335 2.356 2.805 3.643 7.33 3.82l.539.02c13.38.525 21.46.847 25.446-3.158 3.593-3.617 4.71-11.416 3.968-27.829a1.977 1.977 0 0 1 1.885-2.054 1.97 1.97 0 0 1 2.056 1.884c.801 17.883-.585 26.22-5.117 30.776-3.711 3.73-9.216 4.629-17.301 4.629"/>
        <path fill="#FFFFFE" d="M676.99 362.104s4.647 13.83 0 15.368c-4.643 1.532-16.378 18.14 1.032 18.822 27.21 1.064 33.4-1.54 31.851-35.728"/>
        <path fill="#32454C" d="M686.502 397.857c-2.404 0-5.032-.072-7.922-.183-8.348-.327-10.627-4.083-11.073-7.167-.907-6.382 5.812-14.371 9.497-15.593 1.255-.418.926-6.487-1.248-12.98a1.965 1.965 0 0 1 1.248-2.483 1.973 1.973 0 0 1 2.49 1.241c1.24 3.698 4.814 15.934-1.249 17.94-2.075.692-7.441 7.074-6.837 11.32.335 2.345 2.805 3.626 7.33 3.802 13.57.536 21.215.052 25.32-4.05 4.118-4.122 5.419-12.49 4.63-29.848a1.973 1.973 0 0 1 3.941-.176c.848 18.833-.716 27.724-5.78 32.787-4.177 4.174-10.246 5.39-20.347 5.39"/>
        <path fill="#59362F" d="M575.043 297.033s-.337.978-.92 2.69c-.28.855-.527 1.924-.863 3.13-.146.609-.254 1.27-.394 1.957-.07.35-.14.7-.21 1.063-.063.363-.094.739-.151 1.12-.083.766-.229 1.556-.267 2.386-.044.83-.114 1.685-.14 2.56 0 .881.007 1.782.013 2.709.07.92.108 1.86.197 2.812.133.953.216 1.919.387 2.884.19.966.31 1.958.57 2.923.23.979.451 1.964.756 2.93.14.486.273.972.431 1.458l.489 1.439c.31.965.717 1.899 1.072 2.838.394.933.793 1.854 1.212 2.755.863 1.795 1.758 3.545 2.722 5.171a74.883 74.883 0 0 0 2.919 4.608 77.88 77.88 0 0 0 2.893 3.921 71.742 71.742 0 0 0 4.753 5.483 42.164 42.164 0 0 0 1.903 1.88l.064.051c.774.726.824 1.958.114 2.755-.71.79-1.916.842-2.69.116l-.083-.077-.552-.584c-.343-.37-.831-.907-1.434-1.613a76.013 76.013 0 0 1-4.638-6.034 75.14 75.14 0 0 1-5.52-9.216c-.908-1.75-1.726-3.61-2.513-5.522a89.21 89.21 0 0 1-1.091-2.929c-.311-.998-.68-1.983-.94-3.007l-.424-1.517c-.134-.505-.235-1.024-.356-1.53-.254-1.017-.431-2.047-.603-3.065-.209-1.01-.279-2.041-.418-3.04-.114-1.01-.146-2.008-.222-2.987-.032-.985-.026-1.95-.038-2.897.05-.94.095-1.866.146-2.76.076-.895.196-1.763.291-2.6.09-.835.286-1.633.413-2.404.076-.382.133-.758.216-1.121.095-.363.184-.72.272-1.063.184-.687.33-1.341.514-1.944.406-1.2.717-2.262 1.047-3.098.68-1.672 1.073-2.631 1.073-2.631"/>
        <path fill="#32454C" d="M658.24 354.585s.16-.195.45-.573c.296-.39.733-.977 1.26-1.745 1.074-1.53 2.533-3.79 4.108-6.622.778-1.419 1.6-2.969 2.398-4.648.816-1.674 1.588-3.477 2.36-5.359.732-1.895 1.478-3.868 2.101-5.912.663-2.038 1.216-4.141 1.723-6.257.232-1.068.463-2.13.669-3.197.174-1.074.386-2.136.52-3.197.303-2.129.521-4.238.63-6.283.13-2.05.142-4.037.104-5.918-.033-.944-.071-1.856-.11-2.742-.07-.885-.148-1.744-.212-2.565-.051-.82-.2-1.595-.283-2.344-.109-.742-.167-1.458-.302-2.116-.25-1.315-.424-2.474-.65-3.412-.436-1.875-.68-2.95-.68-2.95s.308 1.056.842 2.911c.276.925.514 2.077.835 3.386.174.651.27 1.36.425 2.103.122.749.308 1.524.411 2.344.116.827.231 1.686.354 2.572.09.892.173 1.816.263 2.767.148 1.901.238 3.913.225 5.997 0 2.09-.103 4.245-.29 6.432-.076 1.094-.243 2.188-.36 3.295-.147 1.1-.32 2.2-.5 3.308-.406 2.194-.85 4.388-1.415 6.51-.527 2.136-1.176 4.207-1.832 6.2-.688 1.978-1.382 3.886-2.128 5.657a89.986 89.986 0 0 1-2.218 4.955c-1.472 3.021-2.867 5.47-3.909 7.149a48.982 48.982 0 0 1-1.247 1.947l-.482.696a1.926 1.926 0 0 1-2.693.476 1.983 1.983 0 0 1-.47-2.728l.065-.078.038-.059"/>
        <path fill="#FF5C62" d="M649.53 235.134s4.456 10.786 11.604 13.054v-2.759s10.718 5.269 10.718 11.55c0 0 18.17-10.537 12.297-24.86"/>
        <path fill="#32454C" d="M649.53 233.85c.407.657.821 1.308 1.262 1.94.42.63.855 1.261 1.315 1.86.23.302.448.611.684.907.237.296.46.598.704.888l.723.854.757.822c.243.283.52.526.776.79.256.256.52.519.795.749.277.236.54.486.816.71l.855.638c.276.223.585.381.874.572l.434.276.46.217.454.217c.145.085.303.15.454.19l.92.316-2.084 1.525c-.052-.953-.092-1.9-.125-2.847a1.686 1.686 0 0 1 1.625-1.735c.276-.013.539.046.77.15l.098.047c.375.177.684.335 1.019.506.329.171.658.342.973.526.638.368 1.27.75 1.888 1.15a27.89 27.89 0 0 1 3.564 2.716c1.138 1.013 2.19 2.176 3.078 3.57.223.342.427.71.618 1.092.178.388.355.782.487 1.21.144.414.25.854.328 1.308.086.447.112.914.125 1.38l-2.946-1.683c.454-.276 1-.624 1.5-.96.506-.355 1.012-.703 1.499-1.078.986-.75 1.953-1.519 2.86-2.347.454-.42.915-.828 1.349-1.269.434-.427.861-.874 1.269-1.328.414-.447.802-.92 1.19-1.394.369-.48.743-.966 1.085-1.466.185-.25.336-.506.5-.763.165-.256.322-.513.467-.782.31-.52.566-1.065.835-1.611.23-.559.48-1.118.658-1.696.105-.29.19-.579.263-.875.072-.296.184-.591.224-.894l.17-.9.1-.921c.045-.316.032-.625.045-.934.007-.315.04-.63.007-.94l-.046-.953-.125-.947c-.046-.65-.25-1.262-.355-1.915l.46.87.224.442.19.458c.125.31.25.618.362.934l.276.966c.105.323.152.651.217.987.066.328.132.664.152 1.006l.085 1.019v1.032c.013.342-.04.684-.06 1.032a9.115 9.115 0 0 1-.13 1.026c-.1.684-.27 1.354-.448 2.025-.21.657-.42 1.321-.69 1.953-.125.328-.27.637-.421.953-.152.309-.29.625-.46.92-.165.303-.33.612-.5.908l-.546.88a32.233 32.233 0 0 1-1.177 1.684 30.076 30.076 0 0 1-1.29 1.584c-.447.52-.907 1.02-1.387 1.506a35.874 35.874 0 0 1-3.012 2.735 32.96 32.96 0 0 1-1.618 1.243c-.559.407-1.085.782-1.736 1.177a1.937 1.937 0 0 1-2.94-1.52l-.006-.163c-.02-.23-.026-.467-.079-.704a3.76 3.76 0 0 0-.197-.73c-.073-.243-.19-.486-.303-.736a9.454 9.454 0 0 0-.414-.743c-.605-.986-1.447-1.92-2.367-2.814-.928-.888-1.96-1.71-3.032-2.492a31.615 31.615 0 0 0-1.644-1.13l-.849-.54c-.276-.17-.578-.348-.828-.493l2.486-1.539c-.033.947-.073 1.894-.119 2.847l-.013.25a1.467 1.467 0 0 1-1.545 1.394 1.404 1.404 0 0 1-.526-.125l-1.217-.546c-.414-.164-.75-.434-1.118-.65l-.546-.349-.493-.394c-.322-.27-.67-.513-.96-.81l-.881-.874c-.277-.295-.533-.611-.803-.914-.27-.302-.5-.63-.743-.953-.23-.329-.48-.644-.69-.98-.217-.335-.428-.67-.638-1.005l-.585-1.033c-.198-.335-.362-.697-.546-1.039a17.281 17.281 0 0 1-.507-1.058c-.631-1.427-1.197-2.88-1.585-4.385"/>
        <path fill="#FFFFFE" d="M485.73 145.107c0 .763-.617 1.38-1.377 1.38s-1.377-.617-1.377-1.38c0-.763.617-1.382 1.377-1.382s1.376.62 1.376 1.382M443.059 128.533c0 .763-.616 1.38-1.377 1.38-.76 0-1.376-.617-1.376-1.38 0-.763.616-1.381 1.376-1.381.76 0 1.377.618 1.377 1.38"/>
        <path fill="#5C3F40" d="M420 188l3.665-4 4.335 4h-8zM430 179.964l2.176 2.036 2.824-5zM421 172.81l2.031 2.19 2.969-1.095v-1.797L423.5 170z"/>
        <path fill="#613D3F" d="M391 135l4.969 9.598 8.529 1.402 3.502-4.388h-7.182z"/>
    </g>
</svg>
